<?xml version="1.0" encoding="utf-8" standalone="no"?>
<!DOCTYPE svg PUBLIC "-//W3C//DTD SVG 1.1//EN"
  "http://www.w3.org/Graphics/SVG/1.1/DTD/svg11.dtd">
<svg xmlns:xlink="http://www.w3.org/1999/xlink" width="576pt" height="576pt" viewBox="0 0 576 576" xmlns="http://www.w3.org/2000/svg" version="1.1">
 <metadata>
  <rdf:RDF xmlns:dc="http://purl.org/dc/elements/1.1/" xmlns:cc="http://creativecommons.org/ns#" xmlns:rdf="http://www.w3.org/1999/02/22-rdf-syntax-ns#">
   <cc:Work>
    <dc:type rdf:resource="http://purl.org/dc/dcmitype/StillImage"/>
    <dc:date>2025-10-23T14:51:38.437005</dc:date>
    <dc:format>image/svg+xml</dc:format>
    <dc:creator>
     <cc:Agent>
      <dc:title>Matplotlib v3.10.6, https://matplotlib.org/</dc:title>
     </cc:Agent>
    </dc:creator>
   </cc:Work>
  </rdf:RDF>
 </metadata>
 <defs>
  <style type="text/css">*{stroke-linejoin: round; stroke-linecap: butt}</style>
 </defs>
 <g id="figure_1">
  <g id="patch_1">
   <path d="M 0 576 
L 576 576 
L 576 0 
L 0 0 
z
" style="fill: #ffffff"/>
  </g>
  <g id="axes_1">
   <g id="patch_2">
    <path d="M 72 512.64 
L 518.4 512.64 
L 518.4 69.12 
L 72 69.12 
z
" style="fill: #ffffff"/>
   </g>
   <g id="matplotlib.axis_1">
    <g id="xtick_1">
     <g id="line2d_1">
      <defs>
       <path id="me91b30bf10" d="M 0 0 
L 0 7 
" style="stroke: #000000; stroke-width: 2"/>
      </defs>
      <g>
       <use xlink:href="#me91b30bf10" x="80.425589" y="512.64" style="stroke: #000000; stroke-width: 2"/>
      </g>
     </g>
     <g id="text_1">
      <!-- 0 -->
      <g transform="translate(76.534027 533.723125) scale(0.14 -0.14)">
       <defs>
        <path id="Avenir-Book-30" d="M 1779 4186 
Q 1408 4186 1193 3987 
Q 979 3789 870 3494 
Q 762 3200 733 2867 
Q 704 2534 704 2266 
Q 704 1997 733 1664 
Q 762 1331 870 1036 
Q 979 742 1193 544 
Q 1408 346 1779 346 
Q 2150 346 2364 544 
Q 2579 742 2688 1036 
Q 2797 1331 2825 1664 
Q 2854 1997 2854 2266 
Q 2854 2534 2825 2867 
Q 2797 3200 2688 3494 
Q 2579 3789 2364 3987 
Q 2150 4186 1779 4186 
z
M 1779 4608 
Q 2266 4608 2566 4384 
Q 2867 4160 3033 3814 
Q 3200 3469 3257 3056 
Q 3315 2643 3315 2266 
Q 3315 1888 3257 1475 
Q 3200 1062 3033 716 
Q 2867 371 2566 147 
Q 2266 -77 1779 -77 
Q 1293 -77 992 147 
Q 691 371 524 716 
Q 358 1062 300 1475 
Q 243 1888 243 2266 
Q 243 2643 300 3056 
Q 358 3469 524 3814 
Q 691 4160 992 4384 
Q 1293 4608 1779 4608 
z
" transform="scale(0.015625)"/>
       </defs>
       <use xlink:href="#Avenir-Book-30"/>
      </g>
     </g>
    </g>
    <g id="xtick_2">
     <g id="line2d_2">
      <g>
       <use xlink:href="#me91b30bf10" x="122.553537" y="512.64" style="stroke: #000000; stroke-width: 2"/>
      </g>
     </g>
     <g id="text_2">
      <!-- 10 -->
      <g transform="translate(114.770412 533.723125) scale(0.14 -0.14)">
       <defs>
        <path id="Avenir-Book-31" d="M 2227 0 
L 1766 0 
L 1766 3955 
L 954 3238 
L 666 3584 
L 1818 4531 
L 2227 4531 
L 2227 0 
z
" transform="scale(0.015625)"/>
       </defs>
       <use xlink:href="#Avenir-Book-31"/>
       <use xlink:href="#Avenir-Book-30" transform="translate(55.599991 0)"/>
      </g>
     </g>
    </g>
    <g id="xtick_3">
     <g id="line2d_3">
      <g>
       <use xlink:href="#me91b30bf10" x="164.681484" y="512.64" style="stroke: #000000; stroke-width: 2"/>
      </g>
     </g>
     <g id="text_3">
      <!-- 20 -->
      <g transform="translate(156.898359 533.723125) scale(0.14 -0.14)">
       <defs>
        <path id="Avenir-Book-32" d="M 3187 0 
L 307 0 
L 307 531 
L 2112 2368 
Q 2214 2470 2316 2585 
Q 2419 2701 2502 2829 
Q 2586 2957 2637 3097 
Q 2688 3238 2688 3392 
Q 2688 3578 2621 3725 
Q 2554 3872 2432 3974 
Q 2310 4077 2150 4131 
Q 1990 4186 1811 4186 
Q 1466 4186 1222 3994 
Q 979 3802 909 3475 
L 422 3526 
Q 518 4032 886 4320 
Q 1254 4608 1779 4608 
Q 2054 4608 2300 4534 
Q 2547 4461 2736 4313 
Q 2925 4166 3037 3945 
Q 3149 3725 3149 3430 
Q 3149 3168 3069 2950 
Q 2989 2733 2861 2541 
Q 2733 2349 2569 2176 
Q 2406 2003 2234 1837 
L 806 422 
L 3187 422 
L 3187 0 
z
" transform="scale(0.015625)"/>
       </defs>
       <use xlink:href="#Avenir-Book-32"/>
       <use xlink:href="#Avenir-Book-30" transform="translate(55.599991 0)"/>
      </g>
     </g>
    </g>
    <g id="xtick_4">
     <g id="line2d_4">
      <g>
       <use xlink:href="#me91b30bf10" x="206.809431" y="512.64" style="stroke: #000000; stroke-width: 2"/>
      </g>
     </g>
     <g id="text_4">
      <!-- 30 -->
      <g transform="translate(199.026306 533.723125) scale(0.14 -0.14)">
       <defs>
        <path id="Avenir-Book-33" d="M 1306 2586 
L 1542 2586 
Q 1741 2586 1923 2630 
Q 2106 2675 2240 2774 
Q 2374 2874 2454 3034 
Q 2534 3194 2534 3418 
Q 2534 3782 2313 3984 
Q 2093 4186 1696 4186 
Q 1408 4186 1190 4058 
Q 973 3930 832 3686 
L 429 3891 
Q 634 4256 950 4432 
Q 1267 4608 1683 4608 
Q 1952 4608 2189 4531 
Q 2426 4454 2605 4304 
Q 2784 4154 2889 3933 
Q 2995 3712 2995 3430 
Q 2995 3245 2934 3078 
Q 2874 2912 2768 2777 
Q 2662 2643 2521 2544 
Q 2381 2445 2227 2394 
L 2246 2381 
Q 2438 2342 2598 2236 
Q 2758 2131 2873 1977 
Q 2989 1824 3053 1632 
Q 3117 1440 3117 1229 
Q 3117 915 3001 672 
Q 2886 429 2688 262 
Q 2490 96 2227 9 
Q 1965 -77 1670 -77 
Q 1171 -77 800 140 
Q 429 358 243 838 
L 730 986 
Q 845 659 1072 502 
Q 1299 346 1709 346 
Q 1901 346 2073 410 
Q 2246 474 2377 592 
Q 2509 710 2582 876 
Q 2656 1043 2656 1242 
Q 2656 1498 2560 1674 
Q 2464 1850 2304 1958 
Q 2144 2067 1936 2115 
Q 1728 2163 1504 2163 
L 1306 2163 
L 1306 2586 
z
" transform="scale(0.015625)"/>
       </defs>
       <use xlink:href="#Avenir-Book-33"/>
       <use xlink:href="#Avenir-Book-30" transform="translate(55.599991 0)"/>
      </g>
     </g>
    </g>
    <g id="xtick_5">
     <g id="line2d_5">
      <g>
       <use xlink:href="#me91b30bf10" x="248.937378" y="512.64" style="stroke: #000000; stroke-width: 2"/>
      </g>
     </g>
     <g id="text_5">
      <!-- 40 -->
      <g transform="translate(241.154253 533.723125) scale(0.14 -0.14)">
       <defs>
        <path id="Avenir-Book-34" d="M 2202 4070 
L 2189 4070 
L 627 1498 
L 2202 1498 
L 2202 4070 
z
M 2662 1498 
L 3315 1498 
L 3315 1075 
L 2662 1075 
L 2662 0 
L 2202 0 
L 2202 1075 
L 243 1075 
L 243 1600 
L 2074 4531 
L 2662 4531 
L 2662 1498 
z
" transform="scale(0.015625)"/>
       </defs>
       <use xlink:href="#Avenir-Book-34"/>
       <use xlink:href="#Avenir-Book-30" transform="translate(55.599991 0)"/>
      </g>
     </g>
    </g>
    <g id="xtick_6">
     <g id="line2d_6">
      <g>
       <use xlink:href="#me91b30bf10" x="291.065326" y="512.64" style="stroke: #000000; stroke-width: 2"/>
      </g>
     </g>
     <g id="text_6">
      <!-- 50 -->
      <g transform="translate(283.282201 533.723125) scale(0.14 -0.14)">
       <defs>
        <path id="Avenir-Book-35" d="M 2976 4109 
L 1120 4109 
L 1094 2746 
Q 1242 2803 1395 2828 
Q 1549 2854 1702 2854 
Q 2022 2854 2284 2745 
Q 2547 2637 2736 2441 
Q 2925 2246 3030 1980 
Q 3136 1715 3136 1402 
Q 3136 1075 3021 803 
Q 2906 531 2701 336 
Q 2496 141 2217 32 
Q 1939 -77 1613 -77 
Q 1184 -77 838 128 
Q 493 333 307 730 
L 762 928 
Q 890 659 1120 502 
Q 1350 346 1651 346 
Q 1869 346 2054 426 
Q 2240 506 2377 640 
Q 2515 774 2595 960 
Q 2675 1146 2675 1357 
Q 2675 1594 2592 1792 
Q 2509 1990 2361 2134 
Q 2214 2278 2009 2355 
Q 1805 2432 1562 2432 
Q 1318 2432 1078 2365 
Q 838 2298 621 2182 
L 666 4531 
L 2976 4531 
L 2976 4109 
z
" transform="scale(0.015625)"/>
       </defs>
       <use xlink:href="#Avenir-Book-35"/>
       <use xlink:href="#Avenir-Book-30" transform="translate(55.599991 0)"/>
      </g>
     </g>
    </g>
    <g id="xtick_7">
     <g id="line2d_7">
      <g>
       <use xlink:href="#me91b30bf10" x="333.193273" y="512.64" style="stroke: #000000; stroke-width: 2"/>
      </g>
     </g>
     <g id="text_7">
      <!-- 60 -->
      <g transform="translate(325.410148 533.723125) scale(0.14 -0.14)">
       <defs>
        <path id="Avenir-Book-36" d="M 768 1325 
Q 768 1107 841 928 
Q 915 749 1049 617 
Q 1184 486 1369 416 
Q 1555 346 1779 346 
Q 2003 346 2188 416 
Q 2374 486 2508 617 
Q 2643 749 2716 928 
Q 2790 1107 2790 1325 
Q 2790 1542 2716 1721 
Q 2643 1901 2508 2029 
Q 2374 2157 2188 2230 
Q 2003 2304 1779 2304 
Q 1555 2304 1369 2230 
Q 1184 2157 1049 2029 
Q 915 1901 841 1721 
Q 768 1542 768 1325 
z
M 1229 2586 
L 1242 2573 
Q 1350 2650 1532 2688 
Q 1715 2726 1869 2726 
Q 2163 2726 2416 2620 
Q 2669 2515 2854 2329 
Q 3040 2144 3145 1888 
Q 3251 1632 3251 1325 
Q 3251 1011 3142 755 
Q 3034 499 2835 313 
Q 2637 128 2368 25 
Q 2099 -77 1779 -77 
Q 1459 -77 1190 25 
Q 922 128 723 313 
Q 525 499 416 755 
Q 307 1011 307 1325 
Q 307 1702 419 1984 
Q 531 2266 698 2541 
L 1920 4531 
L 2464 4531 
L 1229 2586 
z
" transform="scale(0.015625)"/>
       </defs>
       <use xlink:href="#Avenir-Book-36"/>
       <use xlink:href="#Avenir-Book-30" transform="translate(55.599991 0)"/>
      </g>
     </g>
    </g>
    <g id="xtick_8">
     <g id="line2d_8">
      <g>
       <use xlink:href="#me91b30bf10" x="375.32122" y="512.64" style="stroke: #000000; stroke-width: 2"/>
      </g>
     </g>
     <g id="text_8">
      <!-- 70 -->
      <g transform="translate(367.538095 533.723125) scale(0.14 -0.14)">
       <defs>
        <path id="Avenir-Book-37" d="M 3034 4109 
L 1210 0 
L 691 0 
L 2554 4109 
L 346 4109 
L 346 4531 
L 3034 4531 
L 3034 4109 
z
" transform="scale(0.015625)"/>
       </defs>
       <use xlink:href="#Avenir-Book-37"/>
       <use xlink:href="#Avenir-Book-30" transform="translate(55.599991 0)"/>
      </g>
     </g>
    </g>
    <g id="xtick_9">
     <g id="line2d_9">
      <g>
       <use xlink:href="#me91b30bf10" x="417.449167" y="512.64" style="stroke: #000000; stroke-width: 2"/>
      </g>
     </g>
     <g id="text_9">
      <!-- 80 -->
      <g transform="translate(409.666042 533.723125) scale(0.14 -0.14)">
       <defs>
        <path id="Avenir-Book-38" d="M 2752 1274 
Q 2752 1472 2681 1641 
Q 2611 1811 2486 1936 
Q 2362 2061 2179 2131 
Q 1997 2202 1779 2202 
Q 1555 2202 1376 2131 
Q 1197 2061 1072 1936 
Q 947 1811 876 1641 
Q 806 1472 806 1274 
Q 806 1075 876 905 
Q 947 736 1072 611 
Q 1197 486 1376 416 
Q 1555 346 1779 346 
Q 1997 346 2179 416 
Q 2362 486 2486 611 
Q 2611 736 2681 905 
Q 2752 1075 2752 1274 
z
M 2586 3386 
Q 2586 3558 2525 3705 
Q 2464 3853 2355 3958 
Q 2246 4064 2099 4125 
Q 1952 4186 1779 4186 
Q 1606 4186 1459 4125 
Q 1312 4064 1203 3958 
Q 1094 3853 1033 3705 
Q 973 3558 973 3386 
Q 973 3213 1033 3065 
Q 1094 2918 1203 2812 
Q 1312 2707 1459 2646 
Q 1606 2586 1779 2586 
Q 1952 2586 2099 2646 
Q 2246 2707 2355 2812 
Q 2464 2918 2525 3065 
Q 2586 3213 2586 3386 
z
M 1190 2413 
Q 1043 2464 918 2563 
Q 794 2662 704 2796 
Q 614 2931 563 3091 
Q 512 3251 512 3424 
Q 512 3693 614 3913 
Q 717 4134 889 4288 
Q 1062 4442 1292 4525 
Q 1523 4608 1779 4608 
Q 2035 4608 2265 4525 
Q 2496 4442 2669 4288 
Q 2842 4134 2944 3913 
Q 3046 3693 3046 3424 
Q 3046 3251 2995 3091 
Q 2944 2931 2854 2796 
Q 2765 2662 2640 2563 
Q 2515 2464 2368 2413 
L 2368 2400 
Q 2752 2298 2982 1978 
Q 3213 1658 3213 1210 
Q 3213 915 3094 678 
Q 2976 442 2781 272 
Q 2586 102 2326 12 
Q 2067 -77 1779 -77 
Q 1491 -77 1232 12 
Q 973 102 777 272 
Q 582 442 464 678 
Q 346 915 346 1210 
Q 346 1658 576 1978 
Q 806 2298 1190 2400 
L 1190 2413 
z
" transform="scale(0.015625)"/>
       </defs>
       <use xlink:href="#Avenir-Book-38"/>
       <use xlink:href="#Avenir-Book-30" transform="translate(55.599991 0)"/>
      </g>
     </g>
    </g>
    <g id="xtick_10">
     <g id="line2d_10">
      <g>
       <use xlink:href="#me91b30bf10" x="459.577114" y="512.64" style="stroke: #000000; stroke-width: 2"/>
      </g>
     </g>
     <g id="text_10">
      <!-- 90 -->
      <g transform="translate(451.793989 533.723125) scale(0.14 -0.14)">
       <defs>
        <path id="Avenir-Book-39" d="M 2790 3206 
Q 2790 3424 2716 3603 
Q 2643 3782 2508 3910 
Q 2374 4038 2188 4112 
Q 2003 4186 1779 4186 
Q 1555 4186 1369 4112 
Q 1184 4038 1049 3910 
Q 915 3782 841 3603 
Q 768 3424 768 3206 
Q 768 2989 841 2809 
Q 915 2630 1049 2499 
Q 1184 2368 1369 2297 
Q 1555 2227 1779 2227 
Q 2003 2227 2188 2297 
Q 2374 2368 2508 2499 
Q 2643 2630 2716 2809 
Q 2790 2989 2790 3206 
z
M 2330 1946 
L 2317 1958 
Q 2208 1882 2025 1843 
Q 1843 1805 1690 1805 
Q 1395 1805 1142 1910 
Q 890 2016 704 2201 
Q 518 2387 412 2643 
Q 307 2899 307 3206 
Q 307 3520 416 3776 
Q 525 4032 723 4217 
Q 922 4403 1190 4505 
Q 1459 4608 1779 4608 
Q 2099 4608 2368 4505 
Q 2637 4403 2835 4217 
Q 3034 4032 3142 3776 
Q 3251 3520 3251 3206 
Q 3251 2829 3139 2547 
Q 3027 2266 2861 1990 
L 1638 0 
L 1094 0 
L 2330 1946 
z
" transform="scale(0.015625)"/>
       </defs>
       <use xlink:href="#Avenir-Book-39"/>
       <use xlink:href="#Avenir-Book-30" transform="translate(55.599991 0)"/>
      </g>
     </g>
    </g>
    <g id="xtick_11">
     <g id="line2d_11">
      <g>
       <use xlink:href="#me91b30bf10" x="501.705062" y="512.64" style="stroke: #000000; stroke-width: 2"/>
      </g>
     </g>
     <g id="text_11">
      <!-- 100 -->
      <g transform="translate(490.030374 533.723125) scale(0.14 -0.14)">
       <use xlink:href="#Avenir-Book-31"/>
       <use xlink:href="#Avenir-Book-30" transform="translate(55.599991 0)"/>
       <use xlink:href="#Avenir-Book-30" transform="translate(111.199982 0)"/>
      </g>
     </g>
    </g>
    <g id="xtick_12">
     <g id="line2d_12">
      <defs>
       <path id="m92db1d61be" d="M 0 0 
L 0 4 
" style="stroke: #000000; stroke-width: 2"/>
      </defs>
      <g>
       <use xlink:href="#m92db1d61be" x="90.957576" y="512.64" style="stroke: #000000; stroke-width: 2"/>
      </g>
     </g>
    </g>
    <g id="xtick_13">
     <g id="line2d_13">
      <g>
       <use xlink:href="#m92db1d61be" x="101.489563" y="512.64" style="stroke: #000000; stroke-width: 2"/>
      </g>
     </g>
    </g>
    <g id="xtick_14">
     <g id="line2d_14">
      <g>
       <use xlink:href="#m92db1d61be" x="112.02155" y="512.64" style="stroke: #000000; stroke-width: 2"/>
      </g>
     </g>
    </g>
    <g id="xtick_15">
     <g id="line2d_15">
      <g>
       <use xlink:href="#m92db1d61be" x="133.085523" y="512.64" style="stroke: #000000; stroke-width: 2"/>
      </g>
     </g>
    </g>
    <g id="xtick_16">
     <g id="line2d_16">
      <g>
       <use xlink:href="#m92db1d61be" x="143.61751" y="512.64" style="stroke: #000000; stroke-width: 2"/>
      </g>
     </g>
    </g>
    <g id="xtick_17">
     <g id="line2d_17">
      <g>
       <use xlink:href="#m92db1d61be" x="154.149497" y="512.64" style="stroke: #000000; stroke-width: 2"/>
      </g>
     </g>
    </g>
    <g id="xtick_18">
     <g id="line2d_18">
      <g>
       <use xlink:href="#m92db1d61be" x="175.213471" y="512.64" style="stroke: #000000; stroke-width: 2"/>
      </g>
     </g>
    </g>
    <g id="xtick_19">
     <g id="line2d_19">
      <g>
       <use xlink:href="#m92db1d61be" x="185.745457" y="512.64" style="stroke: #000000; stroke-width: 2"/>
      </g>
     </g>
    </g>
    <g id="xtick_20">
     <g id="line2d_20">
      <g>
       <use xlink:href="#m92db1d61be" x="196.277444" y="512.64" style="stroke: #000000; stroke-width: 2"/>
      </g>
     </g>
    </g>
    <g id="xtick_21">
     <g id="line2d_21">
      <g>
       <use xlink:href="#m92db1d61be" x="217.341418" y="512.64" style="stroke: #000000; stroke-width: 2"/>
      </g>
     </g>
    </g>
    <g id="xtick_22">
     <g id="line2d_22">
      <g>
       <use xlink:href="#m92db1d61be" x="227.873405" y="512.64" style="stroke: #000000; stroke-width: 2"/>
      </g>
     </g>
    </g>
    <g id="xtick_23">
     <g id="line2d_23">
      <g>
       <use xlink:href="#m92db1d61be" x="238.405391" y="512.64" style="stroke: #000000; stroke-width: 2"/>
      </g>
     </g>
    </g>
    <g id="xtick_24">
     <g id="line2d_24">
      <g>
       <use xlink:href="#m92db1d61be" x="259.469365" y="512.64" style="stroke: #000000; stroke-width: 2"/>
      </g>
     </g>
    </g>
    <g id="xtick_25">
     <g id="line2d_25">
      <g>
       <use xlink:href="#m92db1d61be" x="270.001352" y="512.64" style="stroke: #000000; stroke-width: 2"/>
      </g>
     </g>
    </g>
    <g id="xtick_26">
     <g id="line2d_26">
      <g>
       <use xlink:href="#m92db1d61be" x="280.533339" y="512.64" style="stroke: #000000; stroke-width: 2"/>
      </g>
     </g>
    </g>
    <g id="xtick_27">
     <g id="line2d_27">
      <g>
       <use xlink:href="#m92db1d61be" x="301.597312" y="512.64" style="stroke: #000000; stroke-width: 2"/>
      </g>
     </g>
    </g>
    <g id="xtick_28">
     <g id="line2d_28">
      <g>
       <use xlink:href="#m92db1d61be" x="312.129299" y="512.64" style="stroke: #000000; stroke-width: 2"/>
      </g>
     </g>
    </g>
    <g id="xtick_29">
     <g id="line2d_29">
      <g>
       <use xlink:href="#m92db1d61be" x="322.661286" y="512.64" style="stroke: #000000; stroke-width: 2"/>
      </g>
     </g>
    </g>
    <g id="xtick_30">
     <g id="line2d_30">
      <g>
       <use xlink:href="#m92db1d61be" x="343.72526" y="512.64" style="stroke: #000000; stroke-width: 2"/>
      </g>
     </g>
    </g>
    <g id="xtick_31">
     <g id="line2d_31">
      <g>
       <use xlink:href="#m92db1d61be" x="354.257246" y="512.64" style="stroke: #000000; stroke-width: 2"/>
      </g>
     </g>
    </g>
    <g id="xtick_32">
     <g id="line2d_32">
      <g>
       <use xlink:href="#m92db1d61be" x="364.789233" y="512.64" style="stroke: #000000; stroke-width: 2"/>
      </g>
     </g>
    </g>
    <g id="xtick_33">
     <g id="line2d_33">
      <g>
       <use xlink:href="#m92db1d61be" x="385.853207" y="512.64" style="stroke: #000000; stroke-width: 2"/>
      </g>
     </g>
    </g>
    <g id="xtick_34">
     <g id="line2d_34">
      <g>
       <use xlink:href="#m92db1d61be" x="396.385194" y="512.64" style="stroke: #000000; stroke-width: 2"/>
      </g>
     </g>
    </g>
    <g id="xtick_35">
     <g id="line2d_35">
      <g>
       <use xlink:href="#m92db1d61be" x="406.91718" y="512.64" style="stroke: #000000; stroke-width: 2"/>
      </g>
     </g>
    </g>
    <g id="xtick_36">
     <g id="line2d_36">
      <g>
       <use xlink:href="#m92db1d61be" x="427.981154" y="512.64" style="stroke: #000000; stroke-width: 2"/>
      </g>
     </g>
    </g>
    <g id="xtick_37">
     <g id="line2d_37">
      <g>
       <use xlink:href="#m92db1d61be" x="438.513141" y="512.64" style="stroke: #000000; stroke-width: 2"/>
      </g>
     </g>
    </g>
    <g id="xtick_38">
     <g id="line2d_38">
      <g>
       <use xlink:href="#m92db1d61be" x="449.045128" y="512.64" style="stroke: #000000; stroke-width: 2"/>
      </g>
     </g>
    </g>
    <g id="xtick_39">
     <g id="line2d_39">
      <g>
       <use xlink:href="#m92db1d61be" x="470.109101" y="512.64" style="stroke: #000000; stroke-width: 2"/>
      </g>
     </g>
    </g>
    <g id="xtick_40">
     <g id="line2d_40">
      <g>
       <use xlink:href="#m92db1d61be" x="480.641088" y="512.64" style="stroke: #000000; stroke-width: 2"/>
      </g>
     </g>
    </g>
    <g id="xtick_41">
     <g id="line2d_41">
      <g>
       <use xlink:href="#m92db1d61be" x="491.173075" y="512.64" style="stroke: #000000; stroke-width: 2"/>
      </g>
     </g>
    </g>
    <g id="xtick_42">
     <g id="line2d_42">
      <g>
       <use xlink:href="#m92db1d61be" x="512.237048" y="512.64" style="stroke: #000000; stroke-width: 2"/>
      </g>
     </g>
    </g>
    <g id="text_12">
     <!-- Distance from Rim µm -->
     <g transform="translate(196.857812 556.873438) scale(0.2 -0.2)">
      <defs>
       <path id="Avenir-Book-44" d="M 1011 422 
L 1907 422 
Q 2426 422 2806 579 
Q 3187 736 3440 995 
Q 3693 1254 3814 1584 
Q 3936 1914 3936 2266 
Q 3936 2618 3814 2947 
Q 3693 3277 3440 3536 
Q 3187 3795 2806 3952 
Q 2426 4109 1907 4109 
L 1011 4109 
L 1011 422 
z
M 550 4531 
L 2054 4531 
Q 2477 4531 2902 4390 
Q 3328 4250 3670 3965 
Q 4013 3680 4224 3254 
Q 4435 2829 4435 2266 
Q 4435 1696 4224 1273 
Q 4013 851 3670 566 
Q 3328 282 2902 141 
Q 2477 0 2054 0 
L 550 0 
L 550 4531 
z
" transform="scale(0.015625)"/>
       <path id="Avenir-Book-69" d="M 1075 4147 
Q 1075 4013 979 3926 
Q 883 3840 768 3840 
Q 653 3840 557 3926 
Q 461 4013 461 4147 
Q 461 4282 557 4368 
Q 653 4454 768 4454 
Q 883 4454 979 4368 
Q 1075 4282 1075 4147 
z
M 979 0 
L 557 0 
L 557 2995 
L 979 2995 
L 979 0 
z
" transform="scale(0.015625)"/>
       <path id="Avenir-Book-73" d="M 2048 2285 
Q 1952 2470 1792 2579 
Q 1632 2688 1402 2688 
Q 1293 2688 1181 2662 
Q 1069 2637 979 2582 
Q 890 2528 835 2445 
Q 781 2362 781 2240 
Q 781 2029 928 1933 
Q 1075 1837 1370 1766 
L 1798 1664 
Q 2112 1594 2320 1379 
Q 2528 1165 2528 845 
Q 2528 602 2429 426 
Q 2330 250 2166 138 
Q 2003 26 1792 -25 
Q 1581 -77 1363 -77 
Q 1018 -77 720 54 
Q 422 186 211 506 
L 576 755 
Q 704 550 899 428 
Q 1094 307 1363 307 
Q 1491 307 1619 336 
Q 1747 365 1846 425 
Q 1946 486 2006 582 
Q 2067 678 2067 806 
Q 2067 1030 1900 1129 
Q 1734 1229 1498 1286 
L 1088 1382 
Q 1011 1402 880 1446 
Q 749 1491 624 1580 
Q 499 1670 409 1814 
Q 320 1958 320 2170 
Q 320 2400 413 2573 
Q 506 2746 662 2854 
Q 819 2963 1017 3017 
Q 1216 3072 1427 3072 
Q 1741 3072 2009 2950 
Q 2278 2829 2426 2534 
L 2048 2285 
z
" transform="scale(0.015625)"/>
       <path id="Avenir-Book-74" d="M 2010 2611 
L 1146 2611 
L 1146 845 
Q 1146 678 1178 572 
Q 1210 467 1267 409 
Q 1325 352 1405 329 
Q 1485 307 1581 307 
Q 1690 307 1805 339 
Q 1920 371 2016 422 
L 2035 32 
Q 1798 -77 1466 -77 
Q 1344 -77 1213 -45 
Q 1082 -13 973 76 
Q 864 166 793 320 
Q 723 474 723 723 
L 723 2611 
L 90 2611 
L 90 2995 
L 723 2995 
L 723 3840 
L 1146 3840 
L 1146 2995 
L 2010 2995 
L 2010 2611 
z
" transform="scale(0.015625)"/>
       <path id="Avenir-Book-61" d="M 2163 1491 
Q 2003 1491 1763 1475 
Q 1523 1459 1302 1398 
Q 1082 1338 925 1210 
Q 768 1082 768 858 
Q 768 710 829 604 
Q 890 499 992 432 
Q 1094 365 1219 336 
Q 1344 307 1472 307 
Q 1702 307 1872 384 
Q 2042 461 2157 592 
Q 2272 723 2326 899 
Q 2381 1075 2381 1274 
L 2381 1491 
L 2163 1491 
z
M 2381 1837 
L 2381 1914 
Q 2381 2688 1613 2688 
Q 1088 2688 698 2336 
L 442 2637 
Q 864 3072 1709 3072 
Q 1926 3072 2128 3008 
Q 2330 2944 2477 2813 
Q 2624 2682 2713 2483 
Q 2803 2285 2803 2010 
L 2803 672 
Q 2803 499 2819 310 
Q 2835 122 2854 0 
L 2445 0 
Q 2426 109 2416 237 
Q 2406 365 2406 486 
L 2394 486 
Q 2208 186 1955 54 
Q 1702 -77 1338 -77 
Q 1139 -77 953 -22 
Q 768 32 624 144 
Q 480 256 393 419 
Q 307 582 307 800 
Q 307 1165 496 1373 
Q 685 1581 969 1683 
Q 1254 1786 1577 1811 
Q 1901 1837 2170 1837 
L 2381 1837 
z
" transform="scale(0.015625)"/>
       <path id="Avenir-Book-6e" d="M 864 2995 
Q 877 2874 880 2755 
Q 883 2637 883 2515 
L 896 2515 
Q 966 2637 1075 2739 
Q 1184 2842 1318 2915 
Q 1453 2989 1603 3030 
Q 1754 3072 1901 3072 
Q 2477 3072 2752 2768 
Q 3027 2464 3027 1901 
L 3027 0 
L 2605 0 
L 2605 1658 
Q 2605 2157 2432 2422 
Q 2259 2688 1792 2688 
Q 1760 2688 1613 2662 
Q 1466 2637 1302 2521 
Q 1139 2406 1011 2176 
Q 883 1946 883 1536 
L 883 0 
L 461 0 
L 461 2336 
Q 461 2458 451 2643 
Q 442 2829 429 2995 
L 864 2995 
z
" transform="scale(0.015625)"/>
       <path id="Avenir-Book-63" d="M 2643 2291 
Q 2534 2458 2339 2573 
Q 2144 2688 1894 2688 
Q 1632 2694 1424 2604 
Q 1216 2515 1069 2355 
Q 922 2195 845 1974 
Q 768 1754 768 1498 
Q 768 1242 845 1021 
Q 922 800 1069 640 
Q 1216 480 1424 390 
Q 1632 301 1894 307 
Q 2144 307 2339 422 
Q 2534 538 2643 704 
L 2989 442 
Q 2765 179 2483 54 
Q 2202 -70 1894 -77 
Q 1530 -83 1235 35 
Q 941 154 733 365 
Q 525 576 416 867 
Q 307 1158 307 1498 
Q 307 1837 416 2128 
Q 525 2419 733 2630 
Q 941 2842 1235 2960 
Q 1530 3078 1894 3072 
Q 2202 3066 2483 2941 
Q 2765 2816 2989 2554 
L 2643 2291 
z
" transform="scale(0.015625)"/>
       <path id="Avenir-Book-65" d="M 2790 1728 
Q 2790 2157 2534 2422 
Q 2278 2688 1818 2688 
Q 1613 2688 1421 2608 
Q 1229 2528 1085 2393 
Q 941 2259 854 2086 
Q 768 1914 768 1728 
L 2790 1728 
z
M 755 1382 
Q 774 1158 864 960 
Q 954 762 1101 618 
Q 1248 474 1440 390 
Q 1632 307 1856 307 
Q 2195 307 2441 464 
Q 2688 621 2816 826 
L 3142 557 
Q 2874 218 2550 70 
Q 2227 -77 1856 -77 
Q 1523 -77 1238 41 
Q 954 160 749 371 
Q 544 582 425 870 
Q 307 1158 307 1498 
Q 307 1837 422 2125 
Q 538 2413 742 2624 
Q 947 2835 1222 2953 
Q 1498 3072 1818 3072 
Q 2157 3072 2425 2950 
Q 2694 2829 2876 2627 
Q 3059 2426 3155 2154 
Q 3251 1882 3251 1574 
L 3251 1382 
L 755 1382 
z
" transform="scale(0.015625)"/>
       <path id="Avenir-Book-20" transform="scale(0.015625)"/>
       <path id="Avenir-Book-66" d="M 1856 2611 
L 1146 2611 
L 1146 0 
L 723 0 
L 723 2611 
L 90 2611 
L 90 2995 
L 723 2995 
L 723 3814 
Q 723 4410 998 4662 
Q 1274 4915 1728 4915 
Q 1818 4915 1910 4902 
Q 2003 4890 2093 4870 
L 2016 4486 
Q 1939 4506 1856 4518 
Q 1773 4531 1690 4531 
Q 1517 4531 1408 4473 
Q 1299 4416 1241 4310 
Q 1184 4205 1165 4064 
Q 1146 3923 1146 3763 
L 1146 2995 
L 1856 2995 
L 1856 2611 
z
" transform="scale(0.015625)"/>
       <path id="Avenir-Book-72" d="M 506 2061 
Q 506 2259 496 2464 
Q 486 2669 480 2995 
L 896 2995 
L 896 2438 
L 909 2438 
Q 954 2560 1037 2672 
Q 1120 2784 1238 2873 
Q 1357 2963 1513 3017 
Q 1670 3072 1869 3072 
Q 2048 3072 2182 3034 
L 2099 2618 
Q 2016 2650 1856 2650 
Q 1613 2650 1440 2557 
Q 1267 2464 1152 2320 
Q 1037 2176 982 2009 
Q 928 1843 928 1690 
L 928 0 
L 506 0 
L 506 2061 
z
" transform="scale(0.015625)"/>
       <path id="Avenir-Book-6f" d="M 3027 1498 
Q 3027 1747 2947 1964 
Q 2867 2182 2720 2342 
Q 2573 2502 2365 2595 
Q 2157 2688 1894 2688 
Q 1632 2688 1424 2595 
Q 1216 2502 1072 2342 
Q 928 2182 848 1964 
Q 768 1747 768 1498 
Q 768 1248 848 1030 
Q 928 813 1072 653 
Q 1216 493 1424 400 
Q 1632 307 1894 307 
Q 2157 307 2365 400 
Q 2573 493 2720 653 
Q 2867 813 2947 1030 
Q 3027 1248 3027 1498 
z
M 3488 1498 
Q 3488 1158 3369 870 
Q 3251 582 3040 371 
Q 2829 160 2537 41 
Q 2246 -77 1894 -77 
Q 1549 -77 1257 41 
Q 966 160 755 371 
Q 544 582 425 870 
Q 307 1158 307 1498 
Q 307 1837 425 2125 
Q 544 2413 755 2624 
Q 966 2835 1257 2953 
Q 1549 3072 1894 3072 
Q 2246 3072 2537 2953 
Q 2829 2835 3040 2624 
Q 3251 2413 3369 2125 
Q 3488 1837 3488 1498 
z
" transform="scale(0.015625)"/>
       <path id="Avenir-Book-6d" d="M 461 2330 
Q 461 2496 451 2662 
Q 442 2829 429 2995 
L 883 2995 
L 883 2541 
L 896 2541 
Q 1050 2803 1322 2937 
Q 1594 3072 1862 3072 
Q 1984 3072 2121 3046 
Q 2259 3021 2387 2953 
Q 2515 2886 2627 2764 
Q 2739 2643 2816 2451 
Q 2944 2739 3222 2905 
Q 3501 3072 3802 3072 
Q 4378 3072 4653 2768 
Q 4928 2464 4928 1901 
L 4928 0 
L 4506 0 
L 4506 1747 
Q 4506 2202 4346 2445 
Q 4186 2688 3750 2688 
Q 3514 2688 3354 2595 
Q 3194 2502 3094 2348 
Q 2995 2195 2950 2000 
Q 2906 1805 2906 1594 
L 2906 0 
L 2483 0 
L 2483 1747 
Q 2483 2202 2323 2445 
Q 2163 2688 1728 2688 
Q 1690 2688 1552 2662 
Q 1414 2637 1267 2521 
Q 1120 2406 1001 2176 
Q 883 1946 883 1536 
L 883 0 
L 461 0 
L 461 2330 
z
" transform="scale(0.015625)"/>
       <path id="Avenir-Book-52" d="M 1075 2528 
L 1894 2528 
Q 2202 2528 2416 2592 
Q 2630 2656 2758 2761 
Q 2886 2867 2944 3011 
Q 3002 3155 3002 3322 
Q 3002 3482 2944 3626 
Q 2886 3770 2758 3878 
Q 2630 3987 2416 4048 
Q 2202 4109 1894 4109 
L 1075 4109 
L 1075 2528 
z
M 1075 0 
L 614 0 
L 614 4531 
L 2010 4531 
Q 2701 4531 3101 4230 
Q 3501 3930 3501 3322 
Q 3501 2848 3203 2525 
Q 2906 2202 2342 2150 
L 3648 0 
L 3085 0 
L 1843 2106 
L 1075 2106 
L 1075 0 
z
" transform="scale(0.015625)"/>
       <path id="Avenir-Book-b5" d="M 461 2995 
L 883 2995 
L 883 1338 
Q 883 787 1059 547 
Q 1235 307 1696 307 
Q 1888 307 2054 384 
Q 2221 461 2342 608 
Q 2464 755 2534 969 
Q 2605 1184 2605 1459 
L 2605 2995 
L 3027 2995 
L 3027 659 
Q 3027 493 3036 329 
Q 3046 166 3059 0 
L 2605 0 
L 2605 486 
L 2592 486 
Q 2522 371 2413 268 
Q 2304 166 2169 89 
Q 2035 13 1884 -32 
Q 1734 -77 1587 -77 
Q 1146 -77 883 109 
L 883 -1459 
L 461 -1459 
L 461 2995 
z
" transform="scale(0.015625)"/>
      </defs>
      <use xlink:href="#Avenir-Book-44"/>
      <use xlink:href="#Avenir-Book-69" transform="translate(74.099991 0)"/>
      <use xlink:href="#Avenir-Book-73" transform="translate(98.099976 0)"/>
      <use xlink:href="#Avenir-Book-74" transform="translate(140.699966 0)"/>
      <use xlink:href="#Avenir-Book-61" transform="translate(173.899963 0)"/>
      <use xlink:href="#Avenir-Book-6e" transform="translate(225.799957 0)"/>
      <use xlink:href="#Avenir-Book-63" transform="translate(281.399948 0)"/>
      <use xlink:href="#Avenir-Book-65" transform="translate(329.599945 0)"/>
      <use xlink:href="#Avenir-Book-20" transform="translate(385.199936 0)"/>
      <use xlink:href="#Avenir-Book-66" transform="translate(412.999924 0)"/>
      <use xlink:href="#Avenir-Book-72" transform="translate(442.599915 0)"/>
      <use xlink:href="#Avenir-Book-6f" transform="translate(474.049911 0)"/>
      <use xlink:href="#Avenir-Book-6d" transform="translate(533.349899 0)"/>
      <use xlink:href="#Avenir-Book-20" transform="translate(618.549881 0)"/>
      <use xlink:href="#Avenir-Book-52" transform="translate(646.349869 0)"/>
      <use xlink:href="#Avenir-Book-69" transform="translate(705.649857 0)"/>
      <use xlink:href="#Avenir-Book-6d" transform="translate(729.649841 0)"/>
      <use xlink:href="#Avenir-Book-20" transform="translate(814.849823 0)"/>
      <use xlink:href="#Avenir-Book-b5" transform="translate(842.649811 0)"/>
      <use xlink:href="#Avenir-Book-6d" transform="translate(898.249802 0)"/>
     </g>
    </g>
   </g>
   <g id="matplotlib.axis_2">
    <g id="ytick_1">
     <g id="line2d_43">
      <defs>
       <path id="m63852855b8" d="M 0 0 
L -7 0 
" style="stroke: #000000; stroke-width: 2"/>
      </defs>
      <g>
       <use xlink:href="#m63852855b8" x="72" y="505.795337" style="stroke: #000000; stroke-width: 2"/>
      </g>
     </g>
     <g id="text_13">
      <!-- 89.5 -->
      <g transform="translate(34.259062 511.0869) scale(0.14 -0.14)">
       <defs>
        <path id="Avenir-Book-2e" d="M 1235 307 
Q 1235 173 1139 67 
Q 1043 -38 890 -38 
Q 736 -38 640 67 
Q 544 173 544 307 
Q 544 442 640 547 
Q 736 653 890 653 
Q 1043 653 1139 547 
Q 1235 442 1235 307 
z
" transform="scale(0.015625)"/>
       </defs>
       <use xlink:href="#Avenir-Book-38"/>
       <use xlink:href="#Avenir-Book-39" transform="translate(55.599991 0)"/>
       <use xlink:href="#Avenir-Book-2e" transform="translate(111.199982 0)"/>
       <use xlink:href="#Avenir-Book-35" transform="translate(138.999969 0)"/>
      </g>
     </g>
    </g>
    <g id="ytick_2">
     <g id="line2d_44">
      <g>
       <use xlink:href="#m63852855b8" x="72" y="446.293146" style="stroke: #000000; stroke-width: 2"/>
      </g>
     </g>
     <g id="text_14">
      <!-- 90.0 -->
      <g transform="translate(34.259062 451.584709) scale(0.14 -0.14)">
       <use xlink:href="#Avenir-Book-39"/>
       <use xlink:href="#Avenir-Book-30" transform="translate(55.599991 0)"/>
       <use xlink:href="#Avenir-Book-2e" transform="translate(111.199982 0)"/>
       <use xlink:href="#Avenir-Book-30" transform="translate(138.999969 0)"/>
      </g>
     </g>
    </g>
    <g id="ytick_3">
     <g id="line2d_45">
      <g>
       <use xlink:href="#m63852855b8" x="72" y="386.790955" style="stroke: #000000; stroke-width: 2"/>
      </g>
     </g>
     <g id="text_15">
      <!-- 90.5 -->
      <g transform="translate(34.259062 392.082518) scale(0.14 -0.14)">
       <use xlink:href="#Avenir-Book-39"/>
       <use xlink:href="#Avenir-Book-30" transform="translate(55.599991 0)"/>
       <use xlink:href="#Avenir-Book-2e" transform="translate(111.199982 0)"/>
       <use xlink:href="#Avenir-Book-35" transform="translate(138.999969 0)"/>
      </g>
     </g>
    </g>
    <g id="ytick_4">
     <g id="line2d_46">
      <g>
       <use xlink:href="#m63852855b8" x="72" y="327.288764" style="stroke: #000000; stroke-width: 2"/>
      </g>
     </g>
     <g id="text_16">
      <!-- 91.0 -->
      <g transform="translate(34.259062 332.580327) scale(0.14 -0.14)">
       <use xlink:href="#Avenir-Book-39"/>
       <use xlink:href="#Avenir-Book-31" transform="translate(55.599991 0)"/>
       <use xlink:href="#Avenir-Book-2e" transform="translate(111.199982 0)"/>
       <use xlink:href="#Avenir-Book-30" transform="translate(138.999969 0)"/>
      </g>
     </g>
    </g>
    <g id="ytick_5">
     <g id="line2d_47">
      <g>
       <use xlink:href="#m63852855b8" x="72" y="267.786573" style="stroke: #000000; stroke-width: 2"/>
      </g>
     </g>
     <g id="text_17">
      <!-- 91.5 -->
      <g transform="translate(34.259062 273.078136) scale(0.14 -0.14)">
       <use xlink:href="#Avenir-Book-39"/>
       <use xlink:href="#Avenir-Book-31" transform="translate(55.599991 0)"/>
       <use xlink:href="#Avenir-Book-2e" transform="translate(111.199982 0)"/>
       <use xlink:href="#Avenir-Book-35" transform="translate(138.999969 0)"/>
      </g>
     </g>
    </g>
    <g id="ytick_6">
     <g id="line2d_48">
      <g>
       <use xlink:href="#m63852855b8" x="72" y="208.284382" style="stroke: #000000; stroke-width: 2"/>
      </g>
     </g>
     <g id="text_18">
      <!-- 92.0 -->
      <g transform="translate(34.259062 213.575945) scale(0.14 -0.14)">
       <use xlink:href="#Avenir-Book-39"/>
       <use xlink:href="#Avenir-Book-32" transform="translate(55.599991 0)"/>
       <use xlink:href="#Avenir-Book-2e" transform="translate(111.199982 0)"/>
       <use xlink:href="#Avenir-Book-30" transform="translate(138.999969 0)"/>
      </g>
     </g>
    </g>
    <g id="ytick_7">
     <g id="line2d_49">
      <g>
       <use xlink:href="#m63852855b8" x="72" y="148.782191" style="stroke: #000000; stroke-width: 2"/>
      </g>
     </g>
     <g id="text_19">
      <!-- 92.5 -->
      <g transform="translate(34.259062 154.073754) scale(0.14 -0.14)">
       <use xlink:href="#Avenir-Book-39"/>
       <use xlink:href="#Avenir-Book-32" transform="translate(55.599991 0)"/>
       <use xlink:href="#Avenir-Book-2e" transform="translate(111.199982 0)"/>
       <use xlink:href="#Avenir-Book-35" transform="translate(138.999969 0)"/>
      </g>
     </g>
    </g>
    <g id="ytick_8">
     <g id="line2d_50">
      <g>
       <use xlink:href="#m63852855b8" x="72" y="89.28" style="stroke: #000000; stroke-width: 2"/>
      </g>
     </g>
     <g id="text_20">
      <!-- 93.0 -->
      <g transform="translate(34.259062 94.571563) scale(0.14 -0.14)">
       <use xlink:href="#Avenir-Book-39"/>
       <use xlink:href="#Avenir-Book-33" transform="translate(55.599991 0)"/>
       <use xlink:href="#Avenir-Book-2e" transform="translate(111.199982 0)"/>
       <use xlink:href="#Avenir-Book-30" transform="translate(138.999969 0)"/>
      </g>
     </g>
    </g>
    <g id="ytick_9">
     <g id="line2d_51">
      <defs>
       <path id="me557084e4f" d="M 0 0 
L -4 0 
" style="stroke: #000000; stroke-width: 2"/>
      </defs>
      <g>
       <use xlink:href="#me557084e4f" x="72" y="493.894899" style="stroke: #000000; stroke-width: 2"/>
      </g>
     </g>
    </g>
    <g id="ytick_10">
     <g id="line2d_52">
      <g>
       <use xlink:href="#me557084e4f" x="72" y="481.994461" style="stroke: #000000; stroke-width: 2"/>
      </g>
     </g>
    </g>
    <g id="ytick_11">
     <g id="line2d_53">
      <g>
       <use xlink:href="#me557084e4f" x="72" y="470.094022" style="stroke: #000000; stroke-width: 2"/>
      </g>
     </g>
    </g>
    <g id="ytick_12">
     <g id="line2d_54">
      <g>
       <use xlink:href="#me557084e4f" x="72" y="458.193584" style="stroke: #000000; stroke-width: 2"/>
      </g>
     </g>
    </g>
    <g id="ytick_13">
     <g id="line2d_55">
      <g>
       <use xlink:href="#me557084e4f" x="72" y="434.392708" style="stroke: #000000; stroke-width: 2"/>
      </g>
     </g>
    </g>
    <g id="ytick_14">
     <g id="line2d_56">
      <g>
       <use xlink:href="#me557084e4f" x="72" y="422.49227" style="stroke: #000000; stroke-width: 2"/>
      </g>
     </g>
    </g>
    <g id="ytick_15">
     <g id="line2d_57">
      <g>
       <use xlink:href="#me557084e4f" x="72" y="410.591831" style="stroke: #000000; stroke-width: 2"/>
      </g>
     </g>
    </g>
    <g id="ytick_16">
     <g id="line2d_58">
      <g>
       <use xlink:href="#me557084e4f" x="72" y="398.691393" style="stroke: #000000; stroke-width: 2"/>
      </g>
     </g>
    </g>
    <g id="ytick_17">
     <g id="line2d_59">
      <g>
       <use xlink:href="#me557084e4f" x="72" y="374.890517" style="stroke: #000000; stroke-width: 2"/>
      </g>
     </g>
    </g>
    <g id="ytick_18">
     <g id="line2d_60">
      <g>
       <use xlink:href="#me557084e4f" x="72" y="362.990079" style="stroke: #000000; stroke-width: 2"/>
      </g>
     </g>
    </g>
    <g id="ytick_19">
     <g id="line2d_61">
      <g>
       <use xlink:href="#me557084e4f" x="72" y="351.08964" style="stroke: #000000; stroke-width: 2"/>
      </g>
     </g>
    </g>
    <g id="ytick_20">
     <g id="line2d_62">
      <g>
       <use xlink:href="#me557084e4f" x="72" y="339.189202" style="stroke: #000000; stroke-width: 2"/>
      </g>
     </g>
    </g>
    <g id="ytick_21">
     <g id="line2d_63">
      <g>
       <use xlink:href="#me557084e4f" x="72" y="315.388326" style="stroke: #000000; stroke-width: 2"/>
      </g>
     </g>
    </g>
    <g id="ytick_22">
     <g id="line2d_64">
      <g>
       <use xlink:href="#me557084e4f" x="72" y="303.487888" style="stroke: #000000; stroke-width: 2"/>
      </g>
     </g>
    </g>
    <g id="ytick_23">
     <g id="line2d_65">
      <g>
       <use xlink:href="#me557084e4f" x="72" y="291.587449" style="stroke: #000000; stroke-width: 2"/>
      </g>
     </g>
    </g>
    <g id="ytick_24">
     <g id="line2d_66">
      <g>
       <use xlink:href="#me557084e4f" x="72" y="279.687011" style="stroke: #000000; stroke-width: 2"/>
      </g>
     </g>
    </g>
    <g id="ytick_25">
     <g id="line2d_67">
      <g>
       <use xlink:href="#me557084e4f" x="72" y="255.886135" style="stroke: #000000; stroke-width: 2"/>
      </g>
     </g>
    </g>
    <g id="ytick_26">
     <g id="line2d_68">
      <g>
       <use xlink:href="#me557084e4f" x="72" y="243.985697" style="stroke: #000000; stroke-width: 2"/>
      </g>
     </g>
    </g>
    <g id="ytick_27">
     <g id="line2d_69">
      <g>
       <use xlink:href="#me557084e4f" x="72" y="232.085258" style="stroke: #000000; stroke-width: 2"/>
      </g>
     </g>
    </g>
    <g id="ytick_28">
     <g id="line2d_70">
      <g>
       <use xlink:href="#me557084e4f" x="72" y="220.18482" style="stroke: #000000; stroke-width: 2"/>
      </g>
     </g>
    </g>
    <g id="ytick_29">
     <g id="line2d_71">
      <g>
       <use xlink:href="#me557084e4f" x="72" y="196.383944" style="stroke: #000000; stroke-width: 2"/>
      </g>
     </g>
    </g>
    <g id="ytick_30">
     <g id="line2d_72">
      <g>
       <use xlink:href="#me557084e4f" x="72" y="184.483506" style="stroke: #000000; stroke-width: 2"/>
      </g>
     </g>
    </g>
    <g id="ytick_31">
     <g id="line2d_73">
      <g>
       <use xlink:href="#me557084e4f" x="72" y="172.583067" style="stroke: #000000; stroke-width: 2"/>
      </g>
     </g>
    </g>
    <g id="ytick_32">
     <g id="line2d_74">
      <g>
       <use xlink:href="#me557084e4f" x="72" y="160.682629" style="stroke: #000000; stroke-width: 2"/>
      </g>
     </g>
    </g>
    <g id="ytick_33">
     <g id="line2d_75">
      <g>
       <use xlink:href="#me557084e4f" x="72" y="136.881753" style="stroke: #000000; stroke-width: 2"/>
      </g>
     </g>
    </g>
    <g id="ytick_34">
     <g id="line2d_76">
      <g>
       <use xlink:href="#me557084e4f" x="72" y="124.981315" style="stroke: #000000; stroke-width: 2"/>
      </g>
     </g>
    </g>
    <g id="ytick_35">
     <g id="line2d_77">
      <g>
       <use xlink:href="#me557084e4f" x="72" y="113.080876" style="stroke: #000000; stroke-width: 2"/>
      </g>
     </g>
    </g>
    <g id="ytick_36">
     <g id="line2d_78">
      <g>
       <use xlink:href="#me557084e4f" x="72" y="101.180438" style="stroke: #000000; stroke-width: 2"/>
      </g>
     </g>
    </g>
    <g id="ytick_37">
     <g id="line2d_79">
      <g>
       <use xlink:href="#me557084e4f" x="72" y="77.379562" style="stroke: #000000; stroke-width: 2"/>
      </g>
     </g>
    </g>
    <g id="text_21">
     <!-- Fo# -->
     <g transform="translate(24.499688 307.928437) rotate(-90) scale(0.2 -0.2)">
      <defs>
       <path id="Avenir-Book-46" d="M 1075 0 
L 614 0 
L 614 4531 
L 3347 4531 
L 3347 4109 
L 1075 4109 
L 1075 2566 
L 3187 2566 
L 3187 2144 
L 1075 2144 
L 1075 0 
z
" transform="scale(0.015625)"/>
       <path id="Avenir-Book-23" d="M 1318 1754 
L 2170 1754 
L 2310 2790 
L 1459 2790 
L 1318 1754 
z
M 877 1370 
L 224 1370 
L 224 1754 
L 928 1754 
L 1069 2790 
L 378 2790 
L 378 3174 
L 1126 3174 
L 1312 4531 
L 1702 4531 
L 1517 3174 
L 2368 3174 
L 2554 4531 
L 2944 4531 
L 2758 3174 
L 3334 3174 
L 3334 2790 
L 2701 2790 
L 2560 1754 
L 3168 1754 
L 3168 1370 
L 2509 1370 
L 2317 0 
L 1926 0 
L 2118 1370 
L 1267 1370 
L 1075 0 
L 685 0 
L 877 1370 
z
" transform="scale(0.015625)"/>
      </defs>
      <use xlink:href="#Avenir-Book-46"/>
      <use xlink:href="#Avenir-Book-6f" transform="translate(55.599991 0)"/>
      <use xlink:href="#Avenir-Book-23" transform="translate(114.899979 0)"/>
     </g>
    </g>
   </g>
   <g id="line2d_80">
    <path d="M 80.425589 242.048852 
L 90.826757 283.124552 
L 101.2699 280.73882 
L 111.671068 241.283607 
L 122.072235 217.294789 
L 132.515379 212.34431 
L 132.586793 228.185609 
L 142.916546 196.087484 
L 153.317714 192.34612 
L 163.718881 221.86146 
L 174.162025 215.859998 
L 184.563192 247.04986 
L 184.705211 233.371832 
L 194.96436 264.273916 
L 205.407503 297.815076 
L 215.80867 331.626703 
L 226.209838 338.187539 
L 236.652981 358.142948 
L 236.866415 388.246894 
L 247.054149 385.831042 
L 257.455316 405.957369 
L 267.89846 436.234383 
L 278.299627 439.372524 
L 288.700795 455.110405 
L 288.984833 460.870533 
L 299.101962 479.787925 
L 309.545106 485.185624 
L 319.946273 475.54554 
L 330.347441 485.698878 
L 340.790584 487.561073 
L 341.146037 487.707073 
L 351.191751 447.949326 
L 393.264454 477.735247 
L 445.425658 434.326857 
L 497.544076 421.684848 
" clip-path="url(#p64d6c2022f)" style="fill: none; stroke-dasharray: 7.4,3.2; stroke-dashoffset: 0; stroke: #f47e1f; stroke-width: 2"/>
    <defs>
     <path id="m467e012d04" d="M 0 6 
C 1.591219 6 3.117479 5.367802 4.242641 4.242641 
C 5.367802 3.117479 6 1.591219 6 0 
C 6 -1.591219 5.367802 -3.117479 4.242641 -4.242641 
C 3.117479 -5.367802 1.591219 -6 0 -6 
C -1.591219 -6 -3.117479 -5.367802 -4.242641 -4.242641 
C -5.367802 -3.117479 -6 -1.591219 -6 0 
C -6 1.591219 -5.367802 3.117479 -4.242641 4.242641 
C -3.117479 5.367802 -1.591219 6 0 6 
z
" style="stroke: #f47e1f"/>
    </defs>
    <g clip-path="url(#p64d6c2022f)">
     <use xlink:href="#m467e012d04" x="80.425589" y="242.048852" style="fill: #f47e1f; stroke: #f47e1f"/>
     <use xlink:href="#m467e012d04" x="90.826757" y="283.124552" style="fill: #f47e1f; stroke: #f47e1f"/>
     <use xlink:href="#m467e012d04" x="101.2699" y="280.73882" style="fill: #f47e1f; stroke: #f47e1f"/>
     <use xlink:href="#m467e012d04" x="111.671068" y="241.283607" style="fill: #f47e1f; stroke: #f47e1f"/>
     <use xlink:href="#m467e012d04" x="122.072235" y="217.294789" style="fill: #f47e1f; stroke: #f47e1f"/>
     <use xlink:href="#m467e012d04" x="132.515379" y="212.34431" style="fill: #f47e1f; stroke: #f47e1f"/>
     <use xlink:href="#m467e012d04" x="132.586793" y="228.185609" style="fill: #f47e1f; stroke: #f47e1f"/>
     <use xlink:href="#m467e012d04" x="142.916546" y="196.087484" style="fill: #f47e1f; stroke: #f47e1f"/>
     <use xlink:href="#m467e012d04" x="153.317714" y="192.34612" style="fill: #f47e1f; stroke: #f47e1f"/>
     <use xlink:href="#m467e012d04" x="163.718881" y="221.86146" style="fill: #f47e1f; stroke: #f47e1f"/>
     <use xlink:href="#m467e012d04" x="174.162025" y="215.859998" style="fill: #f47e1f; stroke: #f47e1f"/>
     <use xlink:href="#m467e012d04" x="184.563192" y="247.04986" style="fill: #f47e1f; stroke: #f47e1f"/>
     <use xlink:href="#m467e012d04" x="184.705211" y="233.371832" style="fill: #f47e1f; stroke: #f47e1f"/>
     <use xlink:href="#m467e012d04" x="194.96436" y="264.273916" style="fill: #f47e1f; stroke: #f47e1f"/>
     <use xlink:href="#m467e012d04" x="205.407503" y="297.815076" style="fill: #f47e1f; stroke: #f47e1f"/>
     <use xlink:href="#m467e012d04" x="215.80867" y="331.626703" style="fill: #f47e1f; stroke: #f47e1f"/>
     <use xlink:href="#m467e012d04" x="226.209838" y="338.187539" style="fill: #f47e1f; stroke: #f47e1f"/>
     <use xlink:href="#m467e012d04" x="236.652981" y="358.142948" style="fill: #f47e1f; stroke: #f47e1f"/>
     <use xlink:href="#m467e012d04" x="236.866415" y="388.246894" style="fill: #f47e1f; stroke: #f47e1f"/>
     <use xlink:href="#m467e012d04" x="247.054149" y="385.831042" style="fill: #f47e1f; stroke: #f47e1f"/>
     <use xlink:href="#m467e012d04" x="257.455316" y="405.957369" style="fill: #f47e1f; stroke: #f47e1f"/>
     <use xlink:href="#m467e012d04" x="267.89846" y="436.234383" style="fill: #f47e1f; stroke: #f47e1f"/>
     <use xlink:href="#m467e012d04" x="278.299627" y="439.372524" style="fill: #f47e1f; stroke: #f47e1f"/>
     <use xlink:href="#m467e012d04" x="288.700795" y="455.110405" style="fill: #f47e1f; stroke: #f47e1f"/>
     <use xlink:href="#m467e012d04" x="288.984833" y="460.870533" style="fill: #f47e1f; stroke: #f47e1f"/>
     <use xlink:href="#m467e012d04" x="299.101962" y="479.787925" style="fill: #f47e1f; stroke: #f47e1f"/>
     <use xlink:href="#m467e012d04" x="309.545106" y="485.185624" style="fill: #f47e1f; stroke: #f47e1f"/>
     <use xlink:href="#m467e012d04" x="319.946273" y="475.54554" style="fill: #f47e1f; stroke: #f47e1f"/>
     <use xlink:href="#m467e012d04" x="330.347441" y="485.698878" style="fill: #f47e1f; stroke: #f47e1f"/>
     <use xlink:href="#m467e012d04" x="340.790584" y="487.561073" style="fill: #f47e1f; stroke: #f47e1f"/>
     <use xlink:href="#m467e012d04" x="341.146037" y="487.707073" style="fill: #f47e1f; stroke: #f47e1f"/>
     <use xlink:href="#m467e012d04" x="351.191751" y="447.949326" style="fill: #f47e1f; stroke: #f47e1f"/>
     <use xlink:href="#m467e012d04" x="393.264454" y="477.735247" style="fill: #f47e1f; stroke: #f47e1f"/>
     <use xlink:href="#m467e012d04" x="445.425658" y="434.326857" style="fill: #f47e1f; stroke: #f47e1f"/>
     <use xlink:href="#m467e012d04" x="497.544076" y="421.684848" style="fill: #f47e1f; stroke: #f47e1f"/>
    </g>
   </g>
   <g id="line2d_81">
    <path d="M 80.425589 242.048852 
L 84.660295 250.263689 
L 86.777648 254.933168 
L 91.012353 265.276029 
L 93.129706 263.675835 
L 95.247058 262.674052 
L 97.364411 262.270678 
L 99.481764 262.465716 
L 101.599117 262.022406 
L 103.716469 255.461982 
L 105.833822 249.503296 
L 107.951175 244.146346 
L 116.420586 225.057798 
L 118.537938 221.074511 
L 120.655291 217.695858 
L 122.772644 214.983814 
L 124.889997 213.034209 
L 127.007349 211.737974 
L 129.124702 211.095108 
L 131.242055 211.105612 
L 133.359407 209.656572 
L 135.47676 205.092033 
L 137.594113 201.185593 
L 139.711466 197.93725 
L 141.828818 195.347005 
L 143.946171 193.425478 
L 146.063524 192.133744 
L 148.180877 191.446923 
L 150.298229 191.365015 
L 152.415582 191.888019 
L 154.532935 193.526502 
L 156.650287 196.146643 
L 158.76764 199.368803 
L 160.884993 203.192982 
L 163.002346 207.619179 
L 165.119698 209.060869 
L 167.237051 209.271001 
L 169.354404 210.084325 
L 171.471756 211.500842 
L 173.589109 213.520552 
L 175.706462 216.226338 
L 177.823815 219.610137 
L 179.941167 223.648097 
L 182.05852 228.34022 
L 184.175873 233.686504 
L 186.293226 237.508581 
L 188.410578 241.684175 
L 190.527931 246.519877 
L 192.645284 252.01569 
L 194.762636 258.171611 
L 196.879989 263.329255 
L 198.997342 268.918482 
L 201.114695 275.111231 
L 203.232047 281.907501 
L 205.3494 289.307294 
L 207.466753 294.14505 
L 209.584105 299.495525 
L 211.701458 305.448017 
L 215.936164 318.823348 
L 218.053516 321.008024 
L 220.170869 323.797252 
L 222.288222 327.191033 
L 224.405575 331.189366 
L 228.64028 340.317036 
L 230.757633 345.584865 
L 232.874985 351.504318 
L 234.992338 358.075396 
L 237.109691 365.043067 
L 239.227044 366.948429 
L 241.344396 369.516105 
L 243.461749 372.746093 
L 247.696454 380.54995 
L 249.813807 383.609743 
L 251.93116 387.274604 
L 254.048513 391.544533 
L 258.283218 401.024579 
L 260.400571 404.868767 
L 262.517924 409.313567 
L 264.635276 414.358979 
L 266.752629 420.005004 
L 268.869982 423.691717 
L 270.987334 424.962676 
L 273.104687 426.838158 
L 275.22204 429.318165 
L 277.339393 432.402696 
L 281.574098 437.727137 
L 283.691451 440.967518 
L 285.808803 444.860434 
L 287.926156 449.405886 
L 290.043509 452.806922 
L 292.160862 455.19301 
L 294.278214 458.24349 
L 296.395567 461.958361 
L 298.51292 466.337623 
L 300.630273 467.65655 
L 302.747625 468.152083 
L 304.864978 469.251376 
L 306.982331 470.954428 
L 309.099683 473.26124 
L 311.217036 472.384984 
L 313.334389 471.102079 
L 315.451742 470.421197 
L 317.569094 470.342339 
L 319.686447 470.865504 
L 321.8038 470.778299 
L 323.921152 471.125795 
L 326.038505 472.077726 
L 328.155858 473.634092 
L 330.273211 475.794894 
L 332.390563 474.729045 
L 334.507916 474.172726 
L 336.625269 474.265918 
L 338.742622 475.008619 
L 340.859974 476.263356 
L 345.09468 464.473942 
L 347.212032 459.239688 
L 349.329385 454.645083 
L 351.446738 450.968142 
L 353.564091 449.718648 
L 355.681443 448.675463 
L 357.798796 447.838586 
L 359.916149 447.208018 
L 362.033501 446.783759 
L 364.150854 446.565809 
L 366.268207 446.554167 
L 368.38556 446.748835 
L 370.502912 447.149811 
L 372.620265 447.757096 
L 374.737618 448.570689 
L 376.854971 449.590592 
L 378.972323 450.816803 
L 381.089676 452.249323 
L 383.207029 453.888152 
L 385.324381 455.73329 
L 387.441734 457.784736 
L 389.559087 460.042491 
L 391.67644 462.506555 
L 393.793792 463.597678 
L 398.028498 456.839493 
L 402.263203 450.757473 
L 406.497909 445.351618 
L 410.732614 440.621929 
L 412.849967 438.510646 
L 414.96732 436.568405 
L 417.084672 434.795205 
L 419.202025 433.191046 
L 421.319378 431.755928 
L 423.43673 430.489852 
L 425.554083 429.392817 
L 427.671436 428.464824 
L 429.788789 427.705871 
L 431.906141 427.115961 
L 434.023494 426.695091 
L 436.140847 426.443262 
L 438.258199 426.360475 
L 440.375552 426.44673 
L 442.492905 426.702025 
L 444.610258 427.126362 
L 446.72761 425.750596 
L 450.962316 421.037363 
L 453.079669 418.932983 
L 455.197021 416.996761 
L 457.314374 415.228696 
L 459.431727 413.62879 
L 461.549079 412.197041 
L 463.666432 410.93345 
L 465.783785 409.838016 
L 467.901138 408.91074 
L 470.01849 408.151622 
L 472.135843 407.560662 
L 474.253196 407.137859 
L 476.370548 406.883215 
L 478.487901 406.796728 
L 480.605254 406.878398 
L 482.722607 407.128227 
L 484.839959 407.546213 
L 486.957312 408.132356 
L 489.074665 408.886658 
L 491.192018 409.809117 
L 493.30937 410.899734 
L 495.426723 412.158509 
L 497.544076 421.684848 
L 497.544076 421.684848 
" clip-path="url(#p64d6c2022f)" style="fill: none; stroke-dasharray: 3.7,1.6; stroke-dashoffset: 0; stroke: #000000"/>
   </g>
   <g id="line2d_82">
    <path d="M 80.425589 242.048852 
L 82.542942 264.910246 
L 84.660295 269.831607 
L 86.777648 274.184868 
L 88.895 277.970027 
L 91.012353 281.011823 
L 93.129706 281.644832 
L 95.247058 281.67943 
L 97.364411 281.115618 
L 99.481764 279.953395 
L 101.599117 277.876327 
L 103.716469 273.480213 
L 105.833822 268.482362 
L 107.951175 262.882775 
L 110.068528 256.68145 
L 112.18588 250.91479 
L 114.303233 247.770763 
L 116.420586 244.022102 
L 118.537938 239.668808 
L 120.655291 234.71088 
L 122.772644 231.121048 
L 124.889997 230.885035 
L 127.007349 229.995652 
L 129.124702 228.4529 
L 135.47676 222.024059 
L 137.594113 219.299398 
L 139.711466 215.916639 
L 141.828818 211.875782 
L 143.946171 210.011387 
L 146.063524 210.522935 
L 148.180877 210.42957 
L 150.298229 209.731293 
L 152.415582 208.428103 
L 154.532935 210.420405 
L 156.650287 214.705579 
L 158.76764 218.388734 
L 160.884993 221.469871 
L 163.002346 223.948989 
L 165.119698 226.148009 
L 167.237051 227.908702 
L 169.354404 229.066203 
L 171.471756 229.62051 
L 173.589109 229.571625 
L 175.706462 233.201277 
L 177.823815 237.771988 
L 179.941167 241.688536 
L 182.05852 244.950923 
L 184.175873 247.559148 
L 186.293226 253.081747 
L 188.410578 259.226585 
L 190.527931 264.711313 
L 192.645284 269.535932 
L 194.762636 273.700442 
L 198.997342 287.718042 
L 201.114695 294.010657 
L 203.232047 299.69975 
L 205.3494 304.785321 
L 207.466753 311.848842 
L 209.584105 318.383162 
L 211.701458 324.315466 
L 213.818811 329.645753 
L 215.936164 334.393899 
L 218.053516 338.848902 
L 220.170869 342.699352 
L 222.288222 345.94525 
L 226.522927 351.388044 
L 228.64028 357.964458 
L 230.757633 363.889247 
L 232.874985 369.162411 
L 234.992338 373.783952 
L 239.227044 383.407072 
L 241.344396 387.437125 
L 243.461749 390.804867 
L 245.579102 393.510295 
L 247.696454 396.666502 
L 249.813807 401.753902 
L 251.93116 406.236233 
L 254.048513 410.113496 
L 256.165865 413.385691 
L 258.283218 417.488323 
L 260.400571 423.224773 
L 262.517924 428.360612 
L 264.635276 432.895838 
L 266.752629 436.830451 
L 268.869982 440.314793 
L 270.987334 443.372985 
L 273.104687 445.826652 
L 275.22204 447.675795 
L 277.339393 448.920413 
L 279.456745 451.760332 
L 281.574098 455.784128 
L 283.691451 459.155387 
L 285.808803 461.874111 
L 287.926156 463.9403 
L 290.043509 467.733043 
L 292.160862 472.375255 
L 294.278214 476.353075 
L 296.395567 479.666505 
L 298.51292 482.315543 
L 300.630273 484.771729 
L 302.747625 486.797463 
L 304.864978 488.219437 
L 306.982331 489.037651 
L 309.099683 489.252107 
L 311.217036 489.741563 
L 313.334389 489.862926 
L 315.451742 489.382266 
L 317.569094 488.299581 
L 319.686447 486.614874 
L 323.921152 489.925475 
L 326.038505 490.951627 
L 328.155858 491.373343 
L 330.273211 491.190624 
L 332.390563 492.128338 
L 334.507916 492.48 
L 336.625269 492.182152 
L 338.742622 491.234793 
L 340.859974 489.625894 
L 342.977327 486.354418 
L 345.09468 482.350834 
L 347.212032 477.707602 
L 349.329385 472.42472 
L 351.446738 467.585005 
L 353.564091 470.25707 
L 355.681443 472.722826 
L 357.798796 474.982273 
L 359.916149 477.035411 
L 362.033501 478.882241 
L 364.150854 480.522761 
L 366.268207 481.956973 
L 368.38556 483.184877 
L 370.502912 484.206471 
L 372.620265 485.021756 
L 374.737618 485.630733 
L 376.854971 486.033401 
L 378.972323 486.229761 
L 381.089676 486.219811 
L 383.207029 486.003553 
L 385.324381 485.580985 
L 387.441734 484.95211 
L 389.559087 484.116925 
L 391.67644 483.075431 
L 393.793792 482.298447 
L 395.911145 482.7509 
L 398.028498 483.034312 
L 400.14585 483.148682 
L 402.263203 483.094011 
L 404.380556 482.870299 
L 406.497909 482.477546 
L 408.615261 481.915751 
L 410.732614 481.184915 
L 412.849967 480.285037 
L 414.96732 479.216119 
L 417.084672 477.978159 
L 419.202025 476.571157 
L 421.319378 474.995115 
L 423.43673 473.250031 
L 425.554083 471.335906 
L 427.671436 469.252739 
L 429.788789 467.000531 
L 431.906141 464.579282 
L 436.140847 459.22966 
L 440.375552 453.203873 
L 444.610258 446.50192 
L 446.72761 446.045529 
L 448.844963 447.392465 
L 450.962316 448.571243 
L 453.079669 449.581863 
L 455.197021 450.424326 
L 457.314374 451.098631 
L 459.431727 451.604778 
L 461.549079 451.942767 
L 463.666432 452.112599 
L 465.783785 452.114273 
L 467.901138 451.947789 
L 470.01849 451.613148 
L 472.135843 451.110348 
L 474.253196 450.439391 
L 476.370548 449.600277 
L 478.487901 448.593004 
L 480.605254 447.417574 
L 482.722607 446.073986 
L 484.839959 444.56224 
L 486.957312 442.882337 
L 489.074665 441.034276 
L 491.192018 439.018057 
L 493.30937 436.833681 
L 495.426723 434.481146 
L 497.544076 421.684848 
L 497.544076 421.684848 
" clip-path="url(#p64d6c2022f)" style="fill: none; stroke-dasharray: 3.7,1.6; stroke-dashoffset: 0; stroke: #000000"/>
   </g>
   <g id="line2d_83">
    <path d="M 93.129706 279.687011 
L 120.655291 279.687011 
L 122.772644 89.28 
L 218.053516 89.28 
L 220.170869 487.94468 
L 395.911145 487.94468 
L 395.911145 487.94468 
" clip-path="url(#p64d6c2022f)" style="fill: none; stroke-dasharray: 7.4,3.2; stroke-dashoffset: 0; stroke: #1b878c; stroke-width: 2"/>
   </g>
   <g id="line2d_84">
    <path d="M 93.129706 275.926793 
L 103.716469 257.220247 
L 110.068528 246.437484 
L 114.303233 239.60861 
L 118.537938 233.168393 
L 122.772644 227.203517 
L 127.007349 221.799492 
L 129.124702 219.333859 
L 131.242055 217.039254 
L 133.359407 214.925385 
L 135.47676 213.001593 
L 137.594113 211.276799 
L 139.711466 209.759448 
L 141.828818 208.457454 
L 143.946171 207.378145 
L 146.063524 206.528205 
L 148.180877 205.913632 
L 150.298229 205.53968 
L 152.415582 205.410819 
L 154.532935 205.530696 
L 156.650287 205.902094 
L 158.76764 206.52691 
L 160.884993 207.406123 
L 163.002346 208.539785 
L 165.119698 209.927006 
L 167.237051 211.565955 
L 169.354404 213.453863 
L 171.471756 215.587036 
L 173.589109 217.960876 
L 175.706462 220.569908 
L 177.823815 223.407812 
L 179.941167 226.467469 
L 182.05852 229.741001 
L 186.293226 236.894723 
L 190.527931 244.792935 
L 194.762636 253.351247 
L 198.997342 262.479043 
L 203.232047 272.081665 
L 209.584105 287.164642 
L 218.053516 308.041889 
L 232.874985 344.709227 
L 239.227044 359.81518 
L 245.579102 374.263553 
L 249.813807 383.454852 
L 254.048513 392.25169 
L 258.283218 400.62663 
L 262.517924 408.559201 
L 266.752629 416.035442 
L 270.987334 423.047394 
L 275.22204 429.592567 
L 279.456745 435.673379 
L 283.691451 441.296596 
L 287.926156 446.472777 
L 292.160862 451.215722 
L 296.395567 455.541946 
L 300.630273 459.470175 
L 304.864978 463.020867 
L 309.099683 466.215761 
L 313.334389 469.077469 
L 317.569094 471.629097 
L 321.8038 473.893904 
L 326.038505 475.895001 
L 330.273211 477.655091 
L 334.507916 479.196245 
L 338.742622 480.539719 
L 342.977327 481.705814 
L 349.329385 483.164133 
L 355.681443 484.326429 
L 362.033501 485.24682 
L 368.38556 485.973567 
L 376.854971 486.7146 
L 387.441734 487.396626 
L 395.911145 487.839274 
L 395.911145 487.839274 
" clip-path="url(#p64d6c2022f)" style="fill: none; stroke: #1fbecf; stroke-opacity: 0.8; stroke-width: 6; stroke-linecap: square"/>
   </g>
   <g id="patch_3">
    <path d="M 72 512.64 
L 72 69.12 
" style="fill: none; stroke: #000000; stroke-width: 2; stroke-linejoin: miter; stroke-linecap: square"/>
   </g>
   <g id="patch_4">
    <path d="M 518.4 512.64 
L 518.4 69.12 
" style="fill: none; stroke: #000000; stroke-width: 2; stroke-linejoin: miter; stroke-linecap: square"/>
   </g>
   <g id="patch_5">
    <path d="M 72 512.64 
L 518.4 512.64 
" style="fill: none; stroke: #000000; stroke-width: 2; stroke-linejoin: miter; stroke-linecap: square"/>
   </g>
   <g id="patch_6">
    <path d="M 72 69.12 
L 518.4 69.12 
" style="fill: none; stroke: #000000; stroke-width: 2; stroke-linejoin: miter; stroke-linecap: square"/>
   </g>
   <g id="text_22">
    <!-- AZ18 WHT01_bigol1_overgrowth_prof_1 -->
    <g transform="translate(141.6585 42.799875) scale(0.168 -0.168)">
     <defs>
      <path id="Avenir-Book-41" d="M 1210 1613 
L 3174 1613 
L 2195 3994 
L 1210 1613 
z
M 538 0 
L 0 0 
L 1971 4531 
L 2419 4531 
L 4390 0 
L 3853 0 
L 3354 1190 
L 1037 1190 
L 538 0 
z
" transform="scale(0.015625)"/>
      <path id="Avenir-Book-5a" d="M 3373 4147 
L 730 422 
L 3411 422 
L 3411 0 
L 147 0 
L 147 384 
L 2797 4109 
L 186 4109 
L 186 4531 
L 3373 4531 
L 3373 4147 
z
" transform="scale(0.015625)"/>
      <path id="Avenir-Book-57" d="M 1600 653 
L 1613 653 
L 2752 4531 
L 3302 4531 
L 4442 653 
L 4454 653 
L 5530 4531 
L 6042 4531 
L 4704 0 
L 4166 0 
L 3027 3878 
L 3014 3878 
L 1875 0 
L 1338 0 
L 0 4531 
L 512 4531 
L 1600 653 
z
" transform="scale(0.015625)"/>
      <path id="Avenir-Book-48" d="M 614 4531 
L 1075 4531 
L 1075 2566 
L 3546 2566 
L 3546 4531 
L 4006 4531 
L 4006 0 
L 3546 0 
L 3546 2144 
L 1075 2144 
L 1075 0 
L 614 0 
L 614 4531 
z
" transform="scale(0.015625)"/>
      <path id="Avenir-Book-54" d="M 2067 0 
L 1606 0 
L 1606 4109 
L 90 4109 
L 90 4531 
L 3584 4531 
L 3584 4109 
L 2067 4109 
L 2067 0 
z
" transform="scale(0.015625)"/>
      <path id="Avenir-Book-5f" d="M 0 -480 
L 3200 -480 
L 3200 -800 
L 0 -800 
L 0 -480 
z
" transform="scale(0.015625)"/>
      <path id="Avenir-Book-62" d="M 3194 1498 
Q 3194 1747 3114 1964 
Q 3034 2182 2886 2342 
Q 2739 2502 2531 2595 
Q 2323 2688 2061 2688 
Q 1798 2688 1580 2595 
Q 1363 2502 1203 2342 
Q 1043 2182 953 1964 
Q 864 1747 864 1498 
Q 864 1248 953 1030 
Q 1043 813 1203 653 
Q 1363 493 1580 400 
Q 1798 307 2061 307 
Q 2323 307 2531 400 
Q 2739 493 2886 653 
Q 3034 813 3114 1030 
Q 3194 1248 3194 1498 
z
M 461 4838 
L 883 4838 
L 883 2496 
L 896 2496 
Q 998 2650 1139 2758 
Q 1280 2867 1433 2937 
Q 1587 3008 1750 3040 
Q 1914 3072 2061 3072 
Q 2413 3072 2704 2953 
Q 2995 2835 3206 2624 
Q 3418 2413 3536 2125 
Q 3654 1837 3654 1498 
Q 3654 1158 3536 870 
Q 3418 582 3206 371 
Q 2995 160 2704 41 
Q 2413 -77 2061 -77 
Q 1914 -77 1750 -45 
Q 1587 -13 1433 57 
Q 1280 128 1139 237 
Q 998 346 896 499 
L 883 499 
L 883 0 
L 461 0 
L 461 4838 
z
" transform="scale(0.015625)"/>
      <path id="Avenir-Book-67" d="M 768 1536 
Q 768 1299 854 1091 
Q 941 883 1091 726 
Q 1242 570 1443 477 
Q 1645 384 1882 384 
Q 2112 384 2320 467 
Q 2528 550 2688 700 
Q 2848 851 2934 1062 
Q 3021 1274 3014 1536 
Q 3014 1773 2937 1981 
Q 2861 2189 2713 2345 
Q 2566 2502 2355 2595 
Q 2144 2688 1882 2688 
Q 1645 2688 1443 2595 
Q 1242 2502 1091 2345 
Q 941 2189 854 1981 
Q 768 1773 768 1536 
z
M 691 -602 
Q 877 -851 1174 -1001 
Q 1472 -1152 1837 -1152 
Q 2157 -1152 2381 -1059 
Q 2605 -966 2742 -806 
Q 2880 -646 2941 -432 
Q 3002 -218 3002 26 
L 3002 563 
L 2989 563 
Q 2784 256 2489 128 
Q 2195 0 1869 0 
Q 1542 0 1257 115 
Q 973 230 761 432 
Q 550 634 428 915 
Q 307 1197 307 1523 
Q 307 1850 422 2131 
Q 538 2413 739 2624 
Q 941 2835 1219 2953 
Q 1498 3072 1830 3072 
Q 1965 3072 2115 3046 
Q 2266 3021 2416 2957 
Q 2566 2893 2713 2781 
Q 2861 2669 2989 2496 
L 3002 2496 
L 3002 2995 
L 3424 2995 
L 3424 26 
Q 3424 -218 3363 -493 
Q 3302 -768 3126 -998 
Q 2950 -1229 2636 -1382 
Q 2323 -1536 1818 -1536 
Q 1370 -1536 1018 -1389 
Q 666 -1242 378 -934 
L 691 -602 
z
" transform="scale(0.015625)"/>
      <path id="Avenir-Book-6c" d="M 979 0 
L 557 0 
L 557 4838 
L 979 4838 
L 979 0 
z
" transform="scale(0.015625)"/>
      <path id="Avenir-Book-76" d="M 1779 0 
L 1306 0 
L 90 2995 
L 595 2995 
L 1549 474 
L 1562 474 
L 2515 2995 
L 2995 2995 
L 1779 0 
z
" transform="scale(0.015625)"/>
      <path id="Avenir-Book-77" d="M 589 2995 
L 1280 563 
L 1293 563 
L 2093 2995 
L 2528 2995 
L 3328 563 
L 3341 563 
L 4032 2995 
L 4531 2995 
L 3584 0 
L 3110 0 
L 2317 2458 
L 2304 2458 
L 1510 0 
L 1037 0 
L 90 2995 
L 589 2995 
z
" transform="scale(0.015625)"/>
      <path id="Avenir-Book-68" d="M 461 4838 
L 883 4838 
L 883 2515 
L 896 2515 
Q 966 2637 1075 2739 
Q 1184 2842 1318 2915 
Q 1453 2989 1603 3030 
Q 1754 3072 1901 3072 
Q 2477 3072 2752 2768 
Q 3027 2464 3027 1901 
L 3027 0 
L 2605 0 
L 2605 1658 
Q 2605 2157 2432 2422 
Q 2259 2688 1792 2688 
Q 1760 2688 1613 2662 
Q 1466 2637 1302 2521 
Q 1139 2406 1011 2176 
Q 883 1946 883 1536 
L 883 0 
L 461 0 
L 461 4838 
z
" transform="scale(0.015625)"/>
      <path id="Avenir-Book-70" d="M 3194 1498 
Q 3194 1747 3114 1964 
Q 3034 2182 2886 2342 
Q 2739 2502 2531 2595 
Q 2323 2688 2061 2688 
Q 1798 2688 1580 2595 
Q 1363 2502 1203 2342 
Q 1043 2182 953 1964 
Q 864 1747 864 1498 
Q 864 1248 953 1030 
Q 1043 813 1203 653 
Q 1363 493 1580 400 
Q 1798 307 2061 307 
Q 2323 307 2531 400 
Q 2739 493 2886 653 
Q 3034 813 3114 1030 
Q 3194 1248 3194 1498 
z
M 461 2995 
L 883 2995 
L 883 2496 
L 896 2496 
Q 998 2650 1139 2758 
Q 1280 2867 1433 2937 
Q 1587 3008 1750 3040 
Q 1914 3072 2061 3072 
Q 2413 3072 2704 2953 
Q 2995 2835 3206 2624 
Q 3418 2413 3536 2125 
Q 3654 1837 3654 1498 
Q 3654 1158 3536 870 
Q 3418 582 3206 371 
Q 2995 160 2704 41 
Q 2413 -77 2061 -77 
Q 1914 -77 1750 -45 
Q 1587 -13 1433 57 
Q 1280 128 1139 237 
Q 998 346 896 499 
L 883 499 
L 883 -1843 
L 461 -1843 
L 461 2995 
z
" transform="scale(0.015625)"/>
     </defs>
     <use xlink:href="#Avenir-Book-41"/>
     <use xlink:href="#Avenir-Book-5a" transform="translate(68.599991 0)"/>
     <use xlink:href="#Avenir-Book-31" transform="translate(124.199982 0)"/>
     <use xlink:href="#Avenir-Book-38" transform="translate(179.799973 0)"/>
     <use xlink:href="#Avenir-Book-20" transform="translate(235.399963 0)"/>
     <use xlink:href="#Avenir-Book-57" transform="translate(263.199951 0)"/>
     <use xlink:href="#Avenir-Book-48" transform="translate(357.599945 0)"/>
     <use xlink:href="#Avenir-Book-54" transform="translate(429.799927 0)"/>
     <use xlink:href="#Avenir-Book-30" transform="translate(487.199921 0)"/>
     <use xlink:href="#Avenir-Book-31" transform="translate(542.799911 0)"/>
     <use xlink:href="#Avenir-Book-5f" transform="translate(598.399902 0)"/>
     <use xlink:href="#Avenir-Book-62" transform="translate(648.399887 0)"/>
     <use xlink:href="#Avenir-Book-69" transform="translate(709.499878 0)"/>
     <use xlink:href="#Avenir-Book-67" transform="translate(733.499863 0)"/>
     <use xlink:href="#Avenir-Book-6f" transform="translate(794.599854 0)"/>
     <use xlink:href="#Avenir-Book-6c" transform="translate(853.899841 0)"/>
     <use xlink:href="#Avenir-Book-31" transform="translate(877.899826 0)"/>
     <use xlink:href="#Avenir-Book-5f" transform="translate(933.499817 0)"/>
     <use xlink:href="#Avenir-Book-6f" transform="translate(983.499802 0)"/>
     <use xlink:href="#Avenir-Book-76" transform="translate(1042.799789 0)"/>
     <use xlink:href="#Avenir-Book-65" transform="translate(1090.999786 0)"/>
     <use xlink:href="#Avenir-Book-72" transform="translate(1146.599777 0)"/>
     <use xlink:href="#Avenir-Book-67" transform="translate(1178.049774 0)"/>
     <use xlink:href="#Avenir-Book-72" transform="translate(1239.149765 0)"/>
     <use xlink:href="#Avenir-Book-6f" transform="translate(1270.599762 0)"/>
     <use xlink:href="#Avenir-Book-77" transform="translate(1329.89975 0)"/>
     <use xlink:href="#Avenir-Book-74" transform="translate(1402.099731 0)"/>
     <use xlink:href="#Avenir-Book-68" transform="translate(1435.299728 0)"/>
     <use xlink:href="#Avenir-Book-5f" transform="translate(1490.899719 0)"/>
     <use xlink:href="#Avenir-Book-70" transform="translate(1540.899704 0)"/>
     <use xlink:href="#Avenir-Book-72" transform="translate(1601.999695 0)"/>
     <use xlink:href="#Avenir-Book-6f" transform="translate(1633.449692 0)"/>
     <use xlink:href="#Avenir-Book-66" transform="translate(1692.74968 0)"/>
     <use xlink:href="#Avenir-Book-5f" transform="translate(1722.34967 0)"/>
     <use xlink:href="#Avenir-Book-31" transform="translate(1772.349655 0)"/>
    </g>
    <!-- Best fit time: 17.1±0.8 days Temperature: 1250.0 ˚C -->
    <g transform="translate(102.150937 63.12) scale(0.168 -0.168)">
     <defs>
      <path id="Avenir-Book-42" d="M 1075 422 
L 1958 422 
Q 2208 422 2425 473 
Q 2643 525 2803 630 
Q 2963 736 3056 896 
Q 3149 1056 3149 1280 
Q 3149 1728 2861 1945 
Q 2573 2163 2016 2163 
L 1075 2163 
L 1075 422 
z
M 1075 2547 
L 2003 2547 
Q 2170 2547 2333 2588 
Q 2496 2630 2627 2726 
Q 2758 2822 2841 2972 
Q 2925 3123 2925 3341 
Q 2925 3411 2896 3539 
Q 2867 3667 2768 3795 
Q 2669 3923 2477 4016 
Q 2285 4109 1958 4109 
L 1075 4109 
L 1075 2547 
z
M 614 4531 
L 1965 4531 
Q 2246 4531 2508 4473 
Q 2771 4416 2976 4281 
Q 3181 4147 3302 3929 
Q 3424 3712 3424 3392 
Q 3424 3021 3216 2755 
Q 3008 2490 2624 2400 
L 2624 2387 
Q 3104 2349 3376 2051 
Q 3648 1754 3648 1254 
Q 3648 1146 3593 934 
Q 3539 723 3366 515 
Q 3194 307 2867 153 
Q 2541 0 1997 0 
L 614 0 
L 614 4531 
z
" transform="scale(0.015625)"/>
      <path id="Avenir-Book-3a" d="M 1235 307 
Q 1235 173 1139 67 
Q 1043 -38 890 -38 
Q 736 -38 640 67 
Q 544 173 544 307 
Q 544 442 640 547 
Q 736 653 890 653 
Q 1043 653 1139 547 
Q 1235 442 1235 307 
z
M 1235 2682 
Q 1235 2547 1139 2441 
Q 1043 2336 890 2336 
Q 736 2336 640 2441 
Q 544 2547 544 2682 
Q 544 2816 640 2921 
Q 736 3027 890 3027 
Q 1043 3027 1139 2921 
Q 1235 2816 1235 2682 
z
" transform="scale(0.015625)"/>
      <path id="Avenir-Book-b1" d="M 499 691 
L 3763 691 
L 3763 307 
L 499 307 
L 499 691 
z
M 499 2605 
L 1939 2605 
L 1939 3603 
L 2323 3603 
L 2323 2605 
L 3763 2605 
L 3763 2221 
L 2323 2221 
L 2323 1254 
L 1939 1254 
L 1939 2221 
L 499 2221 
L 499 2605 
z
" transform="scale(0.015625)"/>
      <path id="Avenir-Book-64" d="M 717 1498 
Q 717 1248 797 1030 
Q 877 813 1024 653 
Q 1171 493 1379 400 
Q 1587 307 1850 307 
Q 2106 307 2326 400 
Q 2547 493 2707 653 
Q 2867 813 2956 1030 
Q 3046 1248 3046 1498 
Q 3046 1747 2956 1964 
Q 2867 2182 2707 2342 
Q 2547 2502 2326 2595 
Q 2106 2688 1850 2688 
Q 1587 2688 1379 2595 
Q 1171 2502 1024 2342 
Q 877 2182 797 1964 
Q 717 1747 717 1498 
z
M 3450 0 
L 3027 0 
L 3027 499 
L 3014 499 
Q 2912 346 2771 237 
Q 2630 128 2476 57 
Q 2323 -13 2160 -45 
Q 1997 -77 1850 -77 
Q 1498 -77 1206 41 
Q 915 160 704 371 
Q 493 582 374 870 
Q 256 1158 256 1498 
Q 256 1837 374 2125 
Q 493 2413 704 2624 
Q 915 2835 1206 2953 
Q 1498 3072 1850 3072 
Q 1997 3072 2160 3040 
Q 2323 3008 2476 2937 
Q 2630 2867 2771 2758 
Q 2912 2650 3014 2496 
L 3027 2496 
L 3027 4838 
L 3450 4838 
L 3450 0 
z
" transform="scale(0.015625)"/>
      <path id="Avenir-Book-79" d="M 1574 518 
L 2490 2995 
L 3002 2995 
L 1504 -781 
Q 1370 -1126 1162 -1331 
Q 954 -1536 563 -1536 
Q 467 -1536 368 -1529 
Q 269 -1523 173 -1491 
L 218 -1082 
Q 352 -1152 538 -1152 
Q 762 -1152 890 -1011 
Q 1018 -870 1114 -614 
L 1331 -38 
L 102 2995 
L 634 2995 
L 1574 518 
z
" transform="scale(0.015625)"/>
      <path id="Avenir-Book-75" d="M 2624 0 
Q 2611 122 2608 240 
Q 2605 358 2605 480 
L 2592 480 
Q 2522 358 2413 256 
Q 2304 154 2169 80 
Q 2035 6 1884 -35 
Q 1734 -77 1587 -77 
Q 1011 -77 736 227 
Q 461 531 461 1094 
L 461 2995 
L 883 2995 
L 883 1338 
Q 883 1088 921 896 
Q 960 704 1053 573 
Q 1146 442 1302 374 
Q 1459 307 1696 307 
Q 1728 307 1875 332 
Q 2022 358 2185 473 
Q 2349 589 2477 819 
Q 2605 1050 2605 1459 
L 2605 2995 
L 3027 2995 
L 3027 659 
Q 3027 538 3036 352 
Q 3046 166 3059 0 
L 2624 0 
z
" transform="scale(0.015625)"/>
      <path id="Avenir-Book-2da" d="M 1152 4160 
Q 1152 4320 1040 4429 
Q 928 4538 768 4538 
Q 608 4538 496 4429 
Q 384 4320 384 4160 
Q 384 4000 496 3891 
Q 608 3782 768 3782 
Q 928 3782 1040 3891 
Q 1152 4000 1152 4160 
z
M 1382 4160 
Q 1382 4032 1334 3920 
Q 1286 3808 1200 3725 
Q 1114 3642 1002 3597 
Q 890 3552 768 3552 
Q 640 3552 531 3597 
Q 422 3642 336 3725 
Q 250 3808 202 3920 
Q 154 4032 154 4160 
Q 154 4288 202 4400 
Q 250 4512 336 4592 
Q 422 4672 531 4720 
Q 640 4768 768 4768 
Q 890 4768 1002 4720 
Q 1114 4672 1200 4592 
Q 1286 4512 1334 4400 
Q 1382 4288 1382 4160 
z
" transform="scale(0.015625)"/>
      <path id="Avenir-Book-43" d="M 4346 717 
Q 4230 544 4060 390 
Q 3891 237 3673 125 
Q 3456 13 3203 -51 
Q 2950 -115 2669 -115 
Q 2163 -115 1731 64 
Q 1299 243 982 560 
Q 666 877 486 1312 
Q 307 1747 307 2266 
Q 307 2784 486 3219 
Q 666 3654 982 3971 
Q 1299 4288 1731 4467 
Q 2163 4646 2669 4646 
Q 3091 4646 3513 4480 
Q 3936 4314 4237 3930 
L 3834 3629 
Q 3763 3738 3641 3846 
Q 3520 3955 3363 4038 
Q 3206 4122 3027 4173 
Q 2848 4224 2669 4224 
Q 2234 4224 1888 4064 
Q 1542 3904 1302 3635 
Q 1062 3366 934 3011 
Q 806 2656 806 2266 
Q 806 1875 934 1520 
Q 1062 1165 1302 896 
Q 1542 627 1888 467 
Q 2234 307 2669 307 
Q 2848 307 3024 339 
Q 3200 371 3369 448 
Q 3539 525 3689 656 
Q 3840 787 3968 986 
L 4346 717 
z
" transform="scale(0.015625)"/>
     </defs>
     <use xlink:href="#Avenir-Book-42"/>
     <use xlink:href="#Avenir-Book-65" transform="translate(62.999985 0)"/>
     <use xlink:href="#Avenir-Book-73" transform="translate(118.599976 0)"/>
     <use xlink:href="#Avenir-Book-74" transform="translate(161.199966 0)"/>
     <use xlink:href="#Avenir-Book-20" transform="translate(194.399963 0)"/>
     <use xlink:href="#Avenir-Book-66" transform="translate(222.199951 0)"/>
     <use xlink:href="#Avenir-Book-69" transform="translate(251.799942 0)"/>
     <use xlink:href="#Avenir-Book-74" transform="translate(275.799927 0)"/>
     <use xlink:href="#Avenir-Book-20" transform="translate(308.999924 0)"/>
     <use xlink:href="#Avenir-Book-74" transform="translate(336.799911 0)"/>
     <use xlink:href="#Avenir-Book-69" transform="translate(369.999908 0)"/>
     <use xlink:href="#Avenir-Book-6d" transform="translate(393.999893 0)"/>
     <use xlink:href="#Avenir-Book-65" transform="translate(479.199875 0)"/>
     <use xlink:href="#Avenir-Book-3a" transform="translate(534.799866 0)"/>
     <use xlink:href="#Avenir-Book-20" transform="translate(562.599854 0)"/>
     <use xlink:href="#Avenir-Book-31" transform="translate(590.399841 0)"/>
     <use xlink:href="#Avenir-Book-37" transform="translate(645.999832 0)"/>
     <use xlink:href="#Avenir-Book-2e" transform="translate(701.599823 0)"/>
     <use xlink:href="#Avenir-Book-31" transform="translate(729.399811 0)"/>
     <use xlink:href="#Avenir-Book-b1" transform="translate(784.999802 0)"/>
     <use xlink:href="#Avenir-Book-30" transform="translate(851.599792 0)"/>
     <use xlink:href="#Avenir-Book-2e" transform="translate(907.199783 0)"/>
     <use xlink:href="#Avenir-Book-38" transform="translate(934.999771 0)"/>
     <use xlink:href="#Avenir-Book-20" transform="translate(990.599762 0)"/>
     <use xlink:href="#Avenir-Book-64" transform="translate(1018.39975 0)"/>
     <use xlink:href="#Avenir-Book-61" transform="translate(1079.499741 0)"/>
     <use xlink:href="#Avenir-Book-79" transform="translate(1131.399734 0)"/>
     <use xlink:href="#Avenir-Book-73" transform="translate(1179.599731 0)"/>
     <use xlink:href="#Avenir-Book-20" transform="translate(1222.199722 0)"/>
     <use xlink:href="#Avenir-Book-54" transform="translate(1249.99971 0)"/>
     <use xlink:href="#Avenir-Book-65" transform="translate(1296.274704 0)"/>
     <use xlink:href="#Avenir-Book-6d" transform="translate(1351.874695 0)"/>
     <use xlink:href="#Avenir-Book-70" transform="translate(1437.074677 0)"/>
     <use xlink:href="#Avenir-Book-65" transform="translate(1498.174667 0)"/>
     <use xlink:href="#Avenir-Book-72" transform="translate(1553.774658 0)"/>
     <use xlink:href="#Avenir-Book-61" transform="translate(1586.974655 0)"/>
     <use xlink:href="#Avenir-Book-74" transform="translate(1638.874649 0)"/>
     <use xlink:href="#Avenir-Book-75" transform="translate(1672.074646 0)"/>
     <use xlink:href="#Avenir-Book-72" transform="translate(1727.674637 0)"/>
     <use xlink:href="#Avenir-Book-65" transform="translate(1759.124634 0)"/>
     <use xlink:href="#Avenir-Book-3a" transform="translate(1814.724625 0)"/>
     <use xlink:href="#Avenir-Book-20" transform="translate(1842.524612 0)"/>
     <use xlink:href="#Avenir-Book-31" transform="translate(1870.3246 0)"/>
     <use xlink:href="#Avenir-Book-32" transform="translate(1925.924591 0)"/>
     <use xlink:href="#Avenir-Book-35" transform="translate(1981.524582 0)"/>
     <use xlink:href="#Avenir-Book-30" transform="translate(2037.124573 0)"/>
     <use xlink:href="#Avenir-Book-2e" transform="translate(2092.724564 0)"/>
     <use xlink:href="#Avenir-Book-30" transform="translate(2120.524551 0)"/>
     <use xlink:href="#Avenir-Book-20" transform="translate(2176.124542 0)"/>
     <use xlink:href="#Avenir-Book-2da" transform="translate(2203.92453 0)"/>
     <use xlink:href="#Avenir-Book-43" transform="translate(2227.924515 0)"/>
    </g>
   </g>
   <g id="legend_1">
    <g id="patch_7">
     <path d="M 379.77375 200.241375 
L 508.6 200.241375 
Q 511.4 200.241375 511.4 197.441375 
L 511.4 78.92 
Q 511.4 76.12 508.6 76.12 
L 379.77375 76.12 
Q 376.97375 76.12 376.97375 78.92 
L 376.97375 197.441375 
Q 376.97375 200.241375 379.77375 200.241375 
z
" style="fill: #ffffff; opacity: 0.8; stroke: #cccccc; stroke-linejoin: miter"/>
    </g>
    <g id="line2d_85">
     <path d="M 382.57375 87.403125 
L 396.57375 87.403125 
L 410.57375 87.403125 
" style="fill: none; stroke-dasharray: 7.4,3.2; stroke-dashoffset: 0; stroke: #f47e1f; stroke-width: 2"/>
     <g>
      <use xlink:href="#m467e012d04" x="396.57375" y="87.403125" style="fill: #f47e1f; stroke: #f47e1f"/>
     </g>
    </g>
    <g id="text_23">
     <!-- Data -->
     <g transform="translate(421.77375 92.303125) scale(0.14 -0.14)">
      <use xlink:href="#Avenir-Book-44"/>
      <use xlink:href="#Avenir-Book-61" transform="translate(74.099991 0)"/>
      <use xlink:href="#Avenir-Book-74" transform="translate(125.999985 0)"/>
      <use xlink:href="#Avenir-Book-61" transform="translate(159.199982 0)"/>
     </g>
    </g>
    <g id="line2d_86">
     <path d="M 382.57375 119.39925 
L 396.57375 119.39925 
L 410.57375 119.39925 
" style="fill: none; stroke-dasharray: 3.7,1.6; stroke-dashoffset: 0; stroke: #000000"/>
    </g>
    <g id="text_24">
     <!-- Interpolation  -->
     <g transform="translate(421.77375 113.917813) scale(0.14 -0.14)">
      <defs>
       <path id="Avenir-Book-49" d="M 1075 0 
L 614 0 
L 614 4531 
L 1075 4531 
L 1075 0 
z
" transform="scale(0.015625)"/>
      </defs>
      <use xlink:href="#Avenir-Book-49"/>
      <use xlink:href="#Avenir-Book-6e" transform="translate(26.399994 0)"/>
      <use xlink:href="#Avenir-Book-74" transform="translate(81.999985 0)"/>
      <use xlink:href="#Avenir-Book-65" transform="translate(115.199982 0)"/>
      <use xlink:href="#Avenir-Book-72" transform="translate(170.799973 0)"/>
      <use xlink:href="#Avenir-Book-70" transform="translate(203.999969 0)"/>
      <use xlink:href="#Avenir-Book-6f" transform="translate(265.09996 0)"/>
      <use xlink:href="#Avenir-Book-6c" transform="translate(324.399948 0)"/>
      <use xlink:href="#Avenir-Book-61" transform="translate(348.399933 0)"/>
      <use xlink:href="#Avenir-Book-74" transform="translate(400.299927 0)"/>
      <use xlink:href="#Avenir-Book-69" transform="translate(433.499924 0)"/>
      <use xlink:href="#Avenir-Book-6f" transform="translate(457.499908 0)"/>
      <use xlink:href="#Avenir-Book-6e" transform="translate(516.799896 0)"/>
      <use xlink:href="#Avenir-Book-20" transform="translate(572.399887 0)"/>
     </g>
     <!--   Uncertainty -->
     <g transform="translate(421.77375 130.649125) scale(0.14 -0.14)">
      <defs>
       <path id="Avenir-Book-55" d="M 3853 1690 
Q 3853 1408 3785 1091 
Q 3718 774 3532 505 
Q 3347 237 3024 61 
Q 2701 -115 2195 -115 
Q 1683 -115 1363 61 
Q 1043 237 857 505 
Q 672 774 605 1091 
Q 538 1408 538 1690 
L 538 4531 
L 998 4531 
L 998 1741 
Q 998 1414 1062 1180 
Q 1126 947 1232 787 
Q 1338 627 1469 534 
Q 1600 442 1731 390 
Q 1862 339 1984 323 
Q 2106 307 2195 307 
Q 2278 307 2403 323 
Q 2528 339 2659 390 
Q 2790 442 2921 534 
Q 3053 627 3158 787 
Q 3264 947 3328 1180 
Q 3392 1414 3392 1741 
L 3392 4531 
L 3853 4531 
L 3853 1690 
z
" transform="scale(0.015625)"/>
      </defs>
      <use xlink:href="#Avenir-Book-20"/>
      <use xlink:href="#Avenir-Book-20" transform="translate(27.799988 0)"/>
      <use xlink:href="#Avenir-Book-55" transform="translate(55.599976 0)"/>
      <use xlink:href="#Avenir-Book-6e" transform="translate(124.199966 0)"/>
      <use xlink:href="#Avenir-Book-63" transform="translate(179.799957 0)"/>
      <use xlink:href="#Avenir-Book-65" transform="translate(227.999954 0)"/>
      <use xlink:href="#Avenir-Book-72" transform="translate(283.599945 0)"/>
      <use xlink:href="#Avenir-Book-74" transform="translate(316.799942 0)"/>
      <use xlink:href="#Avenir-Book-61" transform="translate(349.999939 0)"/>
      <use xlink:href="#Avenir-Book-69" transform="translate(401.899933 0)"/>
      <use xlink:href="#Avenir-Book-6e" transform="translate(425.899918 0)"/>
      <use xlink:href="#Avenir-Book-74" transform="translate(481.499908 0)"/>
      <use xlink:href="#Avenir-Book-79" transform="translate(514.699905 0)"/>
     </g>
    </g>
    <g id="line2d_87">
     <path d="M 382.57375 157.74525 
L 396.57375 157.74525 
L 410.57375 157.74525 
" style="fill: none; stroke-dasharray: 7.4,3.2; stroke-dashoffset: 0; stroke: #1b878c; stroke-width: 2"/>
    </g>
    <g id="text_25">
     <!-- Initial  -->
     <g transform="translate(421.77375 152.263813) scale(0.14 -0.14)">
      <use xlink:href="#Avenir-Book-49"/>
      <use xlink:href="#Avenir-Book-6e" transform="translate(26.399994 0)"/>
      <use xlink:href="#Avenir-Book-69" transform="translate(81.999985 0)"/>
      <use xlink:href="#Avenir-Book-74" transform="translate(105.999969 0)"/>
      <use xlink:href="#Avenir-Book-69" transform="translate(139.199966 0)"/>
      <use xlink:href="#Avenir-Book-61" transform="translate(163.199951 0)"/>
      <use xlink:href="#Avenir-Book-6c" transform="translate(215.099945 0)"/>
      <use xlink:href="#Avenir-Book-20" transform="translate(239.09993 0)"/>
     </g>
     <!--  Condition -->
     <g transform="translate(421.77375 168.995125) scale(0.14 -0.14)">
      <use xlink:href="#Avenir-Book-20"/>
      <use xlink:href="#Avenir-Book-43" transform="translate(27.799988 0)"/>
      <use xlink:href="#Avenir-Book-6f" transform="translate(98.199982 0)"/>
      <use xlink:href="#Avenir-Book-6e" transform="translate(157.499969 0)"/>
      <use xlink:href="#Avenir-Book-64" transform="translate(213.09996 0)"/>
      <use xlink:href="#Avenir-Book-69" transform="translate(274.199951 0)"/>
      <use xlink:href="#Avenir-Book-74" transform="translate(298.199936 0)"/>
      <use xlink:href="#Avenir-Book-69" transform="translate(331.399933 0)"/>
      <use xlink:href="#Avenir-Book-6f" transform="translate(355.399918 0)"/>
      <use xlink:href="#Avenir-Book-6e" transform="translate(414.699905 0)"/>
     </g>
    </g>
    <g id="line2d_88">
     <path d="M 382.57375 185.709813 
L 396.57375 185.709813 
L 410.57375 185.709813 
" style="fill: none; stroke: #1fbecf; stroke-opacity: 0.8; stroke-width: 6; stroke-linecap: square"/>
    </g>
    <g id="text_26">
     <!-- Best fit -->
     <g transform="translate(421.77375 190.609813) scale(0.14 -0.14)">
      <use xlink:href="#Avenir-Book-42"/>
      <use xlink:href="#Avenir-Book-65" transform="translate(62.999985 0)"/>
      <use xlink:href="#Avenir-Book-73" transform="translate(118.599976 0)"/>
      <use xlink:href="#Avenir-Book-74" transform="translate(161.199966 0)"/>
      <use xlink:href="#Avenir-Book-20" transform="translate(194.399963 0)"/>
      <use xlink:href="#Avenir-Book-66" transform="translate(222.199951 0)"/>
      <use xlink:href="#Avenir-Book-69" transform="translate(251.799942 0)"/>
      <use xlink:href="#Avenir-Book-74" transform="translate(275.799927 0)"/>
     </g>
    </g>
   </g>
  </g>
  <g id="axes_2">
   <g id="matplotlib.axis_3">
    <g id="ytick_38">
     <g id="line2d_89">
      <defs>
       <path id="m010246936b" d="M 0 0 
L 3.5 0 
" style="stroke: #000000; stroke-width: 0.8"/>
      </defs>
      <g>
       <use xlink:href="#m010246936b" x="518.4" y="496.854348" style="stroke: #000000; stroke-width: 0.8"/>
      </g>
     </g>
     <g id="text_27">
      <!-- 0.005 -->
      <g style="fill: #d62728" transform="translate(525.4 502.14591) scale(0.14 -0.14)">
       <use xlink:href="#Avenir-Book-30"/>
       <use xlink:href="#Avenir-Book-2e" transform="translate(55.599991 0)"/>
       <use xlink:href="#Avenir-Book-30" transform="translate(83.399979 0)"/>
       <use xlink:href="#Avenir-Book-30" transform="translate(138.999969 0)"/>
       <use xlink:href="#Avenir-Book-35" transform="translate(194.59996 0)"/>
      </g>
     </g>
    </g>
    <g id="ytick_39">
     <g id="line2d_90">
      <g>
       <use xlink:href="#m010246936b" x="518.4" y="412.407483" style="stroke: #000000; stroke-width: 0.8"/>
      </g>
     </g>
     <g id="text_28">
      <!-- 0.010 -->
      <g style="fill: #d62728" transform="translate(525.4 417.699045) scale(0.14 -0.14)">
       <use xlink:href="#Avenir-Book-30"/>
       <use xlink:href="#Avenir-Book-2e" transform="translate(55.599991 0)"/>
       <use xlink:href="#Avenir-Book-30" transform="translate(83.399979 0)"/>
       <use xlink:href="#Avenir-Book-31" transform="translate(138.999969 0)"/>
       <use xlink:href="#Avenir-Book-30" transform="translate(194.59996 0)"/>
      </g>
     </g>
    </g>
    <g id="ytick_40">
     <g id="line2d_91">
      <g>
       <use xlink:href="#m010246936b" x="518.4" y="327.960618" style="stroke: #000000; stroke-width: 0.8"/>
      </g>
     </g>
     <g id="text_29">
      <!-- 0.015 -->
      <g style="fill: #d62728" transform="translate(525.4 333.252181) scale(0.14 -0.14)">
       <use xlink:href="#Avenir-Book-30"/>
       <use xlink:href="#Avenir-Book-2e" transform="translate(55.599991 0)"/>
       <use xlink:href="#Avenir-Book-30" transform="translate(83.399979 0)"/>
       <use xlink:href="#Avenir-Book-31" transform="translate(138.999969 0)"/>
       <use xlink:href="#Avenir-Book-35" transform="translate(194.59996 0)"/>
      </g>
     </g>
    </g>
    <g id="ytick_41">
     <g id="line2d_92">
      <g>
       <use xlink:href="#m010246936b" x="518.4" y="243.513754" style="stroke: #000000; stroke-width: 0.8"/>
      </g>
     </g>
     <g id="text_30">
      <!-- 0.020 -->
      <g style="fill: #d62728" transform="translate(525.4 248.805316) scale(0.14 -0.14)">
       <use xlink:href="#Avenir-Book-30"/>
       <use xlink:href="#Avenir-Book-2e" transform="translate(55.599991 0)"/>
       <use xlink:href="#Avenir-Book-30" transform="translate(83.399979 0)"/>
       <use xlink:href="#Avenir-Book-32" transform="translate(138.999969 0)"/>
       <use xlink:href="#Avenir-Book-30" transform="translate(194.59996 0)"/>
      </g>
     </g>
    </g>
    <g id="ytick_42">
     <g id="line2d_93">
      <g>
       <use xlink:href="#m010246936b" x="518.4" y="159.066889" style="stroke: #000000; stroke-width: 0.8"/>
      </g>
     </g>
     <g id="text_31">
      <!-- 0.025 -->
      <g style="fill: #d62728" transform="translate(525.4 164.358451) scale(0.14 -0.14)">
       <use xlink:href="#Avenir-Book-30"/>
       <use xlink:href="#Avenir-Book-2e" transform="translate(55.599991 0)"/>
       <use xlink:href="#Avenir-Book-30" transform="translate(83.399979 0)"/>
       <use xlink:href="#Avenir-Book-32" transform="translate(138.999969 0)"/>
       <use xlink:href="#Avenir-Book-35" transform="translate(194.59996 0)"/>
      </g>
     </g>
    </g>
    <g id="ytick_43">
     <g id="line2d_94">
      <g>
       <use xlink:href="#m010246936b" x="518.4" y="74.620024" style="stroke: #000000; stroke-width: 0.8"/>
      </g>
     </g>
     <g id="text_32">
      <!-- 0.030 -->
      <g style="fill: #d62728" transform="translate(525.4 79.911587) scale(0.14 -0.14)">
       <use xlink:href="#Avenir-Book-30"/>
       <use xlink:href="#Avenir-Book-2e" transform="translate(55.599991 0)"/>
       <use xlink:href="#Avenir-Book-30" transform="translate(83.399979 0)"/>
       <use xlink:href="#Avenir-Book-33" transform="translate(138.999969 0)"/>
       <use xlink:href="#Avenir-Book-30" transform="translate(194.59996 0)"/>
      </g>
     </g>
    </g>
    <g id="text_33">
     <!-- P2O5 -->
     <g style="fill: #d62728" transform="translate(575.007187 308.52) rotate(-90) scale(0.14 -0.14)">
      <defs>
       <path id="Avenir-Book-50" d="M 1075 2528 
L 1818 2528 
Q 2125 2528 2339 2592 
Q 2554 2656 2682 2761 
Q 2810 2867 2867 3011 
Q 2925 3155 2925 3322 
Q 2925 3482 2867 3626 
Q 2810 3770 2682 3878 
Q 2554 3987 2339 4048 
Q 2125 4109 1818 4109 
L 1075 4109 
L 1075 2528 
z
M 614 4531 
L 1933 4531 
Q 2624 4531 3024 4230 
Q 3424 3930 3424 3322 
Q 3424 2714 3024 2410 
Q 2624 2106 1933 2106 
L 1075 2106 
L 1075 0 
L 614 0 
L 614 4531 
z
" transform="scale(0.015625)"/>
       <path id="Avenir-Book-4f" d="M 4531 2266 
Q 4531 2656 4403 3011 
Q 4275 3366 4035 3635 
Q 3795 3904 3449 4064 
Q 3104 4224 2669 4224 
Q 2234 4224 1888 4064 
Q 1542 3904 1302 3635 
Q 1062 3366 934 3011 
Q 806 2656 806 2266 
Q 806 1875 934 1520 
Q 1062 1165 1302 896 
Q 1542 627 1888 467 
Q 2234 307 2669 307 
Q 3104 307 3449 467 
Q 3795 627 4035 896 
Q 4275 1165 4403 1520 
Q 4531 1875 4531 2266 
z
M 5030 2266 
Q 5030 1747 4851 1312 
Q 4672 877 4355 560 
Q 4038 243 3606 64 
Q 3174 -115 2669 -115 
Q 2163 -115 1731 64 
Q 1299 243 982 560 
Q 666 877 486 1312 
Q 307 1747 307 2266 
Q 307 2784 486 3219 
Q 666 3654 982 3971 
Q 1299 4288 1731 4467 
Q 2163 4646 2669 4646 
Q 3174 4646 3606 4467 
Q 4038 4288 4355 3971 
Q 4672 3654 4851 3219 
Q 5030 2784 5030 2266 
z
" transform="scale(0.015625)"/>
      </defs>
      <use xlink:href="#Avenir-Book-50"/>
      <use xlink:href="#Avenir-Book-32" transform="translate(57.399994 0)"/>
      <use xlink:href="#Avenir-Book-4f" transform="translate(112.999985 0)"/>
      <use xlink:href="#Avenir-Book-35" transform="translate(196.399979 0)"/>
     </g>
    </g>
   </g>
   <g id="line2d_95">
    <path d="M 80.425589 435.630371 
L 90.826757 475.691963 
L 101.2699 442.63946 
L 111.671068 390.653971 
L 122.072235 266.77042 
L 132.515379 436.390392 
L 132.586793 484.271765 
L 142.916546 432.438279 
L 153.317714 442.267894 
L 163.718881 418.268095 
L 174.162025 488.190099 
L 184.563192 477.499126 
L 184.705211 419.75436 
L 194.96436 492.48 
L 205.407503 424.686057 
L 215.80867 467.753958 
L 226.209838 198.672468 
L 236.652981 177.425637 
L 236.866415 173.237073 
L 247.054149 185.515647 
L 257.455316 89.28 
L 267.89846 101.102561 
L 278.299627 107.807642 
L 288.700795 110.965955 
L 288.984833 184.569842 
L 299.101962 99.295398 
L 309.545106 192.4234 
L 319.946273 180.398167 
L 330.347441 157.833965 
L 340.790584 130.439402 
L 341.146037 220.020636 
L 351.191751 189.636654 
L 393.264454 234.849505 
L 445.425658 265.250377 
L 497.544076 196.341735 
" clip-path="url(#p64d6c2022f)" style="fill: none; stroke-dasharray: 5.55,2.4; stroke-dashoffset: 0; stroke: #d62728; stroke-width: 1.5"/>
    <defs>
     <path id="m828e29b729" d="M -3 3 
L 3 3 
L 3 -3 
L -3 -3 
z
" style="stroke: #d62728; stroke-linejoin: miter"/>
    </defs>
    <g clip-path="url(#p64d6c2022f)">
     <use xlink:href="#m828e29b729" x="80.425589" y="435.630371" style="fill: #d62728; stroke: #d62728; stroke-linejoin: miter"/>
     <use xlink:href="#m828e29b729" x="90.826757" y="475.691963" style="fill: #d62728; stroke: #d62728; stroke-linejoin: miter"/>
     <use xlink:href="#m828e29b729" x="101.2699" y="442.63946" style="fill: #d62728; stroke: #d62728; stroke-linejoin: miter"/>
     <use xlink:href="#m828e29b729" x="111.671068" y="390.653971" style="fill: #d62728; stroke: #d62728; stroke-linejoin: miter"/>
     <use xlink:href="#m828e29b729" x="122.072235" y="266.77042" style="fill: #d62728; stroke: #d62728; stroke-linejoin: miter"/>
     <use xlink:href="#m828e29b729" x="132.515379" y="436.390392" style="fill: #d62728; stroke: #d62728; stroke-linejoin: miter"/>
     <use xlink:href="#m828e29b729" x="132.586793" y="484.271765" style="fill: #d62728; stroke: #d62728; stroke-linejoin: miter"/>
     <use xlink:href="#m828e29b729" x="142.916546" y="432.438279" style="fill: #d62728; stroke: #d62728; stroke-linejoin: miter"/>
     <use xlink:href="#m828e29b729" x="153.317714" y="442.267894" style="fill: #d62728; stroke: #d62728; stroke-linejoin: miter"/>
     <use xlink:href="#m828e29b729" x="163.718881" y="418.268095" style="fill: #d62728; stroke: #d62728; stroke-linejoin: miter"/>
     <use xlink:href="#m828e29b729" x="174.162025" y="488.190099" style="fill: #d62728; stroke: #d62728; stroke-linejoin: miter"/>
     <use xlink:href="#m828e29b729" x="184.563192" y="477.499126" style="fill: #d62728; stroke: #d62728; stroke-linejoin: miter"/>
     <use xlink:href="#m828e29b729" x="184.705211" y="419.75436" style="fill: #d62728; stroke: #d62728; stroke-linejoin: miter"/>
     <use xlink:href="#m828e29b729" x="194.96436" y="492.48" style="fill: #d62728; stroke: #d62728; stroke-linejoin: miter"/>
     <use xlink:href="#m828e29b729" x="205.407503" y="424.686057" style="fill: #d62728; stroke: #d62728; stroke-linejoin: miter"/>
     <use xlink:href="#m828e29b729" x="215.80867" y="467.753958" style="fill: #d62728; stroke: #d62728; stroke-linejoin: miter"/>
     <use xlink:href="#m828e29b729" x="226.209838" y="198.672468" style="fill: #d62728; stroke: #d62728; stroke-linejoin: miter"/>
     <use xlink:href="#m828e29b729" x="236.652981" y="177.425637" style="fill: #d62728; stroke: #d62728; stroke-linejoin: miter"/>
     <use xlink:href="#m828e29b729" x="236.866415" y="173.237073" style="fill: #d62728; stroke: #d62728; stroke-linejoin: miter"/>
     <use xlink:href="#m828e29b729" x="247.054149" y="185.515647" style="fill: #d62728; stroke: #d62728; stroke-linejoin: miter"/>
     <use xlink:href="#m828e29b729" x="257.455316" y="89.28" style="fill: #d62728; stroke: #d62728; stroke-linejoin: miter"/>
     <use xlink:href="#m828e29b729" x="267.89846" y="101.102561" style="fill: #d62728; stroke: #d62728; stroke-linejoin: miter"/>
     <use xlink:href="#m828e29b729" x="278.299627" y="107.807642" style="fill: #d62728; stroke: #d62728; stroke-linejoin: miter"/>
     <use xlink:href="#m828e29b729" x="288.700795" y="110.965955" style="fill: #d62728; stroke: #d62728; stroke-linejoin: miter"/>
     <use xlink:href="#m828e29b729" x="288.984833" y="184.569842" style="fill: #d62728; stroke: #d62728; stroke-linejoin: miter"/>
     <use xlink:href="#m828e29b729" x="299.101962" y="99.295398" style="fill: #d62728; stroke: #d62728; stroke-linejoin: miter"/>
     <use xlink:href="#m828e29b729" x="309.545106" y="192.4234" style="fill: #d62728; stroke: #d62728; stroke-linejoin: miter"/>
     <use xlink:href="#m828e29b729" x="319.946273" y="180.398167" style="fill: #d62728; stroke: #d62728; stroke-linejoin: miter"/>
     <use xlink:href="#m828e29b729" x="330.347441" y="157.833965" style="fill: #d62728; stroke: #d62728; stroke-linejoin: miter"/>
     <use xlink:href="#m828e29b729" x="340.790584" y="130.439402" style="fill: #d62728; stroke: #d62728; stroke-linejoin: miter"/>
     <use xlink:href="#m828e29b729" x="341.146037" y="220.020636" style="fill: #d62728; stroke: #d62728; stroke-linejoin: miter"/>
     <use xlink:href="#m828e29b729" x="351.191751" y="189.636654" style="fill: #d62728; stroke: #d62728; stroke-linejoin: miter"/>
     <use xlink:href="#m828e29b729" x="393.264454" y="234.849505" style="fill: #d62728; stroke: #d62728; stroke-linejoin: miter"/>
     <use xlink:href="#m828e29b729" x="445.425658" y="265.250377" style="fill: #d62728; stroke: #d62728; stroke-linejoin: miter"/>
     <use xlink:href="#m828e29b729" x="497.544076" y="196.341735" style="fill: #d62728; stroke: #d62728; stroke-linejoin: miter"/>
    </g>
   </g>
   <g id="patch_8">
    <path d="M 72 512.64 
L 72 69.12 
" style="fill: none; stroke: #000000; stroke-width: 2; stroke-linejoin: miter; stroke-linecap: square"/>
   </g>
   <g id="patch_9">
    <path d="M 518.4 512.64 
L 518.4 69.12 
" style="fill: none; stroke: #000000; stroke-width: 2; stroke-linejoin: miter; stroke-linecap: square"/>
   </g>
   <g id="patch_10">
    <path d="M 72 512.64 
L 518.4 512.64 
" style="fill: none; stroke: #000000; stroke-width: 2; stroke-linejoin: miter; stroke-linecap: square"/>
   </g>
   <g id="patch_11">
    <path d="M 72 69.12 
L 518.4 69.12 
" style="fill: none; stroke: #000000; stroke-width: 2; stroke-linejoin: miter; stroke-linecap: square"/>
   </g>
   <g id="legend_2">
    <g id="patch_12">
     <path d="M 428.52 101.934687 
L 508.6 101.934687 
Q 511.4 101.934687 511.4 99.134687 
L 511.4 78.92 
Q 511.4 76.12 508.6 76.12 
L 428.52 76.12 
Q 425.72 76.12 425.72 78.92 
L 425.72 99.134687 
Q 425.72 101.934687 428.52 101.934687 
z
" style="fill: #ffffff; opacity: 0.8; stroke: #cccccc; stroke-linejoin: miter"/>
    </g>
    <g id="line2d_96">
     <path d="M 431.32 87.403125 
L 445.32 87.403125 
L 459.32 87.403125 
" style="fill: none; stroke-dasharray: 5.55,2.4; stroke-dashoffset: 0; stroke: #d62728; stroke-width: 1.5"/>
     <g>
      <use xlink:href="#m828e29b729" x="445.32" y="87.403125" style="fill: #d62728; stroke: #d62728; stroke-linejoin: miter"/>
     </g>
    </g>
    <g id="text_34">
     <!-- P2O5 -->
     <g transform="translate(470.52 92.303125) scale(0.14 -0.14)">
      <use xlink:href="#Avenir-Book-50"/>
      <use xlink:href="#Avenir-Book-32" transform="translate(57.399994 0)"/>
      <use xlink:href="#Avenir-Book-4f" transform="translate(112.999985 0)"/>
      <use xlink:href="#Avenir-Book-35" transform="translate(196.399979 0)"/>
     </g>
    </g>
   </g>
  </g>
 </g>
 <defs>
  <clipPath id="p64d6c2022f">
   <rect x="72" y="69.12" width="446.4" height="443.52"/>
  </clipPath>
 </defs>
</svg>
