<?xml version="1.0" encoding="utf-8" standalone="no"?>
<!DOCTYPE svg PUBLIC "-//W3C//DTD SVG 1.1//EN"
  "http://www.w3.org/Graphics/SVG/1.1/DTD/svg11.dtd">
<svg xmlns:xlink="http://www.w3.org/1999/xlink" width="864pt" height="576pt" viewBox="0 0 864 576" xmlns="http://www.w3.org/2000/svg" version="1.1">
 <metadata>
  <rdf:RDF xmlns:dc="http://purl.org/dc/elements/1.1/" xmlns:cc="http://creativecommons.org/ns#" xmlns:rdf="http://www.w3.org/1999/02/22-rdf-syntax-ns#">
   <cc:Work>
    <dc:type rdf:resource="http://purl.org/dc/dcmitype/StillImage"/>
    <dc:date>2025-10-23T14:52:53.677603</dc:date>
    <dc:format>image/svg+xml</dc:format>
    <dc:creator>
     <cc:Agent>
      <dc:title>Matplotlib v3.10.6, https://matplotlib.org/</dc:title>
     </cc:Agent>
    </dc:creator>
   </cc:Work>
  </rdf:RDF>
 </metadata>
 <defs>
  <style type="text/css">*{stroke-linejoin: round; stroke-linecap: butt}</style>
 </defs>
 <g id="figure_1">
  <g id="patch_1">
   <path d="M 0 576 
L 864 576 
L 864 0 
L 0 0 
z
" style="fill: #ffffff"/>
  </g>
  <g id="axes_1">
   <g id="patch_2">
    <path d="M 108 512.64 
L 777.6 512.64 
L 777.6 69.12 
L 108 69.12 
z
" style="fill: #ffffff"/>
   </g>
   <g id="matplotlib.axis_1">
    <g id="xtick_1">
     <g id="line2d_1">
      <defs>
       <path id="m329ed18898" d="M 0 0 
L 0 7 
" style="stroke: #000000; stroke-width: 2"/>
      </defs>
      <g>
       <use xlink:href="#m329ed18898" x="117.527813" y="512.64" style="stroke: #000000; stroke-width: 2"/>
      </g>
     </g>
     <g id="text_1">
      <!-- 0 -->
      <g transform="translate(113.636251 533.723125) scale(0.14 -0.14)">
       <defs>
        <path id="Avenir-Book-30" d="M 1779 4186 
Q 1408 4186 1193 3987 
Q 979 3789 870 3494 
Q 762 3200 733 2867 
Q 704 2534 704 2266 
Q 704 1997 733 1664 
Q 762 1331 870 1036 
Q 979 742 1193 544 
Q 1408 346 1779 346 
Q 2150 346 2364 544 
Q 2579 742 2688 1036 
Q 2797 1331 2825 1664 
Q 2854 1997 2854 2266 
Q 2854 2534 2825 2867 
Q 2797 3200 2688 3494 
Q 2579 3789 2364 3987 
Q 2150 4186 1779 4186 
z
M 1779 4608 
Q 2266 4608 2566 4384 
Q 2867 4160 3033 3814 
Q 3200 3469 3257 3056 
Q 3315 2643 3315 2266 
Q 3315 1888 3257 1475 
Q 3200 1062 3033 716 
Q 2867 371 2566 147 
Q 2266 -77 1779 -77 
Q 1293 -77 992 147 
Q 691 371 524 716 
Q 358 1062 300 1475 
Q 243 1888 243 2266 
Q 243 2643 300 3056 
Q 358 3469 524 3814 
Q 691 4160 992 4384 
Q 1293 4608 1779 4608 
z
" transform="scale(0.015625)"/>
       </defs>
       <use xlink:href="#Avenir-Book-30"/>
      </g>
     </g>
    </g>
    <g id="xtick_2">
     <g id="line2d_2">
      <g>
       <use xlink:href="#m329ed18898" x="165.166881" y="512.64" style="stroke: #000000; stroke-width: 2"/>
      </g>
     </g>
     <g id="text_2">
      <!-- 10 -->
      <g transform="translate(157.383756 533.723125) scale(0.14 -0.14)">
       <defs>
        <path id="Avenir-Book-31" d="M 2227 0 
L 1766 0 
L 1766 3955 
L 954 3238 
L 666 3584 
L 1818 4531 
L 2227 4531 
L 2227 0 
z
" transform="scale(0.015625)"/>
       </defs>
       <use xlink:href="#Avenir-Book-31"/>
       <use xlink:href="#Avenir-Book-30" transform="translate(55.599991 0)"/>
      </g>
     </g>
    </g>
    <g id="xtick_3">
     <g id="line2d_3">
      <g>
       <use xlink:href="#m329ed18898" x="212.805948" y="512.64" style="stroke: #000000; stroke-width: 2"/>
      </g>
     </g>
     <g id="text_3">
      <!-- 20 -->
      <g transform="translate(205.022823 533.723125) scale(0.14 -0.14)">
       <defs>
        <path id="Avenir-Book-32" d="M 3187 0 
L 307 0 
L 307 531 
L 2112 2368 
Q 2214 2470 2316 2585 
Q 2419 2701 2502 2829 
Q 2586 2957 2637 3097 
Q 2688 3238 2688 3392 
Q 2688 3578 2621 3725 
Q 2554 3872 2432 3974 
Q 2310 4077 2150 4131 
Q 1990 4186 1811 4186 
Q 1466 4186 1222 3994 
Q 979 3802 909 3475 
L 422 3526 
Q 518 4032 886 4320 
Q 1254 4608 1779 4608 
Q 2054 4608 2300 4534 
Q 2547 4461 2736 4313 
Q 2925 4166 3037 3945 
Q 3149 3725 3149 3430 
Q 3149 3168 3069 2950 
Q 2989 2733 2861 2541 
Q 2733 2349 2569 2176 
Q 2406 2003 2234 1837 
L 806 422 
L 3187 422 
L 3187 0 
z
" transform="scale(0.015625)"/>
       </defs>
       <use xlink:href="#Avenir-Book-32"/>
       <use xlink:href="#Avenir-Book-30" transform="translate(55.599991 0)"/>
      </g>
     </g>
    </g>
    <g id="xtick_4">
     <g id="line2d_4">
      <g>
       <use xlink:href="#m329ed18898" x="260.445015" y="512.64" style="stroke: #000000; stroke-width: 2"/>
      </g>
     </g>
     <g id="text_4">
      <!-- 30 -->
      <g transform="translate(252.66189 533.723125) scale(0.14 -0.14)">
       <defs>
        <path id="Avenir-Book-33" d="M 1306 2586 
L 1542 2586 
Q 1741 2586 1923 2630 
Q 2106 2675 2240 2774 
Q 2374 2874 2454 3034 
Q 2534 3194 2534 3418 
Q 2534 3782 2313 3984 
Q 2093 4186 1696 4186 
Q 1408 4186 1190 4058 
Q 973 3930 832 3686 
L 429 3891 
Q 634 4256 950 4432 
Q 1267 4608 1683 4608 
Q 1952 4608 2189 4531 
Q 2426 4454 2605 4304 
Q 2784 4154 2889 3933 
Q 2995 3712 2995 3430 
Q 2995 3245 2934 3078 
Q 2874 2912 2768 2777 
Q 2662 2643 2521 2544 
Q 2381 2445 2227 2394 
L 2246 2381 
Q 2438 2342 2598 2236 
Q 2758 2131 2873 1977 
Q 2989 1824 3053 1632 
Q 3117 1440 3117 1229 
Q 3117 915 3001 672 
Q 2886 429 2688 262 
Q 2490 96 2227 9 
Q 1965 -77 1670 -77 
Q 1171 -77 800 140 
Q 429 358 243 838 
L 730 986 
Q 845 659 1072 502 
Q 1299 346 1709 346 
Q 1901 346 2073 410 
Q 2246 474 2377 592 
Q 2509 710 2582 876 
Q 2656 1043 2656 1242 
Q 2656 1498 2560 1674 
Q 2464 1850 2304 1958 
Q 2144 2067 1936 2115 
Q 1728 2163 1504 2163 
L 1306 2163 
L 1306 2586 
z
" transform="scale(0.015625)"/>
       </defs>
       <use xlink:href="#Avenir-Book-33"/>
       <use xlink:href="#Avenir-Book-30" transform="translate(55.599991 0)"/>
      </g>
     </g>
    </g>
    <g id="xtick_5">
     <g id="line2d_5">
      <g>
       <use xlink:href="#m329ed18898" x="308.084082" y="512.64" style="stroke: #000000; stroke-width: 2"/>
      </g>
     </g>
     <g id="text_5">
      <!-- 40 -->
      <g transform="translate(300.300957 533.723125) scale(0.14 -0.14)">
       <defs>
        <path id="Avenir-Book-34" d="M 2202 4070 
L 2189 4070 
L 627 1498 
L 2202 1498 
L 2202 4070 
z
M 2662 1498 
L 3315 1498 
L 3315 1075 
L 2662 1075 
L 2662 0 
L 2202 0 
L 2202 1075 
L 243 1075 
L 243 1600 
L 2074 4531 
L 2662 4531 
L 2662 1498 
z
" transform="scale(0.015625)"/>
       </defs>
       <use xlink:href="#Avenir-Book-34"/>
       <use xlink:href="#Avenir-Book-30" transform="translate(55.599991 0)"/>
      </g>
     </g>
    </g>
    <g id="xtick_6">
     <g id="line2d_6">
      <g>
       <use xlink:href="#m329ed18898" x="355.72315" y="512.64" style="stroke: #000000; stroke-width: 2"/>
      </g>
     </g>
     <g id="text_6">
      <!-- 50 -->
      <g transform="translate(347.940025 533.723125) scale(0.14 -0.14)">
       <defs>
        <path id="Avenir-Book-35" d="M 2976 4109 
L 1120 4109 
L 1094 2746 
Q 1242 2803 1395 2828 
Q 1549 2854 1702 2854 
Q 2022 2854 2284 2745 
Q 2547 2637 2736 2441 
Q 2925 2246 3030 1980 
Q 3136 1715 3136 1402 
Q 3136 1075 3021 803 
Q 2906 531 2701 336 
Q 2496 141 2217 32 
Q 1939 -77 1613 -77 
Q 1184 -77 838 128 
Q 493 333 307 730 
L 762 928 
Q 890 659 1120 502 
Q 1350 346 1651 346 
Q 1869 346 2054 426 
Q 2240 506 2377 640 
Q 2515 774 2595 960 
Q 2675 1146 2675 1357 
Q 2675 1594 2592 1792 
Q 2509 1990 2361 2134 
Q 2214 2278 2009 2355 
Q 1805 2432 1562 2432 
Q 1318 2432 1078 2365 
Q 838 2298 621 2182 
L 666 4531 
L 2976 4531 
L 2976 4109 
z
" transform="scale(0.015625)"/>
       </defs>
       <use xlink:href="#Avenir-Book-35"/>
       <use xlink:href="#Avenir-Book-30" transform="translate(55.599991 0)"/>
      </g>
     </g>
    </g>
    <g id="xtick_7">
     <g id="line2d_7">
      <g>
       <use xlink:href="#m329ed18898" x="403.362217" y="512.64" style="stroke: #000000; stroke-width: 2"/>
      </g>
     </g>
     <g id="text_7">
      <!-- 60 -->
      <g transform="translate(395.579092 533.723125) scale(0.14 -0.14)">
       <defs>
        <path id="Avenir-Book-36" d="M 768 1325 
Q 768 1107 841 928 
Q 915 749 1049 617 
Q 1184 486 1369 416 
Q 1555 346 1779 346 
Q 2003 346 2188 416 
Q 2374 486 2508 617 
Q 2643 749 2716 928 
Q 2790 1107 2790 1325 
Q 2790 1542 2716 1721 
Q 2643 1901 2508 2029 
Q 2374 2157 2188 2230 
Q 2003 2304 1779 2304 
Q 1555 2304 1369 2230 
Q 1184 2157 1049 2029 
Q 915 1901 841 1721 
Q 768 1542 768 1325 
z
M 1229 2586 
L 1242 2573 
Q 1350 2650 1532 2688 
Q 1715 2726 1869 2726 
Q 2163 2726 2416 2620 
Q 2669 2515 2854 2329 
Q 3040 2144 3145 1888 
Q 3251 1632 3251 1325 
Q 3251 1011 3142 755 
Q 3034 499 2835 313 
Q 2637 128 2368 25 
Q 2099 -77 1779 -77 
Q 1459 -77 1190 25 
Q 922 128 723 313 
Q 525 499 416 755 
Q 307 1011 307 1325 
Q 307 1702 419 1984 
Q 531 2266 698 2541 
L 1920 4531 
L 2464 4531 
L 1229 2586 
z
" transform="scale(0.015625)"/>
       </defs>
       <use xlink:href="#Avenir-Book-36"/>
       <use xlink:href="#Avenir-Book-30" transform="translate(55.599991 0)"/>
      </g>
     </g>
    </g>
    <g id="xtick_8">
     <g id="line2d_8">
      <g>
       <use xlink:href="#m329ed18898" x="451.001284" y="512.64" style="stroke: #000000; stroke-width: 2"/>
      </g>
     </g>
     <g id="text_8">
      <!-- 70 -->
      <g transform="translate(443.218159 533.723125) scale(0.14 -0.14)">
       <defs>
        <path id="Avenir-Book-37" d="M 3034 4109 
L 1210 0 
L 691 0 
L 2554 4109 
L 346 4109 
L 346 4531 
L 3034 4531 
L 3034 4109 
z
" transform="scale(0.015625)"/>
       </defs>
       <use xlink:href="#Avenir-Book-37"/>
       <use xlink:href="#Avenir-Book-30" transform="translate(55.599991 0)"/>
      </g>
     </g>
    </g>
    <g id="xtick_9">
     <g id="line2d_9">
      <g>
       <use xlink:href="#m329ed18898" x="498.640352" y="512.64" style="stroke: #000000; stroke-width: 2"/>
      </g>
     </g>
     <g id="text_9">
      <!-- 80 -->
      <g transform="translate(490.857227 533.723125) scale(0.14 -0.14)">
       <defs>
        <path id="Avenir-Book-38" d="M 2752 1274 
Q 2752 1472 2681 1641 
Q 2611 1811 2486 1936 
Q 2362 2061 2179 2131 
Q 1997 2202 1779 2202 
Q 1555 2202 1376 2131 
Q 1197 2061 1072 1936 
Q 947 1811 876 1641 
Q 806 1472 806 1274 
Q 806 1075 876 905 
Q 947 736 1072 611 
Q 1197 486 1376 416 
Q 1555 346 1779 346 
Q 1997 346 2179 416 
Q 2362 486 2486 611 
Q 2611 736 2681 905 
Q 2752 1075 2752 1274 
z
M 2586 3386 
Q 2586 3558 2525 3705 
Q 2464 3853 2355 3958 
Q 2246 4064 2099 4125 
Q 1952 4186 1779 4186 
Q 1606 4186 1459 4125 
Q 1312 4064 1203 3958 
Q 1094 3853 1033 3705 
Q 973 3558 973 3386 
Q 973 3213 1033 3065 
Q 1094 2918 1203 2812 
Q 1312 2707 1459 2646 
Q 1606 2586 1779 2586 
Q 1952 2586 2099 2646 
Q 2246 2707 2355 2812 
Q 2464 2918 2525 3065 
Q 2586 3213 2586 3386 
z
M 1190 2413 
Q 1043 2464 918 2563 
Q 794 2662 704 2796 
Q 614 2931 563 3091 
Q 512 3251 512 3424 
Q 512 3693 614 3913 
Q 717 4134 889 4288 
Q 1062 4442 1292 4525 
Q 1523 4608 1779 4608 
Q 2035 4608 2265 4525 
Q 2496 4442 2669 4288 
Q 2842 4134 2944 3913 
Q 3046 3693 3046 3424 
Q 3046 3251 2995 3091 
Q 2944 2931 2854 2796 
Q 2765 2662 2640 2563 
Q 2515 2464 2368 2413 
L 2368 2400 
Q 2752 2298 2982 1978 
Q 3213 1658 3213 1210 
Q 3213 915 3094 678 
Q 2976 442 2781 272 
Q 2586 102 2326 12 
Q 2067 -77 1779 -77 
Q 1491 -77 1232 12 
Q 973 102 777 272 
Q 582 442 464 678 
Q 346 915 346 1210 
Q 346 1658 576 1978 
Q 806 2298 1190 2400 
L 1190 2413 
z
" transform="scale(0.015625)"/>
       </defs>
       <use xlink:href="#Avenir-Book-38"/>
       <use xlink:href="#Avenir-Book-30" transform="translate(55.599991 0)"/>
      </g>
     </g>
    </g>
    <g id="xtick_10">
     <g id="line2d_10">
      <g>
       <use xlink:href="#m329ed18898" x="546.279419" y="512.64" style="stroke: #000000; stroke-width: 2"/>
      </g>
     </g>
     <g id="text_10">
      <!-- 90 -->
      <g transform="translate(538.496294 533.723125) scale(0.14 -0.14)">
       <defs>
        <path id="Avenir-Book-39" d="M 2790 3206 
Q 2790 3424 2716 3603 
Q 2643 3782 2508 3910 
Q 2374 4038 2188 4112 
Q 2003 4186 1779 4186 
Q 1555 4186 1369 4112 
Q 1184 4038 1049 3910 
Q 915 3782 841 3603 
Q 768 3424 768 3206 
Q 768 2989 841 2809 
Q 915 2630 1049 2499 
Q 1184 2368 1369 2297 
Q 1555 2227 1779 2227 
Q 2003 2227 2188 2297 
Q 2374 2368 2508 2499 
Q 2643 2630 2716 2809 
Q 2790 2989 2790 3206 
z
M 2330 1946 
L 2317 1958 
Q 2208 1882 2025 1843 
Q 1843 1805 1690 1805 
Q 1395 1805 1142 1910 
Q 890 2016 704 2201 
Q 518 2387 412 2643 
Q 307 2899 307 3206 
Q 307 3520 416 3776 
Q 525 4032 723 4217 
Q 922 4403 1190 4505 
Q 1459 4608 1779 4608 
Q 2099 4608 2368 4505 
Q 2637 4403 2835 4217 
Q 3034 4032 3142 3776 
Q 3251 3520 3251 3206 
Q 3251 2829 3139 2547 
Q 3027 2266 2861 1990 
L 1638 0 
L 1094 0 
L 2330 1946 
z
" transform="scale(0.015625)"/>
       </defs>
       <use xlink:href="#Avenir-Book-39"/>
       <use xlink:href="#Avenir-Book-30" transform="translate(55.599991 0)"/>
      </g>
     </g>
    </g>
    <g id="xtick_11">
     <g id="line2d_11">
      <g>
       <use xlink:href="#m329ed18898" x="593.918486" y="512.64" style="stroke: #000000; stroke-width: 2"/>
      </g>
     </g>
     <g id="text_11">
      <!-- 100 -->
      <g transform="translate(582.243799 533.723125) scale(0.14 -0.14)">
       <use xlink:href="#Avenir-Book-31"/>
       <use xlink:href="#Avenir-Book-30" transform="translate(55.599991 0)"/>
       <use xlink:href="#Avenir-Book-30" transform="translate(111.199982 0)"/>
      </g>
     </g>
    </g>
    <g id="xtick_12">
     <g id="line2d_12">
      <g>
       <use xlink:href="#m329ed18898" x="641.557553" y="512.64" style="stroke: #000000; stroke-width: 2"/>
      </g>
     </g>
     <g id="text_12">
      <!-- 110 -->
      <g transform="translate(629.882866 533.723125) scale(0.14 -0.14)">
       <use xlink:href="#Avenir-Book-31"/>
       <use xlink:href="#Avenir-Book-31" transform="translate(55.599991 0)"/>
       <use xlink:href="#Avenir-Book-30" transform="translate(111.199982 0)"/>
      </g>
     </g>
    </g>
    <g id="xtick_13">
     <g id="line2d_13">
      <g>
       <use xlink:href="#m329ed18898" x="689.196621" y="512.64" style="stroke: #000000; stroke-width: 2"/>
      </g>
     </g>
     <g id="text_13">
      <!-- 120 -->
      <g transform="translate(677.521933 533.723125) scale(0.14 -0.14)">
       <use xlink:href="#Avenir-Book-31"/>
       <use xlink:href="#Avenir-Book-32" transform="translate(55.599991 0)"/>
       <use xlink:href="#Avenir-Book-30" transform="translate(111.199982 0)"/>
      </g>
     </g>
    </g>
    <g id="xtick_14">
     <g id="line2d_14">
      <g>
       <use xlink:href="#m329ed18898" x="736.835688" y="512.64" style="stroke: #000000; stroke-width: 2"/>
      </g>
     </g>
     <g id="text_14">
      <!-- 130 -->
      <g transform="translate(725.161 533.723125) scale(0.14 -0.14)">
       <use xlink:href="#Avenir-Book-31"/>
       <use xlink:href="#Avenir-Book-33" transform="translate(55.599991 0)"/>
       <use xlink:href="#Avenir-Book-30" transform="translate(111.199982 0)"/>
      </g>
     </g>
    </g>
    <g id="xtick_15">
     <g id="line2d_15">
      <defs>
       <path id="mfbd5acdd78" d="M 0 0 
L 0 4 
" style="stroke: #000000; stroke-width: 2"/>
      </defs>
      <g>
       <use xlink:href="#mfbd5acdd78" x="129.43758" y="512.64" style="stroke: #000000; stroke-width: 2"/>
      </g>
     </g>
    </g>
    <g id="xtick_16">
     <g id="line2d_16">
      <g>
       <use xlink:href="#mfbd5acdd78" x="141.347347" y="512.64" style="stroke: #000000; stroke-width: 2"/>
      </g>
     </g>
    </g>
    <g id="xtick_17">
     <g id="line2d_17">
      <g>
       <use xlink:href="#mfbd5acdd78" x="153.257114" y="512.64" style="stroke: #000000; stroke-width: 2"/>
      </g>
     </g>
    </g>
    <g id="xtick_18">
     <g id="line2d_18">
      <g>
       <use xlink:href="#mfbd5acdd78" x="177.076648" y="512.64" style="stroke: #000000; stroke-width: 2"/>
      </g>
     </g>
    </g>
    <g id="xtick_19">
     <g id="line2d_19">
      <g>
       <use xlink:href="#mfbd5acdd78" x="188.986414" y="512.64" style="stroke: #000000; stroke-width: 2"/>
      </g>
     </g>
    </g>
    <g id="xtick_20">
     <g id="line2d_20">
      <g>
       <use xlink:href="#mfbd5acdd78" x="200.896181" y="512.64" style="stroke: #000000; stroke-width: 2"/>
      </g>
     </g>
    </g>
    <g id="xtick_21">
     <g id="line2d_21">
      <g>
       <use xlink:href="#mfbd5acdd78" x="224.715715" y="512.64" style="stroke: #000000; stroke-width: 2"/>
      </g>
     </g>
    </g>
    <g id="xtick_22">
     <g id="line2d_22">
      <g>
       <use xlink:href="#mfbd5acdd78" x="236.625482" y="512.64" style="stroke: #000000; stroke-width: 2"/>
      </g>
     </g>
    </g>
    <g id="xtick_23">
     <g id="line2d_23">
      <g>
       <use xlink:href="#mfbd5acdd78" x="248.535248" y="512.64" style="stroke: #000000; stroke-width: 2"/>
      </g>
     </g>
    </g>
    <g id="xtick_24">
     <g id="line2d_24">
      <g>
       <use xlink:href="#mfbd5acdd78" x="272.354782" y="512.64" style="stroke: #000000; stroke-width: 2"/>
      </g>
     </g>
    </g>
    <g id="xtick_25">
     <g id="line2d_25">
      <g>
       <use xlink:href="#mfbd5acdd78" x="284.264549" y="512.64" style="stroke: #000000; stroke-width: 2"/>
      </g>
     </g>
    </g>
    <g id="xtick_26">
     <g id="line2d_26">
      <g>
       <use xlink:href="#mfbd5acdd78" x="296.174316" y="512.64" style="stroke: #000000; stroke-width: 2"/>
      </g>
     </g>
    </g>
    <g id="xtick_27">
     <g id="line2d_27">
      <g>
       <use xlink:href="#mfbd5acdd78" x="319.993849" y="512.64" style="stroke: #000000; stroke-width: 2"/>
      </g>
     </g>
    </g>
    <g id="xtick_28">
     <g id="line2d_28">
      <g>
       <use xlink:href="#mfbd5acdd78" x="331.903616" y="512.64" style="stroke: #000000; stroke-width: 2"/>
      </g>
     </g>
    </g>
    <g id="xtick_29">
     <g id="line2d_29">
      <g>
       <use xlink:href="#mfbd5acdd78" x="343.813383" y="512.64" style="stroke: #000000; stroke-width: 2"/>
      </g>
     </g>
    </g>
    <g id="xtick_30">
     <g id="line2d_30">
      <g>
       <use xlink:href="#mfbd5acdd78" x="367.632917" y="512.64" style="stroke: #000000; stroke-width: 2"/>
      </g>
     </g>
    </g>
    <g id="xtick_31">
     <g id="line2d_31">
      <g>
       <use xlink:href="#mfbd5acdd78" x="379.542683" y="512.64" style="stroke: #000000; stroke-width: 2"/>
      </g>
     </g>
    </g>
    <g id="xtick_32">
     <g id="line2d_32">
      <g>
       <use xlink:href="#mfbd5acdd78" x="391.45245" y="512.64" style="stroke: #000000; stroke-width: 2"/>
      </g>
     </g>
    </g>
    <g id="xtick_33">
     <g id="line2d_33">
      <g>
       <use xlink:href="#mfbd5acdd78" x="415.271984" y="512.64" style="stroke: #000000; stroke-width: 2"/>
      </g>
     </g>
    </g>
    <g id="xtick_34">
     <g id="line2d_34">
      <g>
       <use xlink:href="#mfbd5acdd78" x="427.181751" y="512.64" style="stroke: #000000; stroke-width: 2"/>
      </g>
     </g>
    </g>
    <g id="xtick_35">
     <g id="line2d_35">
      <g>
       <use xlink:href="#mfbd5acdd78" x="439.091517" y="512.64" style="stroke: #000000; stroke-width: 2"/>
      </g>
     </g>
    </g>
    <g id="xtick_36">
     <g id="line2d_36">
      <g>
       <use xlink:href="#mfbd5acdd78" x="462.911051" y="512.64" style="stroke: #000000; stroke-width: 2"/>
      </g>
     </g>
    </g>
    <g id="xtick_37">
     <g id="line2d_37">
      <g>
       <use xlink:href="#mfbd5acdd78" x="474.820818" y="512.64" style="stroke: #000000; stroke-width: 2"/>
      </g>
     </g>
    </g>
    <g id="xtick_38">
     <g id="line2d_38">
      <g>
       <use xlink:href="#mfbd5acdd78" x="486.730585" y="512.64" style="stroke: #000000; stroke-width: 2"/>
      </g>
     </g>
    </g>
    <g id="xtick_39">
     <g id="line2d_39">
      <g>
       <use xlink:href="#mfbd5acdd78" x="510.550118" y="512.64" style="stroke: #000000; stroke-width: 2"/>
      </g>
     </g>
    </g>
    <g id="xtick_40">
     <g id="line2d_40">
      <g>
       <use xlink:href="#mfbd5acdd78" x="522.459885" y="512.64" style="stroke: #000000; stroke-width: 2"/>
      </g>
     </g>
    </g>
    <g id="xtick_41">
     <g id="line2d_41">
      <g>
       <use xlink:href="#mfbd5acdd78" x="534.369652" y="512.64" style="stroke: #000000; stroke-width: 2"/>
      </g>
     </g>
    </g>
    <g id="xtick_42">
     <g id="line2d_42">
      <g>
       <use xlink:href="#mfbd5acdd78" x="558.189186" y="512.64" style="stroke: #000000; stroke-width: 2"/>
      </g>
     </g>
    </g>
    <g id="xtick_43">
     <g id="line2d_43">
      <g>
       <use xlink:href="#mfbd5acdd78" x="570.098952" y="512.64" style="stroke: #000000; stroke-width: 2"/>
      </g>
     </g>
    </g>
    <g id="xtick_44">
     <g id="line2d_44">
      <g>
       <use xlink:href="#mfbd5acdd78" x="582.008719" y="512.64" style="stroke: #000000; stroke-width: 2"/>
      </g>
     </g>
    </g>
    <g id="xtick_45">
     <g id="line2d_45">
      <g>
       <use xlink:href="#mfbd5acdd78" x="605.828253" y="512.64" style="stroke: #000000; stroke-width: 2"/>
      </g>
     </g>
    </g>
    <g id="xtick_46">
     <g id="line2d_46">
      <g>
       <use xlink:href="#mfbd5acdd78" x="617.73802" y="512.64" style="stroke: #000000; stroke-width: 2"/>
      </g>
     </g>
    </g>
    <g id="xtick_47">
     <g id="line2d_47">
      <g>
       <use xlink:href="#mfbd5acdd78" x="629.647786" y="512.64" style="stroke: #000000; stroke-width: 2"/>
      </g>
     </g>
    </g>
    <g id="xtick_48">
     <g id="line2d_48">
      <g>
       <use xlink:href="#mfbd5acdd78" x="653.46732" y="512.64" style="stroke: #000000; stroke-width: 2"/>
      </g>
     </g>
    </g>
    <g id="xtick_49">
     <g id="line2d_49">
      <g>
       <use xlink:href="#mfbd5acdd78" x="665.377087" y="512.64" style="stroke: #000000; stroke-width: 2"/>
      </g>
     </g>
    </g>
    <g id="xtick_50">
     <g id="line2d_50">
      <g>
       <use xlink:href="#mfbd5acdd78" x="677.286854" y="512.64" style="stroke: #000000; stroke-width: 2"/>
      </g>
     </g>
    </g>
    <g id="xtick_51">
     <g id="line2d_51">
      <g>
       <use xlink:href="#mfbd5acdd78" x="701.106387" y="512.64" style="stroke: #000000; stroke-width: 2"/>
      </g>
     </g>
    </g>
    <g id="xtick_52">
     <g id="line2d_52">
      <g>
       <use xlink:href="#mfbd5acdd78" x="713.016154" y="512.64" style="stroke: #000000; stroke-width: 2"/>
      </g>
     </g>
    </g>
    <g id="xtick_53">
     <g id="line2d_53">
      <g>
       <use xlink:href="#mfbd5acdd78" x="724.925921" y="512.64" style="stroke: #000000; stroke-width: 2"/>
      </g>
     </g>
    </g>
    <g id="xtick_54">
     <g id="line2d_54">
      <g>
       <use xlink:href="#mfbd5acdd78" x="748.745455" y="512.64" style="stroke: #000000; stroke-width: 2"/>
      </g>
     </g>
    </g>
    <g id="xtick_55">
     <g id="line2d_55">
      <g>
       <use xlink:href="#mfbd5acdd78" x="760.655221" y="512.64" style="stroke: #000000; stroke-width: 2"/>
      </g>
     </g>
    </g>
    <g id="xtick_56">
     <g id="line2d_56">
      <g>
       <use xlink:href="#mfbd5acdd78" x="772.564988" y="512.64" style="stroke: #000000; stroke-width: 2"/>
      </g>
     </g>
    </g>
    <g id="text_15">
     <!-- Distance from Rim µm -->
     <g transform="translate(344.457812 556.873438) scale(0.2 -0.2)">
      <defs>
       <path id="Avenir-Book-44" d="M 1011 422 
L 1907 422 
Q 2426 422 2806 579 
Q 3187 736 3440 995 
Q 3693 1254 3814 1584 
Q 3936 1914 3936 2266 
Q 3936 2618 3814 2947 
Q 3693 3277 3440 3536 
Q 3187 3795 2806 3952 
Q 2426 4109 1907 4109 
L 1011 4109 
L 1011 422 
z
M 550 4531 
L 2054 4531 
Q 2477 4531 2902 4390 
Q 3328 4250 3670 3965 
Q 4013 3680 4224 3254 
Q 4435 2829 4435 2266 
Q 4435 1696 4224 1273 
Q 4013 851 3670 566 
Q 3328 282 2902 141 
Q 2477 0 2054 0 
L 550 0 
L 550 4531 
z
" transform="scale(0.015625)"/>
       <path id="Avenir-Book-69" d="M 1075 4147 
Q 1075 4013 979 3926 
Q 883 3840 768 3840 
Q 653 3840 557 3926 
Q 461 4013 461 4147 
Q 461 4282 557 4368 
Q 653 4454 768 4454 
Q 883 4454 979 4368 
Q 1075 4282 1075 4147 
z
M 979 0 
L 557 0 
L 557 2995 
L 979 2995 
L 979 0 
z
" transform="scale(0.015625)"/>
       <path id="Avenir-Book-73" d="M 2048 2285 
Q 1952 2470 1792 2579 
Q 1632 2688 1402 2688 
Q 1293 2688 1181 2662 
Q 1069 2637 979 2582 
Q 890 2528 835 2445 
Q 781 2362 781 2240 
Q 781 2029 928 1933 
Q 1075 1837 1370 1766 
L 1798 1664 
Q 2112 1594 2320 1379 
Q 2528 1165 2528 845 
Q 2528 602 2429 426 
Q 2330 250 2166 138 
Q 2003 26 1792 -25 
Q 1581 -77 1363 -77 
Q 1018 -77 720 54 
Q 422 186 211 506 
L 576 755 
Q 704 550 899 428 
Q 1094 307 1363 307 
Q 1491 307 1619 336 
Q 1747 365 1846 425 
Q 1946 486 2006 582 
Q 2067 678 2067 806 
Q 2067 1030 1900 1129 
Q 1734 1229 1498 1286 
L 1088 1382 
Q 1011 1402 880 1446 
Q 749 1491 624 1580 
Q 499 1670 409 1814 
Q 320 1958 320 2170 
Q 320 2400 413 2573 
Q 506 2746 662 2854 
Q 819 2963 1017 3017 
Q 1216 3072 1427 3072 
Q 1741 3072 2009 2950 
Q 2278 2829 2426 2534 
L 2048 2285 
z
" transform="scale(0.015625)"/>
       <path id="Avenir-Book-74" d="M 2010 2611 
L 1146 2611 
L 1146 845 
Q 1146 678 1178 572 
Q 1210 467 1267 409 
Q 1325 352 1405 329 
Q 1485 307 1581 307 
Q 1690 307 1805 339 
Q 1920 371 2016 422 
L 2035 32 
Q 1798 -77 1466 -77 
Q 1344 -77 1213 -45 
Q 1082 -13 973 76 
Q 864 166 793 320 
Q 723 474 723 723 
L 723 2611 
L 90 2611 
L 90 2995 
L 723 2995 
L 723 3840 
L 1146 3840 
L 1146 2995 
L 2010 2995 
L 2010 2611 
z
" transform="scale(0.015625)"/>
       <path id="Avenir-Book-61" d="M 2163 1491 
Q 2003 1491 1763 1475 
Q 1523 1459 1302 1398 
Q 1082 1338 925 1210 
Q 768 1082 768 858 
Q 768 710 829 604 
Q 890 499 992 432 
Q 1094 365 1219 336 
Q 1344 307 1472 307 
Q 1702 307 1872 384 
Q 2042 461 2157 592 
Q 2272 723 2326 899 
Q 2381 1075 2381 1274 
L 2381 1491 
L 2163 1491 
z
M 2381 1837 
L 2381 1914 
Q 2381 2688 1613 2688 
Q 1088 2688 698 2336 
L 442 2637 
Q 864 3072 1709 3072 
Q 1926 3072 2128 3008 
Q 2330 2944 2477 2813 
Q 2624 2682 2713 2483 
Q 2803 2285 2803 2010 
L 2803 672 
Q 2803 499 2819 310 
Q 2835 122 2854 0 
L 2445 0 
Q 2426 109 2416 237 
Q 2406 365 2406 486 
L 2394 486 
Q 2208 186 1955 54 
Q 1702 -77 1338 -77 
Q 1139 -77 953 -22 
Q 768 32 624 144 
Q 480 256 393 419 
Q 307 582 307 800 
Q 307 1165 496 1373 
Q 685 1581 969 1683 
Q 1254 1786 1577 1811 
Q 1901 1837 2170 1837 
L 2381 1837 
z
" transform="scale(0.015625)"/>
       <path id="Avenir-Book-6e" d="M 864 2995 
Q 877 2874 880 2755 
Q 883 2637 883 2515 
L 896 2515 
Q 966 2637 1075 2739 
Q 1184 2842 1318 2915 
Q 1453 2989 1603 3030 
Q 1754 3072 1901 3072 
Q 2477 3072 2752 2768 
Q 3027 2464 3027 1901 
L 3027 0 
L 2605 0 
L 2605 1658 
Q 2605 2157 2432 2422 
Q 2259 2688 1792 2688 
Q 1760 2688 1613 2662 
Q 1466 2637 1302 2521 
Q 1139 2406 1011 2176 
Q 883 1946 883 1536 
L 883 0 
L 461 0 
L 461 2336 
Q 461 2458 451 2643 
Q 442 2829 429 2995 
L 864 2995 
z
" transform="scale(0.015625)"/>
       <path id="Avenir-Book-63" d="M 2643 2291 
Q 2534 2458 2339 2573 
Q 2144 2688 1894 2688 
Q 1632 2694 1424 2604 
Q 1216 2515 1069 2355 
Q 922 2195 845 1974 
Q 768 1754 768 1498 
Q 768 1242 845 1021 
Q 922 800 1069 640 
Q 1216 480 1424 390 
Q 1632 301 1894 307 
Q 2144 307 2339 422 
Q 2534 538 2643 704 
L 2989 442 
Q 2765 179 2483 54 
Q 2202 -70 1894 -77 
Q 1530 -83 1235 35 
Q 941 154 733 365 
Q 525 576 416 867 
Q 307 1158 307 1498 
Q 307 1837 416 2128 
Q 525 2419 733 2630 
Q 941 2842 1235 2960 
Q 1530 3078 1894 3072 
Q 2202 3066 2483 2941 
Q 2765 2816 2989 2554 
L 2643 2291 
z
" transform="scale(0.015625)"/>
       <path id="Avenir-Book-65" d="M 2790 1728 
Q 2790 2157 2534 2422 
Q 2278 2688 1818 2688 
Q 1613 2688 1421 2608 
Q 1229 2528 1085 2393 
Q 941 2259 854 2086 
Q 768 1914 768 1728 
L 2790 1728 
z
M 755 1382 
Q 774 1158 864 960 
Q 954 762 1101 618 
Q 1248 474 1440 390 
Q 1632 307 1856 307 
Q 2195 307 2441 464 
Q 2688 621 2816 826 
L 3142 557 
Q 2874 218 2550 70 
Q 2227 -77 1856 -77 
Q 1523 -77 1238 41 
Q 954 160 749 371 
Q 544 582 425 870 
Q 307 1158 307 1498 
Q 307 1837 422 2125 
Q 538 2413 742 2624 
Q 947 2835 1222 2953 
Q 1498 3072 1818 3072 
Q 2157 3072 2425 2950 
Q 2694 2829 2876 2627 
Q 3059 2426 3155 2154 
Q 3251 1882 3251 1574 
L 3251 1382 
L 755 1382 
z
" transform="scale(0.015625)"/>
       <path id="Avenir-Book-20" transform="scale(0.015625)"/>
       <path id="Avenir-Book-66" d="M 1856 2611 
L 1146 2611 
L 1146 0 
L 723 0 
L 723 2611 
L 90 2611 
L 90 2995 
L 723 2995 
L 723 3814 
Q 723 4410 998 4662 
Q 1274 4915 1728 4915 
Q 1818 4915 1910 4902 
Q 2003 4890 2093 4870 
L 2016 4486 
Q 1939 4506 1856 4518 
Q 1773 4531 1690 4531 
Q 1517 4531 1408 4473 
Q 1299 4416 1241 4310 
Q 1184 4205 1165 4064 
Q 1146 3923 1146 3763 
L 1146 2995 
L 1856 2995 
L 1856 2611 
z
" transform="scale(0.015625)"/>
       <path id="Avenir-Book-72" d="M 506 2061 
Q 506 2259 496 2464 
Q 486 2669 480 2995 
L 896 2995 
L 896 2438 
L 909 2438 
Q 954 2560 1037 2672 
Q 1120 2784 1238 2873 
Q 1357 2963 1513 3017 
Q 1670 3072 1869 3072 
Q 2048 3072 2182 3034 
L 2099 2618 
Q 2016 2650 1856 2650 
Q 1613 2650 1440 2557 
Q 1267 2464 1152 2320 
Q 1037 2176 982 2009 
Q 928 1843 928 1690 
L 928 0 
L 506 0 
L 506 2061 
z
" transform="scale(0.015625)"/>
       <path id="Avenir-Book-6f" d="M 3027 1498 
Q 3027 1747 2947 1964 
Q 2867 2182 2720 2342 
Q 2573 2502 2365 2595 
Q 2157 2688 1894 2688 
Q 1632 2688 1424 2595 
Q 1216 2502 1072 2342 
Q 928 2182 848 1964 
Q 768 1747 768 1498 
Q 768 1248 848 1030 
Q 928 813 1072 653 
Q 1216 493 1424 400 
Q 1632 307 1894 307 
Q 2157 307 2365 400 
Q 2573 493 2720 653 
Q 2867 813 2947 1030 
Q 3027 1248 3027 1498 
z
M 3488 1498 
Q 3488 1158 3369 870 
Q 3251 582 3040 371 
Q 2829 160 2537 41 
Q 2246 -77 1894 -77 
Q 1549 -77 1257 41 
Q 966 160 755 371 
Q 544 582 425 870 
Q 307 1158 307 1498 
Q 307 1837 425 2125 
Q 544 2413 755 2624 
Q 966 2835 1257 2953 
Q 1549 3072 1894 3072 
Q 2246 3072 2537 2953 
Q 2829 2835 3040 2624 
Q 3251 2413 3369 2125 
Q 3488 1837 3488 1498 
z
" transform="scale(0.015625)"/>
       <path id="Avenir-Book-6d" d="M 461 2330 
Q 461 2496 451 2662 
Q 442 2829 429 2995 
L 883 2995 
L 883 2541 
L 896 2541 
Q 1050 2803 1322 2937 
Q 1594 3072 1862 3072 
Q 1984 3072 2121 3046 
Q 2259 3021 2387 2953 
Q 2515 2886 2627 2764 
Q 2739 2643 2816 2451 
Q 2944 2739 3222 2905 
Q 3501 3072 3802 3072 
Q 4378 3072 4653 2768 
Q 4928 2464 4928 1901 
L 4928 0 
L 4506 0 
L 4506 1747 
Q 4506 2202 4346 2445 
Q 4186 2688 3750 2688 
Q 3514 2688 3354 2595 
Q 3194 2502 3094 2348 
Q 2995 2195 2950 2000 
Q 2906 1805 2906 1594 
L 2906 0 
L 2483 0 
L 2483 1747 
Q 2483 2202 2323 2445 
Q 2163 2688 1728 2688 
Q 1690 2688 1552 2662 
Q 1414 2637 1267 2521 
Q 1120 2406 1001 2176 
Q 883 1946 883 1536 
L 883 0 
L 461 0 
L 461 2330 
z
" transform="scale(0.015625)"/>
       <path id="Avenir-Book-52" d="M 1075 2528 
L 1894 2528 
Q 2202 2528 2416 2592 
Q 2630 2656 2758 2761 
Q 2886 2867 2944 3011 
Q 3002 3155 3002 3322 
Q 3002 3482 2944 3626 
Q 2886 3770 2758 3878 
Q 2630 3987 2416 4048 
Q 2202 4109 1894 4109 
L 1075 4109 
L 1075 2528 
z
M 1075 0 
L 614 0 
L 614 4531 
L 2010 4531 
Q 2701 4531 3101 4230 
Q 3501 3930 3501 3322 
Q 3501 2848 3203 2525 
Q 2906 2202 2342 2150 
L 3648 0 
L 3085 0 
L 1843 2106 
L 1075 2106 
L 1075 0 
z
" transform="scale(0.015625)"/>
       <path id="Avenir-Book-b5" d="M 461 2995 
L 883 2995 
L 883 1338 
Q 883 787 1059 547 
Q 1235 307 1696 307 
Q 1888 307 2054 384 
Q 2221 461 2342 608 
Q 2464 755 2534 969 
Q 2605 1184 2605 1459 
L 2605 2995 
L 3027 2995 
L 3027 659 
Q 3027 493 3036 329 
Q 3046 166 3059 0 
L 2605 0 
L 2605 486 
L 2592 486 
Q 2522 371 2413 268 
Q 2304 166 2169 89 
Q 2035 13 1884 -32 
Q 1734 -77 1587 -77 
Q 1146 -77 883 109 
L 883 -1459 
L 461 -1459 
L 461 2995 
z
" transform="scale(0.015625)"/>
      </defs>
      <use xlink:href="#Avenir-Book-44"/>
      <use xlink:href="#Avenir-Book-69" transform="translate(74.099991 0)"/>
      <use xlink:href="#Avenir-Book-73" transform="translate(98.099976 0)"/>
      <use xlink:href="#Avenir-Book-74" transform="translate(140.699966 0)"/>
      <use xlink:href="#Avenir-Book-61" transform="translate(173.899963 0)"/>
      <use xlink:href="#Avenir-Book-6e" transform="translate(225.799957 0)"/>
      <use xlink:href="#Avenir-Book-63" transform="translate(281.399948 0)"/>
      <use xlink:href="#Avenir-Book-65" transform="translate(329.599945 0)"/>
      <use xlink:href="#Avenir-Book-20" transform="translate(385.199936 0)"/>
      <use xlink:href="#Avenir-Book-66" transform="translate(412.999924 0)"/>
      <use xlink:href="#Avenir-Book-72" transform="translate(442.599915 0)"/>
      <use xlink:href="#Avenir-Book-6f" transform="translate(474.049911 0)"/>
      <use xlink:href="#Avenir-Book-6d" transform="translate(533.349899 0)"/>
      <use xlink:href="#Avenir-Book-20" transform="translate(618.549881 0)"/>
      <use xlink:href="#Avenir-Book-52" transform="translate(646.349869 0)"/>
      <use xlink:href="#Avenir-Book-69" transform="translate(705.649857 0)"/>
      <use xlink:href="#Avenir-Book-6d" transform="translate(729.649841 0)"/>
      <use xlink:href="#Avenir-Book-20" transform="translate(814.849823 0)"/>
      <use xlink:href="#Avenir-Book-b5" transform="translate(842.649811 0)"/>
      <use xlink:href="#Avenir-Book-6d" transform="translate(898.249802 0)"/>
     </g>
    </g>
   </g>
   <g id="matplotlib.axis_2">
    <g id="ytick_1">
     <g id="line2d_57">
      <defs>
       <path id="m3648119adc" d="M 0 0 
L -7 0 
" style="stroke: #000000; stroke-width: 2"/>
      </defs>
      <g>
       <use xlink:href="#m3648119adc" x="108" y="475.120249" style="stroke: #000000; stroke-width: 2"/>
      </g>
     </g>
     <g id="text_16">
      <!-- 83.0 -->
      <g transform="translate(70.259062 480.411812) scale(0.14 -0.14)">
       <defs>
        <path id="Avenir-Book-2e" d="M 1235 307 
Q 1235 173 1139 67 
Q 1043 -38 890 -38 
Q 736 -38 640 67 
Q 544 173 544 307 
Q 544 442 640 547 
Q 736 653 890 653 
Q 1043 653 1139 547 
Q 1235 442 1235 307 
z
" transform="scale(0.015625)"/>
       </defs>
       <use xlink:href="#Avenir-Book-38"/>
       <use xlink:href="#Avenir-Book-33" transform="translate(55.599991 0)"/>
       <use xlink:href="#Avenir-Book-2e" transform="translate(111.199982 0)"/>
       <use xlink:href="#Avenir-Book-30" transform="translate(138.999969 0)"/>
      </g>
     </g>
    </g>
    <g id="ytick_2">
     <g id="line2d_58">
      <g>
       <use xlink:href="#m3648119adc" x="108" y="417.254414" style="stroke: #000000; stroke-width: 2"/>
      </g>
     </g>
     <g id="text_17">
      <!-- 84.0 -->
      <g transform="translate(70.259062 422.545977) scale(0.14 -0.14)">
       <use xlink:href="#Avenir-Book-38"/>
       <use xlink:href="#Avenir-Book-34" transform="translate(55.599991 0)"/>
       <use xlink:href="#Avenir-Book-2e" transform="translate(111.199982 0)"/>
       <use xlink:href="#Avenir-Book-30" transform="translate(138.999969 0)"/>
      </g>
     </g>
    </g>
    <g id="ytick_3">
     <g id="line2d_59">
      <g>
       <use xlink:href="#m3648119adc" x="108" y="359.388579" style="stroke: #000000; stroke-width: 2"/>
      </g>
     </g>
     <g id="text_18">
      <!-- 85.0 -->
      <g transform="translate(70.259062 364.680142) scale(0.14 -0.14)">
       <use xlink:href="#Avenir-Book-38"/>
       <use xlink:href="#Avenir-Book-35" transform="translate(55.599991 0)"/>
       <use xlink:href="#Avenir-Book-2e" transform="translate(111.199982 0)"/>
       <use xlink:href="#Avenir-Book-30" transform="translate(138.999969 0)"/>
      </g>
     </g>
    </g>
    <g id="ytick_4">
     <g id="line2d_60">
      <g>
       <use xlink:href="#m3648119adc" x="108" y="301.522744" style="stroke: #000000; stroke-width: 2"/>
      </g>
     </g>
     <g id="text_19">
      <!-- 86.0 -->
      <g transform="translate(70.259062 306.814306) scale(0.14 -0.14)">
       <use xlink:href="#Avenir-Book-38"/>
       <use xlink:href="#Avenir-Book-36" transform="translate(55.599991 0)"/>
       <use xlink:href="#Avenir-Book-2e" transform="translate(111.199982 0)"/>
       <use xlink:href="#Avenir-Book-30" transform="translate(138.999969 0)"/>
      </g>
     </g>
    </g>
    <g id="ytick_5">
     <g id="line2d_61">
      <g>
       <use xlink:href="#m3648119adc" x="108" y="243.656909" style="stroke: #000000; stroke-width: 2"/>
      </g>
     </g>
     <g id="text_20">
      <!-- 87.0 -->
      <g transform="translate(70.259062 248.948471) scale(0.14 -0.14)">
       <use xlink:href="#Avenir-Book-38"/>
       <use xlink:href="#Avenir-Book-37" transform="translate(55.599991 0)"/>
       <use xlink:href="#Avenir-Book-2e" transform="translate(111.199982 0)"/>
       <use xlink:href="#Avenir-Book-30" transform="translate(138.999969 0)"/>
      </g>
     </g>
    </g>
    <g id="ytick_6">
     <g id="line2d_62">
      <g>
       <use xlink:href="#m3648119adc" x="108" y="185.791073" style="stroke: #000000; stroke-width: 2"/>
      </g>
     </g>
     <g id="text_21">
      <!-- 88.0 -->
      <g transform="translate(70.259062 191.082636) scale(0.14 -0.14)">
       <use xlink:href="#Avenir-Book-38"/>
       <use xlink:href="#Avenir-Book-38" transform="translate(55.599991 0)"/>
       <use xlink:href="#Avenir-Book-2e" transform="translate(111.199982 0)"/>
       <use xlink:href="#Avenir-Book-30" transform="translate(138.999969 0)"/>
      </g>
     </g>
    </g>
    <g id="ytick_7">
     <g id="line2d_63">
      <g>
       <use xlink:href="#m3648119adc" x="108" y="127.925238" style="stroke: #000000; stroke-width: 2"/>
      </g>
     </g>
     <g id="text_22">
      <!-- 89.0 -->
      <g transform="translate(70.259062 133.216801) scale(0.14 -0.14)">
       <use xlink:href="#Avenir-Book-38"/>
       <use xlink:href="#Avenir-Book-39" transform="translate(55.599991 0)"/>
       <use xlink:href="#Avenir-Book-2e" transform="translate(111.199982 0)"/>
       <use xlink:href="#Avenir-Book-30" transform="translate(138.999969 0)"/>
      </g>
     </g>
    </g>
    <g id="ytick_8">
     <g id="line2d_64">
      <g>
       <use xlink:href="#m3648119adc" x="108" y="70.059403" style="stroke: #000000; stroke-width: 2"/>
      </g>
     </g>
     <g id="text_23">
      <!-- 90.0 -->
      <g transform="translate(70.259062 75.350966) scale(0.14 -0.14)">
       <use xlink:href="#Avenir-Book-39"/>
       <use xlink:href="#Avenir-Book-30" transform="translate(55.599991 0)"/>
       <use xlink:href="#Avenir-Book-2e" transform="translate(111.199982 0)"/>
       <use xlink:href="#Avenir-Book-30" transform="translate(138.999969 0)"/>
      </g>
     </g>
    </g>
    <g id="ytick_9">
     <g id="line2d_65">
      <defs>
       <path id="m3b4f48ec82" d="M 0 0 
L -4 0 
" style="stroke: #000000; stroke-width: 2"/>
      </defs>
      <g>
       <use xlink:href="#m3b4f48ec82" x="108" y="509.839751" style="stroke: #000000; stroke-width: 2"/>
      </g>
     </g>
    </g>
    <g id="ytick_10">
     <g id="line2d_66">
      <g>
       <use xlink:href="#m3b4f48ec82" x="108" y="498.266584" style="stroke: #000000; stroke-width: 2"/>
      </g>
     </g>
    </g>
    <g id="ytick_11">
     <g id="line2d_67">
      <g>
       <use xlink:href="#m3b4f48ec82" x="108" y="486.693416" style="stroke: #000000; stroke-width: 2"/>
      </g>
     </g>
    </g>
    <g id="ytick_12">
     <g id="line2d_68">
      <g>
       <use xlink:href="#m3b4f48ec82" x="108" y="463.547082" style="stroke: #000000; stroke-width: 2"/>
      </g>
     </g>
    </g>
    <g id="ytick_13">
     <g id="line2d_69">
      <g>
       <use xlink:href="#m3b4f48ec82" x="108" y="451.973915" style="stroke: #000000; stroke-width: 2"/>
      </g>
     </g>
    </g>
    <g id="ytick_14">
     <g id="line2d_70">
      <g>
       <use xlink:href="#m3b4f48ec82" x="108" y="440.400748" style="stroke: #000000; stroke-width: 2"/>
      </g>
     </g>
    </g>
    <g id="ytick_15">
     <g id="line2d_71">
      <g>
       <use xlink:href="#m3b4f48ec82" x="108" y="428.827581" style="stroke: #000000; stroke-width: 2"/>
      </g>
     </g>
    </g>
    <g id="ytick_16">
     <g id="line2d_72">
      <g>
       <use xlink:href="#m3b4f48ec82" x="108" y="405.681247" style="stroke: #000000; stroke-width: 2"/>
      </g>
     </g>
    </g>
    <g id="ytick_17">
     <g id="line2d_73">
      <g>
       <use xlink:href="#m3b4f48ec82" x="108" y="394.10808" style="stroke: #000000; stroke-width: 2"/>
      </g>
     </g>
    </g>
    <g id="ytick_18">
     <g id="line2d_74">
      <g>
       <use xlink:href="#m3b4f48ec82" x="108" y="382.534913" style="stroke: #000000; stroke-width: 2"/>
      </g>
     </g>
    </g>
    <g id="ytick_19">
     <g id="line2d_75">
      <g>
       <use xlink:href="#m3b4f48ec82" x="108" y="370.961746" style="stroke: #000000; stroke-width: 2"/>
      </g>
     </g>
    </g>
    <g id="ytick_20">
     <g id="line2d_76">
      <g>
       <use xlink:href="#m3b4f48ec82" x="108" y="347.815412" style="stroke: #000000; stroke-width: 2"/>
      </g>
     </g>
    </g>
    <g id="ytick_21">
     <g id="line2d_77">
      <g>
       <use xlink:href="#m3b4f48ec82" x="108" y="336.242245" style="stroke: #000000; stroke-width: 2"/>
      </g>
     </g>
    </g>
    <g id="ytick_22">
     <g id="line2d_78">
      <g>
       <use xlink:href="#m3b4f48ec82" x="108" y="324.669078" style="stroke: #000000; stroke-width: 2"/>
      </g>
     </g>
    </g>
    <g id="ytick_23">
     <g id="line2d_79">
      <g>
       <use xlink:href="#m3b4f48ec82" x="108" y="313.095911" style="stroke: #000000; stroke-width: 2"/>
      </g>
     </g>
    </g>
    <g id="ytick_24">
     <g id="line2d_80">
      <g>
       <use xlink:href="#m3b4f48ec82" x="108" y="289.949577" style="stroke: #000000; stroke-width: 2"/>
      </g>
     </g>
    </g>
    <g id="ytick_25">
     <g id="line2d_81">
      <g>
       <use xlink:href="#m3b4f48ec82" x="108" y="278.37641" style="stroke: #000000; stroke-width: 2"/>
      </g>
     </g>
    </g>
    <g id="ytick_26">
     <g id="line2d_82">
      <g>
       <use xlink:href="#m3b4f48ec82" x="108" y="266.803243" style="stroke: #000000; stroke-width: 2"/>
      </g>
     </g>
    </g>
    <g id="ytick_27">
     <g id="line2d_83">
      <g>
       <use xlink:href="#m3b4f48ec82" x="108" y="255.230076" style="stroke: #000000; stroke-width: 2"/>
      </g>
     </g>
    </g>
    <g id="ytick_28">
     <g id="line2d_84">
      <g>
       <use xlink:href="#m3b4f48ec82" x="108" y="232.083742" style="stroke: #000000; stroke-width: 2"/>
      </g>
     </g>
    </g>
    <g id="ytick_29">
     <g id="line2d_85">
      <g>
       <use xlink:href="#m3b4f48ec82" x="108" y="220.510575" style="stroke: #000000; stroke-width: 2"/>
      </g>
     </g>
    </g>
    <g id="ytick_30">
     <g id="line2d_86">
      <g>
       <use xlink:href="#m3b4f48ec82" x="108" y="208.937408" style="stroke: #000000; stroke-width: 2"/>
      </g>
     </g>
    </g>
    <g id="ytick_31">
     <g id="line2d_87">
      <g>
       <use xlink:href="#m3b4f48ec82" x="108" y="197.364241" style="stroke: #000000; stroke-width: 2"/>
      </g>
     </g>
    </g>
    <g id="ytick_32">
     <g id="line2d_88">
      <g>
       <use xlink:href="#m3b4f48ec82" x="108" y="174.217906" style="stroke: #000000; stroke-width: 2"/>
      </g>
     </g>
    </g>
    <g id="ytick_33">
     <g id="line2d_89">
      <g>
       <use xlink:href="#m3b4f48ec82" x="108" y="162.644739" style="stroke: #000000; stroke-width: 2"/>
      </g>
     </g>
    </g>
    <g id="ytick_34">
     <g id="line2d_90">
      <g>
       <use xlink:href="#m3b4f48ec82" x="108" y="151.071572" style="stroke: #000000; stroke-width: 2"/>
      </g>
     </g>
    </g>
    <g id="ytick_35">
     <g id="line2d_91">
      <g>
       <use xlink:href="#m3b4f48ec82" x="108" y="139.498405" style="stroke: #000000; stroke-width: 2"/>
      </g>
     </g>
    </g>
    <g id="ytick_36">
     <g id="line2d_92">
      <g>
       <use xlink:href="#m3b4f48ec82" x="108" y="116.352071" style="stroke: #000000; stroke-width: 2"/>
      </g>
     </g>
    </g>
    <g id="ytick_37">
     <g id="line2d_93">
      <g>
       <use xlink:href="#m3b4f48ec82" x="108" y="104.778904" style="stroke: #000000; stroke-width: 2"/>
      </g>
     </g>
    </g>
    <g id="ytick_38">
     <g id="line2d_94">
      <g>
       <use xlink:href="#m3b4f48ec82" x="108" y="93.205737" style="stroke: #000000; stroke-width: 2"/>
      </g>
     </g>
    </g>
    <g id="ytick_39">
     <g id="line2d_95">
      <g>
       <use xlink:href="#m3b4f48ec82" x="108" y="81.63257" style="stroke: #000000; stroke-width: 2"/>
      </g>
     </g>
    </g>
    <g id="text_24">
     <!-- Fo# -->
     <g transform="translate(60.499688 307.928437) rotate(-90) scale(0.2 -0.2)">
      <defs>
       <path id="Avenir-Book-46" d="M 1075 0 
L 614 0 
L 614 4531 
L 3347 4531 
L 3347 4109 
L 1075 4109 
L 1075 2566 
L 3187 2566 
L 3187 2144 
L 1075 2144 
L 1075 0 
z
" transform="scale(0.015625)"/>
       <path id="Avenir-Book-23" d="M 1318 1754 
L 2170 1754 
L 2310 2790 
L 1459 2790 
L 1318 1754 
z
M 877 1370 
L 224 1370 
L 224 1754 
L 928 1754 
L 1069 2790 
L 378 2790 
L 378 3174 
L 1126 3174 
L 1312 4531 
L 1702 4531 
L 1517 3174 
L 2368 3174 
L 2554 4531 
L 2944 4531 
L 2758 3174 
L 3334 3174 
L 3334 2790 
L 2701 2790 
L 2560 1754 
L 3168 1754 
L 3168 1370 
L 2509 1370 
L 2317 0 
L 1926 0 
L 2118 1370 
L 1267 1370 
L 1075 0 
L 685 0 
L 877 1370 
z
" transform="scale(0.015625)"/>
      </defs>
      <use xlink:href="#Avenir-Book-46"/>
      <use xlink:href="#Avenir-Book-6f" transform="translate(55.599991 0)"/>
      <use xlink:href="#Avenir-Book-23" transform="translate(114.899979 0)"/>
     </g>
    </g>
   </g>
   <g id="line2d_96">
    <path d="M 153.338919 417.505941 
L 165.05658 395.360258 
L 177.202207 373.011907 
L 188.919868 351.046199 
L 201.065494 354.832156 
L 212.577995 342.543831 
L 224.723622 344.454859 
L 236.441283 333.373048 
L 248.58691 337.318448 
L 260.732536 325.429717 
L 272.245037 304.529251 
L 284.390664 250.075185 
L 296.108325 194.639652 
L 308.253952 158.128396 
L 319.971613 133.399264 
L 331.91943 117.608933 
L 343.637091 104.193232 
L 355.782718 100.297748 
L 367.500379 107.588645 
L 379.646006 96.993115 
L 391.593823 101.973614 
L 403.311485 96.724129 
L 415.457111 103.183337 
L 427.174772 106.692884 
L 439.320399 90.115638 
L 450.8329 101.597546 
L 462.978527 100.074782 
L 474.696188 98.222666 
L 504.742809 95.692418 
L 534.99643 96.35338 
L 565.474265 96.893492 
L 595.520886 101.474759 
L 625.774507 100.904511 
L 655.821128 101.129087 
L 685.867749 100.685258 
L 716.12137 97.931012 
L 746.167991 99.668594 
" clip-path="url(#p32bfdcb89b)" style="fill: none; stroke-dasharray: 7.4,3.2; stroke-dashoffset: 0; stroke: #f47e1f; stroke-width: 2"/>
    <defs>
     <path id="m87656f7226" d="M 0 6 
C 1.591219 6 3.117479 5.367802 4.242641 4.242641 
C 5.367802 3.117479 6 1.591219 6 0 
C 6 -1.591219 5.367802 -3.117479 4.242641 -4.242641 
C 3.117479 -5.367802 1.591219 -6 0 -6 
C -1.591219 -6 -3.117479 -5.367802 -4.242641 -4.242641 
C -5.367802 -3.117479 -6 -1.591219 -6 0 
C -6 1.591219 -5.367802 3.117479 -4.242641 4.242641 
C -3.117479 5.367802 -1.591219 6 0 6 
z
" style="stroke: #f47e1f"/>
    </defs>
    <g clip-path="url(#p32bfdcb89b)">
     <use xlink:href="#m87656f7226" x="153.338919" y="417.505941" style="fill: #f47e1f; stroke: #f47e1f"/>
     <use xlink:href="#m87656f7226" x="165.05658" y="395.360258" style="fill: #f47e1f; stroke: #f47e1f"/>
     <use xlink:href="#m87656f7226" x="177.202207" y="373.011907" style="fill: #f47e1f; stroke: #f47e1f"/>
     <use xlink:href="#m87656f7226" x="188.919868" y="351.046199" style="fill: #f47e1f; stroke: #f47e1f"/>
     <use xlink:href="#m87656f7226" x="201.065494" y="354.832156" style="fill: #f47e1f; stroke: #f47e1f"/>
     <use xlink:href="#m87656f7226" x="212.577995" y="342.543831" style="fill: #f47e1f; stroke: #f47e1f"/>
     <use xlink:href="#m87656f7226" x="224.723622" y="344.454859" style="fill: #f47e1f; stroke: #f47e1f"/>
     <use xlink:href="#m87656f7226" x="236.441283" y="333.373048" style="fill: #f47e1f; stroke: #f47e1f"/>
     <use xlink:href="#m87656f7226" x="248.58691" y="337.318448" style="fill: #f47e1f; stroke: #f47e1f"/>
     <use xlink:href="#m87656f7226" x="260.732536" y="325.429717" style="fill: #f47e1f; stroke: #f47e1f"/>
     <use xlink:href="#m87656f7226" x="272.245037" y="304.529251" style="fill: #f47e1f; stroke: #f47e1f"/>
     <use xlink:href="#m87656f7226" x="284.390664" y="250.075185" style="fill: #f47e1f; stroke: #f47e1f"/>
     <use xlink:href="#m87656f7226" x="296.108325" y="194.639652" style="fill: #f47e1f; stroke: #f47e1f"/>
     <use xlink:href="#m87656f7226" x="308.253952" y="158.128396" style="fill: #f47e1f; stroke: #f47e1f"/>
     <use xlink:href="#m87656f7226" x="319.971613" y="133.399264" style="fill: #f47e1f; stroke: #f47e1f"/>
     <use xlink:href="#m87656f7226" x="331.91943" y="117.608933" style="fill: #f47e1f; stroke: #f47e1f"/>
     <use xlink:href="#m87656f7226" x="343.637091" y="104.193232" style="fill: #f47e1f; stroke: #f47e1f"/>
     <use xlink:href="#m87656f7226" x="355.782718" y="100.297748" style="fill: #f47e1f; stroke: #f47e1f"/>
     <use xlink:href="#m87656f7226" x="367.500379" y="107.588645" style="fill: #f47e1f; stroke: #f47e1f"/>
     <use xlink:href="#m87656f7226" x="379.646006" y="96.993115" style="fill: #f47e1f; stroke: #f47e1f"/>
     <use xlink:href="#m87656f7226" x="391.593823" y="101.973614" style="fill: #f47e1f; stroke: #f47e1f"/>
     <use xlink:href="#m87656f7226" x="403.311485" y="96.724129" style="fill: #f47e1f; stroke: #f47e1f"/>
     <use xlink:href="#m87656f7226" x="415.457111" y="103.183337" style="fill: #f47e1f; stroke: #f47e1f"/>
     <use xlink:href="#m87656f7226" x="427.174772" y="106.692884" style="fill: #f47e1f; stroke: #f47e1f"/>
     <use xlink:href="#m87656f7226" x="439.320399" y="90.115638" style="fill: #f47e1f; stroke: #f47e1f"/>
     <use xlink:href="#m87656f7226" x="450.8329" y="101.597546" style="fill: #f47e1f; stroke: #f47e1f"/>
     <use xlink:href="#m87656f7226" x="462.978527" y="100.074782" style="fill: #f47e1f; stroke: #f47e1f"/>
     <use xlink:href="#m87656f7226" x="474.696188" y="98.222666" style="fill: #f47e1f; stroke: #f47e1f"/>
     <use xlink:href="#m87656f7226" x="504.742809" y="95.692418" style="fill: #f47e1f; stroke: #f47e1f"/>
     <use xlink:href="#m87656f7226" x="534.99643" y="96.35338" style="fill: #f47e1f; stroke: #f47e1f"/>
     <use xlink:href="#m87656f7226" x="565.474265" y="96.893492" style="fill: #f47e1f; stroke: #f47e1f"/>
     <use xlink:href="#m87656f7226" x="595.520886" y="101.474759" style="fill: #f47e1f; stroke: #f47e1f"/>
     <use xlink:href="#m87656f7226" x="625.774507" y="100.904511" style="fill: #f47e1f; stroke: #f47e1f"/>
     <use xlink:href="#m87656f7226" x="655.821128" y="101.129087" style="fill: #f47e1f; stroke: #f47e1f"/>
     <use xlink:href="#m87656f7226" x="685.867749" y="100.685258" style="fill: #f47e1f; stroke: #f47e1f"/>
     <use xlink:href="#m87656f7226" x="716.12137" y="97.931012" style="fill: #f47e1f; stroke: #f47e1f"/>
     <use xlink:href="#m87656f7226" x="746.167991" y="99.668594" style="fill: #f47e1f; stroke: #f47e1f"/>
    </g>
   </g>
   <g id="line2d_97">
    <path d="M 117.527813 389.278446 
L 153.015565 406.520836 
L 155.550405 403.098023 
L 158.085244 399.284898 
L 160.620084 395.781778 
L 163.154923 392.588666 
L 165.689763 389.160433 
L 168.224602 384.411601 
L 170.759441 379.98332 
L 173.294281 375.87559 
L 178.36396 368.143693 
L 180.898799 363.959864 
L 183.433639 360.103985 
L 185.968478 356.576057 
L 188.503317 353.376079 
L 191.038157 351.708656 
L 193.572996 350.600331 
L 196.107836 349.813713 
L 198.642675 349.348801 
L 201.177515 349.094033 
L 203.712354 346.753195 
L 206.247193 344.743924 
L 208.782033 343.06622 
L 211.316872 341.720083 
L 213.851712 340.573848 
L 216.386551 339.621412 
L 218.92139 338.990685 
L 221.45623 338.681665 
L 223.991069 338.694354 
L 226.525909 337.207473 
L 229.060748 335.307399 
L 231.595588 333.735309 
L 234.130427 332.491204 
L 239.200106 330.489425 
L 241.734945 329.765019 
L 244.269785 329.361772 
L 246.804624 329.279686 
L 249.339464 328.407817 
L 251.874303 325.226161 
L 254.409142 322.365847 
L 256.943982 319.826874 
L 259.478821 317.609241 
L 262.013661 313.58526 
L 264.5485 307.808131 
L 267.08334 302.362548 
L 269.618179 297.248512 
L 272.153018 292.466021 
L 277.222697 272.019054 
L 282.292376 252.639721 
L 284.827216 243.047724 
L 289.896894 221.142544 
L 294.966573 200.549385 
L 297.501413 191.425592 
L 302.571092 175.261419 
L 307.64077 160.383357 
L 310.17561 154.001839 
L 312.710449 148.131244 
L 315.245289 142.588827 
L 317.780128 137.374589 
L 320.314968 132.532734 
L 322.849807 128.299289 
L 325.384646 124.39067 
L 327.919486 120.806876 
L 332.989165 114.408673 
L 335.524004 111.315752 
L 338.058844 108.55101 
L 340.593683 106.114446 
L 343.128522 104.006061 
L 345.663362 102.354727 
L 348.198201 101.057933 
L 350.733041 100.082665 
L 353.26788 99.428924 
L 355.80272 99.095361 
L 358.337559 98.917027 
L 360.872398 99.066676 
L 363.407238 99.54431 
L 365.942077 100.349927 
L 368.476917 100.314113 
L 371.011756 98.735589 
L 373.546595 97.478391 
L 376.081435 96.54252 
L 378.616274 95.927976 
L 381.151114 95.525281 
L 383.685953 95.371503 
L 386.220793 95.542175 
L 388.755632 96.037297 
L 391.290471 96.85687 
L 396.36015 95.358369 
L 398.89499 94.970311 
L 401.429829 94.910412 
L 406.499508 95.256326 
L 409.034347 95.760942 
L 411.569187 96.587084 
L 414.104026 97.734752 
L 416.638866 98.255589 
L 419.173705 98.016849 
L 421.708545 98.106114 
L 424.243384 98.523384 
L 426.778223 99.268659 
L 429.313063 97.467347 
L 431.847902 95.455139 
L 434.382742 93.764639 
L 436.917581 92.395847 
L 439.452421 91.408687 
L 441.98726 91.839048 
L 444.522099 92.600949 
L 447.056939 93.694391 
L 449.591778 95.119372 
L 452.126618 95.577041 
L 454.661457 95.112422 
L 457.196297 94.969041 
L 459.731136 95.146897 
L 462.265975 95.645991 
L 464.800815 95.180105 
L 467.335654 94.530804 
L 469.870494 94.200743 
L 472.405333 94.189923 
L 474.940173 94.341388 
L 477.475012 93.253771 
L 480.009851 92.331034 
L 482.544691 91.573177 
L 485.07953 90.980201 
L 487.61437 90.552105 
L 490.149209 90.28889 
L 492.684049 90.190555 
L 495.218888 90.2571 
L 497.753727 90.488526 
L 500.288567 90.884833 
L 502.823406 91.446019 
L 505.358246 91.757843 
L 507.893085 90.94064 
L 510.427924 90.285128 
L 512.962764 89.791308 
L 515.497603 89.45918 
L 518.032443 89.288744 
L 520.567282 89.28 
L 523.102122 89.432948 
L 525.636961 89.747588 
L 528.1718 90.223919 
L 530.70664 90.861943 
L 533.241479 91.661658 
L 535.776319 92.043016 
L 538.311158 91.280183 
L 540.845998 90.678088 
L 543.380837 90.236731 
L 545.915676 89.956112 
L 548.450516 89.836232 
L 550.985355 89.87709 
L 553.520195 90.078686 
L 556.055034 90.441021 
L 558.589874 90.964094 
L 561.124713 91.647905 
L 563.659552 92.492455 
L 566.194392 93.014671 
L 568.729231 92.481431 
L 571.264071 92.110705 
L 573.79891 91.902495 
L 576.33375 91.8568 
L 578.868589 91.97362 
L 581.403428 92.252955 
L 583.938268 92.694806 
L 586.473107 93.299172 
L 589.007947 94.066053 
L 591.542786 94.99545 
L 594.077626 96.087362 
L 596.612465 96.381565 
L 599.147304 95.568103 
L 601.682144 94.916324 
L 604.216983 94.426229 
L 606.751823 94.097818 
L 609.286662 93.93109 
L 611.821502 93.926046 
L 614.356341 94.082686 
L 616.89118 94.401009 
L 619.42602 94.881016 
L 621.960859 95.522706 
L 624.495699 96.32608 
L 627.030538 96.339721 
L 629.565378 95.547018 
L 632.100217 94.916857 
L 634.635056 94.449238 
L 637.169896 94.144162 
L 639.704735 94.001627 
L 642.239575 94.021635 
L 644.774414 94.204184 
L 647.309254 94.549276 
L 649.844093 95.056911 
L 652.378932 95.727087 
L 654.913772 96.559806 
L 657.448611 96.281569 
L 659.983451 95.455872 
L 662.51829 94.792717 
L 665.053129 94.292104 
L 667.587969 93.954032 
L 670.122808 93.778502 
L 672.657648 93.765514 
L 675.192487 93.915067 
L 677.727327 94.227162 
L 680.262166 94.701798 
L 682.797005 95.338977 
L 685.331845 96.138696 
L 687.866684 95.483582 
L 690.401524 94.556601 
L 692.936363 93.791267 
L 695.471203 93.187582 
L 698.006042 92.745545 
L 700.540881 92.465156 
L 703.075721 92.346416 
L 705.61056 92.389323 
L 708.1454 92.593879 
L 710.680239 92.960083 
L 713.215079 93.487936 
L 715.749918 94.177436 
L 723.354436 92.442954 
L 725.889276 92.103435 
L 728.424115 91.924032 
L 730.958955 91.904745 
L 733.493794 92.045575 
L 736.028633 92.346521 
L 738.563473 92.807584 
L 741.098312 93.428763 
L 743.633152 94.210058 
L 746.167991 99.668594 
L 746.167991 99.668594 
" clip-path="url(#p32bfdcb89b)" style="fill: none; stroke-dasharray: 3.7,1.6; stroke-dashoffset: 0; stroke: #000000"/>
   </g>
   <g id="line2d_98">
    <path d="M 117.527813 432.241019 
L 153.015565 414.998629 
L 155.550405 412.158034 
L 158.085244 408.791944 
L 160.620084 405.115849 
L 173.294281 384.996641 
L 175.82912 380.333963 
L 178.36396 376.273 
L 180.898799 372.976122 
L 183.433639 369.351295 
L 185.968478 365.398517 
L 188.503317 361.117788 
L 191.038157 360.27225 
L 193.572996 359.844493 
L 196.107836 359.09503 
L 198.642675 358.02386 
L 201.177515 356.654137 
L 203.712354 355.458306 
L 206.247193 353.930909 
L 208.782033 352.071944 
L 211.316872 349.881412 
L 213.851712 348.762122 
L 216.386551 348.707609 
L 218.92139 348.331387 
L 221.45623 347.633458 
L 226.525909 345.621118 
L 229.060748 344.443048 
L 231.595588 342.936994 
L 236.665266 339.171059 
L 239.200106 339.289152 
L 241.734945 339.086084 
L 244.269785 338.561856 
L 246.804624 337.716468 
L 249.339464 336.35084 
L 251.874303 334.192449 
L 254.409142 331.712718 
L 256.943982 328.911645 
L 259.478821 325.789232 
L 262.013661 321.756477 
L 264.5485 316.8183 
L 267.08334 311.548577 
L 269.618179 305.947309 
L 272.153018 300.014494 
L 274.687858 290.873659 
L 279.757537 271.409799 
L 289.896894 230.389885 
L 294.966573 208.667361 
L 297.501413 199.676715 
L 302.571092 184.600658 
L 307.64077 168.238489 
L 310.17561 162.463511 
L 312.710449 157.282817 
L 315.245289 151.773944 
L 320.314968 140.228994 
L 322.849807 137.113772 
L 325.384646 133.673725 
L 327.919486 129.908852 
L 330.454325 125.819153 
L 332.989165 122.485862 
L 335.524004 120.306215 
L 338.058844 117.798389 
L 340.593683 114.962384 
L 343.128522 111.798201 
L 345.663362 110.882096 
L 348.198201 110.290407 
L 350.733041 109.377191 
L 353.26788 108.142449 
L 355.80272 106.60895 
L 358.337559 107.613693 
L 360.872398 108.290452 
L 363.407238 108.639227 
L 365.942077 108.660018 
L 368.476917 108.362158 
L 371.011756 107.755817 
L 373.546595 106.828148 
L 376.081435 105.579153 
L 378.616274 104.008831 
L 381.151114 103.826267 
L 383.685953 104.489172 
L 386.220793 104.827626 
L 388.755632 104.84163 
L 391.290471 104.531183 
L 393.825311 104.652379 
L 396.36015 104.548422 
L 398.89499 104.116308 
L 401.429829 103.356036 
L 403.964669 102.950188 
L 406.499508 104.186697 
L 409.034347 105.10168 
L 411.569187 105.695136 
L 414.104026 105.967066 
L 416.638866 106.392749 
L 419.173705 107.036343 
L 421.708545 107.351932 
L 424.243384 107.339516 
L 426.778223 106.999095 
L 429.313063 106.038752 
L 431.847902 104.702072 
L 434.382742 103.043684 
L 439.452421 98.980476 
L 441.98726 100.55072 
L 444.522099 101.789425 
L 447.056939 102.696589 
L 452.126618 103.77669 
L 454.661457 104.207214 
L 457.196297 104.316501 
L 459.731136 104.104549 
L 462.265975 103.571361 
L 467.335654 103.756979 
L 469.870494 103.551822 
L 472.405333 103.027423 
L 474.940173 102.355506 
L 477.475012 103.061315 
L 480.009851 103.602243 
L 482.544691 103.978291 
L 485.07953 104.189458 
L 487.61437 104.235745 
L 490.149209 104.117152 
L 492.684049 103.833678 
L 495.218888 103.385324 
L 497.753727 102.772089 
L 500.288567 101.993974 
L 502.823406 101.050978 
L 505.358246 100.463674 
L 507.893085 101.337008 
L 510.427924 102.048651 
L 512.962764 102.598602 
L 515.497603 102.986861 
L 518.032443 103.213429 
L 520.567282 103.278304 
L 523.102122 103.181487 
L 525.636961 102.922979 
L 528.1718 102.502778 
L 530.70664 101.920886 
L 533.241479 101.177301 
L 535.776319 100.880078 
L 538.311158 101.790064 
L 540.845998 102.539311 
L 543.380837 103.127819 
L 545.915676 103.555589 
L 548.450516 103.822621 
L 550.985355 103.928915 
L 553.520195 103.87447 
L 556.055034 103.659288 
L 558.589874 103.283366 
L 561.124713 102.746707 
L 563.659552 102.049309 
L 566.194392 101.804264 
L 568.729231 102.942324 
L 571.264071 103.917868 
L 573.79891 104.730898 
L 576.33375 105.381412 
L 578.868589 105.869411 
L 581.403428 106.194895 
L 583.938268 106.357863 
L 586.473107 106.358316 
L 589.007947 106.196254 
L 591.542786 105.871677 
L 594.077626 105.384584 
L 596.612465 105.435542 
L 599.147304 106.250853 
L 601.682144 106.904479 
L 604.216983 107.396423 
L 606.751823 107.726682 
L 609.286662 107.895258 
L 611.821502 107.90215 
L 614.356341 107.747359 
L 616.89118 107.430884 
L 619.42602 106.952725 
L 621.960859 106.312883 
L 624.495699 105.511357 
L 627.030538 105.507301 
L 629.565378 106.317467 
L 632.100217 106.965091 
L 634.635056 107.450173 
L 637.169896 107.772713 
L 639.704735 107.93271 
L 642.239575 107.930166 
L 644.774414 107.765079 
L 647.309254 107.43745 
L 649.844093 106.947279 
L 652.378932 106.294566 
L 654.913772 105.47931 
L 657.448611 105.702309 
L 659.983451 106.432236 
L 662.51829 106.999621 
L 665.053129 107.404464 
L 667.587969 107.646766 
L 670.122808 107.726526 
L 672.657648 107.643745 
L 675.192487 107.398421 
L 677.727327 106.990557 
L 680.262166 106.42015 
L 682.797005 105.687202 
L 685.331845 104.791712 
L 687.866684 105.157892 
L 690.401524 105.744153 
L 692.936363 106.168765 
L 695.471203 106.43173 
L 698.006042 106.533046 
L 700.540881 106.472714 
L 703.075721 106.250733 
L 705.61056 105.867105 
L 708.1454 105.321828 
L 710.680239 104.614903 
L 713.215079 103.74633 
L 715.749918 102.716109 
L 718.284757 103.396244 
L 720.819597 104.237574 
L 723.354436 104.918786 
L 725.889276 105.439883 
L 728.424115 105.800863 
L 730.958955 106.001727 
L 733.493794 106.042474 
L 736.028633 105.923105 
L 738.563473 105.64362 
L 741.098312 105.204018 
L 743.633152 104.6043 
L 746.167991 99.668594 
L 746.167991 99.668594 
" clip-path="url(#p32bfdcb89b)" style="fill: none; stroke-dasharray: 3.7,1.6; stroke-dashoffset: 0; stroke: #000000"/>
   </g>
   <g id="line2d_99">
    <path d="M 117.527813 492.48 
L 125.132332 492.48 
L 127.667171 359.388579 
L 282.292376 359.388579 
L 284.827216 99.678888 
L 497.753727 99.678888 
L 497.753727 99.678888 
" clip-path="url(#p32bfdcb89b)" style="fill: none; stroke-dasharray: 7.4,3.2; stroke-dashoffset: 0; stroke: #1b878c; stroke-width: 2"/>
   </g>
   <g id="line2d_100">
    <path d="M 117.527813 486.173066 
L 135.271689 441.666873 
L 140.341368 429.707706 
L 145.411047 418.496461 
L 150.480726 408.214334 
L 153.015565 403.465655 
L 155.550405 398.99524 
L 158.085244 394.811043 
L 160.620084 390.917305 
L 163.154923 387.314615 
L 165.689763 384.00005 
L 168.224602 380.967398 
L 170.759441 378.207445 
L 173.294281 375.708308 
L 175.82912 373.4558 
L 178.36396 371.433806 
L 180.898799 369.624654 
L 183.433639 368.009472 
L 185.968478 366.568506 
L 188.503317 365.281404 
L 193.572996 363.085757 
L 198.642675 361.255517 
L 216.386551 355.340291 
L 221.45623 353.115675 
L 223.991069 351.811705 
L 226.525909 350.352331 
L 229.060748 348.716797 
L 231.595588 346.884423 
L 234.130427 344.834714 
L 236.665266 342.547511 
L 239.200106 340.003173 
L 241.734945 337.182791 
L 244.269785 334.068429 
L 246.804624 330.643398 
L 249.339464 326.892561 
L 251.874303 322.802651 
L 254.409142 318.362628 
L 256.943982 313.56404 
L 259.478821 308.401407 
L 262.013661 302.872612 
L 264.5485 296.979288 
L 267.08334 290.727205 
L 269.618179 284.126632 
L 274.687858 269.945508 
L 279.757537 254.61911 
L 284.827216 238.416467 
L 302.571092 180.438181 
L 307.64077 165.377387 
L 310.17561 158.366111 
L 312.710449 151.755466 
L 315.245289 145.576789 
L 317.780128 139.852851 
L 320.314968 134.597519 
L 322.849807 129.815795 
L 325.384646 125.504212 
L 327.919486 121.651566 
L 330.454325 118.239899 
L 332.989165 115.245671 
L 335.524004 112.641024 
L 338.058844 110.395077 
L 340.593683 108.475156 
L 343.128522 106.847927 
L 345.663362 105.480368 
L 348.198201 104.340578 
L 350.733041 103.398397 
L 353.26788 102.625861 
L 355.80272 101.997481 
L 360.872398 101.084377 
L 365.942077 100.507497 
L 371.011756 100.154037 
L 378.616274 99.874782 
L 391.290471 99.717855 
L 424.243384 99.679149 
L 497.753727 99.678888 
L 497.753727 99.678888 
" clip-path="url(#p32bfdcb89b)" style="fill: none; stroke: #1fbecf; stroke-opacity: 0.8; stroke-width: 6; stroke-linecap: square"/>
   </g>
   <g id="patch_3">
    <path d="M 108 512.64 
L 108 69.12 
" style="fill: none; stroke: #000000; stroke-width: 2; stroke-linejoin: miter; stroke-linecap: square"/>
   </g>
   <g id="patch_4">
    <path d="M 777.6 512.64 
L 777.6 69.12 
" style="fill: none; stroke: #000000; stroke-width: 2; stroke-linejoin: miter; stroke-linecap: square"/>
   </g>
   <g id="patch_5">
    <path d="M 108 512.64 
L 777.6 512.64 
" style="fill: none; stroke: #000000; stroke-width: 2; stroke-linejoin: miter; stroke-linecap: square"/>
   </g>
   <g id="patch_6">
    <path d="M 108 69.12 
L 777.6 69.12 
" style="fill: none; stroke: #000000; stroke-width: 2; stroke-linejoin: miter; stroke-linecap: square"/>
   </g>
   <g id="text_25">
    <!-- AZ18 WHT06_ol43_prof 1 -->
    <g transform="translate(345.55425 42.799875) scale(0.168 -0.168)">
     <defs>
      <path id="Avenir-Book-41" d="M 1210 1613 
L 3174 1613 
L 2195 3994 
L 1210 1613 
z
M 538 0 
L 0 0 
L 1971 4531 
L 2419 4531 
L 4390 0 
L 3853 0 
L 3354 1190 
L 1037 1190 
L 538 0 
z
" transform="scale(0.015625)"/>
      <path id="Avenir-Book-5a" d="M 3373 4147 
L 730 422 
L 3411 422 
L 3411 0 
L 147 0 
L 147 384 
L 2797 4109 
L 186 4109 
L 186 4531 
L 3373 4531 
L 3373 4147 
z
" transform="scale(0.015625)"/>
      <path id="Avenir-Book-57" d="M 1600 653 
L 1613 653 
L 2752 4531 
L 3302 4531 
L 4442 653 
L 4454 653 
L 5530 4531 
L 6042 4531 
L 4704 0 
L 4166 0 
L 3027 3878 
L 3014 3878 
L 1875 0 
L 1338 0 
L 0 4531 
L 512 4531 
L 1600 653 
z
" transform="scale(0.015625)"/>
      <path id="Avenir-Book-48" d="M 614 4531 
L 1075 4531 
L 1075 2566 
L 3546 2566 
L 3546 4531 
L 4006 4531 
L 4006 0 
L 3546 0 
L 3546 2144 
L 1075 2144 
L 1075 0 
L 614 0 
L 614 4531 
z
" transform="scale(0.015625)"/>
      <path id="Avenir-Book-54" d="M 2067 0 
L 1606 0 
L 1606 4109 
L 90 4109 
L 90 4531 
L 3584 4531 
L 3584 4109 
L 2067 4109 
L 2067 0 
z
" transform="scale(0.015625)"/>
      <path id="Avenir-Book-5f" d="M 0 -480 
L 3200 -480 
L 3200 -800 
L 0 -800 
L 0 -480 
z
" transform="scale(0.015625)"/>
      <path id="Avenir-Book-6c" d="M 979 0 
L 557 0 
L 557 4838 
L 979 4838 
L 979 0 
z
" transform="scale(0.015625)"/>
      <path id="Avenir-Book-70" d="M 3194 1498 
Q 3194 1747 3114 1964 
Q 3034 2182 2886 2342 
Q 2739 2502 2531 2595 
Q 2323 2688 2061 2688 
Q 1798 2688 1580 2595 
Q 1363 2502 1203 2342 
Q 1043 2182 953 1964 
Q 864 1747 864 1498 
Q 864 1248 953 1030 
Q 1043 813 1203 653 
Q 1363 493 1580 400 
Q 1798 307 2061 307 
Q 2323 307 2531 400 
Q 2739 493 2886 653 
Q 3034 813 3114 1030 
Q 3194 1248 3194 1498 
z
M 461 2995 
L 883 2995 
L 883 2496 
L 896 2496 
Q 998 2650 1139 2758 
Q 1280 2867 1433 2937 
Q 1587 3008 1750 3040 
Q 1914 3072 2061 3072 
Q 2413 3072 2704 2953 
Q 2995 2835 3206 2624 
Q 3418 2413 3536 2125 
Q 3654 1837 3654 1498 
Q 3654 1158 3536 870 
Q 3418 582 3206 371 
Q 2995 160 2704 41 
Q 2413 -77 2061 -77 
Q 1914 -77 1750 -45 
Q 1587 -13 1433 57 
Q 1280 128 1139 237 
Q 998 346 896 499 
L 883 499 
L 883 -1843 
L 461 -1843 
L 461 2995 
z
" transform="scale(0.015625)"/>
     </defs>
     <use xlink:href="#Avenir-Book-41"/>
     <use xlink:href="#Avenir-Book-5a" transform="translate(68.599991 0)"/>
     <use xlink:href="#Avenir-Book-31" transform="translate(124.199982 0)"/>
     <use xlink:href="#Avenir-Book-38" transform="translate(179.799973 0)"/>
     <use xlink:href="#Avenir-Book-20" transform="translate(235.399963 0)"/>
     <use xlink:href="#Avenir-Book-57" transform="translate(263.199951 0)"/>
     <use xlink:href="#Avenir-Book-48" transform="translate(357.599945 0)"/>
     <use xlink:href="#Avenir-Book-54" transform="translate(429.799927 0)"/>
     <use xlink:href="#Avenir-Book-30" transform="translate(487.199921 0)"/>
     <use xlink:href="#Avenir-Book-36" transform="translate(542.799911 0)"/>
     <use xlink:href="#Avenir-Book-5f" transform="translate(598.399902 0)"/>
     <use xlink:href="#Avenir-Book-6f" transform="translate(648.399887 0)"/>
     <use xlink:href="#Avenir-Book-6c" transform="translate(707.699875 0)"/>
     <use xlink:href="#Avenir-Book-34" transform="translate(731.69986 0)"/>
     <use xlink:href="#Avenir-Book-33" transform="translate(787.29985 0)"/>
     <use xlink:href="#Avenir-Book-5f" transform="translate(842.899841 0)"/>
     <use xlink:href="#Avenir-Book-70" transform="translate(892.899826 0)"/>
     <use xlink:href="#Avenir-Book-72" transform="translate(953.999817 0)"/>
     <use xlink:href="#Avenir-Book-6f" transform="translate(985.449814 0)"/>
     <use xlink:href="#Avenir-Book-66" transform="translate(1044.749802 0)"/>
     <use xlink:href="#Avenir-Book-20" transform="translate(1074.349792 0)"/>
     <use xlink:href="#Avenir-Book-31" transform="translate(1102.14978 0)"/>
    </g>
    <!-- Best fit time: 2.1±0.1 days Temperature: 1250.0 ˚C -->
    <g transform="translate(254.420813 63.12) scale(0.168 -0.168)">
     <defs>
      <path id="Avenir-Book-42" d="M 1075 422 
L 1958 422 
Q 2208 422 2425 473 
Q 2643 525 2803 630 
Q 2963 736 3056 896 
Q 3149 1056 3149 1280 
Q 3149 1728 2861 1945 
Q 2573 2163 2016 2163 
L 1075 2163 
L 1075 422 
z
M 1075 2547 
L 2003 2547 
Q 2170 2547 2333 2588 
Q 2496 2630 2627 2726 
Q 2758 2822 2841 2972 
Q 2925 3123 2925 3341 
Q 2925 3411 2896 3539 
Q 2867 3667 2768 3795 
Q 2669 3923 2477 4016 
Q 2285 4109 1958 4109 
L 1075 4109 
L 1075 2547 
z
M 614 4531 
L 1965 4531 
Q 2246 4531 2508 4473 
Q 2771 4416 2976 4281 
Q 3181 4147 3302 3929 
Q 3424 3712 3424 3392 
Q 3424 3021 3216 2755 
Q 3008 2490 2624 2400 
L 2624 2387 
Q 3104 2349 3376 2051 
Q 3648 1754 3648 1254 
Q 3648 1146 3593 934 
Q 3539 723 3366 515 
Q 3194 307 2867 153 
Q 2541 0 1997 0 
L 614 0 
L 614 4531 
z
" transform="scale(0.015625)"/>
      <path id="Avenir-Book-3a" d="M 1235 307 
Q 1235 173 1139 67 
Q 1043 -38 890 -38 
Q 736 -38 640 67 
Q 544 173 544 307 
Q 544 442 640 547 
Q 736 653 890 653 
Q 1043 653 1139 547 
Q 1235 442 1235 307 
z
M 1235 2682 
Q 1235 2547 1139 2441 
Q 1043 2336 890 2336 
Q 736 2336 640 2441 
Q 544 2547 544 2682 
Q 544 2816 640 2921 
Q 736 3027 890 3027 
Q 1043 3027 1139 2921 
Q 1235 2816 1235 2682 
z
" transform="scale(0.015625)"/>
      <path id="Avenir-Book-b1" d="M 499 691 
L 3763 691 
L 3763 307 
L 499 307 
L 499 691 
z
M 499 2605 
L 1939 2605 
L 1939 3603 
L 2323 3603 
L 2323 2605 
L 3763 2605 
L 3763 2221 
L 2323 2221 
L 2323 1254 
L 1939 1254 
L 1939 2221 
L 499 2221 
L 499 2605 
z
" transform="scale(0.015625)"/>
      <path id="Avenir-Book-64" d="M 717 1498 
Q 717 1248 797 1030 
Q 877 813 1024 653 
Q 1171 493 1379 400 
Q 1587 307 1850 307 
Q 2106 307 2326 400 
Q 2547 493 2707 653 
Q 2867 813 2956 1030 
Q 3046 1248 3046 1498 
Q 3046 1747 2956 1964 
Q 2867 2182 2707 2342 
Q 2547 2502 2326 2595 
Q 2106 2688 1850 2688 
Q 1587 2688 1379 2595 
Q 1171 2502 1024 2342 
Q 877 2182 797 1964 
Q 717 1747 717 1498 
z
M 3450 0 
L 3027 0 
L 3027 499 
L 3014 499 
Q 2912 346 2771 237 
Q 2630 128 2476 57 
Q 2323 -13 2160 -45 
Q 1997 -77 1850 -77 
Q 1498 -77 1206 41 
Q 915 160 704 371 
Q 493 582 374 870 
Q 256 1158 256 1498 
Q 256 1837 374 2125 
Q 493 2413 704 2624 
Q 915 2835 1206 2953 
Q 1498 3072 1850 3072 
Q 1997 3072 2160 3040 
Q 2323 3008 2476 2937 
Q 2630 2867 2771 2758 
Q 2912 2650 3014 2496 
L 3027 2496 
L 3027 4838 
L 3450 4838 
L 3450 0 
z
" transform="scale(0.015625)"/>
      <path id="Avenir-Book-79" d="M 1574 518 
L 2490 2995 
L 3002 2995 
L 1504 -781 
Q 1370 -1126 1162 -1331 
Q 954 -1536 563 -1536 
Q 467 -1536 368 -1529 
Q 269 -1523 173 -1491 
L 218 -1082 
Q 352 -1152 538 -1152 
Q 762 -1152 890 -1011 
Q 1018 -870 1114 -614 
L 1331 -38 
L 102 2995 
L 634 2995 
L 1574 518 
z
" transform="scale(0.015625)"/>
      <path id="Avenir-Book-75" d="M 2624 0 
Q 2611 122 2608 240 
Q 2605 358 2605 480 
L 2592 480 
Q 2522 358 2413 256 
Q 2304 154 2169 80 
Q 2035 6 1884 -35 
Q 1734 -77 1587 -77 
Q 1011 -77 736 227 
Q 461 531 461 1094 
L 461 2995 
L 883 2995 
L 883 1338 
Q 883 1088 921 896 
Q 960 704 1053 573 
Q 1146 442 1302 374 
Q 1459 307 1696 307 
Q 1728 307 1875 332 
Q 2022 358 2185 473 
Q 2349 589 2477 819 
Q 2605 1050 2605 1459 
L 2605 2995 
L 3027 2995 
L 3027 659 
Q 3027 538 3036 352 
Q 3046 166 3059 0 
L 2624 0 
z
" transform="scale(0.015625)"/>
      <path id="Avenir-Book-2da" d="M 1152 4160 
Q 1152 4320 1040 4429 
Q 928 4538 768 4538 
Q 608 4538 496 4429 
Q 384 4320 384 4160 
Q 384 4000 496 3891 
Q 608 3782 768 3782 
Q 928 3782 1040 3891 
Q 1152 4000 1152 4160 
z
M 1382 4160 
Q 1382 4032 1334 3920 
Q 1286 3808 1200 3725 
Q 1114 3642 1002 3597 
Q 890 3552 768 3552 
Q 640 3552 531 3597 
Q 422 3642 336 3725 
Q 250 3808 202 3920 
Q 154 4032 154 4160 
Q 154 4288 202 4400 
Q 250 4512 336 4592 
Q 422 4672 531 4720 
Q 640 4768 768 4768 
Q 890 4768 1002 4720 
Q 1114 4672 1200 4592 
Q 1286 4512 1334 4400 
Q 1382 4288 1382 4160 
z
" transform="scale(0.015625)"/>
      <path id="Avenir-Book-43" d="M 4346 717 
Q 4230 544 4060 390 
Q 3891 237 3673 125 
Q 3456 13 3203 -51 
Q 2950 -115 2669 -115 
Q 2163 -115 1731 64 
Q 1299 243 982 560 
Q 666 877 486 1312 
Q 307 1747 307 2266 
Q 307 2784 486 3219 
Q 666 3654 982 3971 
Q 1299 4288 1731 4467 
Q 2163 4646 2669 4646 
Q 3091 4646 3513 4480 
Q 3936 4314 4237 3930 
L 3834 3629 
Q 3763 3738 3641 3846 
Q 3520 3955 3363 4038 
Q 3206 4122 3027 4173 
Q 2848 4224 2669 4224 
Q 2234 4224 1888 4064 
Q 1542 3904 1302 3635 
Q 1062 3366 934 3011 
Q 806 2656 806 2266 
Q 806 1875 934 1520 
Q 1062 1165 1302 896 
Q 1542 627 1888 467 
Q 2234 307 2669 307 
Q 2848 307 3024 339 
Q 3200 371 3369 448 
Q 3539 525 3689 656 
Q 3840 787 3968 986 
L 4346 717 
z
" transform="scale(0.015625)"/>
     </defs>
     <use xlink:href="#Avenir-Book-42"/>
     <use xlink:href="#Avenir-Book-65" transform="translate(62.999985 0)"/>
     <use xlink:href="#Avenir-Book-73" transform="translate(118.599976 0)"/>
     <use xlink:href="#Avenir-Book-74" transform="translate(161.199966 0)"/>
     <use xlink:href="#Avenir-Book-20" transform="translate(194.399963 0)"/>
     <use xlink:href="#Avenir-Book-66" transform="translate(222.199951 0)"/>
     <use xlink:href="#Avenir-Book-69" transform="translate(251.799942 0)"/>
     <use xlink:href="#Avenir-Book-74" transform="translate(275.799927 0)"/>
     <use xlink:href="#Avenir-Book-20" transform="translate(308.999924 0)"/>
     <use xlink:href="#Avenir-Book-74" transform="translate(336.799911 0)"/>
     <use xlink:href="#Avenir-Book-69" transform="translate(369.999908 0)"/>
     <use xlink:href="#Avenir-Book-6d" transform="translate(393.999893 0)"/>
     <use xlink:href="#Avenir-Book-65" transform="translate(479.199875 0)"/>
     <use xlink:href="#Avenir-Book-3a" transform="translate(534.799866 0)"/>
     <use xlink:href="#Avenir-Book-20" transform="translate(562.599854 0)"/>
     <use xlink:href="#Avenir-Book-32" transform="translate(590.399841 0)"/>
     <use xlink:href="#Avenir-Book-2e" transform="translate(645.999832 0)"/>
     <use xlink:href="#Avenir-Book-31" transform="translate(673.79982 0)"/>
     <use xlink:href="#Avenir-Book-b1" transform="translate(729.399811 0)"/>
     <use xlink:href="#Avenir-Book-30" transform="translate(795.999802 0)"/>
     <use xlink:href="#Avenir-Book-2e" transform="translate(851.599792 0)"/>
     <use xlink:href="#Avenir-Book-31" transform="translate(879.39978 0)"/>
     <use xlink:href="#Avenir-Book-20" transform="translate(934.999771 0)"/>
     <use xlink:href="#Avenir-Book-64" transform="translate(962.799759 0)"/>
     <use xlink:href="#Avenir-Book-61" transform="translate(1023.89975 0)"/>
     <use xlink:href="#Avenir-Book-79" transform="translate(1075.799744 0)"/>
     <use xlink:href="#Avenir-Book-73" transform="translate(1123.999741 0)"/>
     <use xlink:href="#Avenir-Book-20" transform="translate(1166.599731 0)"/>
     <use xlink:href="#Avenir-Book-54" transform="translate(1194.399719 0)"/>
     <use xlink:href="#Avenir-Book-65" transform="translate(1240.674713 0)"/>
     <use xlink:href="#Avenir-Book-6d" transform="translate(1296.274704 0)"/>
     <use xlink:href="#Avenir-Book-70" transform="translate(1381.474686 0)"/>
     <use xlink:href="#Avenir-Book-65" transform="translate(1442.574677 0)"/>
     <use xlink:href="#Avenir-Book-72" transform="translate(1498.174667 0)"/>
     <use xlink:href="#Avenir-Book-61" transform="translate(1531.374664 0)"/>
     <use xlink:href="#Avenir-Book-74" transform="translate(1583.274658 0)"/>
     <use xlink:href="#Avenir-Book-75" transform="translate(1616.474655 0)"/>
     <use xlink:href="#Avenir-Book-72" transform="translate(1672.074646 0)"/>
     <use xlink:href="#Avenir-Book-65" transform="translate(1703.524643 0)"/>
     <use xlink:href="#Avenir-Book-3a" transform="translate(1759.124634 0)"/>
     <use xlink:href="#Avenir-Book-20" transform="translate(1786.924622 0)"/>
     <use xlink:href="#Avenir-Book-31" transform="translate(1814.724609 0)"/>
     <use xlink:href="#Avenir-Book-32" transform="translate(1870.3246 0)"/>
     <use xlink:href="#Avenir-Book-35" transform="translate(1925.924591 0)"/>
     <use xlink:href="#Avenir-Book-30" transform="translate(1981.524582 0)"/>
     <use xlink:href="#Avenir-Book-2e" transform="translate(2037.124573 0)"/>
     <use xlink:href="#Avenir-Book-30" transform="translate(2064.924561 0)"/>
     <use xlink:href="#Avenir-Book-20" transform="translate(2120.524551 0)"/>
     <use xlink:href="#Avenir-Book-2da" transform="translate(2148.324539 0)"/>
     <use xlink:href="#Avenir-Book-43" transform="translate(2172.324524 0)"/>
    </g>
   </g>
   <g id="legend_1">
    <g id="patch_7">
     <path d="M 117.8 200.241375 
L 246.62625 200.241375 
Q 249.42625 200.241375 249.42625 197.441375 
L 249.42625 78.92 
Q 249.42625 76.12 246.62625 76.12 
L 117.8 76.12 
Q 115 76.12 115 78.92 
L 115 197.441375 
Q 115 200.241375 117.8 200.241375 
z
" style="fill: #ffffff; opacity: 0.8; stroke: #cccccc; stroke-linejoin: miter"/>
    </g>
    <g id="line2d_101">
     <path d="M 120.6 87.403125 
L 134.6 87.403125 
L 148.6 87.403125 
" style="fill: none; stroke-dasharray: 7.4,3.2; stroke-dashoffset: 0; stroke: #f47e1f; stroke-width: 2"/>
     <g>
      <use xlink:href="#m87656f7226" x="134.6" y="87.403125" style="fill: #f47e1f; stroke: #f47e1f"/>
     </g>
    </g>
    <g id="text_26">
     <!-- Data -->
     <g transform="translate(159.8 92.303125) scale(0.14 -0.14)">
      <use xlink:href="#Avenir-Book-44"/>
      <use xlink:href="#Avenir-Book-61" transform="translate(74.099991 0)"/>
      <use xlink:href="#Avenir-Book-74" transform="translate(125.999985 0)"/>
      <use xlink:href="#Avenir-Book-61" transform="translate(159.199982 0)"/>
     </g>
    </g>
    <g id="line2d_102">
     <path d="M 120.6 119.39925 
L 134.6 119.39925 
L 148.6 119.39925 
" style="fill: none; stroke-dasharray: 3.7,1.6; stroke-dashoffset: 0; stroke: #000000"/>
    </g>
    <g id="text_27">
     <!-- Interpolation  -->
     <g transform="translate(159.8 113.917813) scale(0.14 -0.14)">
      <defs>
       <path id="Avenir-Book-49" d="M 1075 0 
L 614 0 
L 614 4531 
L 1075 4531 
L 1075 0 
z
" transform="scale(0.015625)"/>
      </defs>
      <use xlink:href="#Avenir-Book-49"/>
      <use xlink:href="#Avenir-Book-6e" transform="translate(26.399994 0)"/>
      <use xlink:href="#Avenir-Book-74" transform="translate(81.999985 0)"/>
      <use xlink:href="#Avenir-Book-65" transform="translate(115.199982 0)"/>
      <use xlink:href="#Avenir-Book-72" transform="translate(170.799973 0)"/>
      <use xlink:href="#Avenir-Book-70" transform="translate(203.999969 0)"/>
      <use xlink:href="#Avenir-Book-6f" transform="translate(265.09996 0)"/>
      <use xlink:href="#Avenir-Book-6c" transform="translate(324.399948 0)"/>
      <use xlink:href="#Avenir-Book-61" transform="translate(348.399933 0)"/>
      <use xlink:href="#Avenir-Book-74" transform="translate(400.299927 0)"/>
      <use xlink:href="#Avenir-Book-69" transform="translate(433.499924 0)"/>
      <use xlink:href="#Avenir-Book-6f" transform="translate(457.499908 0)"/>
      <use xlink:href="#Avenir-Book-6e" transform="translate(516.799896 0)"/>
      <use xlink:href="#Avenir-Book-20" transform="translate(572.399887 0)"/>
     </g>
     <!--   Uncertainty -->
     <g transform="translate(159.8 130.649125) scale(0.14 -0.14)">
      <defs>
       <path id="Avenir-Book-55" d="M 3853 1690 
Q 3853 1408 3785 1091 
Q 3718 774 3532 505 
Q 3347 237 3024 61 
Q 2701 -115 2195 -115 
Q 1683 -115 1363 61 
Q 1043 237 857 505 
Q 672 774 605 1091 
Q 538 1408 538 1690 
L 538 4531 
L 998 4531 
L 998 1741 
Q 998 1414 1062 1180 
Q 1126 947 1232 787 
Q 1338 627 1469 534 
Q 1600 442 1731 390 
Q 1862 339 1984 323 
Q 2106 307 2195 307 
Q 2278 307 2403 323 
Q 2528 339 2659 390 
Q 2790 442 2921 534 
Q 3053 627 3158 787 
Q 3264 947 3328 1180 
Q 3392 1414 3392 1741 
L 3392 4531 
L 3853 4531 
L 3853 1690 
z
" transform="scale(0.015625)"/>
      </defs>
      <use xlink:href="#Avenir-Book-20"/>
      <use xlink:href="#Avenir-Book-20" transform="translate(27.799988 0)"/>
      <use xlink:href="#Avenir-Book-55" transform="translate(55.599976 0)"/>
      <use xlink:href="#Avenir-Book-6e" transform="translate(124.199966 0)"/>
      <use xlink:href="#Avenir-Book-63" transform="translate(179.799957 0)"/>
      <use xlink:href="#Avenir-Book-65" transform="translate(227.999954 0)"/>
      <use xlink:href="#Avenir-Book-72" transform="translate(283.599945 0)"/>
      <use xlink:href="#Avenir-Book-74" transform="translate(316.799942 0)"/>
      <use xlink:href="#Avenir-Book-61" transform="translate(349.999939 0)"/>
      <use xlink:href="#Avenir-Book-69" transform="translate(401.899933 0)"/>
      <use xlink:href="#Avenir-Book-6e" transform="translate(425.899918 0)"/>
      <use xlink:href="#Avenir-Book-74" transform="translate(481.499908 0)"/>
      <use xlink:href="#Avenir-Book-79" transform="translate(514.699905 0)"/>
     </g>
    </g>
    <g id="line2d_103">
     <path d="M 120.6 157.74525 
L 134.6 157.74525 
L 148.6 157.74525 
" style="fill: none; stroke-dasharray: 7.4,3.2; stroke-dashoffset: 0; stroke: #1b878c; stroke-width: 2"/>
    </g>
    <g id="text_28">
     <!-- Initial  -->
     <g transform="translate(159.8 152.263813) scale(0.14 -0.14)">
      <use xlink:href="#Avenir-Book-49"/>
      <use xlink:href="#Avenir-Book-6e" transform="translate(26.399994 0)"/>
      <use xlink:href="#Avenir-Book-69" transform="translate(81.999985 0)"/>
      <use xlink:href="#Avenir-Book-74" transform="translate(105.999969 0)"/>
      <use xlink:href="#Avenir-Book-69" transform="translate(139.199966 0)"/>
      <use xlink:href="#Avenir-Book-61" transform="translate(163.199951 0)"/>
      <use xlink:href="#Avenir-Book-6c" transform="translate(215.099945 0)"/>
      <use xlink:href="#Avenir-Book-20" transform="translate(239.09993 0)"/>
     </g>
     <!--  Condition -->
     <g transform="translate(159.8 168.995125) scale(0.14 -0.14)">
      <use xlink:href="#Avenir-Book-20"/>
      <use xlink:href="#Avenir-Book-43" transform="translate(27.799988 0)"/>
      <use xlink:href="#Avenir-Book-6f" transform="translate(98.199982 0)"/>
      <use xlink:href="#Avenir-Book-6e" transform="translate(157.499969 0)"/>
      <use xlink:href="#Avenir-Book-64" transform="translate(213.09996 0)"/>
      <use xlink:href="#Avenir-Book-69" transform="translate(274.199951 0)"/>
      <use xlink:href="#Avenir-Book-74" transform="translate(298.199936 0)"/>
      <use xlink:href="#Avenir-Book-69" transform="translate(331.399933 0)"/>
      <use xlink:href="#Avenir-Book-6f" transform="translate(355.399918 0)"/>
      <use xlink:href="#Avenir-Book-6e" transform="translate(414.699905 0)"/>
     </g>
    </g>
    <g id="line2d_104">
     <path d="M 120.6 185.709813 
L 134.6 185.709813 
L 148.6 185.709813 
" style="fill: none; stroke: #1fbecf; stroke-opacity: 0.8; stroke-width: 6; stroke-linecap: square"/>
    </g>
    <g id="text_29">
     <!-- Best fit -->
     <g transform="translate(159.8 190.609813) scale(0.14 -0.14)">
      <use xlink:href="#Avenir-Book-42"/>
      <use xlink:href="#Avenir-Book-65" transform="translate(62.999985 0)"/>
      <use xlink:href="#Avenir-Book-73" transform="translate(118.599976 0)"/>
      <use xlink:href="#Avenir-Book-74" transform="translate(161.199966 0)"/>
      <use xlink:href="#Avenir-Book-20" transform="translate(194.399963 0)"/>
      <use xlink:href="#Avenir-Book-66" transform="translate(222.199951 0)"/>
      <use xlink:href="#Avenir-Book-69" transform="translate(251.799942 0)"/>
      <use xlink:href="#Avenir-Book-74" transform="translate(275.799927 0)"/>
     </g>
    </g>
   </g>
  </g>
 </g>
 <defs>
  <clipPath id="p32bfdcb89b">
   <rect x="108" y="69.12" width="669.6" height="443.52"/>
  </clipPath>
 </defs>
</svg>
