<?xml version="1.0" encoding="utf-8" standalone="no"?>
<!DOCTYPE svg PUBLIC "-//W3C//DTD SVG 1.1//EN"
  "http://www.w3.org/Graphics/SVG/1.1/DTD/svg11.dtd">
<svg xmlns:xlink="http://www.w3.org/1999/xlink" width="864pt" height="576pt" viewBox="0 0 864 576" xmlns="http://www.w3.org/2000/svg" version="1.1">
 <metadata>
  <rdf:RDF xmlns:dc="http://purl.org/dc/elements/1.1/" xmlns:cc="http://creativecommons.org/ns#" xmlns:rdf="http://www.w3.org/1999/02/22-rdf-syntax-ns#">
   <cc:Work>
    <dc:type rdf:resource="http://purl.org/dc/dcmitype/StillImage"/>
    <dc:date>2025-10-23T14:52:16.593924</dc:date>
    <dc:format>image/svg+xml</dc:format>
    <dc:creator>
     <cc:Agent>
      <dc:title>Matplotlib v3.10.6, https://matplotlib.org/</dc:title>
     </cc:Agent>
    </dc:creator>
   </cc:Work>
  </rdf:RDF>
 </metadata>
 <defs>
  <style type="text/css">*{stroke-linejoin: round; stroke-linecap: butt}</style>
 </defs>
 <g id="figure_1">
  <g id="patch_1">
   <path d="M 0 576 
L 864 576 
L 864 0 
L 0 0 
z
" style="fill: #ffffff"/>
  </g>
  <g id="axes_1">
   <g id="patch_2">
    <path d="M 108 512.64 
L 777.6 512.64 
L 777.6 69.12 
L 108 69.12 
z
" style="fill: #ffffff"/>
   </g>
   <g id="matplotlib.axis_1">
    <g id="xtick_1">
     <g id="line2d_1">
      <defs>
       <path id="maafe47aabe" d="M 0 0 
L 0 7 
" style="stroke: #000000; stroke-width: 2"/>
      </defs>
      <g>
       <use xlink:href="#maafe47aabe" x="114.224495" y="512.64" style="stroke: #000000; stroke-width: 2"/>
      </g>
     </g>
     <g id="text_1">
      <!-- 0 -->
      <g transform="translate(110.332932 533.723125) scale(0.14 -0.14)">
       <defs>
        <path id="Avenir-Book-30" d="M 1779 4186 
Q 1408 4186 1193 3987 
Q 979 3789 870 3494 
Q 762 3200 733 2867 
Q 704 2534 704 2266 
Q 704 1997 733 1664 
Q 762 1331 870 1036 
Q 979 742 1193 544 
Q 1408 346 1779 346 
Q 2150 346 2364 544 
Q 2579 742 2688 1036 
Q 2797 1331 2825 1664 
Q 2854 1997 2854 2266 
Q 2854 2534 2825 2867 
Q 2797 3200 2688 3494 
Q 2579 3789 2364 3987 
Q 2150 4186 1779 4186 
z
M 1779 4608 
Q 2266 4608 2566 4384 
Q 2867 4160 3033 3814 
Q 3200 3469 3257 3056 
Q 3315 2643 3315 2266 
Q 3315 1888 3257 1475 
Q 3200 1062 3033 716 
Q 2867 371 2566 147 
Q 2266 -77 1779 -77 
Q 1293 -77 992 147 
Q 691 371 524 716 
Q 358 1062 300 1475 
Q 243 1888 243 2266 
Q 243 2643 300 3056 
Q 358 3469 524 3814 
Q 691 4160 992 4384 
Q 1293 4608 1779 4608 
z
" transform="scale(0.015625)"/>
       </defs>
       <use xlink:href="#Avenir-Book-30"/>
      </g>
     </g>
    </g>
    <g id="xtick_2">
     <g id="line2d_2">
      <g>
       <use xlink:href="#maafe47aabe" x="145.346967" y="512.64" style="stroke: #000000; stroke-width: 2"/>
      </g>
     </g>
     <g id="text_2">
      <!-- 10 -->
      <g transform="translate(137.563842 533.723125) scale(0.14 -0.14)">
       <defs>
        <path id="Avenir-Book-31" d="M 2227 0 
L 1766 0 
L 1766 3955 
L 954 3238 
L 666 3584 
L 1818 4531 
L 2227 4531 
L 2227 0 
z
" transform="scale(0.015625)"/>
       </defs>
       <use xlink:href="#Avenir-Book-31"/>
       <use xlink:href="#Avenir-Book-30" transform="translate(55.599991 0)"/>
      </g>
     </g>
    </g>
    <g id="xtick_3">
     <g id="line2d_3">
      <g>
       <use xlink:href="#maafe47aabe" x="176.46944" y="512.64" style="stroke: #000000; stroke-width: 2"/>
      </g>
     </g>
     <g id="text_3">
      <!-- 20 -->
      <g transform="translate(168.686315 533.723125) scale(0.14 -0.14)">
       <defs>
        <path id="Avenir-Book-32" d="M 3187 0 
L 307 0 
L 307 531 
L 2112 2368 
Q 2214 2470 2316 2585 
Q 2419 2701 2502 2829 
Q 2586 2957 2637 3097 
Q 2688 3238 2688 3392 
Q 2688 3578 2621 3725 
Q 2554 3872 2432 3974 
Q 2310 4077 2150 4131 
Q 1990 4186 1811 4186 
Q 1466 4186 1222 3994 
Q 979 3802 909 3475 
L 422 3526 
Q 518 4032 886 4320 
Q 1254 4608 1779 4608 
Q 2054 4608 2300 4534 
Q 2547 4461 2736 4313 
Q 2925 4166 3037 3945 
Q 3149 3725 3149 3430 
Q 3149 3168 3069 2950 
Q 2989 2733 2861 2541 
Q 2733 2349 2569 2176 
Q 2406 2003 2234 1837 
L 806 422 
L 3187 422 
L 3187 0 
z
" transform="scale(0.015625)"/>
       </defs>
       <use xlink:href="#Avenir-Book-32"/>
       <use xlink:href="#Avenir-Book-30" transform="translate(55.599991 0)"/>
      </g>
     </g>
    </g>
    <g id="xtick_4">
     <g id="line2d_4">
      <g>
       <use xlink:href="#maafe47aabe" x="207.591913" y="512.64" style="stroke: #000000; stroke-width: 2"/>
      </g>
     </g>
     <g id="text_4">
      <!-- 30 -->
      <g transform="translate(199.808788 533.723125) scale(0.14 -0.14)">
       <defs>
        <path id="Avenir-Book-33" d="M 1306 2586 
L 1542 2586 
Q 1741 2586 1923 2630 
Q 2106 2675 2240 2774 
Q 2374 2874 2454 3034 
Q 2534 3194 2534 3418 
Q 2534 3782 2313 3984 
Q 2093 4186 1696 4186 
Q 1408 4186 1190 4058 
Q 973 3930 832 3686 
L 429 3891 
Q 634 4256 950 4432 
Q 1267 4608 1683 4608 
Q 1952 4608 2189 4531 
Q 2426 4454 2605 4304 
Q 2784 4154 2889 3933 
Q 2995 3712 2995 3430 
Q 2995 3245 2934 3078 
Q 2874 2912 2768 2777 
Q 2662 2643 2521 2544 
Q 2381 2445 2227 2394 
L 2246 2381 
Q 2438 2342 2598 2236 
Q 2758 2131 2873 1977 
Q 2989 1824 3053 1632 
Q 3117 1440 3117 1229 
Q 3117 915 3001 672 
Q 2886 429 2688 262 
Q 2490 96 2227 9 
Q 1965 -77 1670 -77 
Q 1171 -77 800 140 
Q 429 358 243 838 
L 730 986 
Q 845 659 1072 502 
Q 1299 346 1709 346 
Q 1901 346 2073 410 
Q 2246 474 2377 592 
Q 2509 710 2582 876 
Q 2656 1043 2656 1242 
Q 2656 1498 2560 1674 
Q 2464 1850 2304 1958 
Q 2144 2067 1936 2115 
Q 1728 2163 1504 2163 
L 1306 2163 
L 1306 2586 
z
" transform="scale(0.015625)"/>
       </defs>
       <use xlink:href="#Avenir-Book-33"/>
       <use xlink:href="#Avenir-Book-30" transform="translate(55.599991 0)"/>
      </g>
     </g>
    </g>
    <g id="xtick_5">
     <g id="line2d_5">
      <g>
       <use xlink:href="#maafe47aabe" x="238.714385" y="512.64" style="stroke: #000000; stroke-width: 2"/>
      </g>
     </g>
     <g id="text_5">
      <!-- 40 -->
      <g transform="translate(230.93126 533.723125) scale(0.14 -0.14)">
       <defs>
        <path id="Avenir-Book-34" d="M 2202 4070 
L 2189 4070 
L 627 1498 
L 2202 1498 
L 2202 4070 
z
M 2662 1498 
L 3315 1498 
L 3315 1075 
L 2662 1075 
L 2662 0 
L 2202 0 
L 2202 1075 
L 243 1075 
L 243 1600 
L 2074 4531 
L 2662 4531 
L 2662 1498 
z
" transform="scale(0.015625)"/>
       </defs>
       <use xlink:href="#Avenir-Book-34"/>
       <use xlink:href="#Avenir-Book-30" transform="translate(55.599991 0)"/>
      </g>
     </g>
    </g>
    <g id="xtick_6">
     <g id="line2d_6">
      <g>
       <use xlink:href="#maafe47aabe" x="269.836858" y="512.64" style="stroke: #000000; stroke-width: 2"/>
      </g>
     </g>
     <g id="text_6">
      <!-- 50 -->
      <g transform="translate(262.053733 533.723125) scale(0.14 -0.14)">
       <defs>
        <path id="Avenir-Book-35" d="M 2976 4109 
L 1120 4109 
L 1094 2746 
Q 1242 2803 1395 2828 
Q 1549 2854 1702 2854 
Q 2022 2854 2284 2745 
Q 2547 2637 2736 2441 
Q 2925 2246 3030 1980 
Q 3136 1715 3136 1402 
Q 3136 1075 3021 803 
Q 2906 531 2701 336 
Q 2496 141 2217 32 
Q 1939 -77 1613 -77 
Q 1184 -77 838 128 
Q 493 333 307 730 
L 762 928 
Q 890 659 1120 502 
Q 1350 346 1651 346 
Q 1869 346 2054 426 
Q 2240 506 2377 640 
Q 2515 774 2595 960 
Q 2675 1146 2675 1357 
Q 2675 1594 2592 1792 
Q 2509 1990 2361 2134 
Q 2214 2278 2009 2355 
Q 1805 2432 1562 2432 
Q 1318 2432 1078 2365 
Q 838 2298 621 2182 
L 666 4531 
L 2976 4531 
L 2976 4109 
z
" transform="scale(0.015625)"/>
       </defs>
       <use xlink:href="#Avenir-Book-35"/>
       <use xlink:href="#Avenir-Book-30" transform="translate(55.599991 0)"/>
      </g>
     </g>
    </g>
    <g id="xtick_7">
     <g id="line2d_7">
      <g>
       <use xlink:href="#maafe47aabe" x="300.959331" y="512.64" style="stroke: #000000; stroke-width: 2"/>
      </g>
     </g>
     <g id="text_7">
      <!-- 60 -->
      <g transform="translate(293.176206 533.723125) scale(0.14 -0.14)">
       <defs>
        <path id="Avenir-Book-36" d="M 768 1325 
Q 768 1107 841 928 
Q 915 749 1049 617 
Q 1184 486 1369 416 
Q 1555 346 1779 346 
Q 2003 346 2188 416 
Q 2374 486 2508 617 
Q 2643 749 2716 928 
Q 2790 1107 2790 1325 
Q 2790 1542 2716 1721 
Q 2643 1901 2508 2029 
Q 2374 2157 2188 2230 
Q 2003 2304 1779 2304 
Q 1555 2304 1369 2230 
Q 1184 2157 1049 2029 
Q 915 1901 841 1721 
Q 768 1542 768 1325 
z
M 1229 2586 
L 1242 2573 
Q 1350 2650 1532 2688 
Q 1715 2726 1869 2726 
Q 2163 2726 2416 2620 
Q 2669 2515 2854 2329 
Q 3040 2144 3145 1888 
Q 3251 1632 3251 1325 
Q 3251 1011 3142 755 
Q 3034 499 2835 313 
Q 2637 128 2368 25 
Q 2099 -77 1779 -77 
Q 1459 -77 1190 25 
Q 922 128 723 313 
Q 525 499 416 755 
Q 307 1011 307 1325 
Q 307 1702 419 1984 
Q 531 2266 698 2541 
L 1920 4531 
L 2464 4531 
L 1229 2586 
z
" transform="scale(0.015625)"/>
       </defs>
       <use xlink:href="#Avenir-Book-36"/>
       <use xlink:href="#Avenir-Book-30" transform="translate(55.599991 0)"/>
      </g>
     </g>
    </g>
    <g id="xtick_8">
     <g id="line2d_8">
      <g>
       <use xlink:href="#maafe47aabe" x="332.081803" y="512.64" style="stroke: #000000; stroke-width: 2"/>
      </g>
     </g>
     <g id="text_8">
      <!-- 70 -->
      <g transform="translate(324.298678 533.723125) scale(0.14 -0.14)">
       <defs>
        <path id="Avenir-Book-37" d="M 3034 4109 
L 1210 0 
L 691 0 
L 2554 4109 
L 346 4109 
L 346 4531 
L 3034 4531 
L 3034 4109 
z
" transform="scale(0.015625)"/>
       </defs>
       <use xlink:href="#Avenir-Book-37"/>
       <use xlink:href="#Avenir-Book-30" transform="translate(55.599991 0)"/>
      </g>
     </g>
    </g>
    <g id="xtick_9">
     <g id="line2d_9">
      <g>
       <use xlink:href="#maafe47aabe" x="363.204276" y="512.64" style="stroke: #000000; stroke-width: 2"/>
      </g>
     </g>
     <g id="text_9">
      <!-- 80 -->
      <g transform="translate(355.421151 533.723125) scale(0.14 -0.14)">
       <defs>
        <path id="Avenir-Book-38" d="M 2752 1274 
Q 2752 1472 2681 1641 
Q 2611 1811 2486 1936 
Q 2362 2061 2179 2131 
Q 1997 2202 1779 2202 
Q 1555 2202 1376 2131 
Q 1197 2061 1072 1936 
Q 947 1811 876 1641 
Q 806 1472 806 1274 
Q 806 1075 876 905 
Q 947 736 1072 611 
Q 1197 486 1376 416 
Q 1555 346 1779 346 
Q 1997 346 2179 416 
Q 2362 486 2486 611 
Q 2611 736 2681 905 
Q 2752 1075 2752 1274 
z
M 2586 3386 
Q 2586 3558 2525 3705 
Q 2464 3853 2355 3958 
Q 2246 4064 2099 4125 
Q 1952 4186 1779 4186 
Q 1606 4186 1459 4125 
Q 1312 4064 1203 3958 
Q 1094 3853 1033 3705 
Q 973 3558 973 3386 
Q 973 3213 1033 3065 
Q 1094 2918 1203 2812 
Q 1312 2707 1459 2646 
Q 1606 2586 1779 2586 
Q 1952 2586 2099 2646 
Q 2246 2707 2355 2812 
Q 2464 2918 2525 3065 
Q 2586 3213 2586 3386 
z
M 1190 2413 
Q 1043 2464 918 2563 
Q 794 2662 704 2796 
Q 614 2931 563 3091 
Q 512 3251 512 3424 
Q 512 3693 614 3913 
Q 717 4134 889 4288 
Q 1062 4442 1292 4525 
Q 1523 4608 1779 4608 
Q 2035 4608 2265 4525 
Q 2496 4442 2669 4288 
Q 2842 4134 2944 3913 
Q 3046 3693 3046 3424 
Q 3046 3251 2995 3091 
Q 2944 2931 2854 2796 
Q 2765 2662 2640 2563 
Q 2515 2464 2368 2413 
L 2368 2400 
Q 2752 2298 2982 1978 
Q 3213 1658 3213 1210 
Q 3213 915 3094 678 
Q 2976 442 2781 272 
Q 2586 102 2326 12 
Q 2067 -77 1779 -77 
Q 1491 -77 1232 12 
Q 973 102 777 272 
Q 582 442 464 678 
Q 346 915 346 1210 
Q 346 1658 576 1978 
Q 806 2298 1190 2400 
L 1190 2413 
z
" transform="scale(0.015625)"/>
       </defs>
       <use xlink:href="#Avenir-Book-38"/>
       <use xlink:href="#Avenir-Book-30" transform="translate(55.599991 0)"/>
      </g>
     </g>
    </g>
    <g id="xtick_10">
     <g id="line2d_10">
      <g>
       <use xlink:href="#maafe47aabe" x="394.326749" y="512.64" style="stroke: #000000; stroke-width: 2"/>
      </g>
     </g>
     <g id="text_10">
      <!-- 90 -->
      <g transform="translate(386.543624 533.723125) scale(0.14 -0.14)">
       <defs>
        <path id="Avenir-Book-39" d="M 2790 3206 
Q 2790 3424 2716 3603 
Q 2643 3782 2508 3910 
Q 2374 4038 2188 4112 
Q 2003 4186 1779 4186 
Q 1555 4186 1369 4112 
Q 1184 4038 1049 3910 
Q 915 3782 841 3603 
Q 768 3424 768 3206 
Q 768 2989 841 2809 
Q 915 2630 1049 2499 
Q 1184 2368 1369 2297 
Q 1555 2227 1779 2227 
Q 2003 2227 2188 2297 
Q 2374 2368 2508 2499 
Q 2643 2630 2716 2809 
Q 2790 2989 2790 3206 
z
M 2330 1946 
L 2317 1958 
Q 2208 1882 2025 1843 
Q 1843 1805 1690 1805 
Q 1395 1805 1142 1910 
Q 890 2016 704 2201 
Q 518 2387 412 2643 
Q 307 2899 307 3206 
Q 307 3520 416 3776 
Q 525 4032 723 4217 
Q 922 4403 1190 4505 
Q 1459 4608 1779 4608 
Q 2099 4608 2368 4505 
Q 2637 4403 2835 4217 
Q 3034 4032 3142 3776 
Q 3251 3520 3251 3206 
Q 3251 2829 3139 2547 
Q 3027 2266 2861 1990 
L 1638 0 
L 1094 0 
L 2330 1946 
z
" transform="scale(0.015625)"/>
       </defs>
       <use xlink:href="#Avenir-Book-39"/>
       <use xlink:href="#Avenir-Book-30" transform="translate(55.599991 0)"/>
      </g>
     </g>
    </g>
    <g id="xtick_11">
     <g id="line2d_11">
      <g>
       <use xlink:href="#maafe47aabe" x="425.449221" y="512.64" style="stroke: #000000; stroke-width: 2"/>
      </g>
     </g>
     <g id="text_11">
      <!-- 100 -->
      <g transform="translate(413.774534 533.723125) scale(0.14 -0.14)">
       <use xlink:href="#Avenir-Book-31"/>
       <use xlink:href="#Avenir-Book-30" transform="translate(55.599991 0)"/>
       <use xlink:href="#Avenir-Book-30" transform="translate(111.199982 0)"/>
      </g>
     </g>
    </g>
    <g id="xtick_12">
     <g id="line2d_12">
      <g>
       <use xlink:href="#maafe47aabe" x="456.571694" y="512.64" style="stroke: #000000; stroke-width: 2"/>
      </g>
     </g>
     <g id="text_12">
      <!-- 110 -->
      <g transform="translate(444.897007 533.723125) scale(0.14 -0.14)">
       <use xlink:href="#Avenir-Book-31"/>
       <use xlink:href="#Avenir-Book-31" transform="translate(55.599991 0)"/>
       <use xlink:href="#Avenir-Book-30" transform="translate(111.199982 0)"/>
      </g>
     </g>
    </g>
    <g id="xtick_13">
     <g id="line2d_13">
      <g>
       <use xlink:href="#maafe47aabe" x="487.694167" y="512.64" style="stroke: #000000; stroke-width: 2"/>
      </g>
     </g>
     <g id="text_13">
      <!-- 120 -->
      <g transform="translate(476.019479 533.723125) scale(0.14 -0.14)">
       <use xlink:href="#Avenir-Book-31"/>
       <use xlink:href="#Avenir-Book-32" transform="translate(55.599991 0)"/>
       <use xlink:href="#Avenir-Book-30" transform="translate(111.199982 0)"/>
      </g>
     </g>
    </g>
    <g id="xtick_14">
     <g id="line2d_14">
      <g>
       <use xlink:href="#maafe47aabe" x="518.81664" y="512.64" style="stroke: #000000; stroke-width: 2"/>
      </g>
     </g>
     <g id="text_14">
      <!-- 130 -->
      <g transform="translate(507.141952 533.723125) scale(0.14 -0.14)">
       <use xlink:href="#Avenir-Book-31"/>
       <use xlink:href="#Avenir-Book-33" transform="translate(55.599991 0)"/>
       <use xlink:href="#Avenir-Book-30" transform="translate(111.199982 0)"/>
      </g>
     </g>
    </g>
    <g id="xtick_15">
     <g id="line2d_15">
      <g>
       <use xlink:href="#maafe47aabe" x="549.939112" y="512.64" style="stroke: #000000; stroke-width: 2"/>
      </g>
     </g>
     <g id="text_15">
      <!-- 140 -->
      <g transform="translate(538.264425 533.723125) scale(0.14 -0.14)">
       <use xlink:href="#Avenir-Book-31"/>
       <use xlink:href="#Avenir-Book-34" transform="translate(55.599991 0)"/>
       <use xlink:href="#Avenir-Book-30" transform="translate(111.199982 0)"/>
      </g>
     </g>
    </g>
    <g id="xtick_16">
     <g id="line2d_16">
      <g>
       <use xlink:href="#maafe47aabe" x="581.061585" y="512.64" style="stroke: #000000; stroke-width: 2"/>
      </g>
     </g>
     <g id="text_16">
      <!-- 150 -->
      <g transform="translate(569.386897 533.723125) scale(0.14 -0.14)">
       <use xlink:href="#Avenir-Book-31"/>
       <use xlink:href="#Avenir-Book-35" transform="translate(55.599991 0)"/>
       <use xlink:href="#Avenir-Book-30" transform="translate(111.199982 0)"/>
      </g>
     </g>
    </g>
    <g id="xtick_17">
     <g id="line2d_17">
      <g>
       <use xlink:href="#maafe47aabe" x="612.184058" y="512.64" style="stroke: #000000; stroke-width: 2"/>
      </g>
     </g>
     <g id="text_17">
      <!-- 160 -->
      <g transform="translate(600.50937 533.723125) scale(0.14 -0.14)">
       <use xlink:href="#Avenir-Book-31"/>
       <use xlink:href="#Avenir-Book-36" transform="translate(55.599991 0)"/>
       <use xlink:href="#Avenir-Book-30" transform="translate(111.199982 0)"/>
      </g>
     </g>
    </g>
    <g id="xtick_18">
     <g id="line2d_18">
      <g>
       <use xlink:href="#maafe47aabe" x="643.30653" y="512.64" style="stroke: #000000; stroke-width: 2"/>
      </g>
     </g>
     <g id="text_18">
      <!-- 170 -->
      <g transform="translate(631.631843 533.723125) scale(0.14 -0.14)">
       <use xlink:href="#Avenir-Book-31"/>
       <use xlink:href="#Avenir-Book-37" transform="translate(55.599991 0)"/>
       <use xlink:href="#Avenir-Book-30" transform="translate(111.199982 0)"/>
      </g>
     </g>
    </g>
    <g id="xtick_19">
     <g id="line2d_19">
      <g>
       <use xlink:href="#maafe47aabe" x="674.429003" y="512.64" style="stroke: #000000; stroke-width: 2"/>
      </g>
     </g>
     <g id="text_19">
      <!-- 180 -->
      <g transform="translate(662.754316 533.723125) scale(0.14 -0.14)">
       <use xlink:href="#Avenir-Book-31"/>
       <use xlink:href="#Avenir-Book-38" transform="translate(55.599991 0)"/>
       <use xlink:href="#Avenir-Book-30" transform="translate(111.199982 0)"/>
      </g>
     </g>
    </g>
    <g id="xtick_20">
     <g id="line2d_20">
      <g>
       <use xlink:href="#maafe47aabe" x="705.551476" y="512.64" style="stroke: #000000; stroke-width: 2"/>
      </g>
     </g>
     <g id="text_20">
      <!-- 190 -->
      <g transform="translate(693.876788 533.723125) scale(0.14 -0.14)">
       <use xlink:href="#Avenir-Book-31"/>
       <use xlink:href="#Avenir-Book-39" transform="translate(55.599991 0)"/>
       <use xlink:href="#Avenir-Book-30" transform="translate(111.199982 0)"/>
      </g>
     </g>
    </g>
    <g id="xtick_21">
     <g id="line2d_21">
      <g>
       <use xlink:href="#maafe47aabe" x="736.673948" y="512.64" style="stroke: #000000; stroke-width: 2"/>
      </g>
     </g>
     <g id="text_21">
      <!-- 200 -->
      <g transform="translate(724.999261 533.723125) scale(0.14 -0.14)">
       <use xlink:href="#Avenir-Book-32"/>
       <use xlink:href="#Avenir-Book-30" transform="translate(55.599991 0)"/>
       <use xlink:href="#Avenir-Book-30" transform="translate(111.199982 0)"/>
      </g>
     </g>
    </g>
    <g id="xtick_22">
     <g id="line2d_22">
      <g>
       <use xlink:href="#maafe47aabe" x="767.796421" y="512.64" style="stroke: #000000; stroke-width: 2"/>
      </g>
     </g>
     <g id="text_22">
      <!-- 210 -->
      <g transform="translate(756.121734 533.723125) scale(0.14 -0.14)">
       <use xlink:href="#Avenir-Book-32"/>
       <use xlink:href="#Avenir-Book-31" transform="translate(55.599991 0)"/>
       <use xlink:href="#Avenir-Book-30" transform="translate(111.199982 0)"/>
      </g>
     </g>
    </g>
    <g id="xtick_23">
     <g id="line2d_23">
      <defs>
       <path id="m2f96ac1057" d="M 0 0 
L 0 4 
" style="stroke: #000000; stroke-width: 2"/>
      </defs>
      <g>
       <use xlink:href="#m2f96ac1057" x="122.005113" y="512.64" style="stroke: #000000; stroke-width: 2"/>
      </g>
     </g>
    </g>
    <g id="xtick_24">
     <g id="line2d_24">
      <g>
       <use xlink:href="#m2f96ac1057" x="129.785731" y="512.64" style="stroke: #000000; stroke-width: 2"/>
      </g>
     </g>
    </g>
    <g id="xtick_25">
     <g id="line2d_25">
      <g>
       <use xlink:href="#m2f96ac1057" x="137.566349" y="512.64" style="stroke: #000000; stroke-width: 2"/>
      </g>
     </g>
    </g>
    <g id="xtick_26">
     <g id="line2d_26">
      <g>
       <use xlink:href="#m2f96ac1057" x="153.127585" y="512.64" style="stroke: #000000; stroke-width: 2"/>
      </g>
     </g>
    </g>
    <g id="xtick_27">
     <g id="line2d_27">
      <g>
       <use xlink:href="#m2f96ac1057" x="160.908204" y="512.64" style="stroke: #000000; stroke-width: 2"/>
      </g>
     </g>
    </g>
    <g id="xtick_28">
     <g id="line2d_28">
      <g>
       <use xlink:href="#m2f96ac1057" x="168.688822" y="512.64" style="stroke: #000000; stroke-width: 2"/>
      </g>
     </g>
    </g>
    <g id="xtick_29">
     <g id="line2d_29">
      <g>
       <use xlink:href="#m2f96ac1057" x="184.250058" y="512.64" style="stroke: #000000; stroke-width: 2"/>
      </g>
     </g>
    </g>
    <g id="xtick_30">
     <g id="line2d_30">
      <g>
       <use xlink:href="#m2f96ac1057" x="192.030676" y="512.64" style="stroke: #000000; stroke-width: 2"/>
      </g>
     </g>
    </g>
    <g id="xtick_31">
     <g id="line2d_31">
      <g>
       <use xlink:href="#m2f96ac1057" x="199.811294" y="512.64" style="stroke: #000000; stroke-width: 2"/>
      </g>
     </g>
    </g>
    <g id="xtick_32">
     <g id="line2d_32">
      <g>
       <use xlink:href="#m2f96ac1057" x="215.372531" y="512.64" style="stroke: #000000; stroke-width: 2"/>
      </g>
     </g>
    </g>
    <g id="xtick_33">
     <g id="line2d_33">
      <g>
       <use xlink:href="#m2f96ac1057" x="223.153149" y="512.64" style="stroke: #000000; stroke-width: 2"/>
      </g>
     </g>
    </g>
    <g id="xtick_34">
     <g id="line2d_34">
      <g>
       <use xlink:href="#m2f96ac1057" x="230.933767" y="512.64" style="stroke: #000000; stroke-width: 2"/>
      </g>
     </g>
    </g>
    <g id="xtick_35">
     <g id="line2d_35">
      <g>
       <use xlink:href="#m2f96ac1057" x="246.495003" y="512.64" style="stroke: #000000; stroke-width: 2"/>
      </g>
     </g>
    </g>
    <g id="xtick_36">
     <g id="line2d_36">
      <g>
       <use xlink:href="#m2f96ac1057" x="254.275622" y="512.64" style="stroke: #000000; stroke-width: 2"/>
      </g>
     </g>
    </g>
    <g id="xtick_37">
     <g id="line2d_37">
      <g>
       <use xlink:href="#m2f96ac1057" x="262.05624" y="512.64" style="stroke: #000000; stroke-width: 2"/>
      </g>
     </g>
    </g>
    <g id="xtick_38">
     <g id="line2d_38">
      <g>
       <use xlink:href="#m2f96ac1057" x="277.617476" y="512.64" style="stroke: #000000; stroke-width: 2"/>
      </g>
     </g>
    </g>
    <g id="xtick_39">
     <g id="line2d_39">
      <g>
       <use xlink:href="#m2f96ac1057" x="285.398094" y="512.64" style="stroke: #000000; stroke-width: 2"/>
      </g>
     </g>
    </g>
    <g id="xtick_40">
     <g id="line2d_40">
      <g>
       <use xlink:href="#m2f96ac1057" x="293.178713" y="512.64" style="stroke: #000000; stroke-width: 2"/>
      </g>
     </g>
    </g>
    <g id="xtick_41">
     <g id="line2d_41">
      <g>
       <use xlink:href="#m2f96ac1057" x="308.739949" y="512.64" style="stroke: #000000; stroke-width: 2"/>
      </g>
     </g>
    </g>
    <g id="xtick_42">
     <g id="line2d_42">
      <g>
       <use xlink:href="#m2f96ac1057" x="316.520567" y="512.64" style="stroke: #000000; stroke-width: 2"/>
      </g>
     </g>
    </g>
    <g id="xtick_43">
     <g id="line2d_43">
      <g>
       <use xlink:href="#m2f96ac1057" x="324.301185" y="512.64" style="stroke: #000000; stroke-width: 2"/>
      </g>
     </g>
    </g>
    <g id="xtick_44">
     <g id="line2d_44">
      <g>
       <use xlink:href="#m2f96ac1057" x="339.862422" y="512.64" style="stroke: #000000; stroke-width: 2"/>
      </g>
     </g>
    </g>
    <g id="xtick_45">
     <g id="line2d_45">
      <g>
       <use xlink:href="#m2f96ac1057" x="347.64304" y="512.64" style="stroke: #000000; stroke-width: 2"/>
      </g>
     </g>
    </g>
    <g id="xtick_46">
     <g id="line2d_46">
      <g>
       <use xlink:href="#m2f96ac1057" x="355.423658" y="512.64" style="stroke: #000000; stroke-width: 2"/>
      </g>
     </g>
    </g>
    <g id="xtick_47">
     <g id="line2d_47">
      <g>
       <use xlink:href="#m2f96ac1057" x="370.984894" y="512.64" style="stroke: #000000; stroke-width: 2"/>
      </g>
     </g>
    </g>
    <g id="xtick_48">
     <g id="line2d_48">
      <g>
       <use xlink:href="#m2f96ac1057" x="378.765512" y="512.64" style="stroke: #000000; stroke-width: 2"/>
      </g>
     </g>
    </g>
    <g id="xtick_49">
     <g id="line2d_49">
      <g>
       <use xlink:href="#m2f96ac1057" x="386.546131" y="512.64" style="stroke: #000000; stroke-width: 2"/>
      </g>
     </g>
    </g>
    <g id="xtick_50">
     <g id="line2d_50">
      <g>
       <use xlink:href="#m2f96ac1057" x="402.107367" y="512.64" style="stroke: #000000; stroke-width: 2"/>
      </g>
     </g>
    </g>
    <g id="xtick_51">
     <g id="line2d_51">
      <g>
       <use xlink:href="#m2f96ac1057" x="409.887985" y="512.64" style="stroke: #000000; stroke-width: 2"/>
      </g>
     </g>
    </g>
    <g id="xtick_52">
     <g id="line2d_52">
      <g>
       <use xlink:href="#m2f96ac1057" x="417.668603" y="512.64" style="stroke: #000000; stroke-width: 2"/>
      </g>
     </g>
    </g>
    <g id="xtick_53">
     <g id="line2d_53">
      <g>
       <use xlink:href="#m2f96ac1057" x="433.22984" y="512.64" style="stroke: #000000; stroke-width: 2"/>
      </g>
     </g>
    </g>
    <g id="xtick_54">
     <g id="line2d_54">
      <g>
       <use xlink:href="#m2f96ac1057" x="441.010458" y="512.64" style="stroke: #000000; stroke-width: 2"/>
      </g>
     </g>
    </g>
    <g id="xtick_55">
     <g id="line2d_55">
      <g>
       <use xlink:href="#m2f96ac1057" x="448.791076" y="512.64" style="stroke: #000000; stroke-width: 2"/>
      </g>
     </g>
    </g>
    <g id="xtick_56">
     <g id="line2d_56">
      <g>
       <use xlink:href="#m2f96ac1057" x="464.352312" y="512.64" style="stroke: #000000; stroke-width: 2"/>
      </g>
     </g>
    </g>
    <g id="xtick_57">
     <g id="line2d_57">
      <g>
       <use xlink:href="#m2f96ac1057" x="472.132931" y="512.64" style="stroke: #000000; stroke-width: 2"/>
      </g>
     </g>
    </g>
    <g id="xtick_58">
     <g id="line2d_58">
      <g>
       <use xlink:href="#m2f96ac1057" x="479.913549" y="512.64" style="stroke: #000000; stroke-width: 2"/>
      </g>
     </g>
    </g>
    <g id="xtick_59">
     <g id="line2d_59">
      <g>
       <use xlink:href="#m2f96ac1057" x="495.474785" y="512.64" style="stroke: #000000; stroke-width: 2"/>
      </g>
     </g>
    </g>
    <g id="xtick_60">
     <g id="line2d_60">
      <g>
       <use xlink:href="#m2f96ac1057" x="503.255403" y="512.64" style="stroke: #000000; stroke-width: 2"/>
      </g>
     </g>
    </g>
    <g id="xtick_61">
     <g id="line2d_61">
      <g>
       <use xlink:href="#m2f96ac1057" x="511.036021" y="512.64" style="stroke: #000000; stroke-width: 2"/>
      </g>
     </g>
    </g>
    <g id="xtick_62">
     <g id="line2d_62">
      <g>
       <use xlink:href="#m2f96ac1057" x="526.597258" y="512.64" style="stroke: #000000; stroke-width: 2"/>
      </g>
     </g>
    </g>
    <g id="xtick_63">
     <g id="line2d_63">
      <g>
       <use xlink:href="#m2f96ac1057" x="534.377876" y="512.64" style="stroke: #000000; stroke-width: 2"/>
      </g>
     </g>
    </g>
    <g id="xtick_64">
     <g id="line2d_64">
      <g>
       <use xlink:href="#m2f96ac1057" x="542.158494" y="512.64" style="stroke: #000000; stroke-width: 2"/>
      </g>
     </g>
    </g>
    <g id="xtick_65">
     <g id="line2d_65">
      <g>
       <use xlink:href="#m2f96ac1057" x="557.71973" y="512.64" style="stroke: #000000; stroke-width: 2"/>
      </g>
     </g>
    </g>
    <g id="xtick_66">
     <g id="line2d_66">
      <g>
       <use xlink:href="#m2f96ac1057" x="565.500349" y="512.64" style="stroke: #000000; stroke-width: 2"/>
      </g>
     </g>
    </g>
    <g id="xtick_67">
     <g id="line2d_67">
      <g>
       <use xlink:href="#m2f96ac1057" x="573.280967" y="512.64" style="stroke: #000000; stroke-width: 2"/>
      </g>
     </g>
    </g>
    <g id="xtick_68">
     <g id="line2d_68">
      <g>
       <use xlink:href="#m2f96ac1057" x="588.842203" y="512.64" style="stroke: #000000; stroke-width: 2"/>
      </g>
     </g>
    </g>
    <g id="xtick_69">
     <g id="line2d_69">
      <g>
       <use xlink:href="#m2f96ac1057" x="596.622821" y="512.64" style="stroke: #000000; stroke-width: 2"/>
      </g>
     </g>
    </g>
    <g id="xtick_70">
     <g id="line2d_70">
      <g>
       <use xlink:href="#m2f96ac1057" x="604.403439" y="512.64" style="stroke: #000000; stroke-width: 2"/>
      </g>
     </g>
    </g>
    <g id="xtick_71">
     <g id="line2d_71">
      <g>
       <use xlink:href="#m2f96ac1057" x="619.964676" y="512.64" style="stroke: #000000; stroke-width: 2"/>
      </g>
     </g>
    </g>
    <g id="xtick_72">
     <g id="line2d_72">
      <g>
       <use xlink:href="#m2f96ac1057" x="627.745294" y="512.64" style="stroke: #000000; stroke-width: 2"/>
      </g>
     </g>
    </g>
    <g id="xtick_73">
     <g id="line2d_73">
      <g>
       <use xlink:href="#m2f96ac1057" x="635.525912" y="512.64" style="stroke: #000000; stroke-width: 2"/>
      </g>
     </g>
    </g>
    <g id="xtick_74">
     <g id="line2d_74">
      <g>
       <use xlink:href="#m2f96ac1057" x="651.087149" y="512.64" style="stroke: #000000; stroke-width: 2"/>
      </g>
     </g>
    </g>
    <g id="xtick_75">
     <g id="line2d_75">
      <g>
       <use xlink:href="#m2f96ac1057" x="658.867767" y="512.64" style="stroke: #000000; stroke-width: 2"/>
      </g>
     </g>
    </g>
    <g id="xtick_76">
     <g id="line2d_76">
      <g>
       <use xlink:href="#m2f96ac1057" x="666.648385" y="512.64" style="stroke: #000000; stroke-width: 2"/>
      </g>
     </g>
    </g>
    <g id="xtick_77">
     <g id="line2d_77">
      <g>
       <use xlink:href="#m2f96ac1057" x="682.209621" y="512.64" style="stroke: #000000; stroke-width: 2"/>
      </g>
     </g>
    </g>
    <g id="xtick_78">
     <g id="line2d_78">
      <g>
       <use xlink:href="#m2f96ac1057" x="689.990239" y="512.64" style="stroke: #000000; stroke-width: 2"/>
      </g>
     </g>
    </g>
    <g id="xtick_79">
     <g id="line2d_79">
      <g>
       <use xlink:href="#m2f96ac1057" x="697.770858" y="512.64" style="stroke: #000000; stroke-width: 2"/>
      </g>
     </g>
    </g>
    <g id="xtick_80">
     <g id="line2d_80">
      <g>
       <use xlink:href="#m2f96ac1057" x="713.332094" y="512.64" style="stroke: #000000; stroke-width: 2"/>
      </g>
     </g>
    </g>
    <g id="xtick_81">
     <g id="line2d_81">
      <g>
       <use xlink:href="#m2f96ac1057" x="721.112712" y="512.64" style="stroke: #000000; stroke-width: 2"/>
      </g>
     </g>
    </g>
    <g id="xtick_82">
     <g id="line2d_82">
      <g>
       <use xlink:href="#m2f96ac1057" x="728.89333" y="512.64" style="stroke: #000000; stroke-width: 2"/>
      </g>
     </g>
    </g>
    <g id="xtick_83">
     <g id="line2d_83">
      <g>
       <use xlink:href="#m2f96ac1057" x="744.454567" y="512.64" style="stroke: #000000; stroke-width: 2"/>
      </g>
     </g>
    </g>
    <g id="xtick_84">
     <g id="line2d_84">
      <g>
       <use xlink:href="#m2f96ac1057" x="752.235185" y="512.64" style="stroke: #000000; stroke-width: 2"/>
      </g>
     </g>
    </g>
    <g id="xtick_85">
     <g id="line2d_85">
      <g>
       <use xlink:href="#m2f96ac1057" x="760.015803" y="512.64" style="stroke: #000000; stroke-width: 2"/>
      </g>
     </g>
    </g>
    <g id="xtick_86">
     <g id="line2d_86">
      <g>
       <use xlink:href="#m2f96ac1057" x="775.577039" y="512.64" style="stroke: #000000; stroke-width: 2"/>
      </g>
     </g>
    </g>
    <g id="text_23">
     <!-- Distance from Rim µm -->
     <g transform="translate(344.457812 556.873438) scale(0.2 -0.2)">
      <defs>
       <path id="Avenir-Book-44" d="M 1011 422 
L 1907 422 
Q 2426 422 2806 579 
Q 3187 736 3440 995 
Q 3693 1254 3814 1584 
Q 3936 1914 3936 2266 
Q 3936 2618 3814 2947 
Q 3693 3277 3440 3536 
Q 3187 3795 2806 3952 
Q 2426 4109 1907 4109 
L 1011 4109 
L 1011 422 
z
M 550 4531 
L 2054 4531 
Q 2477 4531 2902 4390 
Q 3328 4250 3670 3965 
Q 4013 3680 4224 3254 
Q 4435 2829 4435 2266 
Q 4435 1696 4224 1273 
Q 4013 851 3670 566 
Q 3328 282 2902 141 
Q 2477 0 2054 0 
L 550 0 
L 550 4531 
z
" transform="scale(0.015625)"/>
       <path id="Avenir-Book-69" d="M 1075 4147 
Q 1075 4013 979 3926 
Q 883 3840 768 3840 
Q 653 3840 557 3926 
Q 461 4013 461 4147 
Q 461 4282 557 4368 
Q 653 4454 768 4454 
Q 883 4454 979 4368 
Q 1075 4282 1075 4147 
z
M 979 0 
L 557 0 
L 557 2995 
L 979 2995 
L 979 0 
z
" transform="scale(0.015625)"/>
       <path id="Avenir-Book-73" d="M 2048 2285 
Q 1952 2470 1792 2579 
Q 1632 2688 1402 2688 
Q 1293 2688 1181 2662 
Q 1069 2637 979 2582 
Q 890 2528 835 2445 
Q 781 2362 781 2240 
Q 781 2029 928 1933 
Q 1075 1837 1370 1766 
L 1798 1664 
Q 2112 1594 2320 1379 
Q 2528 1165 2528 845 
Q 2528 602 2429 426 
Q 2330 250 2166 138 
Q 2003 26 1792 -25 
Q 1581 -77 1363 -77 
Q 1018 -77 720 54 
Q 422 186 211 506 
L 576 755 
Q 704 550 899 428 
Q 1094 307 1363 307 
Q 1491 307 1619 336 
Q 1747 365 1846 425 
Q 1946 486 2006 582 
Q 2067 678 2067 806 
Q 2067 1030 1900 1129 
Q 1734 1229 1498 1286 
L 1088 1382 
Q 1011 1402 880 1446 
Q 749 1491 624 1580 
Q 499 1670 409 1814 
Q 320 1958 320 2170 
Q 320 2400 413 2573 
Q 506 2746 662 2854 
Q 819 2963 1017 3017 
Q 1216 3072 1427 3072 
Q 1741 3072 2009 2950 
Q 2278 2829 2426 2534 
L 2048 2285 
z
" transform="scale(0.015625)"/>
       <path id="Avenir-Book-74" d="M 2010 2611 
L 1146 2611 
L 1146 845 
Q 1146 678 1178 572 
Q 1210 467 1267 409 
Q 1325 352 1405 329 
Q 1485 307 1581 307 
Q 1690 307 1805 339 
Q 1920 371 2016 422 
L 2035 32 
Q 1798 -77 1466 -77 
Q 1344 -77 1213 -45 
Q 1082 -13 973 76 
Q 864 166 793 320 
Q 723 474 723 723 
L 723 2611 
L 90 2611 
L 90 2995 
L 723 2995 
L 723 3840 
L 1146 3840 
L 1146 2995 
L 2010 2995 
L 2010 2611 
z
" transform="scale(0.015625)"/>
       <path id="Avenir-Book-61" d="M 2163 1491 
Q 2003 1491 1763 1475 
Q 1523 1459 1302 1398 
Q 1082 1338 925 1210 
Q 768 1082 768 858 
Q 768 710 829 604 
Q 890 499 992 432 
Q 1094 365 1219 336 
Q 1344 307 1472 307 
Q 1702 307 1872 384 
Q 2042 461 2157 592 
Q 2272 723 2326 899 
Q 2381 1075 2381 1274 
L 2381 1491 
L 2163 1491 
z
M 2381 1837 
L 2381 1914 
Q 2381 2688 1613 2688 
Q 1088 2688 698 2336 
L 442 2637 
Q 864 3072 1709 3072 
Q 1926 3072 2128 3008 
Q 2330 2944 2477 2813 
Q 2624 2682 2713 2483 
Q 2803 2285 2803 2010 
L 2803 672 
Q 2803 499 2819 310 
Q 2835 122 2854 0 
L 2445 0 
Q 2426 109 2416 237 
Q 2406 365 2406 486 
L 2394 486 
Q 2208 186 1955 54 
Q 1702 -77 1338 -77 
Q 1139 -77 953 -22 
Q 768 32 624 144 
Q 480 256 393 419 
Q 307 582 307 800 
Q 307 1165 496 1373 
Q 685 1581 969 1683 
Q 1254 1786 1577 1811 
Q 1901 1837 2170 1837 
L 2381 1837 
z
" transform="scale(0.015625)"/>
       <path id="Avenir-Book-6e" d="M 864 2995 
Q 877 2874 880 2755 
Q 883 2637 883 2515 
L 896 2515 
Q 966 2637 1075 2739 
Q 1184 2842 1318 2915 
Q 1453 2989 1603 3030 
Q 1754 3072 1901 3072 
Q 2477 3072 2752 2768 
Q 3027 2464 3027 1901 
L 3027 0 
L 2605 0 
L 2605 1658 
Q 2605 2157 2432 2422 
Q 2259 2688 1792 2688 
Q 1760 2688 1613 2662 
Q 1466 2637 1302 2521 
Q 1139 2406 1011 2176 
Q 883 1946 883 1536 
L 883 0 
L 461 0 
L 461 2336 
Q 461 2458 451 2643 
Q 442 2829 429 2995 
L 864 2995 
z
" transform="scale(0.015625)"/>
       <path id="Avenir-Book-63" d="M 2643 2291 
Q 2534 2458 2339 2573 
Q 2144 2688 1894 2688 
Q 1632 2694 1424 2604 
Q 1216 2515 1069 2355 
Q 922 2195 845 1974 
Q 768 1754 768 1498 
Q 768 1242 845 1021 
Q 922 800 1069 640 
Q 1216 480 1424 390 
Q 1632 301 1894 307 
Q 2144 307 2339 422 
Q 2534 538 2643 704 
L 2989 442 
Q 2765 179 2483 54 
Q 2202 -70 1894 -77 
Q 1530 -83 1235 35 
Q 941 154 733 365 
Q 525 576 416 867 
Q 307 1158 307 1498 
Q 307 1837 416 2128 
Q 525 2419 733 2630 
Q 941 2842 1235 2960 
Q 1530 3078 1894 3072 
Q 2202 3066 2483 2941 
Q 2765 2816 2989 2554 
L 2643 2291 
z
" transform="scale(0.015625)"/>
       <path id="Avenir-Book-65" d="M 2790 1728 
Q 2790 2157 2534 2422 
Q 2278 2688 1818 2688 
Q 1613 2688 1421 2608 
Q 1229 2528 1085 2393 
Q 941 2259 854 2086 
Q 768 1914 768 1728 
L 2790 1728 
z
M 755 1382 
Q 774 1158 864 960 
Q 954 762 1101 618 
Q 1248 474 1440 390 
Q 1632 307 1856 307 
Q 2195 307 2441 464 
Q 2688 621 2816 826 
L 3142 557 
Q 2874 218 2550 70 
Q 2227 -77 1856 -77 
Q 1523 -77 1238 41 
Q 954 160 749 371 
Q 544 582 425 870 
Q 307 1158 307 1498 
Q 307 1837 422 2125 
Q 538 2413 742 2624 
Q 947 2835 1222 2953 
Q 1498 3072 1818 3072 
Q 2157 3072 2425 2950 
Q 2694 2829 2876 2627 
Q 3059 2426 3155 2154 
Q 3251 1882 3251 1574 
L 3251 1382 
L 755 1382 
z
" transform="scale(0.015625)"/>
       <path id="Avenir-Book-20" transform="scale(0.015625)"/>
       <path id="Avenir-Book-66" d="M 1856 2611 
L 1146 2611 
L 1146 0 
L 723 0 
L 723 2611 
L 90 2611 
L 90 2995 
L 723 2995 
L 723 3814 
Q 723 4410 998 4662 
Q 1274 4915 1728 4915 
Q 1818 4915 1910 4902 
Q 2003 4890 2093 4870 
L 2016 4486 
Q 1939 4506 1856 4518 
Q 1773 4531 1690 4531 
Q 1517 4531 1408 4473 
Q 1299 4416 1241 4310 
Q 1184 4205 1165 4064 
Q 1146 3923 1146 3763 
L 1146 2995 
L 1856 2995 
L 1856 2611 
z
" transform="scale(0.015625)"/>
       <path id="Avenir-Book-72" d="M 506 2061 
Q 506 2259 496 2464 
Q 486 2669 480 2995 
L 896 2995 
L 896 2438 
L 909 2438 
Q 954 2560 1037 2672 
Q 1120 2784 1238 2873 
Q 1357 2963 1513 3017 
Q 1670 3072 1869 3072 
Q 2048 3072 2182 3034 
L 2099 2618 
Q 2016 2650 1856 2650 
Q 1613 2650 1440 2557 
Q 1267 2464 1152 2320 
Q 1037 2176 982 2009 
Q 928 1843 928 1690 
L 928 0 
L 506 0 
L 506 2061 
z
" transform="scale(0.015625)"/>
       <path id="Avenir-Book-6f" d="M 3027 1498 
Q 3027 1747 2947 1964 
Q 2867 2182 2720 2342 
Q 2573 2502 2365 2595 
Q 2157 2688 1894 2688 
Q 1632 2688 1424 2595 
Q 1216 2502 1072 2342 
Q 928 2182 848 1964 
Q 768 1747 768 1498 
Q 768 1248 848 1030 
Q 928 813 1072 653 
Q 1216 493 1424 400 
Q 1632 307 1894 307 
Q 2157 307 2365 400 
Q 2573 493 2720 653 
Q 2867 813 2947 1030 
Q 3027 1248 3027 1498 
z
M 3488 1498 
Q 3488 1158 3369 870 
Q 3251 582 3040 371 
Q 2829 160 2537 41 
Q 2246 -77 1894 -77 
Q 1549 -77 1257 41 
Q 966 160 755 371 
Q 544 582 425 870 
Q 307 1158 307 1498 
Q 307 1837 425 2125 
Q 544 2413 755 2624 
Q 966 2835 1257 2953 
Q 1549 3072 1894 3072 
Q 2246 3072 2537 2953 
Q 2829 2835 3040 2624 
Q 3251 2413 3369 2125 
Q 3488 1837 3488 1498 
z
" transform="scale(0.015625)"/>
       <path id="Avenir-Book-6d" d="M 461 2330 
Q 461 2496 451 2662 
Q 442 2829 429 2995 
L 883 2995 
L 883 2541 
L 896 2541 
Q 1050 2803 1322 2937 
Q 1594 3072 1862 3072 
Q 1984 3072 2121 3046 
Q 2259 3021 2387 2953 
Q 2515 2886 2627 2764 
Q 2739 2643 2816 2451 
Q 2944 2739 3222 2905 
Q 3501 3072 3802 3072 
Q 4378 3072 4653 2768 
Q 4928 2464 4928 1901 
L 4928 0 
L 4506 0 
L 4506 1747 
Q 4506 2202 4346 2445 
Q 4186 2688 3750 2688 
Q 3514 2688 3354 2595 
Q 3194 2502 3094 2348 
Q 2995 2195 2950 2000 
Q 2906 1805 2906 1594 
L 2906 0 
L 2483 0 
L 2483 1747 
Q 2483 2202 2323 2445 
Q 2163 2688 1728 2688 
Q 1690 2688 1552 2662 
Q 1414 2637 1267 2521 
Q 1120 2406 1001 2176 
Q 883 1946 883 1536 
L 883 0 
L 461 0 
L 461 2330 
z
" transform="scale(0.015625)"/>
       <path id="Avenir-Book-52" d="M 1075 2528 
L 1894 2528 
Q 2202 2528 2416 2592 
Q 2630 2656 2758 2761 
Q 2886 2867 2944 3011 
Q 3002 3155 3002 3322 
Q 3002 3482 2944 3626 
Q 2886 3770 2758 3878 
Q 2630 3987 2416 4048 
Q 2202 4109 1894 4109 
L 1075 4109 
L 1075 2528 
z
M 1075 0 
L 614 0 
L 614 4531 
L 2010 4531 
Q 2701 4531 3101 4230 
Q 3501 3930 3501 3322 
Q 3501 2848 3203 2525 
Q 2906 2202 2342 2150 
L 3648 0 
L 3085 0 
L 1843 2106 
L 1075 2106 
L 1075 0 
z
" transform="scale(0.015625)"/>
       <path id="Avenir-Book-b5" d="M 461 2995 
L 883 2995 
L 883 1338 
Q 883 787 1059 547 
Q 1235 307 1696 307 
Q 1888 307 2054 384 
Q 2221 461 2342 608 
Q 2464 755 2534 969 
Q 2605 1184 2605 1459 
L 2605 2995 
L 3027 2995 
L 3027 659 
Q 3027 493 3036 329 
Q 3046 166 3059 0 
L 2605 0 
L 2605 486 
L 2592 486 
Q 2522 371 2413 268 
Q 2304 166 2169 89 
Q 2035 13 1884 -32 
Q 1734 -77 1587 -77 
Q 1146 -77 883 109 
L 883 -1459 
L 461 -1459 
L 461 2995 
z
" transform="scale(0.015625)"/>
      </defs>
      <use xlink:href="#Avenir-Book-44"/>
      <use xlink:href="#Avenir-Book-69" transform="translate(74.099991 0)"/>
      <use xlink:href="#Avenir-Book-73" transform="translate(98.099976 0)"/>
      <use xlink:href="#Avenir-Book-74" transform="translate(140.699966 0)"/>
      <use xlink:href="#Avenir-Book-61" transform="translate(173.899963 0)"/>
      <use xlink:href="#Avenir-Book-6e" transform="translate(225.799957 0)"/>
      <use xlink:href="#Avenir-Book-63" transform="translate(281.399948 0)"/>
      <use xlink:href="#Avenir-Book-65" transform="translate(329.599945 0)"/>
      <use xlink:href="#Avenir-Book-20" transform="translate(385.199936 0)"/>
      <use xlink:href="#Avenir-Book-66" transform="translate(412.999924 0)"/>
      <use xlink:href="#Avenir-Book-72" transform="translate(442.599915 0)"/>
      <use xlink:href="#Avenir-Book-6f" transform="translate(474.049911 0)"/>
      <use xlink:href="#Avenir-Book-6d" transform="translate(533.349899 0)"/>
      <use xlink:href="#Avenir-Book-20" transform="translate(618.549881 0)"/>
      <use xlink:href="#Avenir-Book-52" transform="translate(646.349869 0)"/>
      <use xlink:href="#Avenir-Book-69" transform="translate(705.649857 0)"/>
      <use xlink:href="#Avenir-Book-6d" transform="translate(729.649841 0)"/>
      <use xlink:href="#Avenir-Book-20" transform="translate(814.849823 0)"/>
      <use xlink:href="#Avenir-Book-b5" transform="translate(842.649811 0)"/>
      <use xlink:href="#Avenir-Book-6d" transform="translate(898.249802 0)"/>
     </g>
    </g>
   </g>
   <g id="matplotlib.axis_2">
    <g id="ytick_1">
     <g id="line2d_87">
      <defs>
       <path id="mbba05ff9af" d="M 0 0 
L -7 0 
" style="stroke: #000000; stroke-width: 2"/>
      </defs>
      <g>
       <use xlink:href="#mbba05ff9af" x="108" y="492.48" style="stroke: #000000; stroke-width: 2"/>
      </g>
     </g>
     <g id="text_24">
      <!-- 80.0 -->
      <g transform="translate(70.259062 497.771563) scale(0.14 -0.14)">
       <defs>
        <path id="Avenir-Book-2e" d="M 1235 307 
Q 1235 173 1139 67 
Q 1043 -38 890 -38 
Q 736 -38 640 67 
Q 544 173 544 307 
Q 544 442 640 547 
Q 736 653 890 653 
Q 1043 653 1139 547 
Q 1235 442 1235 307 
z
" transform="scale(0.015625)"/>
       </defs>
       <use xlink:href="#Avenir-Book-38"/>
       <use xlink:href="#Avenir-Book-30" transform="translate(55.599991 0)"/>
       <use xlink:href="#Avenir-Book-2e" transform="translate(111.199982 0)"/>
       <use xlink:href="#Avenir-Book-30" transform="translate(138.999969 0)"/>
      </g>
     </g>
    </g>
    <g id="ytick_2">
     <g id="line2d_88">
      <g>
       <use xlink:href="#mbba05ff9af" x="108" y="411.213132" style="stroke: #000000; stroke-width: 2"/>
      </g>
     </g>
     <g id="text_25">
      <!-- 82.0 -->
      <g transform="translate(70.259062 416.504695) scale(0.14 -0.14)">
       <use xlink:href="#Avenir-Book-38"/>
       <use xlink:href="#Avenir-Book-32" transform="translate(55.599991 0)"/>
       <use xlink:href="#Avenir-Book-2e" transform="translate(111.199982 0)"/>
       <use xlink:href="#Avenir-Book-30" transform="translate(138.999969 0)"/>
      </g>
     </g>
    </g>
    <g id="ytick_3">
     <g id="line2d_89">
      <g>
       <use xlink:href="#mbba05ff9af" x="108" y="329.946264" style="stroke: #000000; stroke-width: 2"/>
      </g>
     </g>
     <g id="text_26">
      <!-- 84.0 -->
      <g transform="translate(70.259062 335.237827) scale(0.14 -0.14)">
       <use xlink:href="#Avenir-Book-38"/>
       <use xlink:href="#Avenir-Book-34" transform="translate(55.599991 0)"/>
       <use xlink:href="#Avenir-Book-2e" transform="translate(111.199982 0)"/>
       <use xlink:href="#Avenir-Book-30" transform="translate(138.999969 0)"/>
      </g>
     </g>
    </g>
    <g id="ytick_4">
     <g id="line2d_90">
      <g>
       <use xlink:href="#mbba05ff9af" x="108" y="248.679396" style="stroke: #000000; stroke-width: 2"/>
      </g>
     </g>
     <g id="text_27">
      <!-- 86.0 -->
      <g transform="translate(70.259062 253.970959) scale(0.14 -0.14)">
       <use xlink:href="#Avenir-Book-38"/>
       <use xlink:href="#Avenir-Book-36" transform="translate(55.599991 0)"/>
       <use xlink:href="#Avenir-Book-2e" transform="translate(111.199982 0)"/>
       <use xlink:href="#Avenir-Book-30" transform="translate(138.999969 0)"/>
      </g>
     </g>
    </g>
    <g id="ytick_5">
     <g id="line2d_91">
      <g>
       <use xlink:href="#mbba05ff9af" x="108" y="167.412528" style="stroke: #000000; stroke-width: 2"/>
      </g>
     </g>
     <g id="text_28">
      <!-- 88.0 -->
      <g transform="translate(70.259062 172.704091) scale(0.14 -0.14)">
       <use xlink:href="#Avenir-Book-38"/>
       <use xlink:href="#Avenir-Book-38" transform="translate(55.599991 0)"/>
       <use xlink:href="#Avenir-Book-2e" transform="translate(111.199982 0)"/>
       <use xlink:href="#Avenir-Book-30" transform="translate(138.999969 0)"/>
      </g>
     </g>
    </g>
    <g id="ytick_6">
     <g id="line2d_92">
      <g>
       <use xlink:href="#mbba05ff9af" x="108" y="86.14566" style="stroke: #000000; stroke-width: 2"/>
      </g>
     </g>
     <g id="text_29">
      <!-- 90.0 -->
      <g transform="translate(70.259062 91.437223) scale(0.14 -0.14)">
       <use xlink:href="#Avenir-Book-39"/>
       <use xlink:href="#Avenir-Book-30" transform="translate(55.599991 0)"/>
       <use xlink:href="#Avenir-Book-2e" transform="translate(111.199982 0)"/>
       <use xlink:href="#Avenir-Book-30" transform="translate(138.999969 0)"/>
      </g>
     </g>
    </g>
    <g id="ytick_7">
     <g id="line2d_93">
      <defs>
       <path id="m92828763cb" d="M 0 0 
L -4 0 
" style="stroke: #000000; stroke-width: 2"/>
      </defs>
      <g>
       <use xlink:href="#m92828763cb" x="108" y="472.163283" style="stroke: #000000; stroke-width: 2"/>
      </g>
     </g>
    </g>
    <g id="ytick_8">
     <g id="line2d_94">
      <g>
       <use xlink:href="#m92828763cb" x="108" y="451.846566" style="stroke: #000000; stroke-width: 2"/>
      </g>
     </g>
    </g>
    <g id="ytick_9">
     <g id="line2d_95">
      <g>
       <use xlink:href="#m92828763cb" x="108" y="431.529849" style="stroke: #000000; stroke-width: 2"/>
      </g>
     </g>
    </g>
    <g id="ytick_10">
     <g id="line2d_96">
      <g>
       <use xlink:href="#m92828763cb" x="108" y="390.896415" style="stroke: #000000; stroke-width: 2"/>
      </g>
     </g>
    </g>
    <g id="ytick_11">
     <g id="line2d_97">
      <g>
       <use xlink:href="#m92828763cb" x="108" y="370.579698" style="stroke: #000000; stroke-width: 2"/>
      </g>
     </g>
    </g>
    <g id="ytick_12">
     <g id="line2d_98">
      <g>
       <use xlink:href="#m92828763cb" x="108" y="350.262981" style="stroke: #000000; stroke-width: 2"/>
      </g>
     </g>
    </g>
    <g id="ytick_13">
     <g id="line2d_99">
      <g>
       <use xlink:href="#m92828763cb" x="108" y="309.629547" style="stroke: #000000; stroke-width: 2"/>
      </g>
     </g>
    </g>
    <g id="ytick_14">
     <g id="line2d_100">
      <g>
       <use xlink:href="#m92828763cb" x="108" y="289.31283" style="stroke: #000000; stroke-width: 2"/>
      </g>
     </g>
    </g>
    <g id="ytick_15">
     <g id="line2d_101">
      <g>
       <use xlink:href="#m92828763cb" x="108" y="268.996113" style="stroke: #000000; stroke-width: 2"/>
      </g>
     </g>
    </g>
    <g id="ytick_16">
     <g id="line2d_102">
      <g>
       <use xlink:href="#m92828763cb" x="108" y="228.362679" style="stroke: #000000; stroke-width: 2"/>
      </g>
     </g>
    </g>
    <g id="ytick_17">
     <g id="line2d_103">
      <g>
       <use xlink:href="#m92828763cb" x="108" y="208.045962" style="stroke: #000000; stroke-width: 2"/>
      </g>
     </g>
    </g>
    <g id="ytick_18">
     <g id="line2d_104">
      <g>
       <use xlink:href="#m92828763cb" x="108" y="187.729245" style="stroke: #000000; stroke-width: 2"/>
      </g>
     </g>
    </g>
    <g id="ytick_19">
     <g id="line2d_105">
      <g>
       <use xlink:href="#m92828763cb" x="108" y="147.095811" style="stroke: #000000; stroke-width: 2"/>
      </g>
     </g>
    </g>
    <g id="ytick_20">
     <g id="line2d_106">
      <g>
       <use xlink:href="#m92828763cb" x="108" y="126.779094" style="stroke: #000000; stroke-width: 2"/>
      </g>
     </g>
    </g>
    <g id="ytick_21">
     <g id="line2d_107">
      <g>
       <use xlink:href="#m92828763cb" x="108" y="106.462377" style="stroke: #000000; stroke-width: 2"/>
      </g>
     </g>
    </g>
    <g id="text_30">
     <!-- Fo# -->
     <g transform="translate(60.499688 307.928437) rotate(-90) scale(0.2 -0.2)">
      <defs>
       <path id="Avenir-Book-46" d="M 1075 0 
L 614 0 
L 614 4531 
L 3347 4531 
L 3347 4109 
L 1075 4109 
L 1075 2566 
L 3187 2566 
L 3187 2144 
L 1075 2144 
L 1075 0 
z
" transform="scale(0.015625)"/>
       <path id="Avenir-Book-23" d="M 1318 1754 
L 2170 1754 
L 2310 2790 
L 1459 2790 
L 1318 1754 
z
M 877 1370 
L 224 1370 
L 224 1754 
L 928 1754 
L 1069 2790 
L 378 2790 
L 378 3174 
L 1126 3174 
L 1312 4531 
L 1702 4531 
L 1517 3174 
L 2368 3174 
L 2554 4531 
L 2944 4531 
L 2758 3174 
L 3334 3174 
L 3334 2790 
L 2701 2790 
L 2560 1754 
L 3168 1754 
L 3168 1370 
L 2509 1370 
L 2317 0 
L 1926 0 
L 2118 1370 
L 1267 1370 
L 1075 0 
L 685 0 
L 877 1370 
z
" transform="scale(0.015625)"/>
      </defs>
      <use xlink:href="#Avenir-Book-46"/>
      <use xlink:href="#Avenir-Book-6f" transform="translate(55.599991 0)"/>
      <use xlink:href="#Avenir-Book-23" transform="translate(114.899979 0)"/>
     </g>
    </g>
   </g>
   <g id="line2d_108">
    <path d="M 136.010225 462.32581 
L 151.571462 405.465298 
L 167.132698 350.734847 
L 182.693934 313.300418 
L 198.255171 256.563106 
L 213.816407 196.707136 
L 229.377644 151.653679 
L 244.93888 129.275491 
L 260.500116 106.459997 
L 276.061353 98.757252 
L 291.622589 106.563845 
L 307.183825 106.455789 
L 322.745062 99.700014 
L 338.306298 106.2121 
L 353.867534 105.680402 
L 369.428771 99.454447 
L 384.990007 92.601096 
L 400.551243 103.931513 
L 416.11248 92.595983 
L 431.673716 104.764593 
L 466.530885 100.077543 
L 501.388055 97.359165 
L 536.556449 110.288488 
L 571.413618 97.005938 
L 606.270788 100.762162 
L 641.127957 98.791623 
L 675.985127 96.975429 
L 711.153521 94.872101 
L 746.01069 102.180353 
" clip-path="url(#pe2d33b0ec8)" style="fill: none; stroke-dasharray: 7.4,3.2; stroke-dashoffset: 0; stroke: #f47e1f; stroke-width: 2"/>
    <defs>
     <path id="mcb451737d1" d="M 0 6 
C 1.591219 6 3.117479 5.367802 4.242641 4.242641 
C 5.367802 3.117479 6 1.591219 6 0 
C 6 -1.591219 5.367802 -3.117479 4.242641 -4.242641 
C 3.117479 -5.367802 1.591219 -6 0 -6 
C -1.591219 -6 -3.117479 -5.367802 -4.242641 -4.242641 
C -5.367802 -3.117479 -6 -1.591219 -6 0 
C -6 1.591219 -5.367802 3.117479 -4.242641 4.242641 
C -3.117479 5.367802 -1.591219 6 0 6 
z
" style="stroke: #f47e1f"/>
    </defs>
    <g clip-path="url(#pe2d33b0ec8)">
     <use xlink:href="#mcb451737d1" x="136.010225" y="462.32581" style="fill: #f47e1f; stroke: #f47e1f"/>
     <use xlink:href="#mcb451737d1" x="151.571462" y="405.465298" style="fill: #f47e1f; stroke: #f47e1f"/>
     <use xlink:href="#mcb451737d1" x="167.132698" y="350.734847" style="fill: #f47e1f; stroke: #f47e1f"/>
     <use xlink:href="#mcb451737d1" x="182.693934" y="313.300418" style="fill: #f47e1f; stroke: #f47e1f"/>
     <use xlink:href="#mcb451737d1" x="198.255171" y="256.563106" style="fill: #f47e1f; stroke: #f47e1f"/>
     <use xlink:href="#mcb451737d1" x="213.816407" y="196.707136" style="fill: #f47e1f; stroke: #f47e1f"/>
     <use xlink:href="#mcb451737d1" x="229.377644" y="151.653679" style="fill: #f47e1f; stroke: #f47e1f"/>
     <use xlink:href="#mcb451737d1" x="244.93888" y="129.275491" style="fill: #f47e1f; stroke: #f47e1f"/>
     <use xlink:href="#mcb451737d1" x="260.500116" y="106.459997" style="fill: #f47e1f; stroke: #f47e1f"/>
     <use xlink:href="#mcb451737d1" x="276.061353" y="98.757252" style="fill: #f47e1f; stroke: #f47e1f"/>
     <use xlink:href="#mcb451737d1" x="291.622589" y="106.563845" style="fill: #f47e1f; stroke: #f47e1f"/>
     <use xlink:href="#mcb451737d1" x="307.183825" y="106.455789" style="fill: #f47e1f; stroke: #f47e1f"/>
     <use xlink:href="#mcb451737d1" x="322.745062" y="99.700014" style="fill: #f47e1f; stroke: #f47e1f"/>
     <use xlink:href="#mcb451737d1" x="338.306298" y="106.2121" style="fill: #f47e1f; stroke: #f47e1f"/>
     <use xlink:href="#mcb451737d1" x="353.867534" y="105.680402" style="fill: #f47e1f; stroke: #f47e1f"/>
     <use xlink:href="#mcb451737d1" x="369.428771" y="99.454447" style="fill: #f47e1f; stroke: #f47e1f"/>
     <use xlink:href="#mcb451737d1" x="384.990007" y="92.601096" style="fill: #f47e1f; stroke: #f47e1f"/>
     <use xlink:href="#mcb451737d1" x="400.551243" y="103.931513" style="fill: #f47e1f; stroke: #f47e1f"/>
     <use xlink:href="#mcb451737d1" x="416.11248" y="92.595983" style="fill: #f47e1f; stroke: #f47e1f"/>
     <use xlink:href="#mcb451737d1" x="431.673716" y="104.764593" style="fill: #f47e1f; stroke: #f47e1f"/>
     <use xlink:href="#mcb451737d1" x="466.530885" y="100.077543" style="fill: #f47e1f; stroke: #f47e1f"/>
     <use xlink:href="#mcb451737d1" x="501.388055" y="97.359165" style="fill: #f47e1f; stroke: #f47e1f"/>
     <use xlink:href="#mcb451737d1" x="536.556449" y="110.288488" style="fill: #f47e1f; stroke: #f47e1f"/>
     <use xlink:href="#mcb451737d1" x="571.413618" y="97.005938" style="fill: #f47e1f; stroke: #f47e1f"/>
     <use xlink:href="#mcb451737d1" x="606.270788" y="100.762162" style="fill: #f47e1f; stroke: #f47e1f"/>
     <use xlink:href="#mcb451737d1" x="641.127957" y="98.791623" style="fill: #f47e1f; stroke: #f47e1f"/>
     <use xlink:href="#mcb451737d1" x="675.985127" y="96.975429" style="fill: #f47e1f; stroke: #f47e1f"/>
     <use xlink:href="#mcb451737d1" x="711.153521" y="94.872101" style="fill: #f47e1f; stroke: #f47e1f"/>
     <use xlink:href="#mcb451737d1" x="746.01069" y="102.180353" style="fill: #f47e1f; stroke: #f47e1f"/>
    </g>
   </g>
   <g id="line2d_109">
    <path d="M 114.224495 438.327672 
L 135.230174 449.29766 
L 136.845995 446.833076 
L 141.69346 430.850177 
L 144.925103 420.834103 
L 148.156745 411.329383 
L 151.388388 402.336017 
L 157.851674 379.419707 
L 161.083317 368.650392 
L 164.31496 358.403315 
L 170.778246 338.976813 
L 174.009889 329.854296 
L 177.241532 321.25425 
L 180.473175 313.176675 
L 182.088996 309.333813 
L 183.704818 304.011227 
L 188.552282 285.936172 
L 193.399747 269.036686 
L 196.63139 258.423456 
L 198.247211 253.31277 
L 203.094676 234.315129 
L 207.94214 216.485739 
L 212.789604 199.83192 
L 216.021247 189.497156 
L 219.25289 179.738279 
L 222.484533 170.501877 
L 225.716176 161.787951 
L 228.947819 153.5965 
L 230.563641 150.194601 
L 233.795283 144.143555 
L 237.026926 138.614983 
L 240.258569 133.608888 
L 243.490212 129.125267 
L 245.106034 126.994706 
L 248.337677 121.657676 
L 251.56932 116.843122 
L 254.800963 112.551043 
L 258.032606 108.781439 
L 259.648427 107.092565 
L 261.264249 105.585582 
L 264.495891 103.077765 
L 267.727534 101.092423 
L 269.343356 100.29568 
L 270.959177 99.629556 
L 272.574999 99.094051 
L 274.19082 98.689165 
L 275.806642 98.414898 
L 277.422463 98.288835 
L 279.038285 98.296683 
L 280.654106 98.43515 
L 282.269928 98.704235 
L 283.885749 99.10394 
L 285.501571 99.634263 
L 287.117392 100.295205 
L 288.733214 101.086765 
L 290.349035 102.008945 
L 291.964856 102.696394 
L 293.580678 102.155023 
L 295.196499 101.744271 
L 296.812321 101.464137 
L 298.428142 101.314622 
L 300.043964 101.295727 
L 301.659785 101.40745 
L 303.275607 101.649791 
L 304.891428 102.022752 
L 306.50725 102.526332 
L 308.123071 102.174907 
L 309.738893 101.244119 
L 311.354714 100.44395 
L 312.970536 99.774399 
L 314.586357 99.235468 
L 316.202179 98.827155 
L 317.818 98.549461 
L 319.433822 98.402386 
L 321.049643 98.38593 
L 322.665464 98.500093 
L 325.897107 98.333299 
L 327.512929 98.435894 
L 329.12875 98.669107 
L 330.744572 99.03294 
L 332.360393 99.527391 
L 333.976215 100.152461 
L 335.592036 100.90815 
L 337.207858 101.794458 
L 338.823679 102.258358 
L 340.439501 101.67876 
L 342.055322 101.22978 
L 343.671144 100.911419 
L 345.286965 100.723678 
L 346.902787 100.666555 
L 348.518608 100.74005 
L 350.134429 100.944165 
L 351.750251 101.278899 
L 353.366072 101.744251 
L 354.981894 101.140272 
L 358.213537 99.244214 
L 359.829358 98.492113 
L 361.44518 97.870632 
L 363.061001 97.379769 
L 364.676823 97.019525 
L 366.292644 96.789899 
L 369.524287 96.651194 
L 372.75593 94.693575 
L 374.371752 93.910694 
L 375.987573 93.258432 
L 377.603395 92.736789 
L 379.219216 92.345764 
L 380.835037 92.085359 
L 382.450859 91.955572 
L 385.682502 92.049652 
L 387.298323 92.222583 
L 388.914145 92.526132 
L 390.529966 92.960299 
L 392.145788 93.525085 
L 393.761609 94.220488 
L 395.377431 95.04651 
L 396.993252 96.00315 
L 400.224895 98.308285 
L 401.840717 97.60689 
L 405.07236 95.558275 
L 406.688181 94.729853 
L 408.304003 94.032021 
L 409.919824 93.46478 
L 411.535645 93.028129 
L 413.151467 92.722068 
L 414.767288 92.546597 
L 416.38311 92.529195 
L 417.998931 92.778198 
L 419.614753 93.156477 
L 421.230574 93.664031 
L 422.846396 94.300861 
L 424.462217 95.066966 
L 426.078039 95.962348 
L 429.309682 98.140937 
L 430.925503 99.424145 
L 432.541325 99.608384 
L 435.772968 98.089568 
L 439.00461 96.840817 
L 442.236253 95.86213 
L 445.467896 95.153507 
L 448.699539 94.714949 
L 451.931182 94.546455 
L 455.162825 94.648026 
L 458.394468 95.019661 
L 461.626111 95.66136 
L 464.857754 96.573124 
L 466.473576 97.130281 
L 471.32104 95.056471 
L 474.552683 93.976613 
L 477.784326 93.165374 
L 481.015969 92.622753 
L 484.247612 92.34875 
L 487.479255 92.343366 
L 490.710898 92.6066 
L 493.942541 93.138452 
L 497.174183 93.938923 
L 500.405826 95.008012 
L 502.021648 95.288279 
L 505.253291 94.948352 
L 508.484934 94.875003 
L 511.716577 95.068233 
L 514.94822 95.528042 
L 518.179863 96.254429 
L 521.411506 97.247395 
L 524.643149 98.50694 
L 527.874791 100.033064 
L 531.106434 101.825766 
L 534.338077 103.885047 
L 535.953899 105.014655 
L 537.56972 104.711345 
L 540.801363 102.52254 
L 544.033006 100.602345 
L 547.264649 98.95076 
L 550.496292 97.567785 
L 553.727935 96.45342 
L 556.959578 95.607665 
L 560.191221 95.03052 
L 563.422864 94.721984 
L 566.654507 94.682059 
L 569.88615 94.910744 
L 571.501971 95.078591 
L 574.733614 93.982913 
L 577.965257 93.155856 
L 581.1969 92.597421 
L 584.428543 92.307608 
L 587.660186 92.286417 
L 590.891829 92.533847 
L 594.123472 93.0499 
L 597.355115 93.834574 
L 600.586758 94.887869 
L 603.818401 96.209787 
L 605.434222 96.971478 
L 607.050044 97.014174 
L 610.281687 95.613093 
L 613.513329 94.480635 
L 616.744972 93.616798 
L 619.976615 93.021583 
L 623.208258 92.694989 
L 626.439901 92.637017 
L 629.671544 92.847667 
L 632.903187 93.326939 
L 636.13483 94.074832 
L 639.366473 95.091348 
L 640.982295 95.700338 
L 647.44558 93.118091 
L 650.677223 92.164289 
L 653.908866 91.479097 
L 657.140509 91.062514 
L 660.372152 90.914542 
L 663.603795 91.03518 
L 666.835438 91.424427 
L 670.067081 92.082284 
L 673.298724 93.008752 
L 674.914545 93.572714 
L 676.530367 93.719793 
L 679.76201 92.313403 
L 682.993653 91.173583 
L 686.225296 90.300332 
L 689.456939 89.693652 
L 692.688582 89.353541 
L 695.920225 89.28 
L 699.151868 89.473029 
L 702.38351 89.932627 
L 705.615153 90.658795 
L 708.846796 91.651533 
L 710.462618 92.247866 
L 712.078439 92.280771 
L 715.310082 91.605508 
L 718.541725 91.197295 
L 721.773368 91.056133 
L 725.005011 91.182021 
L 728.236654 91.57496 
L 731.468297 92.234949 
L 734.69994 93.161988 
L 737.931583 94.356078 
L 741.163226 95.817219 
L 744.394869 97.545409 
L 746.01069 102.180353 
L 746.01069 102.180353 
" clip-path="url(#pe2d33b0ec8)" style="fill: none; stroke-dasharray: 3.7,1.6; stroke-dashoffset: 0; stroke: #000000"/>
   </g>
   <g id="line2d_110">
    <path d="M 114.224495 467.109477 
L 135.230174 456.13949 
L 136.845995 453.444178 
L 140.077638 444.275685 
L 143.309281 434.595837 
L 146.540924 424.404636 
L 149.772567 413.702081 
L 151.388388 408.159046 
L 156.235853 393.220769 
L 159.467496 382.673741 
L 164.31496 365.874001 
L 165.930782 360.012969 
L 167.546603 354.609195 
L 170.778246 346.823707 
L 174.009889 338.515748 
L 177.241532 329.685319 
L 180.473175 320.33242 
L 183.704818 310.420672 
L 186.936461 299.906532 
L 190.168104 288.869916 
L 195.015568 271.335352 
L 198.247211 258.992548 
L 203.094676 242.584595 
L 207.94214 225.006149 
L 214.405426 200.687306 
L 217.637069 192.470117 
L 220.868712 183.730453 
L 224.100355 174.468314 
L 227.331998 164.683699 
L 228.947819 159.595463 
L 230.563641 156.721125 
L 233.795283 152.279971 
L 237.026926 147.316342 
L 240.258569 141.830238 
L 245.106034 132.797024 
L 248.337677 129.39933 
L 251.56932 125.47916 
L 254.800963 121.036515 
L 258.032606 116.071395 
L 259.648427 113.392907 
L 261.264249 111.824838 
L 262.88007 111.50939 
L 264.495891 111.063324 
L 266.111713 110.486638 
L 267.727534 109.779334 
L 269.343356 108.941411 
L 270.959177 107.972869 
L 274.19082 105.643929 
L 275.806642 104.283531 
L 277.422463 104.929372 
L 279.038285 105.844473 
L 280.654106 106.628956 
L 282.269928 107.28282 
L 283.885749 107.806066 
L 285.501571 108.198692 
L 287.117392 108.4607 
L 288.733214 108.592088 
L 291.964856 108.630576 
L 293.580678 109.16118 
L 295.196499 109.561166 
L 296.812321 109.830532 
L 298.428142 109.96928 
L 300.043964 109.977408 
L 301.659785 109.854918 
L 303.275607 109.601809 
L 304.891428 109.218081 
L 306.50725 108.703735 
L 308.123071 108.535568 
L 309.738893 108.580239 
L 311.354714 108.494291 
L 312.970536 108.277724 
L 314.586357 107.930538 
L 316.202179 107.452734 
L 317.818 106.84431 
L 319.433822 106.105268 
L 321.049643 105.235607 
L 322.665464 104.235327 
L 325.897107 105.963722 
L 327.512929 106.684022 
L 329.12875 107.273703 
L 330.744572 107.732765 
L 332.360393 108.061208 
L 333.976215 108.259032 
L 335.592036 108.326237 
L 337.207858 108.262824 
L 338.823679 108.321336 
L 340.439501 108.785402 
L 342.055322 109.118848 
L 343.671144 109.321676 
L 345.286965 109.393885 
L 346.902787 109.335475 
L 348.518608 109.146446 
L 350.134429 108.826799 
L 351.750251 108.376533 
L 353.366072 107.795647 
L 359.829358 107.02884 
L 361.44518 106.570792 
L 363.061001 105.982126 
L 364.676823 105.262841 
L 366.292644 104.412937 
L 369.524287 102.398683 
L 371.140109 102.466433 
L 372.75593 102.403564 
L 374.371752 102.210076 
L 375.987573 101.88597 
L 377.603395 101.431245 
L 379.219216 100.845901 
L 380.835037 100.129938 
L 382.450859 99.283356 
L 384.06668 98.306156 
L 385.682502 98.238361 
L 388.914145 100.484316 
L 390.529966 101.411365 
L 392.145788 102.207797 
L 393.761609 102.87361 
L 395.377431 103.408805 
L 396.993252 103.813382 
L 398.609074 104.087341 
L 400.224895 104.230681 
L 401.840717 104.201325 
L 403.456538 104.030727 
L 405.07236 103.729539 
L 406.688181 103.29776 
L 408.304003 102.735391 
L 409.919824 102.042432 
L 411.535645 101.218883 
L 413.151467 100.264743 
L 414.767288 99.180013 
L 416.38311 98.414216 
L 419.614753 100.962486 
L 422.846396 102.993654 
L 424.462217 103.815325 
L 426.078039 104.50772 
L 427.69386 105.070839 
L 429.309682 105.504682 
L 432.541325 106.220201 
L 435.772968 107.21741 
L 439.00461 107.944555 
L 442.236253 108.401636 
L 445.467896 108.588652 
L 448.699539 108.505604 
L 451.931182 108.152492 
L 455.162825 107.529315 
L 458.394468 106.636073 
L 461.626111 105.472768 
L 464.857754 104.039397 
L 466.473576 103.221438 
L 471.32104 104.801246 
L 474.552683 105.554069 
L 477.784326 106.038275 
L 481.015969 106.253861 
L 484.247612 106.20083 
L 487.479255 105.87918 
L 490.710898 105.288912 
L 493.942541 104.430026 
L 497.174183 103.302521 
L 500.405826 101.906398 
L 502.021648 101.889457 
L 505.253291 104.079467 
L 508.484934 106.002899 
L 511.716577 107.659752 
L 514.94822 109.050026 
L 518.179863 110.173722 
L 521.411506 111.030838 
L 524.643149 111.621376 
L 527.874791 111.945335 
L 531.106434 112.002716 
L 534.338077 111.793518 
L 535.953899 111.588952 
L 537.56972 111.63598 
L 540.801363 111.907255 
L 544.033006 111.90992 
L 547.264649 111.643975 
L 550.496292 111.10942 
L 553.727935 110.306255 
L 556.959578 109.23448 
L 560.191221 107.894095 
L 563.422864 106.285101 
L 566.654507 104.407496 
L 571.501971 101.198652 
L 574.733614 102.717073 
L 577.965257 103.966872 
L 581.1969 104.948049 
L 584.428543 105.660604 
L 587.660186 106.104538 
L 590.891829 106.27985 
L 594.123472 106.18654 
L 597.355115 105.824608 
L 600.586758 105.194055 
L 603.818401 104.29488 
L 605.434222 103.744559 
L 607.050044 103.738254 
L 610.281687 104.836415 
L 613.513329 105.665955 
L 616.744972 106.226872 
L 619.976615 106.519168 
L 623.208258 106.542843 
L 626.439901 106.297895 
L 629.671544 105.784326 
L 632.903187 105.002135 
L 636.13483 103.951322 
L 639.366473 102.631888 
L 640.982295 101.871437 
L 647.44558 103.796846 
L 650.677223 104.421641 
L 653.908866 104.777826 
L 657.140509 104.865401 
L 660.372152 104.684366 
L 663.603795 104.234721 
L 666.835438 103.516466 
L 670.067081 102.529602 
L 673.298724 101.274127 
L 674.914545 100.545661 
L 676.530367 100.244331 
L 679.76201 101.382483 
L 682.993653 102.254064 
L 686.225296 102.859076 
L 689.456939 103.197517 
L 692.688582 103.269389 
L 695.920225 103.074692 
L 699.151868 102.613424 
L 702.38351 101.885587 
L 705.615153 100.89118 
L 708.846796 99.630204 
L 710.462618 98.899752 
L 712.078439 99.132761 
L 715.310082 100.937494 
L 718.541725 102.475176 
L 721.773368 103.745809 
L 725.005011 104.74939 
L 728.236654 105.485921 
L 731.468297 105.955402 
L 734.69994 106.157832 
L 737.931583 106.093212 
L 741.163226 105.761542 
L 744.394869 105.16282 
L 746.01069 102.180353 
L 746.01069 102.180353 
" clip-path="url(#pe2d33b0ec8)" style="fill: none; stroke-dasharray: 3.7,1.6; stroke-dashoffset: 0; stroke: #000000"/>
   </g>
   <g id="line2d_111">
    <path d="M 114.224495 492.48 
L 180.473175 492.48 
L 182.088996 98.335691 
L 581.1969 98.335691 
L 581.1969 98.335691 
" clip-path="url(#pe2d33b0ec8)" style="fill: none; stroke-dasharray: 7.4,3.2; stroke-dashoffset: 0; stroke: #1b878c; stroke-width: 2"/>
   </g>
   <g id="line2d_112">
    <path d="M 114.224495 490.23709 
L 120.68778 481.029162 
L 125.535245 473.776284 
L 130.382709 466.114906 
L 135.230174 457.942215 
L 140.077638 449.155769 
L 143.309281 442.907923 
L 146.540924 436.315002 
L 149.772567 429.350533 
L 153.00421 421.990031 
L 156.235853 414.21144 
L 159.467496 405.995616 
L 162.699139 397.32686 
L 165.930782 388.193508 
L 169.162425 378.588601 
L 174.009889 363.295421 
L 178.857353 346.961399 
L 183.704818 329.647074 
L 188.552282 311.458453 
L 195.015568 286.128318 
L 214.405426 208.719903 
L 219.25289 190.867127 
L 222.484533 179.688187 
L 225.716176 169.198177 
L 228.947819 159.473943 
L 232.179462 150.572355 
L 235.411105 142.527988 
L 238.642748 135.352339 
L 241.874391 129.034612 
L 245.106034 123.543958 
L 248.337677 118.832819 
L 251.56932 114.840968 
L 254.800963 111.499779 
L 258.032606 108.736321 
L 261.264249 106.476977 
L 264.495891 104.650384 
L 267.727534 103.189631 
L 270.959177 102.033724 
L 274.19082 101.128404 
L 277.422463 100.426426 
L 282.269928 99.668237 
L 287.117392 99.168805 
L 293.580678 98.768025 
L 301.659785 98.517264 
L 314.586357 98.376294 
L 346.902787 98.336221 
L 581.1969 98.335691 
L 581.1969 98.335691 
" clip-path="url(#pe2d33b0ec8)" style="fill: none; stroke: #1fbecf; stroke-opacity: 0.8; stroke-width: 6; stroke-linecap: square"/>
   </g>
   <g id="patch_3">
    <path d="M 108 512.64 
L 108 69.12 
" style="fill: none; stroke: #000000; stroke-width: 2; stroke-linejoin: miter; stroke-linecap: square"/>
   </g>
   <g id="patch_4">
    <path d="M 777.6 512.64 
L 777.6 69.12 
" style="fill: none; stroke: #000000; stroke-width: 2; stroke-linejoin: miter; stroke-linecap: square"/>
   </g>
   <g id="patch_5">
    <path d="M 108 512.64 
L 777.6 512.64 
" style="fill: none; stroke: #000000; stroke-width: 2; stroke-linejoin: miter; stroke-linecap: square"/>
   </g>
   <g id="patch_6">
    <path d="M 108 69.12 
L 777.6 69.12 
" style="fill: none; stroke: #000000; stroke-width: 2; stroke-linejoin: miter; stroke-linecap: square"/>
   </g>
   <g id="text_31">
    <!-- AZ18 WHT01_Ol_181_prof_2 -->
    <g transform="translate(332.794125 42.799875) scale(0.168 -0.168)">
     <defs>
      <path id="Avenir-Book-41" d="M 1210 1613 
L 3174 1613 
L 2195 3994 
L 1210 1613 
z
M 538 0 
L 0 0 
L 1971 4531 
L 2419 4531 
L 4390 0 
L 3853 0 
L 3354 1190 
L 1037 1190 
L 538 0 
z
" transform="scale(0.015625)"/>
      <path id="Avenir-Book-5a" d="M 3373 4147 
L 730 422 
L 3411 422 
L 3411 0 
L 147 0 
L 147 384 
L 2797 4109 
L 186 4109 
L 186 4531 
L 3373 4531 
L 3373 4147 
z
" transform="scale(0.015625)"/>
      <path id="Avenir-Book-57" d="M 1600 653 
L 1613 653 
L 2752 4531 
L 3302 4531 
L 4442 653 
L 4454 653 
L 5530 4531 
L 6042 4531 
L 4704 0 
L 4166 0 
L 3027 3878 
L 3014 3878 
L 1875 0 
L 1338 0 
L 0 4531 
L 512 4531 
L 1600 653 
z
" transform="scale(0.015625)"/>
      <path id="Avenir-Book-48" d="M 614 4531 
L 1075 4531 
L 1075 2566 
L 3546 2566 
L 3546 4531 
L 4006 4531 
L 4006 0 
L 3546 0 
L 3546 2144 
L 1075 2144 
L 1075 0 
L 614 0 
L 614 4531 
z
" transform="scale(0.015625)"/>
      <path id="Avenir-Book-54" d="M 2067 0 
L 1606 0 
L 1606 4109 
L 90 4109 
L 90 4531 
L 3584 4531 
L 3584 4109 
L 2067 4109 
L 2067 0 
z
" transform="scale(0.015625)"/>
      <path id="Avenir-Book-5f" d="M 0 -480 
L 3200 -480 
L 3200 -800 
L 0 -800 
L 0 -480 
z
" transform="scale(0.015625)"/>
      <path id="Avenir-Book-4f" d="M 4531 2266 
Q 4531 2656 4403 3011 
Q 4275 3366 4035 3635 
Q 3795 3904 3449 4064 
Q 3104 4224 2669 4224 
Q 2234 4224 1888 4064 
Q 1542 3904 1302 3635 
Q 1062 3366 934 3011 
Q 806 2656 806 2266 
Q 806 1875 934 1520 
Q 1062 1165 1302 896 
Q 1542 627 1888 467 
Q 2234 307 2669 307 
Q 3104 307 3449 467 
Q 3795 627 4035 896 
Q 4275 1165 4403 1520 
Q 4531 1875 4531 2266 
z
M 5030 2266 
Q 5030 1747 4851 1312 
Q 4672 877 4355 560 
Q 4038 243 3606 64 
Q 3174 -115 2669 -115 
Q 2163 -115 1731 64 
Q 1299 243 982 560 
Q 666 877 486 1312 
Q 307 1747 307 2266 
Q 307 2784 486 3219 
Q 666 3654 982 3971 
Q 1299 4288 1731 4467 
Q 2163 4646 2669 4646 
Q 3174 4646 3606 4467 
Q 4038 4288 4355 3971 
Q 4672 3654 4851 3219 
Q 5030 2784 5030 2266 
z
" transform="scale(0.015625)"/>
      <path id="Avenir-Book-6c" d="M 979 0 
L 557 0 
L 557 4838 
L 979 4838 
L 979 0 
z
" transform="scale(0.015625)"/>
      <path id="Avenir-Book-70" d="M 3194 1498 
Q 3194 1747 3114 1964 
Q 3034 2182 2886 2342 
Q 2739 2502 2531 2595 
Q 2323 2688 2061 2688 
Q 1798 2688 1580 2595 
Q 1363 2502 1203 2342 
Q 1043 2182 953 1964 
Q 864 1747 864 1498 
Q 864 1248 953 1030 
Q 1043 813 1203 653 
Q 1363 493 1580 400 
Q 1798 307 2061 307 
Q 2323 307 2531 400 
Q 2739 493 2886 653 
Q 3034 813 3114 1030 
Q 3194 1248 3194 1498 
z
M 461 2995 
L 883 2995 
L 883 2496 
L 896 2496 
Q 998 2650 1139 2758 
Q 1280 2867 1433 2937 
Q 1587 3008 1750 3040 
Q 1914 3072 2061 3072 
Q 2413 3072 2704 2953 
Q 2995 2835 3206 2624 
Q 3418 2413 3536 2125 
Q 3654 1837 3654 1498 
Q 3654 1158 3536 870 
Q 3418 582 3206 371 
Q 2995 160 2704 41 
Q 2413 -77 2061 -77 
Q 1914 -77 1750 -45 
Q 1587 -13 1433 57 
Q 1280 128 1139 237 
Q 998 346 896 499 
L 883 499 
L 883 -1843 
L 461 -1843 
L 461 2995 
z
" transform="scale(0.015625)"/>
     </defs>
     <use xlink:href="#Avenir-Book-41"/>
     <use xlink:href="#Avenir-Book-5a" transform="translate(68.599991 0)"/>
     <use xlink:href="#Avenir-Book-31" transform="translate(124.199982 0)"/>
     <use xlink:href="#Avenir-Book-38" transform="translate(179.799973 0)"/>
     <use xlink:href="#Avenir-Book-20" transform="translate(235.399963 0)"/>
     <use xlink:href="#Avenir-Book-57" transform="translate(263.199951 0)"/>
     <use xlink:href="#Avenir-Book-48" transform="translate(357.599945 0)"/>
     <use xlink:href="#Avenir-Book-54" transform="translate(429.799927 0)"/>
     <use xlink:href="#Avenir-Book-30" transform="translate(487.199921 0)"/>
     <use xlink:href="#Avenir-Book-31" transform="translate(542.799911 0)"/>
     <use xlink:href="#Avenir-Book-5f" transform="translate(598.399902 0)"/>
     <use xlink:href="#Avenir-Book-4f" transform="translate(648.399887 0)"/>
     <use xlink:href="#Avenir-Book-6c" transform="translate(731.799881 0)"/>
     <use xlink:href="#Avenir-Book-5f" transform="translate(755.799866 0)"/>
     <use xlink:href="#Avenir-Book-31" transform="translate(805.79985 0)"/>
     <use xlink:href="#Avenir-Book-38" transform="translate(861.399841 0)"/>
     <use xlink:href="#Avenir-Book-31" transform="translate(916.999832 0)"/>
     <use xlink:href="#Avenir-Book-5f" transform="translate(972.599823 0)"/>
     <use xlink:href="#Avenir-Book-70" transform="translate(1022.599808 0)"/>
     <use xlink:href="#Avenir-Book-72" transform="translate(1083.699799 0)"/>
     <use xlink:href="#Avenir-Book-6f" transform="translate(1115.149796 0)"/>
     <use xlink:href="#Avenir-Book-66" transform="translate(1174.449783 0)"/>
     <use xlink:href="#Avenir-Book-5f" transform="translate(1204.049774 0)"/>
     <use xlink:href="#Avenir-Book-32" transform="translate(1254.049759 0)"/>
    </g>
    <!-- Best fit time: 3.3±0.1 days Temperature: 1250.0 ˚C -->
    <g transform="translate(254.420813 63.12) scale(0.168 -0.168)">
     <defs>
      <path id="Avenir-Book-42" d="M 1075 422 
L 1958 422 
Q 2208 422 2425 473 
Q 2643 525 2803 630 
Q 2963 736 3056 896 
Q 3149 1056 3149 1280 
Q 3149 1728 2861 1945 
Q 2573 2163 2016 2163 
L 1075 2163 
L 1075 422 
z
M 1075 2547 
L 2003 2547 
Q 2170 2547 2333 2588 
Q 2496 2630 2627 2726 
Q 2758 2822 2841 2972 
Q 2925 3123 2925 3341 
Q 2925 3411 2896 3539 
Q 2867 3667 2768 3795 
Q 2669 3923 2477 4016 
Q 2285 4109 1958 4109 
L 1075 4109 
L 1075 2547 
z
M 614 4531 
L 1965 4531 
Q 2246 4531 2508 4473 
Q 2771 4416 2976 4281 
Q 3181 4147 3302 3929 
Q 3424 3712 3424 3392 
Q 3424 3021 3216 2755 
Q 3008 2490 2624 2400 
L 2624 2387 
Q 3104 2349 3376 2051 
Q 3648 1754 3648 1254 
Q 3648 1146 3593 934 
Q 3539 723 3366 515 
Q 3194 307 2867 153 
Q 2541 0 1997 0 
L 614 0 
L 614 4531 
z
" transform="scale(0.015625)"/>
      <path id="Avenir-Book-3a" d="M 1235 307 
Q 1235 173 1139 67 
Q 1043 -38 890 -38 
Q 736 -38 640 67 
Q 544 173 544 307 
Q 544 442 640 547 
Q 736 653 890 653 
Q 1043 653 1139 547 
Q 1235 442 1235 307 
z
M 1235 2682 
Q 1235 2547 1139 2441 
Q 1043 2336 890 2336 
Q 736 2336 640 2441 
Q 544 2547 544 2682 
Q 544 2816 640 2921 
Q 736 3027 890 3027 
Q 1043 3027 1139 2921 
Q 1235 2816 1235 2682 
z
" transform="scale(0.015625)"/>
      <path id="Avenir-Book-b1" d="M 499 691 
L 3763 691 
L 3763 307 
L 499 307 
L 499 691 
z
M 499 2605 
L 1939 2605 
L 1939 3603 
L 2323 3603 
L 2323 2605 
L 3763 2605 
L 3763 2221 
L 2323 2221 
L 2323 1254 
L 1939 1254 
L 1939 2221 
L 499 2221 
L 499 2605 
z
" transform="scale(0.015625)"/>
      <path id="Avenir-Book-64" d="M 717 1498 
Q 717 1248 797 1030 
Q 877 813 1024 653 
Q 1171 493 1379 400 
Q 1587 307 1850 307 
Q 2106 307 2326 400 
Q 2547 493 2707 653 
Q 2867 813 2956 1030 
Q 3046 1248 3046 1498 
Q 3046 1747 2956 1964 
Q 2867 2182 2707 2342 
Q 2547 2502 2326 2595 
Q 2106 2688 1850 2688 
Q 1587 2688 1379 2595 
Q 1171 2502 1024 2342 
Q 877 2182 797 1964 
Q 717 1747 717 1498 
z
M 3450 0 
L 3027 0 
L 3027 499 
L 3014 499 
Q 2912 346 2771 237 
Q 2630 128 2476 57 
Q 2323 -13 2160 -45 
Q 1997 -77 1850 -77 
Q 1498 -77 1206 41 
Q 915 160 704 371 
Q 493 582 374 870 
Q 256 1158 256 1498 
Q 256 1837 374 2125 
Q 493 2413 704 2624 
Q 915 2835 1206 2953 
Q 1498 3072 1850 3072 
Q 1997 3072 2160 3040 
Q 2323 3008 2476 2937 
Q 2630 2867 2771 2758 
Q 2912 2650 3014 2496 
L 3027 2496 
L 3027 4838 
L 3450 4838 
L 3450 0 
z
" transform="scale(0.015625)"/>
      <path id="Avenir-Book-79" d="M 1574 518 
L 2490 2995 
L 3002 2995 
L 1504 -781 
Q 1370 -1126 1162 -1331 
Q 954 -1536 563 -1536 
Q 467 -1536 368 -1529 
Q 269 -1523 173 -1491 
L 218 -1082 
Q 352 -1152 538 -1152 
Q 762 -1152 890 -1011 
Q 1018 -870 1114 -614 
L 1331 -38 
L 102 2995 
L 634 2995 
L 1574 518 
z
" transform="scale(0.015625)"/>
      <path id="Avenir-Book-75" d="M 2624 0 
Q 2611 122 2608 240 
Q 2605 358 2605 480 
L 2592 480 
Q 2522 358 2413 256 
Q 2304 154 2169 80 
Q 2035 6 1884 -35 
Q 1734 -77 1587 -77 
Q 1011 -77 736 227 
Q 461 531 461 1094 
L 461 2995 
L 883 2995 
L 883 1338 
Q 883 1088 921 896 
Q 960 704 1053 573 
Q 1146 442 1302 374 
Q 1459 307 1696 307 
Q 1728 307 1875 332 
Q 2022 358 2185 473 
Q 2349 589 2477 819 
Q 2605 1050 2605 1459 
L 2605 2995 
L 3027 2995 
L 3027 659 
Q 3027 538 3036 352 
Q 3046 166 3059 0 
L 2624 0 
z
" transform="scale(0.015625)"/>
      <path id="Avenir-Book-2da" d="M 1152 4160 
Q 1152 4320 1040 4429 
Q 928 4538 768 4538 
Q 608 4538 496 4429 
Q 384 4320 384 4160 
Q 384 4000 496 3891 
Q 608 3782 768 3782 
Q 928 3782 1040 3891 
Q 1152 4000 1152 4160 
z
M 1382 4160 
Q 1382 4032 1334 3920 
Q 1286 3808 1200 3725 
Q 1114 3642 1002 3597 
Q 890 3552 768 3552 
Q 640 3552 531 3597 
Q 422 3642 336 3725 
Q 250 3808 202 3920 
Q 154 4032 154 4160 
Q 154 4288 202 4400 
Q 250 4512 336 4592 
Q 422 4672 531 4720 
Q 640 4768 768 4768 
Q 890 4768 1002 4720 
Q 1114 4672 1200 4592 
Q 1286 4512 1334 4400 
Q 1382 4288 1382 4160 
z
" transform="scale(0.015625)"/>
      <path id="Avenir-Book-43" d="M 4346 717 
Q 4230 544 4060 390 
Q 3891 237 3673 125 
Q 3456 13 3203 -51 
Q 2950 -115 2669 -115 
Q 2163 -115 1731 64 
Q 1299 243 982 560 
Q 666 877 486 1312 
Q 307 1747 307 2266 
Q 307 2784 486 3219 
Q 666 3654 982 3971 
Q 1299 4288 1731 4467 
Q 2163 4646 2669 4646 
Q 3091 4646 3513 4480 
Q 3936 4314 4237 3930 
L 3834 3629 
Q 3763 3738 3641 3846 
Q 3520 3955 3363 4038 
Q 3206 4122 3027 4173 
Q 2848 4224 2669 4224 
Q 2234 4224 1888 4064 
Q 1542 3904 1302 3635 
Q 1062 3366 934 3011 
Q 806 2656 806 2266 
Q 806 1875 934 1520 
Q 1062 1165 1302 896 
Q 1542 627 1888 467 
Q 2234 307 2669 307 
Q 2848 307 3024 339 
Q 3200 371 3369 448 
Q 3539 525 3689 656 
Q 3840 787 3968 986 
L 4346 717 
z
" transform="scale(0.015625)"/>
     </defs>
     <use xlink:href="#Avenir-Book-42"/>
     <use xlink:href="#Avenir-Book-65" transform="translate(62.999985 0)"/>
     <use xlink:href="#Avenir-Book-73" transform="translate(118.599976 0)"/>
     <use xlink:href="#Avenir-Book-74" transform="translate(161.199966 0)"/>
     <use xlink:href="#Avenir-Book-20" transform="translate(194.399963 0)"/>
     <use xlink:href="#Avenir-Book-66" transform="translate(222.199951 0)"/>
     <use xlink:href="#Avenir-Book-69" transform="translate(251.799942 0)"/>
     <use xlink:href="#Avenir-Book-74" transform="translate(275.799927 0)"/>
     <use xlink:href="#Avenir-Book-20" transform="translate(308.999924 0)"/>
     <use xlink:href="#Avenir-Book-74" transform="translate(336.799911 0)"/>
     <use xlink:href="#Avenir-Book-69" transform="translate(369.999908 0)"/>
     <use xlink:href="#Avenir-Book-6d" transform="translate(393.999893 0)"/>
     <use xlink:href="#Avenir-Book-65" transform="translate(479.199875 0)"/>
     <use xlink:href="#Avenir-Book-3a" transform="translate(534.799866 0)"/>
     <use xlink:href="#Avenir-Book-20" transform="translate(562.599854 0)"/>
     <use xlink:href="#Avenir-Book-33" transform="translate(590.399841 0)"/>
     <use xlink:href="#Avenir-Book-2e" transform="translate(645.999832 0)"/>
     <use xlink:href="#Avenir-Book-33" transform="translate(673.79982 0)"/>
     <use xlink:href="#Avenir-Book-b1" transform="translate(729.399811 0)"/>
     <use xlink:href="#Avenir-Book-30" transform="translate(795.999802 0)"/>
     <use xlink:href="#Avenir-Book-2e" transform="translate(851.599792 0)"/>
     <use xlink:href="#Avenir-Book-31" transform="translate(879.39978 0)"/>
     <use xlink:href="#Avenir-Book-20" transform="translate(934.999771 0)"/>
     <use xlink:href="#Avenir-Book-64" transform="translate(962.799759 0)"/>
     <use xlink:href="#Avenir-Book-61" transform="translate(1023.89975 0)"/>
     <use xlink:href="#Avenir-Book-79" transform="translate(1075.799744 0)"/>
     <use xlink:href="#Avenir-Book-73" transform="translate(1123.999741 0)"/>
     <use xlink:href="#Avenir-Book-20" transform="translate(1166.599731 0)"/>
     <use xlink:href="#Avenir-Book-54" transform="translate(1194.399719 0)"/>
     <use xlink:href="#Avenir-Book-65" transform="translate(1240.674713 0)"/>
     <use xlink:href="#Avenir-Book-6d" transform="translate(1296.274704 0)"/>
     <use xlink:href="#Avenir-Book-70" transform="translate(1381.474686 0)"/>
     <use xlink:href="#Avenir-Book-65" transform="translate(1442.574677 0)"/>
     <use xlink:href="#Avenir-Book-72" transform="translate(1498.174667 0)"/>
     <use xlink:href="#Avenir-Book-61" transform="translate(1531.374664 0)"/>
     <use xlink:href="#Avenir-Book-74" transform="translate(1583.274658 0)"/>
     <use xlink:href="#Avenir-Book-75" transform="translate(1616.474655 0)"/>
     <use xlink:href="#Avenir-Book-72" transform="translate(1672.074646 0)"/>
     <use xlink:href="#Avenir-Book-65" transform="translate(1703.524643 0)"/>
     <use xlink:href="#Avenir-Book-3a" transform="translate(1759.124634 0)"/>
     <use xlink:href="#Avenir-Book-20" transform="translate(1786.924622 0)"/>
     <use xlink:href="#Avenir-Book-31" transform="translate(1814.724609 0)"/>
     <use xlink:href="#Avenir-Book-32" transform="translate(1870.3246 0)"/>
     <use xlink:href="#Avenir-Book-35" transform="translate(1925.924591 0)"/>
     <use xlink:href="#Avenir-Book-30" transform="translate(1981.524582 0)"/>
     <use xlink:href="#Avenir-Book-2e" transform="translate(2037.124573 0)"/>
     <use xlink:href="#Avenir-Book-30" transform="translate(2064.924561 0)"/>
     <use xlink:href="#Avenir-Book-20" transform="translate(2120.524551 0)"/>
     <use xlink:href="#Avenir-Book-2da" transform="translate(2148.324539 0)"/>
     <use xlink:href="#Avenir-Book-43" transform="translate(2172.324524 0)"/>
    </g>
   </g>
   <g id="legend_1">
    <g id="patch_7">
     <path d="M 638.97375 505.64 
L 767.8 505.64 
Q 770.6 505.64 770.6 502.84 
L 770.6 384.318625 
Q 770.6 381.518625 767.8 381.518625 
L 638.97375 381.518625 
Q 636.17375 381.518625 636.17375 384.318625 
L 636.17375 502.84 
Q 636.17375 505.64 638.97375 505.64 
z
" style="fill: #ffffff; opacity: 0.8; stroke: #cccccc; stroke-linejoin: miter"/>
    </g>
    <g id="line2d_113">
     <path d="M 641.77375 392.80175 
L 655.77375 392.80175 
L 669.77375 392.80175 
" style="fill: none; stroke-dasharray: 7.4,3.2; stroke-dashoffset: 0; stroke: #f47e1f; stroke-width: 2"/>
     <g>
      <use xlink:href="#mcb451737d1" x="655.77375" y="392.80175" style="fill: #f47e1f; stroke: #f47e1f"/>
     </g>
    </g>
    <g id="text_32">
     <!-- Data -->
     <g transform="translate(680.97375 397.70175) scale(0.14 -0.14)">
      <use xlink:href="#Avenir-Book-44"/>
      <use xlink:href="#Avenir-Book-61" transform="translate(74.099991 0)"/>
      <use xlink:href="#Avenir-Book-74" transform="translate(125.999985 0)"/>
      <use xlink:href="#Avenir-Book-61" transform="translate(159.199982 0)"/>
     </g>
    </g>
    <g id="line2d_114">
     <path d="M 641.77375 424.797875 
L 655.77375 424.797875 
L 669.77375 424.797875 
" style="fill: none; stroke-dasharray: 3.7,1.6; stroke-dashoffset: 0; stroke: #000000"/>
    </g>
    <g id="text_33">
     <!-- Interpolation  -->
     <g transform="translate(680.97375 419.316438) scale(0.14 -0.14)">
      <defs>
       <path id="Avenir-Book-49" d="M 1075 0 
L 614 0 
L 614 4531 
L 1075 4531 
L 1075 0 
z
" transform="scale(0.015625)"/>
      </defs>
      <use xlink:href="#Avenir-Book-49"/>
      <use xlink:href="#Avenir-Book-6e" transform="translate(26.399994 0)"/>
      <use xlink:href="#Avenir-Book-74" transform="translate(81.999985 0)"/>
      <use xlink:href="#Avenir-Book-65" transform="translate(115.199982 0)"/>
      <use xlink:href="#Avenir-Book-72" transform="translate(170.799973 0)"/>
      <use xlink:href="#Avenir-Book-70" transform="translate(203.999969 0)"/>
      <use xlink:href="#Avenir-Book-6f" transform="translate(265.09996 0)"/>
      <use xlink:href="#Avenir-Book-6c" transform="translate(324.399948 0)"/>
      <use xlink:href="#Avenir-Book-61" transform="translate(348.399933 0)"/>
      <use xlink:href="#Avenir-Book-74" transform="translate(400.299927 0)"/>
      <use xlink:href="#Avenir-Book-69" transform="translate(433.499924 0)"/>
      <use xlink:href="#Avenir-Book-6f" transform="translate(457.499908 0)"/>
      <use xlink:href="#Avenir-Book-6e" transform="translate(516.799896 0)"/>
      <use xlink:href="#Avenir-Book-20" transform="translate(572.399887 0)"/>
     </g>
     <!--   Uncertainty -->
     <g transform="translate(680.97375 436.04775) scale(0.14 -0.14)">
      <defs>
       <path id="Avenir-Book-55" d="M 3853 1690 
Q 3853 1408 3785 1091 
Q 3718 774 3532 505 
Q 3347 237 3024 61 
Q 2701 -115 2195 -115 
Q 1683 -115 1363 61 
Q 1043 237 857 505 
Q 672 774 605 1091 
Q 538 1408 538 1690 
L 538 4531 
L 998 4531 
L 998 1741 
Q 998 1414 1062 1180 
Q 1126 947 1232 787 
Q 1338 627 1469 534 
Q 1600 442 1731 390 
Q 1862 339 1984 323 
Q 2106 307 2195 307 
Q 2278 307 2403 323 
Q 2528 339 2659 390 
Q 2790 442 2921 534 
Q 3053 627 3158 787 
Q 3264 947 3328 1180 
Q 3392 1414 3392 1741 
L 3392 4531 
L 3853 4531 
L 3853 1690 
z
" transform="scale(0.015625)"/>
      </defs>
      <use xlink:href="#Avenir-Book-20"/>
      <use xlink:href="#Avenir-Book-20" transform="translate(27.799988 0)"/>
      <use xlink:href="#Avenir-Book-55" transform="translate(55.599976 0)"/>
      <use xlink:href="#Avenir-Book-6e" transform="translate(124.199966 0)"/>
      <use xlink:href="#Avenir-Book-63" transform="translate(179.799957 0)"/>
      <use xlink:href="#Avenir-Book-65" transform="translate(227.999954 0)"/>
      <use xlink:href="#Avenir-Book-72" transform="translate(283.599945 0)"/>
      <use xlink:href="#Avenir-Book-74" transform="translate(316.799942 0)"/>
      <use xlink:href="#Avenir-Book-61" transform="translate(349.999939 0)"/>
      <use xlink:href="#Avenir-Book-69" transform="translate(401.899933 0)"/>
      <use xlink:href="#Avenir-Book-6e" transform="translate(425.899918 0)"/>
      <use xlink:href="#Avenir-Book-74" transform="translate(481.499908 0)"/>
      <use xlink:href="#Avenir-Book-79" transform="translate(514.699905 0)"/>
     </g>
    </g>
    <g id="line2d_115">
     <path d="M 641.77375 463.143875 
L 655.77375 463.143875 
L 669.77375 463.143875 
" style="fill: none; stroke-dasharray: 7.4,3.2; stroke-dashoffset: 0; stroke: #1b878c; stroke-width: 2"/>
    </g>
    <g id="text_34">
     <!-- Initial  -->
     <g transform="translate(680.97375 457.662438) scale(0.14 -0.14)">
      <use xlink:href="#Avenir-Book-49"/>
      <use xlink:href="#Avenir-Book-6e" transform="translate(26.399994 0)"/>
      <use xlink:href="#Avenir-Book-69" transform="translate(81.999985 0)"/>
      <use xlink:href="#Avenir-Book-74" transform="translate(105.999969 0)"/>
      <use xlink:href="#Avenir-Book-69" transform="translate(139.199966 0)"/>
      <use xlink:href="#Avenir-Book-61" transform="translate(163.199951 0)"/>
      <use xlink:href="#Avenir-Book-6c" transform="translate(215.099945 0)"/>
      <use xlink:href="#Avenir-Book-20" transform="translate(239.09993 0)"/>
     </g>
     <!--  Condition -->
     <g transform="translate(680.97375 474.39375) scale(0.14 -0.14)">
      <use xlink:href="#Avenir-Book-20"/>
      <use xlink:href="#Avenir-Book-43" transform="translate(27.799988 0)"/>
      <use xlink:href="#Avenir-Book-6f" transform="translate(98.199982 0)"/>
      <use xlink:href="#Avenir-Book-6e" transform="translate(157.499969 0)"/>
      <use xlink:href="#Avenir-Book-64" transform="translate(213.09996 0)"/>
      <use xlink:href="#Avenir-Book-69" transform="translate(274.199951 0)"/>
      <use xlink:href="#Avenir-Book-74" transform="translate(298.199936 0)"/>
      <use xlink:href="#Avenir-Book-69" transform="translate(331.399933 0)"/>
      <use xlink:href="#Avenir-Book-6f" transform="translate(355.399918 0)"/>
      <use xlink:href="#Avenir-Book-6e" transform="translate(414.699905 0)"/>
     </g>
    </g>
    <g id="line2d_116">
     <path d="M 641.77375 491.108438 
L 655.77375 491.108438 
L 669.77375 491.108438 
" style="fill: none; stroke: #1fbecf; stroke-opacity: 0.8; stroke-width: 6; stroke-linecap: square"/>
    </g>
    <g id="text_35">
     <!-- Best fit -->
     <g transform="translate(680.97375 496.008438) scale(0.14 -0.14)">
      <use xlink:href="#Avenir-Book-42"/>
      <use xlink:href="#Avenir-Book-65" transform="translate(62.999985 0)"/>
      <use xlink:href="#Avenir-Book-73" transform="translate(118.599976 0)"/>
      <use xlink:href="#Avenir-Book-74" transform="translate(161.199966 0)"/>
      <use xlink:href="#Avenir-Book-20" transform="translate(194.399963 0)"/>
      <use xlink:href="#Avenir-Book-66" transform="translate(222.199951 0)"/>
      <use xlink:href="#Avenir-Book-69" transform="translate(251.799942 0)"/>
      <use xlink:href="#Avenir-Book-74" transform="translate(275.799927 0)"/>
     </g>
    </g>
   </g>
  </g>
 </g>
 <defs>
  <clipPath id="pe2d33b0ec8">
   <rect x="108" y="69.12" width="669.6" height="443.52"/>
  </clipPath>
 </defs>
</svg>
