<?xml version="1.0" encoding="utf-8" standalone="no"?>
<!DOCTYPE svg PUBLIC "-//W3C//DTD SVG 1.1//EN"
  "http://www.w3.org/Graphics/SVG/1.1/DTD/svg11.dtd">
<svg xmlns:xlink="http://www.w3.org/1999/xlink" width="864pt" height="576pt" viewBox="0 0 864 576" xmlns="http://www.w3.org/2000/svg" version="1.1">
 <metadata>
  <rdf:RDF xmlns:dc="http://purl.org/dc/elements/1.1/" xmlns:cc="http://creativecommons.org/ns#" xmlns:rdf="http://www.w3.org/1999/02/22-rdf-syntax-ns#">
   <cc:Work>
    <dc:type rdf:resource="http://purl.org/dc/dcmitype/StillImage"/>
    <dc:date>2025-10-23T14:52:25.241003</dc:date>
    <dc:format>image/svg+xml</dc:format>
    <dc:creator>
     <cc:Agent>
      <dc:title>Matplotlib v3.10.6, https://matplotlib.org/</dc:title>
     </cc:Agent>
    </dc:creator>
   </cc:Work>
  </rdf:RDF>
 </metadata>
 <defs>
  <style type="text/css">*{stroke-linejoin: round; stroke-linecap: butt}</style>
 </defs>
 <g id="figure_1">
  <g id="patch_1">
   <path d="M 0 576 
L 864 576 
L 864 0 
L 0 0 
z
" style="fill: #ffffff"/>
  </g>
  <g id="axes_1">
   <g id="patch_2">
    <path d="M 108 512.64 
L 777.6 512.64 
L 777.6 69.12 
L 108 69.12 
z
" style="fill: #ffffff"/>
   </g>
   <g id="matplotlib.axis_1">
    <g id="xtick_1">
     <g id="line2d_1">
      <defs>
       <path id="m9ddc5f0d2c" d="M 0 0 
L 0 7 
" style="stroke: #000000; stroke-width: 2"/>
      </defs>
      <g>
       <use xlink:href="#m9ddc5f0d2c" x="116.632323" y="512.64" style="stroke: #000000; stroke-width: 2"/>
      </g>
     </g>
     <g id="text_1">
      <!-- 0 -->
      <g transform="translate(112.74076 533.723125) scale(0.14 -0.14)">
       <defs>
        <path id="Avenir-Book-30" d="M 1779 4186 
Q 1408 4186 1193 3987 
Q 979 3789 870 3494 
Q 762 3200 733 2867 
Q 704 2534 704 2266 
Q 704 1997 733 1664 
Q 762 1331 870 1036 
Q 979 742 1193 544 
Q 1408 346 1779 346 
Q 2150 346 2364 544 
Q 2579 742 2688 1036 
Q 2797 1331 2825 1664 
Q 2854 1997 2854 2266 
Q 2854 2534 2825 2867 
Q 2797 3200 2688 3494 
Q 2579 3789 2364 3987 
Q 2150 4186 1779 4186 
z
M 1779 4608 
Q 2266 4608 2566 4384 
Q 2867 4160 3033 3814 
Q 3200 3469 3257 3056 
Q 3315 2643 3315 2266 
Q 3315 1888 3257 1475 
Q 3200 1062 3033 716 
Q 2867 371 2566 147 
Q 2266 -77 1779 -77 
Q 1293 -77 992 147 
Q 691 371 524 716 
Q 358 1062 300 1475 
Q 243 1888 243 2266 
Q 243 2643 300 3056 
Q 358 3469 524 3814 
Q 691 4160 992 4384 
Q 1293 4608 1779 4608 
z
" transform="scale(0.015625)"/>
       </defs>
       <use xlink:href="#Avenir-Book-30"/>
      </g>
     </g>
    </g>
    <g id="xtick_2">
     <g id="line2d_2">
      <g>
       <use xlink:href="#m9ddc5f0d2c" x="159.793937" y="512.64" style="stroke: #000000; stroke-width: 2"/>
      </g>
     </g>
     <g id="text_2">
      <!-- 10 -->
      <g transform="translate(152.010812 533.723125) scale(0.14 -0.14)">
       <defs>
        <path id="Avenir-Book-31" d="M 2227 0 
L 1766 0 
L 1766 3955 
L 954 3238 
L 666 3584 
L 1818 4531 
L 2227 4531 
L 2227 0 
z
" transform="scale(0.015625)"/>
       </defs>
       <use xlink:href="#Avenir-Book-31"/>
       <use xlink:href="#Avenir-Book-30" transform="translate(55.599991 0)"/>
      </g>
     </g>
    </g>
    <g id="xtick_3">
     <g id="line2d_3">
      <g>
       <use xlink:href="#m9ddc5f0d2c" x="202.955552" y="512.64" style="stroke: #000000; stroke-width: 2"/>
      </g>
     </g>
     <g id="text_3">
      <!-- 20 -->
      <g transform="translate(195.172427 533.723125) scale(0.14 -0.14)">
       <defs>
        <path id="Avenir-Book-32" d="M 3187 0 
L 307 0 
L 307 531 
L 2112 2368 
Q 2214 2470 2316 2585 
Q 2419 2701 2502 2829 
Q 2586 2957 2637 3097 
Q 2688 3238 2688 3392 
Q 2688 3578 2621 3725 
Q 2554 3872 2432 3974 
Q 2310 4077 2150 4131 
Q 1990 4186 1811 4186 
Q 1466 4186 1222 3994 
Q 979 3802 909 3475 
L 422 3526 
Q 518 4032 886 4320 
Q 1254 4608 1779 4608 
Q 2054 4608 2300 4534 
Q 2547 4461 2736 4313 
Q 2925 4166 3037 3945 
Q 3149 3725 3149 3430 
Q 3149 3168 3069 2950 
Q 2989 2733 2861 2541 
Q 2733 2349 2569 2176 
Q 2406 2003 2234 1837 
L 806 422 
L 3187 422 
L 3187 0 
z
" transform="scale(0.015625)"/>
       </defs>
       <use xlink:href="#Avenir-Book-32"/>
       <use xlink:href="#Avenir-Book-30" transform="translate(55.599991 0)"/>
      </g>
     </g>
    </g>
    <g id="xtick_4">
     <g id="line2d_4">
      <g>
       <use xlink:href="#m9ddc5f0d2c" x="246.117167" y="512.64" style="stroke: #000000; stroke-width: 2"/>
      </g>
     </g>
     <g id="text_4">
      <!-- 30 -->
      <g transform="translate(238.334042 533.723125) scale(0.14 -0.14)">
       <defs>
        <path id="Avenir-Book-33" d="M 1306 2586 
L 1542 2586 
Q 1741 2586 1923 2630 
Q 2106 2675 2240 2774 
Q 2374 2874 2454 3034 
Q 2534 3194 2534 3418 
Q 2534 3782 2313 3984 
Q 2093 4186 1696 4186 
Q 1408 4186 1190 4058 
Q 973 3930 832 3686 
L 429 3891 
Q 634 4256 950 4432 
Q 1267 4608 1683 4608 
Q 1952 4608 2189 4531 
Q 2426 4454 2605 4304 
Q 2784 4154 2889 3933 
Q 2995 3712 2995 3430 
Q 2995 3245 2934 3078 
Q 2874 2912 2768 2777 
Q 2662 2643 2521 2544 
Q 2381 2445 2227 2394 
L 2246 2381 
Q 2438 2342 2598 2236 
Q 2758 2131 2873 1977 
Q 2989 1824 3053 1632 
Q 3117 1440 3117 1229 
Q 3117 915 3001 672 
Q 2886 429 2688 262 
Q 2490 96 2227 9 
Q 1965 -77 1670 -77 
Q 1171 -77 800 140 
Q 429 358 243 838 
L 730 986 
Q 845 659 1072 502 
Q 1299 346 1709 346 
Q 1901 346 2073 410 
Q 2246 474 2377 592 
Q 2509 710 2582 876 
Q 2656 1043 2656 1242 
Q 2656 1498 2560 1674 
Q 2464 1850 2304 1958 
Q 2144 2067 1936 2115 
Q 1728 2163 1504 2163 
L 1306 2163 
L 1306 2586 
z
" transform="scale(0.015625)"/>
       </defs>
       <use xlink:href="#Avenir-Book-33"/>
       <use xlink:href="#Avenir-Book-30" transform="translate(55.599991 0)"/>
      </g>
     </g>
    </g>
    <g id="xtick_5">
     <g id="line2d_5">
      <g>
       <use xlink:href="#m9ddc5f0d2c" x="289.278781" y="512.64" style="stroke: #000000; stroke-width: 2"/>
      </g>
     </g>
     <g id="text_5">
      <!-- 40 -->
      <g transform="translate(281.495656 533.723125) scale(0.14 -0.14)">
       <defs>
        <path id="Avenir-Book-34" d="M 2202 4070 
L 2189 4070 
L 627 1498 
L 2202 1498 
L 2202 4070 
z
M 2662 1498 
L 3315 1498 
L 3315 1075 
L 2662 1075 
L 2662 0 
L 2202 0 
L 2202 1075 
L 243 1075 
L 243 1600 
L 2074 4531 
L 2662 4531 
L 2662 1498 
z
" transform="scale(0.015625)"/>
       </defs>
       <use xlink:href="#Avenir-Book-34"/>
       <use xlink:href="#Avenir-Book-30" transform="translate(55.599991 0)"/>
      </g>
     </g>
    </g>
    <g id="xtick_6">
     <g id="line2d_6">
      <g>
       <use xlink:href="#m9ddc5f0d2c" x="332.440396" y="512.64" style="stroke: #000000; stroke-width: 2"/>
      </g>
     </g>
     <g id="text_6">
      <!-- 50 -->
      <g transform="translate(324.657271 533.723125) scale(0.14 -0.14)">
       <defs>
        <path id="Avenir-Book-35" d="M 2976 4109 
L 1120 4109 
L 1094 2746 
Q 1242 2803 1395 2828 
Q 1549 2854 1702 2854 
Q 2022 2854 2284 2745 
Q 2547 2637 2736 2441 
Q 2925 2246 3030 1980 
Q 3136 1715 3136 1402 
Q 3136 1075 3021 803 
Q 2906 531 2701 336 
Q 2496 141 2217 32 
Q 1939 -77 1613 -77 
Q 1184 -77 838 128 
Q 493 333 307 730 
L 762 928 
Q 890 659 1120 502 
Q 1350 346 1651 346 
Q 1869 346 2054 426 
Q 2240 506 2377 640 
Q 2515 774 2595 960 
Q 2675 1146 2675 1357 
Q 2675 1594 2592 1792 
Q 2509 1990 2361 2134 
Q 2214 2278 2009 2355 
Q 1805 2432 1562 2432 
Q 1318 2432 1078 2365 
Q 838 2298 621 2182 
L 666 4531 
L 2976 4531 
L 2976 4109 
z
" transform="scale(0.015625)"/>
       </defs>
       <use xlink:href="#Avenir-Book-35"/>
       <use xlink:href="#Avenir-Book-30" transform="translate(55.599991 0)"/>
      </g>
     </g>
    </g>
    <g id="xtick_7">
     <g id="line2d_7">
      <g>
       <use xlink:href="#m9ddc5f0d2c" x="375.60201" y="512.64" style="stroke: #000000; stroke-width: 2"/>
      </g>
     </g>
     <g id="text_7">
      <!-- 60 -->
      <g transform="translate(367.818885 533.723125) scale(0.14 -0.14)">
       <defs>
        <path id="Avenir-Book-36" d="M 768 1325 
Q 768 1107 841 928 
Q 915 749 1049 617 
Q 1184 486 1369 416 
Q 1555 346 1779 346 
Q 2003 346 2188 416 
Q 2374 486 2508 617 
Q 2643 749 2716 928 
Q 2790 1107 2790 1325 
Q 2790 1542 2716 1721 
Q 2643 1901 2508 2029 
Q 2374 2157 2188 2230 
Q 2003 2304 1779 2304 
Q 1555 2304 1369 2230 
Q 1184 2157 1049 2029 
Q 915 1901 841 1721 
Q 768 1542 768 1325 
z
M 1229 2586 
L 1242 2573 
Q 1350 2650 1532 2688 
Q 1715 2726 1869 2726 
Q 2163 2726 2416 2620 
Q 2669 2515 2854 2329 
Q 3040 2144 3145 1888 
Q 3251 1632 3251 1325 
Q 3251 1011 3142 755 
Q 3034 499 2835 313 
Q 2637 128 2368 25 
Q 2099 -77 1779 -77 
Q 1459 -77 1190 25 
Q 922 128 723 313 
Q 525 499 416 755 
Q 307 1011 307 1325 
Q 307 1702 419 1984 
Q 531 2266 698 2541 
L 1920 4531 
L 2464 4531 
L 1229 2586 
z
" transform="scale(0.015625)"/>
       </defs>
       <use xlink:href="#Avenir-Book-36"/>
       <use xlink:href="#Avenir-Book-30" transform="translate(55.599991 0)"/>
      </g>
     </g>
    </g>
    <g id="xtick_8">
     <g id="line2d_8">
      <g>
       <use xlink:href="#m9ddc5f0d2c" x="418.763625" y="512.64" style="stroke: #000000; stroke-width: 2"/>
      </g>
     </g>
     <g id="text_8">
      <!-- 70 -->
      <g transform="translate(410.9805 533.723125) scale(0.14 -0.14)">
       <defs>
        <path id="Avenir-Book-37" d="M 3034 4109 
L 1210 0 
L 691 0 
L 2554 4109 
L 346 4109 
L 346 4531 
L 3034 4531 
L 3034 4109 
z
" transform="scale(0.015625)"/>
       </defs>
       <use xlink:href="#Avenir-Book-37"/>
       <use xlink:href="#Avenir-Book-30" transform="translate(55.599991 0)"/>
      </g>
     </g>
    </g>
    <g id="xtick_9">
     <g id="line2d_9">
      <g>
       <use xlink:href="#m9ddc5f0d2c" x="461.925239" y="512.64" style="stroke: #000000; stroke-width: 2"/>
      </g>
     </g>
     <g id="text_9">
      <!-- 80 -->
      <g transform="translate(454.142114 533.723125) scale(0.14 -0.14)">
       <defs>
        <path id="Avenir-Book-38" d="M 2752 1274 
Q 2752 1472 2681 1641 
Q 2611 1811 2486 1936 
Q 2362 2061 2179 2131 
Q 1997 2202 1779 2202 
Q 1555 2202 1376 2131 
Q 1197 2061 1072 1936 
Q 947 1811 876 1641 
Q 806 1472 806 1274 
Q 806 1075 876 905 
Q 947 736 1072 611 
Q 1197 486 1376 416 
Q 1555 346 1779 346 
Q 1997 346 2179 416 
Q 2362 486 2486 611 
Q 2611 736 2681 905 
Q 2752 1075 2752 1274 
z
M 2586 3386 
Q 2586 3558 2525 3705 
Q 2464 3853 2355 3958 
Q 2246 4064 2099 4125 
Q 1952 4186 1779 4186 
Q 1606 4186 1459 4125 
Q 1312 4064 1203 3958 
Q 1094 3853 1033 3705 
Q 973 3558 973 3386 
Q 973 3213 1033 3065 
Q 1094 2918 1203 2812 
Q 1312 2707 1459 2646 
Q 1606 2586 1779 2586 
Q 1952 2586 2099 2646 
Q 2246 2707 2355 2812 
Q 2464 2918 2525 3065 
Q 2586 3213 2586 3386 
z
M 1190 2413 
Q 1043 2464 918 2563 
Q 794 2662 704 2796 
Q 614 2931 563 3091 
Q 512 3251 512 3424 
Q 512 3693 614 3913 
Q 717 4134 889 4288 
Q 1062 4442 1292 4525 
Q 1523 4608 1779 4608 
Q 2035 4608 2265 4525 
Q 2496 4442 2669 4288 
Q 2842 4134 2944 3913 
Q 3046 3693 3046 3424 
Q 3046 3251 2995 3091 
Q 2944 2931 2854 2796 
Q 2765 2662 2640 2563 
Q 2515 2464 2368 2413 
L 2368 2400 
Q 2752 2298 2982 1978 
Q 3213 1658 3213 1210 
Q 3213 915 3094 678 
Q 2976 442 2781 272 
Q 2586 102 2326 12 
Q 2067 -77 1779 -77 
Q 1491 -77 1232 12 
Q 973 102 777 272 
Q 582 442 464 678 
Q 346 915 346 1210 
Q 346 1658 576 1978 
Q 806 2298 1190 2400 
L 1190 2413 
z
" transform="scale(0.015625)"/>
       </defs>
       <use xlink:href="#Avenir-Book-38"/>
       <use xlink:href="#Avenir-Book-30" transform="translate(55.599991 0)"/>
      </g>
     </g>
    </g>
    <g id="xtick_10">
     <g id="line2d_10">
      <g>
       <use xlink:href="#m9ddc5f0d2c" x="505.086854" y="512.64" style="stroke: #000000; stroke-width: 2"/>
      </g>
     </g>
     <g id="text_10">
      <!-- 90 -->
      <g transform="translate(497.303729 533.723125) scale(0.14 -0.14)">
       <defs>
        <path id="Avenir-Book-39" d="M 2790 3206 
Q 2790 3424 2716 3603 
Q 2643 3782 2508 3910 
Q 2374 4038 2188 4112 
Q 2003 4186 1779 4186 
Q 1555 4186 1369 4112 
Q 1184 4038 1049 3910 
Q 915 3782 841 3603 
Q 768 3424 768 3206 
Q 768 2989 841 2809 
Q 915 2630 1049 2499 
Q 1184 2368 1369 2297 
Q 1555 2227 1779 2227 
Q 2003 2227 2188 2297 
Q 2374 2368 2508 2499 
Q 2643 2630 2716 2809 
Q 2790 2989 2790 3206 
z
M 2330 1946 
L 2317 1958 
Q 2208 1882 2025 1843 
Q 1843 1805 1690 1805 
Q 1395 1805 1142 1910 
Q 890 2016 704 2201 
Q 518 2387 412 2643 
Q 307 2899 307 3206 
Q 307 3520 416 3776 
Q 525 4032 723 4217 
Q 922 4403 1190 4505 
Q 1459 4608 1779 4608 
Q 2099 4608 2368 4505 
Q 2637 4403 2835 4217 
Q 3034 4032 3142 3776 
Q 3251 3520 3251 3206 
Q 3251 2829 3139 2547 
Q 3027 2266 2861 1990 
L 1638 0 
L 1094 0 
L 2330 1946 
z
" transform="scale(0.015625)"/>
       </defs>
       <use xlink:href="#Avenir-Book-39"/>
       <use xlink:href="#Avenir-Book-30" transform="translate(55.599991 0)"/>
      </g>
     </g>
    </g>
    <g id="xtick_11">
     <g id="line2d_11">
      <g>
       <use xlink:href="#m9ddc5f0d2c" x="548.248468" y="512.64" style="stroke: #000000; stroke-width: 2"/>
      </g>
     </g>
     <g id="text_11">
      <!-- 100 -->
      <g transform="translate(536.573781 533.723125) scale(0.14 -0.14)">
       <use xlink:href="#Avenir-Book-31"/>
       <use xlink:href="#Avenir-Book-30" transform="translate(55.599991 0)"/>
       <use xlink:href="#Avenir-Book-30" transform="translate(111.199982 0)"/>
      </g>
     </g>
    </g>
    <g id="xtick_12">
     <g id="line2d_12">
      <g>
       <use xlink:href="#m9ddc5f0d2c" x="591.410083" y="512.64" style="stroke: #000000; stroke-width: 2"/>
      </g>
     </g>
     <g id="text_12">
      <!-- 110 -->
      <g transform="translate(579.735395 533.723125) scale(0.14 -0.14)">
       <use xlink:href="#Avenir-Book-31"/>
       <use xlink:href="#Avenir-Book-31" transform="translate(55.599991 0)"/>
       <use xlink:href="#Avenir-Book-30" transform="translate(111.199982 0)"/>
      </g>
     </g>
    </g>
    <g id="xtick_13">
     <g id="line2d_13">
      <g>
       <use xlink:href="#m9ddc5f0d2c" x="634.571697" y="512.64" style="stroke: #000000; stroke-width: 2"/>
      </g>
     </g>
     <g id="text_13">
      <!-- 120 -->
      <g transform="translate(622.89701 533.723125) scale(0.14 -0.14)">
       <use xlink:href="#Avenir-Book-31"/>
       <use xlink:href="#Avenir-Book-32" transform="translate(55.599991 0)"/>
       <use xlink:href="#Avenir-Book-30" transform="translate(111.199982 0)"/>
      </g>
     </g>
    </g>
    <g id="xtick_14">
     <g id="line2d_14">
      <g>
       <use xlink:href="#m9ddc5f0d2c" x="677.733312" y="512.64" style="stroke: #000000; stroke-width: 2"/>
      </g>
     </g>
     <g id="text_14">
      <!-- 130 -->
      <g transform="translate(666.058624 533.723125) scale(0.14 -0.14)">
       <use xlink:href="#Avenir-Book-31"/>
       <use xlink:href="#Avenir-Book-33" transform="translate(55.599991 0)"/>
       <use xlink:href="#Avenir-Book-30" transform="translate(111.199982 0)"/>
      </g>
     </g>
    </g>
    <g id="xtick_15">
     <g id="line2d_15">
      <g>
       <use xlink:href="#m9ddc5f0d2c" x="720.894927" y="512.64" style="stroke: #000000; stroke-width: 2"/>
      </g>
     </g>
     <g id="text_15">
      <!-- 140 -->
      <g transform="translate(709.220239 533.723125) scale(0.14 -0.14)">
       <use xlink:href="#Avenir-Book-31"/>
       <use xlink:href="#Avenir-Book-34" transform="translate(55.599991 0)"/>
       <use xlink:href="#Avenir-Book-30" transform="translate(111.199982 0)"/>
      </g>
     </g>
    </g>
    <g id="xtick_16">
     <g id="line2d_16">
      <g>
       <use xlink:href="#m9ddc5f0d2c" x="764.056541" y="512.64" style="stroke: #000000; stroke-width: 2"/>
      </g>
     </g>
     <g id="text_16">
      <!-- 150 -->
      <g transform="translate(752.381854 533.723125) scale(0.14 -0.14)">
       <use xlink:href="#Avenir-Book-31"/>
       <use xlink:href="#Avenir-Book-35" transform="translate(55.599991 0)"/>
       <use xlink:href="#Avenir-Book-30" transform="translate(111.199982 0)"/>
      </g>
     </g>
    </g>
    <g id="xtick_17">
     <g id="line2d_17">
      <defs>
       <path id="m2823063670" d="M 0 0 
L 0 4 
" style="stroke: #000000; stroke-width: 2"/>
      </defs>
      <g>
       <use xlink:href="#m2823063670" x="127.422727" y="512.64" style="stroke: #000000; stroke-width: 2"/>
      </g>
     </g>
    </g>
    <g id="xtick_18">
     <g id="line2d_18">
      <g>
       <use xlink:href="#m2823063670" x="138.21313" y="512.64" style="stroke: #000000; stroke-width: 2"/>
      </g>
     </g>
    </g>
    <g id="xtick_19">
     <g id="line2d_19">
      <g>
       <use xlink:href="#m2823063670" x="149.003534" y="512.64" style="stroke: #000000; stroke-width: 2"/>
      </g>
     </g>
    </g>
    <g id="xtick_20">
     <g id="line2d_20">
      <g>
       <use xlink:href="#m2823063670" x="170.584341" y="512.64" style="stroke: #000000; stroke-width: 2"/>
      </g>
     </g>
    </g>
    <g id="xtick_21">
     <g id="line2d_21">
      <g>
       <use xlink:href="#m2823063670" x="181.374745" y="512.64" style="stroke: #000000; stroke-width: 2"/>
      </g>
     </g>
    </g>
    <g id="xtick_22">
     <g id="line2d_22">
      <g>
       <use xlink:href="#m2823063670" x="192.165148" y="512.64" style="stroke: #000000; stroke-width: 2"/>
      </g>
     </g>
    </g>
    <g id="xtick_23">
     <g id="line2d_23">
      <g>
       <use xlink:href="#m2823063670" x="213.745956" y="512.64" style="stroke: #000000; stroke-width: 2"/>
      </g>
     </g>
    </g>
    <g id="xtick_24">
     <g id="line2d_24">
      <g>
       <use xlink:href="#m2823063670" x="224.536359" y="512.64" style="stroke: #000000; stroke-width: 2"/>
      </g>
     </g>
    </g>
    <g id="xtick_25">
     <g id="line2d_25">
      <g>
       <use xlink:href="#m2823063670" x="235.326763" y="512.64" style="stroke: #000000; stroke-width: 2"/>
      </g>
     </g>
    </g>
    <g id="xtick_26">
     <g id="line2d_26">
      <g>
       <use xlink:href="#m2823063670" x="256.90757" y="512.64" style="stroke: #000000; stroke-width: 2"/>
      </g>
     </g>
    </g>
    <g id="xtick_27">
     <g id="line2d_27">
      <g>
       <use xlink:href="#m2823063670" x="267.697974" y="512.64" style="stroke: #000000; stroke-width: 2"/>
      </g>
     </g>
    </g>
    <g id="xtick_28">
     <g id="line2d_28">
      <g>
       <use xlink:href="#m2823063670" x="278.488377" y="512.64" style="stroke: #000000; stroke-width: 2"/>
      </g>
     </g>
    </g>
    <g id="xtick_29">
     <g id="line2d_29">
      <g>
       <use xlink:href="#m2823063670" x="300.069185" y="512.64" style="stroke: #000000; stroke-width: 2"/>
      </g>
     </g>
    </g>
    <g id="xtick_30">
     <g id="line2d_30">
      <g>
       <use xlink:href="#m2823063670" x="310.859588" y="512.64" style="stroke: #000000; stroke-width: 2"/>
      </g>
     </g>
    </g>
    <g id="xtick_31">
     <g id="line2d_31">
      <g>
       <use xlink:href="#m2823063670" x="321.649992" y="512.64" style="stroke: #000000; stroke-width: 2"/>
      </g>
     </g>
    </g>
    <g id="xtick_32">
     <g id="line2d_32">
      <g>
       <use xlink:href="#m2823063670" x="343.230799" y="512.64" style="stroke: #000000; stroke-width: 2"/>
      </g>
     </g>
    </g>
    <g id="xtick_33">
     <g id="line2d_33">
      <g>
       <use xlink:href="#m2823063670" x="354.021203" y="512.64" style="stroke: #000000; stroke-width: 2"/>
      </g>
     </g>
    </g>
    <g id="xtick_34">
     <g id="line2d_34">
      <g>
       <use xlink:href="#m2823063670" x="364.811607" y="512.64" style="stroke: #000000; stroke-width: 2"/>
      </g>
     </g>
    </g>
    <g id="xtick_35">
     <g id="line2d_35">
      <g>
       <use xlink:href="#m2823063670" x="386.392414" y="512.64" style="stroke: #000000; stroke-width: 2"/>
      </g>
     </g>
    </g>
    <g id="xtick_36">
     <g id="line2d_36">
      <g>
       <use xlink:href="#m2823063670" x="397.182817" y="512.64" style="stroke: #000000; stroke-width: 2"/>
      </g>
     </g>
    </g>
    <g id="xtick_37">
     <g id="line2d_37">
      <g>
       <use xlink:href="#m2823063670" x="407.973221" y="512.64" style="stroke: #000000; stroke-width: 2"/>
      </g>
     </g>
    </g>
    <g id="xtick_38">
     <g id="line2d_38">
      <g>
       <use xlink:href="#m2823063670" x="429.554028" y="512.64" style="stroke: #000000; stroke-width: 2"/>
      </g>
     </g>
    </g>
    <g id="xtick_39">
     <g id="line2d_39">
      <g>
       <use xlink:href="#m2823063670" x="440.344432" y="512.64" style="stroke: #000000; stroke-width: 2"/>
      </g>
     </g>
    </g>
    <g id="xtick_40">
     <g id="line2d_40">
      <g>
       <use xlink:href="#m2823063670" x="451.134836" y="512.64" style="stroke: #000000; stroke-width: 2"/>
      </g>
     </g>
    </g>
    <g id="xtick_41">
     <g id="line2d_41">
      <g>
       <use xlink:href="#m2823063670" x="472.715643" y="512.64" style="stroke: #000000; stroke-width: 2"/>
      </g>
     </g>
    </g>
    <g id="xtick_42">
     <g id="line2d_42">
      <g>
       <use xlink:href="#m2823063670" x="483.506047" y="512.64" style="stroke: #000000; stroke-width: 2"/>
      </g>
     </g>
    </g>
    <g id="xtick_43">
     <g id="line2d_43">
      <g>
       <use xlink:href="#m2823063670" x="494.29645" y="512.64" style="stroke: #000000; stroke-width: 2"/>
      </g>
     </g>
    </g>
    <g id="xtick_44">
     <g id="line2d_44">
      <g>
       <use xlink:href="#m2823063670" x="515.877257" y="512.64" style="stroke: #000000; stroke-width: 2"/>
      </g>
     </g>
    </g>
    <g id="xtick_45">
     <g id="line2d_45">
      <g>
       <use xlink:href="#m2823063670" x="526.667661" y="512.64" style="stroke: #000000; stroke-width: 2"/>
      </g>
     </g>
    </g>
    <g id="xtick_46">
     <g id="line2d_46">
      <g>
       <use xlink:href="#m2823063670" x="537.458065" y="512.64" style="stroke: #000000; stroke-width: 2"/>
      </g>
     </g>
    </g>
    <g id="xtick_47">
     <g id="line2d_47">
      <g>
       <use xlink:href="#m2823063670" x="559.038872" y="512.64" style="stroke: #000000; stroke-width: 2"/>
      </g>
     </g>
    </g>
    <g id="xtick_48">
     <g id="line2d_48">
      <g>
       <use xlink:href="#m2823063670" x="569.829276" y="512.64" style="stroke: #000000; stroke-width: 2"/>
      </g>
     </g>
    </g>
    <g id="xtick_49">
     <g id="line2d_49">
      <g>
       <use xlink:href="#m2823063670" x="580.619679" y="512.64" style="stroke: #000000; stroke-width: 2"/>
      </g>
     </g>
    </g>
    <g id="xtick_50">
     <g id="line2d_50">
      <g>
       <use xlink:href="#m2823063670" x="602.200487" y="512.64" style="stroke: #000000; stroke-width: 2"/>
      </g>
     </g>
    </g>
    <g id="xtick_51">
     <g id="line2d_51">
      <g>
       <use xlink:href="#m2823063670" x="612.99089" y="512.64" style="stroke: #000000; stroke-width: 2"/>
      </g>
     </g>
    </g>
    <g id="xtick_52">
     <g id="line2d_52">
      <g>
       <use xlink:href="#m2823063670" x="623.781294" y="512.64" style="stroke: #000000; stroke-width: 2"/>
      </g>
     </g>
    </g>
    <g id="xtick_53">
     <g id="line2d_53">
      <g>
       <use xlink:href="#m2823063670" x="645.362101" y="512.64" style="stroke: #000000; stroke-width: 2"/>
      </g>
     </g>
    </g>
    <g id="xtick_54">
     <g id="line2d_54">
      <g>
       <use xlink:href="#m2823063670" x="656.152505" y="512.64" style="stroke: #000000; stroke-width: 2"/>
      </g>
     </g>
    </g>
    <g id="xtick_55">
     <g id="line2d_55">
      <g>
       <use xlink:href="#m2823063670" x="666.942908" y="512.64" style="stroke: #000000; stroke-width: 2"/>
      </g>
     </g>
    </g>
    <g id="xtick_56">
     <g id="line2d_56">
      <g>
       <use xlink:href="#m2823063670" x="688.523716" y="512.64" style="stroke: #000000; stroke-width: 2"/>
      </g>
     </g>
    </g>
    <g id="xtick_57">
     <g id="line2d_57">
      <g>
       <use xlink:href="#m2823063670" x="699.314119" y="512.64" style="stroke: #000000; stroke-width: 2"/>
      </g>
     </g>
    </g>
    <g id="xtick_58">
     <g id="line2d_58">
      <g>
       <use xlink:href="#m2823063670" x="710.104523" y="512.64" style="stroke: #000000; stroke-width: 2"/>
      </g>
     </g>
    </g>
    <g id="xtick_59">
     <g id="line2d_59">
      <g>
       <use xlink:href="#m2823063670" x="731.68533" y="512.64" style="stroke: #000000; stroke-width: 2"/>
      </g>
     </g>
    </g>
    <g id="xtick_60">
     <g id="line2d_60">
      <g>
       <use xlink:href="#m2823063670" x="742.475734" y="512.64" style="stroke: #000000; stroke-width: 2"/>
      </g>
     </g>
    </g>
    <g id="xtick_61">
     <g id="line2d_61">
      <g>
       <use xlink:href="#m2823063670" x="753.266137" y="512.64" style="stroke: #000000; stroke-width: 2"/>
      </g>
     </g>
    </g>
    <g id="xtick_62">
     <g id="line2d_62">
      <g>
       <use xlink:href="#m2823063670" x="774.846945" y="512.64" style="stroke: #000000; stroke-width: 2"/>
      </g>
     </g>
    </g>
    <g id="text_17">
     <!-- Distance from Rim µm -->
     <g transform="translate(344.457812 556.873438) scale(0.2 -0.2)">
      <defs>
       <path id="Avenir-Book-44" d="M 1011 422 
L 1907 422 
Q 2426 422 2806 579 
Q 3187 736 3440 995 
Q 3693 1254 3814 1584 
Q 3936 1914 3936 2266 
Q 3936 2618 3814 2947 
Q 3693 3277 3440 3536 
Q 3187 3795 2806 3952 
Q 2426 4109 1907 4109 
L 1011 4109 
L 1011 422 
z
M 550 4531 
L 2054 4531 
Q 2477 4531 2902 4390 
Q 3328 4250 3670 3965 
Q 4013 3680 4224 3254 
Q 4435 2829 4435 2266 
Q 4435 1696 4224 1273 
Q 4013 851 3670 566 
Q 3328 282 2902 141 
Q 2477 0 2054 0 
L 550 0 
L 550 4531 
z
" transform="scale(0.015625)"/>
       <path id="Avenir-Book-69" d="M 1075 4147 
Q 1075 4013 979 3926 
Q 883 3840 768 3840 
Q 653 3840 557 3926 
Q 461 4013 461 4147 
Q 461 4282 557 4368 
Q 653 4454 768 4454 
Q 883 4454 979 4368 
Q 1075 4282 1075 4147 
z
M 979 0 
L 557 0 
L 557 2995 
L 979 2995 
L 979 0 
z
" transform="scale(0.015625)"/>
       <path id="Avenir-Book-73" d="M 2048 2285 
Q 1952 2470 1792 2579 
Q 1632 2688 1402 2688 
Q 1293 2688 1181 2662 
Q 1069 2637 979 2582 
Q 890 2528 835 2445 
Q 781 2362 781 2240 
Q 781 2029 928 1933 
Q 1075 1837 1370 1766 
L 1798 1664 
Q 2112 1594 2320 1379 
Q 2528 1165 2528 845 
Q 2528 602 2429 426 
Q 2330 250 2166 138 
Q 2003 26 1792 -25 
Q 1581 -77 1363 -77 
Q 1018 -77 720 54 
Q 422 186 211 506 
L 576 755 
Q 704 550 899 428 
Q 1094 307 1363 307 
Q 1491 307 1619 336 
Q 1747 365 1846 425 
Q 1946 486 2006 582 
Q 2067 678 2067 806 
Q 2067 1030 1900 1129 
Q 1734 1229 1498 1286 
L 1088 1382 
Q 1011 1402 880 1446 
Q 749 1491 624 1580 
Q 499 1670 409 1814 
Q 320 1958 320 2170 
Q 320 2400 413 2573 
Q 506 2746 662 2854 
Q 819 2963 1017 3017 
Q 1216 3072 1427 3072 
Q 1741 3072 2009 2950 
Q 2278 2829 2426 2534 
L 2048 2285 
z
" transform="scale(0.015625)"/>
       <path id="Avenir-Book-74" d="M 2010 2611 
L 1146 2611 
L 1146 845 
Q 1146 678 1178 572 
Q 1210 467 1267 409 
Q 1325 352 1405 329 
Q 1485 307 1581 307 
Q 1690 307 1805 339 
Q 1920 371 2016 422 
L 2035 32 
Q 1798 -77 1466 -77 
Q 1344 -77 1213 -45 
Q 1082 -13 973 76 
Q 864 166 793 320 
Q 723 474 723 723 
L 723 2611 
L 90 2611 
L 90 2995 
L 723 2995 
L 723 3840 
L 1146 3840 
L 1146 2995 
L 2010 2995 
L 2010 2611 
z
" transform="scale(0.015625)"/>
       <path id="Avenir-Book-61" d="M 2163 1491 
Q 2003 1491 1763 1475 
Q 1523 1459 1302 1398 
Q 1082 1338 925 1210 
Q 768 1082 768 858 
Q 768 710 829 604 
Q 890 499 992 432 
Q 1094 365 1219 336 
Q 1344 307 1472 307 
Q 1702 307 1872 384 
Q 2042 461 2157 592 
Q 2272 723 2326 899 
Q 2381 1075 2381 1274 
L 2381 1491 
L 2163 1491 
z
M 2381 1837 
L 2381 1914 
Q 2381 2688 1613 2688 
Q 1088 2688 698 2336 
L 442 2637 
Q 864 3072 1709 3072 
Q 1926 3072 2128 3008 
Q 2330 2944 2477 2813 
Q 2624 2682 2713 2483 
Q 2803 2285 2803 2010 
L 2803 672 
Q 2803 499 2819 310 
Q 2835 122 2854 0 
L 2445 0 
Q 2426 109 2416 237 
Q 2406 365 2406 486 
L 2394 486 
Q 2208 186 1955 54 
Q 1702 -77 1338 -77 
Q 1139 -77 953 -22 
Q 768 32 624 144 
Q 480 256 393 419 
Q 307 582 307 800 
Q 307 1165 496 1373 
Q 685 1581 969 1683 
Q 1254 1786 1577 1811 
Q 1901 1837 2170 1837 
L 2381 1837 
z
" transform="scale(0.015625)"/>
       <path id="Avenir-Book-6e" d="M 864 2995 
Q 877 2874 880 2755 
Q 883 2637 883 2515 
L 896 2515 
Q 966 2637 1075 2739 
Q 1184 2842 1318 2915 
Q 1453 2989 1603 3030 
Q 1754 3072 1901 3072 
Q 2477 3072 2752 2768 
Q 3027 2464 3027 1901 
L 3027 0 
L 2605 0 
L 2605 1658 
Q 2605 2157 2432 2422 
Q 2259 2688 1792 2688 
Q 1760 2688 1613 2662 
Q 1466 2637 1302 2521 
Q 1139 2406 1011 2176 
Q 883 1946 883 1536 
L 883 0 
L 461 0 
L 461 2336 
Q 461 2458 451 2643 
Q 442 2829 429 2995 
L 864 2995 
z
" transform="scale(0.015625)"/>
       <path id="Avenir-Book-63" d="M 2643 2291 
Q 2534 2458 2339 2573 
Q 2144 2688 1894 2688 
Q 1632 2694 1424 2604 
Q 1216 2515 1069 2355 
Q 922 2195 845 1974 
Q 768 1754 768 1498 
Q 768 1242 845 1021 
Q 922 800 1069 640 
Q 1216 480 1424 390 
Q 1632 301 1894 307 
Q 2144 307 2339 422 
Q 2534 538 2643 704 
L 2989 442 
Q 2765 179 2483 54 
Q 2202 -70 1894 -77 
Q 1530 -83 1235 35 
Q 941 154 733 365 
Q 525 576 416 867 
Q 307 1158 307 1498 
Q 307 1837 416 2128 
Q 525 2419 733 2630 
Q 941 2842 1235 2960 
Q 1530 3078 1894 3072 
Q 2202 3066 2483 2941 
Q 2765 2816 2989 2554 
L 2643 2291 
z
" transform="scale(0.015625)"/>
       <path id="Avenir-Book-65" d="M 2790 1728 
Q 2790 2157 2534 2422 
Q 2278 2688 1818 2688 
Q 1613 2688 1421 2608 
Q 1229 2528 1085 2393 
Q 941 2259 854 2086 
Q 768 1914 768 1728 
L 2790 1728 
z
M 755 1382 
Q 774 1158 864 960 
Q 954 762 1101 618 
Q 1248 474 1440 390 
Q 1632 307 1856 307 
Q 2195 307 2441 464 
Q 2688 621 2816 826 
L 3142 557 
Q 2874 218 2550 70 
Q 2227 -77 1856 -77 
Q 1523 -77 1238 41 
Q 954 160 749 371 
Q 544 582 425 870 
Q 307 1158 307 1498 
Q 307 1837 422 2125 
Q 538 2413 742 2624 
Q 947 2835 1222 2953 
Q 1498 3072 1818 3072 
Q 2157 3072 2425 2950 
Q 2694 2829 2876 2627 
Q 3059 2426 3155 2154 
Q 3251 1882 3251 1574 
L 3251 1382 
L 755 1382 
z
" transform="scale(0.015625)"/>
       <path id="Avenir-Book-20" transform="scale(0.015625)"/>
       <path id="Avenir-Book-66" d="M 1856 2611 
L 1146 2611 
L 1146 0 
L 723 0 
L 723 2611 
L 90 2611 
L 90 2995 
L 723 2995 
L 723 3814 
Q 723 4410 998 4662 
Q 1274 4915 1728 4915 
Q 1818 4915 1910 4902 
Q 2003 4890 2093 4870 
L 2016 4486 
Q 1939 4506 1856 4518 
Q 1773 4531 1690 4531 
Q 1517 4531 1408 4473 
Q 1299 4416 1241 4310 
Q 1184 4205 1165 4064 
Q 1146 3923 1146 3763 
L 1146 2995 
L 1856 2995 
L 1856 2611 
z
" transform="scale(0.015625)"/>
       <path id="Avenir-Book-72" d="M 506 2061 
Q 506 2259 496 2464 
Q 486 2669 480 2995 
L 896 2995 
L 896 2438 
L 909 2438 
Q 954 2560 1037 2672 
Q 1120 2784 1238 2873 
Q 1357 2963 1513 3017 
Q 1670 3072 1869 3072 
Q 2048 3072 2182 3034 
L 2099 2618 
Q 2016 2650 1856 2650 
Q 1613 2650 1440 2557 
Q 1267 2464 1152 2320 
Q 1037 2176 982 2009 
Q 928 1843 928 1690 
L 928 0 
L 506 0 
L 506 2061 
z
" transform="scale(0.015625)"/>
       <path id="Avenir-Book-6f" d="M 3027 1498 
Q 3027 1747 2947 1964 
Q 2867 2182 2720 2342 
Q 2573 2502 2365 2595 
Q 2157 2688 1894 2688 
Q 1632 2688 1424 2595 
Q 1216 2502 1072 2342 
Q 928 2182 848 1964 
Q 768 1747 768 1498 
Q 768 1248 848 1030 
Q 928 813 1072 653 
Q 1216 493 1424 400 
Q 1632 307 1894 307 
Q 2157 307 2365 400 
Q 2573 493 2720 653 
Q 2867 813 2947 1030 
Q 3027 1248 3027 1498 
z
M 3488 1498 
Q 3488 1158 3369 870 
Q 3251 582 3040 371 
Q 2829 160 2537 41 
Q 2246 -77 1894 -77 
Q 1549 -77 1257 41 
Q 966 160 755 371 
Q 544 582 425 870 
Q 307 1158 307 1498 
Q 307 1837 425 2125 
Q 544 2413 755 2624 
Q 966 2835 1257 2953 
Q 1549 3072 1894 3072 
Q 2246 3072 2537 2953 
Q 2829 2835 3040 2624 
Q 3251 2413 3369 2125 
Q 3488 1837 3488 1498 
z
" transform="scale(0.015625)"/>
       <path id="Avenir-Book-6d" d="M 461 2330 
Q 461 2496 451 2662 
Q 442 2829 429 2995 
L 883 2995 
L 883 2541 
L 896 2541 
Q 1050 2803 1322 2937 
Q 1594 3072 1862 3072 
Q 1984 3072 2121 3046 
Q 2259 3021 2387 2953 
Q 2515 2886 2627 2764 
Q 2739 2643 2816 2451 
Q 2944 2739 3222 2905 
Q 3501 3072 3802 3072 
Q 4378 3072 4653 2768 
Q 4928 2464 4928 1901 
L 4928 0 
L 4506 0 
L 4506 1747 
Q 4506 2202 4346 2445 
Q 4186 2688 3750 2688 
Q 3514 2688 3354 2595 
Q 3194 2502 3094 2348 
Q 2995 2195 2950 2000 
Q 2906 1805 2906 1594 
L 2906 0 
L 2483 0 
L 2483 1747 
Q 2483 2202 2323 2445 
Q 2163 2688 1728 2688 
Q 1690 2688 1552 2662 
Q 1414 2637 1267 2521 
Q 1120 2406 1001 2176 
Q 883 1946 883 1536 
L 883 0 
L 461 0 
L 461 2330 
z
" transform="scale(0.015625)"/>
       <path id="Avenir-Book-52" d="M 1075 2528 
L 1894 2528 
Q 2202 2528 2416 2592 
Q 2630 2656 2758 2761 
Q 2886 2867 2944 3011 
Q 3002 3155 3002 3322 
Q 3002 3482 2944 3626 
Q 2886 3770 2758 3878 
Q 2630 3987 2416 4048 
Q 2202 4109 1894 4109 
L 1075 4109 
L 1075 2528 
z
M 1075 0 
L 614 0 
L 614 4531 
L 2010 4531 
Q 2701 4531 3101 4230 
Q 3501 3930 3501 3322 
Q 3501 2848 3203 2525 
Q 2906 2202 2342 2150 
L 3648 0 
L 3085 0 
L 1843 2106 
L 1075 2106 
L 1075 0 
z
" transform="scale(0.015625)"/>
       <path id="Avenir-Book-b5" d="M 461 2995 
L 883 2995 
L 883 1338 
Q 883 787 1059 547 
Q 1235 307 1696 307 
Q 1888 307 2054 384 
Q 2221 461 2342 608 
Q 2464 755 2534 969 
Q 2605 1184 2605 1459 
L 2605 2995 
L 3027 2995 
L 3027 659 
Q 3027 493 3036 329 
Q 3046 166 3059 0 
L 2605 0 
L 2605 486 
L 2592 486 
Q 2522 371 2413 268 
Q 2304 166 2169 89 
Q 2035 13 1884 -32 
Q 1734 -77 1587 -77 
Q 1146 -77 883 109 
L 883 -1459 
L 461 -1459 
L 461 2995 
z
" transform="scale(0.015625)"/>
      </defs>
      <use xlink:href="#Avenir-Book-44"/>
      <use xlink:href="#Avenir-Book-69" transform="translate(74.099991 0)"/>
      <use xlink:href="#Avenir-Book-73" transform="translate(98.099976 0)"/>
      <use xlink:href="#Avenir-Book-74" transform="translate(140.699966 0)"/>
      <use xlink:href="#Avenir-Book-61" transform="translate(173.899963 0)"/>
      <use xlink:href="#Avenir-Book-6e" transform="translate(225.799957 0)"/>
      <use xlink:href="#Avenir-Book-63" transform="translate(281.399948 0)"/>
      <use xlink:href="#Avenir-Book-65" transform="translate(329.599945 0)"/>
      <use xlink:href="#Avenir-Book-20" transform="translate(385.199936 0)"/>
      <use xlink:href="#Avenir-Book-66" transform="translate(412.999924 0)"/>
      <use xlink:href="#Avenir-Book-72" transform="translate(442.599915 0)"/>
      <use xlink:href="#Avenir-Book-6f" transform="translate(474.049911 0)"/>
      <use xlink:href="#Avenir-Book-6d" transform="translate(533.349899 0)"/>
      <use xlink:href="#Avenir-Book-20" transform="translate(618.549881 0)"/>
      <use xlink:href="#Avenir-Book-52" transform="translate(646.349869 0)"/>
      <use xlink:href="#Avenir-Book-69" transform="translate(705.649857 0)"/>
      <use xlink:href="#Avenir-Book-6d" transform="translate(729.649841 0)"/>
      <use xlink:href="#Avenir-Book-20" transform="translate(814.849823 0)"/>
      <use xlink:href="#Avenir-Book-b5" transform="translate(842.649811 0)"/>
      <use xlink:href="#Avenir-Book-6d" transform="translate(898.249802 0)"/>
     </g>
    </g>
   </g>
   <g id="matplotlib.axis_2">
    <g id="ytick_1">
     <g id="line2d_63">
      <defs>
       <path id="m58b0521a38" d="M 0 0 
L -7 0 
" style="stroke: #000000; stroke-width: 2"/>
      </defs>
      <g>
       <use xlink:href="#m58b0521a38" x="108" y="496.614281" style="stroke: #000000; stroke-width: 2"/>
      </g>
     </g>
     <g id="text_18">
      <!-- 89.5 -->
      <g transform="translate(70.259062 501.905843) scale(0.14 -0.14)">
       <defs>
        <path id="Avenir-Book-2e" d="M 1235 307 
Q 1235 173 1139 67 
Q 1043 -38 890 -38 
Q 736 -38 640 67 
Q 544 173 544 307 
Q 544 442 640 547 
Q 736 653 890 653 
Q 1043 653 1139 547 
Q 1235 442 1235 307 
z
" transform="scale(0.015625)"/>
       </defs>
       <use xlink:href="#Avenir-Book-38"/>
       <use xlink:href="#Avenir-Book-39" transform="translate(55.599991 0)"/>
       <use xlink:href="#Avenir-Book-2e" transform="translate(111.199982 0)"/>
       <use xlink:href="#Avenir-Book-35" transform="translate(138.999969 0)"/>
      </g>
     </g>
    </g>
    <g id="ytick_2">
     <g id="line2d_64">
      <g>
       <use xlink:href="#m58b0521a38" x="108" y="445.697496" style="stroke: #000000; stroke-width: 2"/>
      </g>
     </g>
     <g id="text_19">
      <!-- 89.8 -->
      <g transform="translate(70.259062 450.989058) scale(0.14 -0.14)">
       <use xlink:href="#Avenir-Book-38"/>
       <use xlink:href="#Avenir-Book-39" transform="translate(55.599991 0)"/>
       <use xlink:href="#Avenir-Book-2e" transform="translate(111.199982 0)"/>
       <use xlink:href="#Avenir-Book-38" transform="translate(138.999969 0)"/>
      </g>
     </g>
    </g>
    <g id="ytick_3">
     <g id="line2d_65">
      <g>
       <use xlink:href="#m58b0521a38" x="108" y="394.78071" style="stroke: #000000; stroke-width: 2"/>
      </g>
     </g>
     <g id="text_20">
      <!-- 90.0 -->
      <g transform="translate(70.259062 400.072273) scale(0.14 -0.14)">
       <use xlink:href="#Avenir-Book-39"/>
       <use xlink:href="#Avenir-Book-30" transform="translate(55.599991 0)"/>
       <use xlink:href="#Avenir-Book-2e" transform="translate(111.199982 0)"/>
       <use xlink:href="#Avenir-Book-30" transform="translate(138.999969 0)"/>
      </g>
     </g>
    </g>
    <g id="ytick_4">
     <g id="line2d_66">
      <g>
       <use xlink:href="#m58b0521a38" x="108" y="343.863925" style="stroke: #000000; stroke-width: 2"/>
      </g>
     </g>
     <g id="text_21">
      <!-- 90.2 -->
      <g transform="translate(70.259062 349.155488) scale(0.14 -0.14)">
       <use xlink:href="#Avenir-Book-39"/>
       <use xlink:href="#Avenir-Book-30" transform="translate(55.599991 0)"/>
       <use xlink:href="#Avenir-Book-2e" transform="translate(111.199982 0)"/>
       <use xlink:href="#Avenir-Book-32" transform="translate(138.999969 0)"/>
      </g>
     </g>
    </g>
    <g id="ytick_5">
     <g id="line2d_67">
      <g>
       <use xlink:href="#m58b0521a38" x="108" y="292.94714" style="stroke: #000000; stroke-width: 2"/>
      </g>
     </g>
     <g id="text_22">
      <!-- 90.5 -->
      <g transform="translate(70.259062 298.238703) scale(0.14 -0.14)">
       <use xlink:href="#Avenir-Book-39"/>
       <use xlink:href="#Avenir-Book-30" transform="translate(55.599991 0)"/>
       <use xlink:href="#Avenir-Book-2e" transform="translate(111.199982 0)"/>
       <use xlink:href="#Avenir-Book-35" transform="translate(138.999969 0)"/>
      </g>
     </g>
    </g>
    <g id="ytick_6">
     <g id="line2d_68">
      <g>
       <use xlink:href="#m58b0521a38" x="108" y="242.030355" style="stroke: #000000; stroke-width: 2"/>
      </g>
     </g>
     <g id="text_23">
      <!-- 90.8 -->
      <g transform="translate(70.259062 247.321918) scale(0.14 -0.14)">
       <use xlink:href="#Avenir-Book-39"/>
       <use xlink:href="#Avenir-Book-30" transform="translate(55.599991 0)"/>
       <use xlink:href="#Avenir-Book-2e" transform="translate(111.199982 0)"/>
       <use xlink:href="#Avenir-Book-38" transform="translate(138.999969 0)"/>
      </g>
     </g>
    </g>
    <g id="ytick_7">
     <g id="line2d_69">
      <g>
       <use xlink:href="#m58b0521a38" x="108" y="191.11357" style="stroke: #000000; stroke-width: 2"/>
      </g>
     </g>
     <g id="text_24">
      <!-- 91.0 -->
      <g transform="translate(70.259062 196.405133) scale(0.14 -0.14)">
       <use xlink:href="#Avenir-Book-39"/>
       <use xlink:href="#Avenir-Book-31" transform="translate(55.599991 0)"/>
       <use xlink:href="#Avenir-Book-2e" transform="translate(111.199982 0)"/>
       <use xlink:href="#Avenir-Book-30" transform="translate(138.999969 0)"/>
      </g>
     </g>
    </g>
    <g id="ytick_8">
     <g id="line2d_70">
      <g>
       <use xlink:href="#m58b0521a38" x="108" y="140.196785" style="stroke: #000000; stroke-width: 2"/>
      </g>
     </g>
     <g id="text_25">
      <!-- 91.2 -->
      <g transform="translate(70.259062 145.488348) scale(0.14 -0.14)">
       <use xlink:href="#Avenir-Book-39"/>
       <use xlink:href="#Avenir-Book-31" transform="translate(55.599991 0)"/>
       <use xlink:href="#Avenir-Book-2e" transform="translate(111.199982 0)"/>
       <use xlink:href="#Avenir-Book-32" transform="translate(138.999969 0)"/>
      </g>
     </g>
    </g>
    <g id="ytick_9">
     <g id="line2d_71">
      <g>
       <use xlink:href="#m58b0521a38" x="108" y="89.28" style="stroke: #000000; stroke-width: 2"/>
      </g>
     </g>
     <g id="text_26">
      <!-- 91.5 -->
      <g transform="translate(70.259062 94.571562) scale(0.14 -0.14)">
       <use xlink:href="#Avenir-Book-39"/>
       <use xlink:href="#Avenir-Book-31" transform="translate(55.599991 0)"/>
       <use xlink:href="#Avenir-Book-2e" transform="translate(111.199982 0)"/>
       <use xlink:href="#Avenir-Book-35" transform="translate(138.999969 0)"/>
      </g>
     </g>
    </g>
    <g id="ytick_10">
     <g id="line2d_72">
      <defs>
       <path id="m95989bab9c" d="M 0 0 
L -4 0 
" style="stroke: #000000; stroke-width: 2"/>
      </defs>
      <g>
       <use xlink:href="#m95989bab9c" x="108" y="506.797638" style="stroke: #000000; stroke-width: 2"/>
      </g>
     </g>
    </g>
    <g id="ytick_11">
     <g id="line2d_73">
      <g>
       <use xlink:href="#m95989bab9c" x="108" y="486.430924" style="stroke: #000000; stroke-width: 2"/>
      </g>
     </g>
    </g>
    <g id="ytick_12">
     <g id="line2d_74">
      <g>
       <use xlink:href="#m95989bab9c" x="108" y="476.247567" style="stroke: #000000; stroke-width: 2"/>
      </g>
     </g>
    </g>
    <g id="ytick_13">
     <g id="line2d_75">
      <g>
       <use xlink:href="#m95989bab9c" x="108" y="466.06421" style="stroke: #000000; stroke-width: 2"/>
      </g>
     </g>
    </g>
    <g id="ytick_14">
     <g id="line2d_76">
      <g>
       <use xlink:href="#m95989bab9c" x="108" y="455.880853" style="stroke: #000000; stroke-width: 2"/>
      </g>
     </g>
    </g>
    <g id="ytick_15">
     <g id="line2d_77">
      <g>
       <use xlink:href="#m95989bab9c" x="108" y="435.514139" style="stroke: #000000; stroke-width: 2"/>
      </g>
     </g>
    </g>
    <g id="ytick_16">
     <g id="line2d_78">
      <g>
       <use xlink:href="#m95989bab9c" x="108" y="425.330782" style="stroke: #000000; stroke-width: 2"/>
      </g>
     </g>
    </g>
    <g id="ytick_17">
     <g id="line2d_79">
      <g>
       <use xlink:href="#m95989bab9c" x="108" y="415.147424" style="stroke: #000000; stroke-width: 2"/>
      </g>
     </g>
    </g>
    <g id="ytick_18">
     <g id="line2d_80">
      <g>
       <use xlink:href="#m95989bab9c" x="108" y="404.964067" style="stroke: #000000; stroke-width: 2"/>
      </g>
     </g>
    </g>
    <g id="ytick_19">
     <g id="line2d_81">
      <g>
       <use xlink:href="#m95989bab9c" x="108" y="384.597353" style="stroke: #000000; stroke-width: 2"/>
      </g>
     </g>
    </g>
    <g id="ytick_20">
     <g id="line2d_82">
      <g>
       <use xlink:href="#m95989bab9c" x="108" y="374.413996" style="stroke: #000000; stroke-width: 2"/>
      </g>
     </g>
    </g>
    <g id="ytick_21">
     <g id="line2d_83">
      <g>
       <use xlink:href="#m95989bab9c" x="108" y="364.230639" style="stroke: #000000; stroke-width: 2"/>
      </g>
     </g>
    </g>
    <g id="ytick_22">
     <g id="line2d_84">
      <g>
       <use xlink:href="#m95989bab9c" x="108" y="354.047282" style="stroke: #000000; stroke-width: 2"/>
      </g>
     </g>
    </g>
    <g id="ytick_23">
     <g id="line2d_85">
      <g>
       <use xlink:href="#m95989bab9c" x="108" y="333.680568" style="stroke: #000000; stroke-width: 2"/>
      </g>
     </g>
    </g>
    <g id="ytick_24">
     <g id="line2d_86">
      <g>
       <use xlink:href="#m95989bab9c" x="108" y="323.497211" style="stroke: #000000; stroke-width: 2"/>
      </g>
     </g>
    </g>
    <g id="ytick_25">
     <g id="line2d_87">
      <g>
       <use xlink:href="#m95989bab9c" x="108" y="313.313854" style="stroke: #000000; stroke-width: 2"/>
      </g>
     </g>
    </g>
    <g id="ytick_26">
     <g id="line2d_88">
      <g>
       <use xlink:href="#m95989bab9c" x="108" y="303.130497" style="stroke: #000000; stroke-width: 2"/>
      </g>
     </g>
    </g>
    <g id="ytick_27">
     <g id="line2d_89">
      <g>
       <use xlink:href="#m95989bab9c" x="108" y="282.763783" style="stroke: #000000; stroke-width: 2"/>
      </g>
     </g>
    </g>
    <g id="ytick_28">
     <g id="line2d_90">
      <g>
       <use xlink:href="#m95989bab9c" x="108" y="272.580426" style="stroke: #000000; stroke-width: 2"/>
      </g>
     </g>
    </g>
    <g id="ytick_29">
     <g id="line2d_91">
      <g>
       <use xlink:href="#m95989bab9c" x="108" y="262.397069" style="stroke: #000000; stroke-width: 2"/>
      </g>
     </g>
    </g>
    <g id="ytick_30">
     <g id="line2d_92">
      <g>
       <use xlink:href="#m95989bab9c" x="108" y="252.213712" style="stroke: #000000; stroke-width: 2"/>
      </g>
     </g>
    </g>
    <g id="ytick_31">
     <g id="line2d_93">
      <g>
       <use xlink:href="#m95989bab9c" x="108" y="231.846998" style="stroke: #000000; stroke-width: 2"/>
      </g>
     </g>
    </g>
    <g id="ytick_32">
     <g id="line2d_94">
      <g>
       <use xlink:href="#m95989bab9c" x="108" y="221.663641" style="stroke: #000000; stroke-width: 2"/>
      </g>
     </g>
    </g>
    <g id="ytick_33">
     <g id="line2d_95">
      <g>
       <use xlink:href="#m95989bab9c" x="108" y="211.480284" style="stroke: #000000; stroke-width: 2"/>
      </g>
     </g>
    </g>
    <g id="ytick_34">
     <g id="line2d_96">
      <g>
       <use xlink:href="#m95989bab9c" x="108" y="201.296927" style="stroke: #000000; stroke-width: 2"/>
      </g>
     </g>
    </g>
    <g id="ytick_35">
     <g id="line2d_97">
      <g>
       <use xlink:href="#m95989bab9c" x="108" y="180.930213" style="stroke: #000000; stroke-width: 2"/>
      </g>
     </g>
    </g>
    <g id="ytick_36">
     <g id="line2d_98">
      <g>
       <use xlink:href="#m95989bab9c" x="108" y="170.746856" style="stroke: #000000; stroke-width: 2"/>
      </g>
     </g>
    </g>
    <g id="ytick_37">
     <g id="line2d_99">
      <g>
       <use xlink:href="#m95989bab9c" x="108" y="160.563499" style="stroke: #000000; stroke-width: 2"/>
      </g>
     </g>
    </g>
    <g id="ytick_38">
     <g id="line2d_100">
      <g>
       <use xlink:href="#m95989bab9c" x="108" y="150.380142" style="stroke: #000000; stroke-width: 2"/>
      </g>
     </g>
    </g>
    <g id="ytick_39">
     <g id="line2d_101">
      <g>
       <use xlink:href="#m95989bab9c" x="108" y="130.013428" style="stroke: #000000; stroke-width: 2"/>
      </g>
     </g>
    </g>
    <g id="ytick_40">
     <g id="line2d_102">
      <g>
       <use xlink:href="#m95989bab9c" x="108" y="119.830071" style="stroke: #000000; stroke-width: 2"/>
      </g>
     </g>
    </g>
    <g id="ytick_41">
     <g id="line2d_103">
      <g>
       <use xlink:href="#m95989bab9c" x="108" y="109.646714" style="stroke: #000000; stroke-width: 2"/>
      </g>
     </g>
    </g>
    <g id="ytick_42">
     <g id="line2d_104">
      <g>
       <use xlink:href="#m95989bab9c" x="108" y="99.463357" style="stroke: #000000; stroke-width: 2"/>
      </g>
     </g>
    </g>
    <g id="ytick_43">
     <g id="line2d_105">
      <g>
       <use xlink:href="#m95989bab9c" x="108" y="79.096643" style="stroke: #000000; stroke-width: 2"/>
      </g>
     </g>
    </g>
    <g id="text_27">
     <!-- Fo# -->
     <g transform="translate(60.499688 307.928437) rotate(-90) scale(0.2 -0.2)">
      <defs>
       <path id="Avenir-Book-46" d="M 1075 0 
L 614 0 
L 614 4531 
L 3347 4531 
L 3347 4109 
L 1075 4109 
L 1075 2566 
L 3187 2566 
L 3187 2144 
L 1075 2144 
L 1075 0 
z
" transform="scale(0.015625)"/>
       <path id="Avenir-Book-23" d="M 1318 1754 
L 2170 1754 
L 2310 2790 
L 1459 2790 
L 1318 1754 
z
M 877 1370 
L 224 1370 
L 224 1754 
L 928 1754 
L 1069 2790 
L 378 2790 
L 378 3174 
L 1126 3174 
L 1312 4531 
L 1702 4531 
L 1517 3174 
L 2368 3174 
L 2554 4531 
L 2944 4531 
L 2758 3174 
L 3334 3174 
L 3334 2790 
L 2701 2790 
L 2560 1754 
L 3168 1754 
L 3168 1370 
L 2509 1370 
L 2317 0 
L 1926 0 
L 2118 1370 
L 1267 1370 
L 1075 0 
L 685 0 
L 877 1370 
z
" transform="scale(0.015625)"/>
      </defs>
      <use xlink:href="#Avenir-Book-46"/>
      <use xlink:href="#Avenir-Book-6f" transform="translate(55.599991 0)"/>
      <use xlink:href="#Avenir-Book-23" transform="translate(114.899979 0)"/>
     </g>
    </g>
   </g>
   <g id="line2d_106">
    <path d="M 125.264646 257.921757 
L 146.7286 204.2543 
L 168.192555 195.325732 
L 189.547742 229.237682 
L 211.011697 247.797428 
L 232.475652 283.733339 
L 253.939606 257.968806 
L 275.294794 342.217457 
L 296.342443 321.244354 
L 317.806398 402.505508 
L 339.270352 442.74517 
L 360.62554 431.082996 
L 382.089494 455.207865 
L 403.553449 478.381115 
L 425.017404 465.706399 
L 446.372591 469.927643 
L 467.836546 451.324487 
L 489.3005 462.973883 
L 510.764455 470.224741 
L 532.119642 457.466553 
L 553.583597 467.137786 
L 575.047551 450.920859 
L 596.095201 448.84623 
L 617.450388 472.951491 
L 638.914343 457.017087 
L 660.378298 444.176571 
L 681.842252 442.943642 
L 703.19744 443.964264 
L 724.661394 472.503787 
L 746.125349 472.434761 
" clip-path="url(#pe05d1cb0c4)" style="fill: none; stroke-dasharray: 7.4,3.2; stroke-dashoffset: 0; stroke: #f47e1f; stroke-width: 2"/>
    <defs>
     <path id="mf5436ce31f" d="M 0 6 
C 1.591219 6 3.117479 5.367802 4.242641 4.242641 
C 5.367802 3.117479 6 1.591219 6 0 
C 6 -1.591219 5.367802 -3.117479 4.242641 -4.242641 
C 3.117479 -5.367802 1.591219 -6 0 -6 
C -1.591219 -6 -3.117479 -5.367802 -4.242641 -4.242641 
C -5.367802 -3.117479 -6 -1.591219 -6 0 
C -6 1.591219 -5.367802 3.117479 -4.242641 4.242641 
C -3.117479 5.367802 -1.591219 6 0 6 
z
" style="stroke: #f47e1f"/>
    </defs>
    <g clip-path="url(#pe05d1cb0c4)">
     <use xlink:href="#mf5436ce31f" x="125.264646" y="257.921757" style="fill: #f47e1f; stroke: #f47e1f"/>
     <use xlink:href="#mf5436ce31f" x="146.7286" y="204.2543" style="fill: #f47e1f; stroke: #f47e1f"/>
     <use xlink:href="#mf5436ce31f" x="168.192555" y="195.325732" style="fill: #f47e1f; stroke: #f47e1f"/>
     <use xlink:href="#mf5436ce31f" x="189.547742" y="229.237682" style="fill: #f47e1f; stroke: #f47e1f"/>
     <use xlink:href="#mf5436ce31f" x="211.011697" y="247.797428" style="fill: #f47e1f; stroke: #f47e1f"/>
     <use xlink:href="#mf5436ce31f" x="232.475652" y="283.733339" style="fill: #f47e1f; stroke: #f47e1f"/>
     <use xlink:href="#mf5436ce31f" x="253.939606" y="257.968806" style="fill: #f47e1f; stroke: #f47e1f"/>
     <use xlink:href="#mf5436ce31f" x="275.294794" y="342.217457" style="fill: #f47e1f; stroke: #f47e1f"/>
     <use xlink:href="#mf5436ce31f" x="296.342443" y="321.244354" style="fill: #f47e1f; stroke: #f47e1f"/>
     <use xlink:href="#mf5436ce31f" x="317.806398" y="402.505508" style="fill: #f47e1f; stroke: #f47e1f"/>
     <use xlink:href="#mf5436ce31f" x="339.270352" y="442.74517" style="fill: #f47e1f; stroke: #f47e1f"/>
     <use xlink:href="#mf5436ce31f" x="360.62554" y="431.082996" style="fill: #f47e1f; stroke: #f47e1f"/>
     <use xlink:href="#mf5436ce31f" x="382.089494" y="455.207865" style="fill: #f47e1f; stroke: #f47e1f"/>
     <use xlink:href="#mf5436ce31f" x="403.553449" y="478.381115" style="fill: #f47e1f; stroke: #f47e1f"/>
     <use xlink:href="#mf5436ce31f" x="425.017404" y="465.706399" style="fill: #f47e1f; stroke: #f47e1f"/>
     <use xlink:href="#mf5436ce31f" x="446.372591" y="469.927643" style="fill: #f47e1f; stroke: #f47e1f"/>
     <use xlink:href="#mf5436ce31f" x="467.836546" y="451.324487" style="fill: #f47e1f; stroke: #f47e1f"/>
     <use xlink:href="#mf5436ce31f" x="489.3005" y="462.973883" style="fill: #f47e1f; stroke: #f47e1f"/>
     <use xlink:href="#mf5436ce31f" x="510.764455" y="470.224741" style="fill: #f47e1f; stroke: #f47e1f"/>
     <use xlink:href="#mf5436ce31f" x="532.119642" y="457.466553" style="fill: #f47e1f; stroke: #f47e1f"/>
     <use xlink:href="#mf5436ce31f" x="553.583597" y="467.137786" style="fill: #f47e1f; stroke: #f47e1f"/>
     <use xlink:href="#mf5436ce31f" x="575.047551" y="450.920859" style="fill: #f47e1f; stroke: #f47e1f"/>
     <use xlink:href="#mf5436ce31f" x="596.095201" y="448.84623" style="fill: #f47e1f; stroke: #f47e1f"/>
     <use xlink:href="#mf5436ce31f" x="617.450388" y="472.951491" style="fill: #f47e1f; stroke: #f47e1f"/>
     <use xlink:href="#mf5436ce31f" x="638.914343" y="457.017087" style="fill: #f47e1f; stroke: #f47e1f"/>
     <use xlink:href="#mf5436ce31f" x="660.378298" y="444.176571" style="fill: #f47e1f; stroke: #f47e1f"/>
     <use xlink:href="#mf5436ce31f" x="681.842252" y="442.943642" style="fill: #f47e1f; stroke: #f47e1f"/>
     <use xlink:href="#mf5436ce31f" x="703.19744" y="443.964264" style="fill: #f47e1f; stroke: #f47e1f"/>
     <use xlink:href="#mf5436ce31f" x="724.661394" y="472.503787" style="fill: #f47e1f; stroke: #f47e1f"/>
     <use xlink:href="#mf5436ce31f" x="746.125349" y="472.434761" style="fill: #f47e1f; stroke: #f47e1f"/>
    </g>
   </g>
   <g id="line2d_107">
    <path d="M 116.632323 218.592967 
L 123.212389 231.012738 
L 125.405745 234.439902 
L 127.5991 227.828145 
L 129.792456 221.832756 
L 131.985811 216.453736 
L 134.179167 211.691084 
L 136.372522 207.5448 
L 138.565878 204.014884 
L 140.759233 201.101337 
L 142.952589 198.804158 
L 145.145944 197.123347 
L 147.3393 195.22489 
L 149.532655 191.789901 
L 151.726011 188.984557 
L 153.919366 186.808858 
L 156.112722 185.262805 
L 158.306077 184.346396 
L 160.499433 184.059632 
L 162.692788 184.402513 
L 164.886144 185.37504 
L 167.079499 186.977211 
L 169.272855 187.905365 
L 171.46621 188.121925 
L 173.659566 188.970748 
L 175.852921 190.451834 
L 178.046277 192.565183 
L 180.239632 195.310794 
L 182.432988 198.688669 
L 184.626343 202.698807 
L 186.819699 207.341207 
L 189.013054 212.615871 
L 191.20641 213.466795 
L 193.399765 213.318085 
L 195.593121 213.799309 
L 197.786476 214.910469 
L 199.979832 216.651563 
L 202.173187 219.022593 
L 204.366543 222.023557 
L 206.559898 225.654457 
L 208.753254 229.915292 
L 210.946609 234.806062 
L 213.139964 235.023681 
L 215.33332 235.709005 
L 217.526675 237.024216 
L 219.720031 238.969313 
L 221.913386 241.544296 
L 224.106742 244.749166 
L 226.300097 248.583921 
L 228.493453 253.048563 
L 230.686808 258.143091 
L 232.880164 262.097407 
L 235.073519 258.853876 
L 237.266875 256.240284 
L 239.46023 254.256631 
L 241.653586 252.902918 
L 243.846941 252.179145 
L 246.040297 252.08531 
L 248.233652 252.621416 
L 250.427008 253.78746 
L 252.620363 255.583445 
L 254.813719 258.229051 
L 257.007074 261.837918 
L 259.20043 266.079254 
L 261.393785 270.953059 
L 263.587141 276.459333 
L 265.780496 282.598075 
L 267.973852 289.369286 
L 270.167207 296.772965 
L 272.360563 304.809114 
L 274.553918 313.477731 
L 276.747274 314.848303 
L 278.940629 312.811743 
L 281.133985 311.414348 
L 283.32734 310.656119 
L 285.520696 310.537054 
L 287.714051 311.057154 
L 289.907407 312.216419 
L 292.100762 314.014848 
L 294.294118 316.452443 
L 296.487473 319.534445 
L 298.680829 323.324809 
L 300.874184 327.745258 
L 303.06754 332.79579 
L 305.260895 338.476407 
L 307.454251 344.787109 
L 309.647606 351.727894 
L 311.840962 359.298763 
L 314.034317 367.499717 
L 316.227673 376.330755 
L 318.421028 383.321735 
L 320.614384 384.597956 
L 322.807739 386.504116 
L 325.001095 389.040216 
L 327.19445 392.206255 
L 329.387805 396.002234 
L 331.581161 400.428151 
L 333.774516 405.484009 
L 335.967872 411.169805 
L 338.161227 417.485542 
L 340.354583 419.472538 
L 342.547938 417.018684 
L 344.741294 415.197099 
L 346.934649 414.007783 
L 349.128005 413.450736 
L 351.32136 413.525958 
L 353.514716 414.23345 
L 355.708071 415.573211 
L 357.901427 417.545241 
L 360.094782 420.149541 
L 362.288138 420.25642 
L 364.481493 419.994413 
L 366.674849 420.362342 
L 368.868204 421.360205 
L 371.06156 422.988004 
L 373.254915 425.245738 
L 375.448271 428.133407 
L 377.641626 431.651012 
L 379.834982 435.798551 
L 382.028337 440.576026 
L 384.221693 439.853972 
L 386.415048 439.585995 
L 388.608404 439.947905 
L 390.801759 440.9397 
L 392.995115 442.561382 
L 395.18847 444.81295 
L 397.381826 447.694404 
L 399.575181 451.205744 
L 401.768537 455.346971 
L 403.961892 458.498253 
L 406.155248 455.200732 
L 408.348603 452.533147 
L 410.541959 450.495496 
L 412.735314 449.087781 
L 414.92867 448.31 
L 417.122025 448.162155 
L 419.315381 448.644245 
L 421.508736 449.756271 
L 423.702092 451.498231 
L 425.895447 451.678094 
L 428.088803 449.205856 
L 430.282158 447.365886 
L 432.475514 446.158186 
L 434.668869 445.582755 
L 436.862225 445.639593 
L 439.05558 446.3287 
L 441.248936 447.650077 
L 443.442291 449.603723 
L 445.635646 452.189638 
L 447.829002 450.466609 
L 450.022357 446.873651 
L 452.215713 443.910628 
L 454.409068 441.577541 
L 456.602424 439.874389 
L 458.795779 438.801172 
L 460.989135 438.35789 
L 463.18249 438.544544 
L 465.375846 439.361132 
L 467.569201 440.807656 
L 471.955912 437.749473 
L 474.149268 436.910775 
L 476.342623 436.701962 
L 478.535979 437.123036 
L 480.729334 438.173996 
L 482.92269 439.854843 
L 485.116045 442.165575 
L 489.502756 448.087624 
L 491.696112 445.899864 
L 493.889467 444.342038 
L 496.082823 443.414148 
L 498.276178 443.116193 
L 500.469534 443.448173 
L 502.662889 444.410089 
L 504.856245 446.001939 
L 507.0496 448.223725 
L 509.242956 451.075446 
L 511.436311 452.266533 
L 513.629667 448.901816 
L 515.823022 446.169368 
L 518.016378 444.069189 
L 520.209733 442.601279 
L 522.403089 441.765639 
L 524.596444 441.562267 
L 526.7898 441.991166 
L 528.983155 443.052333 
L 531.176511 444.74577 
L 533.369866 444.257614 
L 535.563222 442.277206 
L 537.756577 440.926737 
L 539.949933 440.206208 
L 542.143288 440.115618 
L 544.336644 440.654967 
L 546.529999 441.824256 
L 548.723355 443.623484 
L 550.91671 446.052652 
L 553.110066 449.111759 
L 555.303421 446.74395 
L 557.496777 443.338534 
L 559.690132 440.563201 
L 561.883487 438.417953 
L 564.076843 436.90279 
L 566.270198 436.01771 
L 568.463554 435.762715 
L 570.656909 436.137804 
L 572.850265 437.142977 
L 575.04362 438.778234 
L 577.236976 435.95306 
L 579.430331 433.757903 
L 581.623687 432.201911 
L 583.817042 431.285084 
L 586.010398 431.007421 
L 588.203753 431.368924 
L 590.397109 432.369591 
L 592.590464 434.009424 
L 594.78382 436.288421 
L 596.977175 437.409524 
L 599.170531 436.493106 
L 601.363886 436.209157 
L 603.557242 436.557676 
L 605.750597 437.538664 
L 607.943953 439.152121 
L 610.137308 441.398047 
L 612.330664 444.276441 
L 614.524019 447.787304 
L 616.717375 451.930635 
L 618.91073 450.815438 
L 621.104086 447.373635 
L 623.297441 444.561772 
L 625.490797 442.379849 
L 627.684152 440.827864 
L 629.877508 439.90582 
L 632.070863 439.613715 
L 634.264219 439.951549 
L 636.457574 440.919323 
L 638.65093 442.517036 
L 643.037641 435.962727 
L 645.230996 433.258613 
L 647.424352 431.184386 
L 649.617707 429.740045 
L 651.811063 428.925591 
L 654.004418 428.741022 
L 656.197774 429.18634 
L 658.391129 430.261545 
L 660.584485 431.473872 
L 662.77784 428.567007 
L 664.971196 426.290077 
L 667.164551 424.643083 
L 669.357907 423.626023 
L 671.551262 423.238899 
L 673.744618 423.481709 
L 675.937973 424.354455 
L 678.131329 425.857135 
L 680.324684 427.989751 
L 682.518039 429.026298 
L 684.711395 426.81834 
L 686.90475 425.242644 
L 689.098106 424.299211 
L 691.291461 423.988041 
L 693.484817 424.309134 
L 695.678172 425.262489 
L 697.871528 426.848108 
L 700.064883 429.06599 
L 702.258239 431.916134 
L 704.451594 432.913852 
L 706.64495 432.681061 
L 708.838305 433.077916 
L 711.031661 434.104416 
L 713.225016 435.760561 
L 715.418372 438.046351 
L 717.611727 440.961786 
L 719.805083 444.506866 
L 721.998438 448.681591 
L 724.191794 453.485961 
L 726.385149 452.588012 
L 728.578505 450.582845 
L 730.77186 449.194046 
L 732.965216 448.421616 
L 735.158571 448.265553 
L 737.351927 448.725859 
L 739.545282 449.802533 
L 741.738638 451.495576 
L 743.931993 453.804987 
L 746.125349 472.434761 
L 746.125349 472.434761 
" clip-path="url(#pe05d1cb0c4)" style="fill: none; stroke-dasharray: 3.7,1.6; stroke-dashoffset: 0; stroke: #000000"/>
   </g>
   <g id="line2d_108">
    <path d="M 116.632323 281.379644 
L 125.405745 265.013876 
L 127.5991 263.560473 
L 129.792456 261.490702 
L 131.985811 258.804563 
L 134.179167 255.502056 
L 136.372522 251.58318 
L 138.565878 247.047936 
L 140.759233 241.896324 
L 142.952589 236.128343 
L 145.145944 229.743994 
L 147.3393 225.351476 
L 149.532655 227.093373 
L 151.726011 228.205625 
L 153.919366 228.688232 
L 156.112722 228.541194 
L 158.306077 227.76451 
L 160.499433 226.358182 
L 162.692788 224.322208 
L 164.886144 221.65659 
L 167.079499 218.361327 
L 169.272855 219.201087 
L 171.46621 224.318389 
L 173.659566 228.803428 
L 175.852921 232.656204 
L 178.046277 235.876717 
L 180.239632 238.464967 
L 182.432988 240.420954 
L 184.626343 241.744679 
L 186.819699 242.43614 
L 189.013054 242.495339 
L 191.20641 246.185141 
L 193.399765 250.618903 
L 195.593121 254.42273 
L 197.786476 257.596622 
L 199.979832 260.140579 
L 202.173187 262.054601 
L 204.366543 263.338688 
L 206.559898 263.99284 
L 208.753254 264.017056 
L 210.946609 263.411338 
L 213.139964 268.834629 
L 215.33332 273.83168 
L 217.526675 278.198845 
L 219.720031 281.936124 
L 221.913386 285.043516 
L 224.106742 287.521022 
L 226.300097 289.368642 
L 228.493453 290.586376 
L 230.686808 291.174223 
L 232.880164 291.635655 
L 235.073519 293.693624 
L 237.266875 295.121654 
L 239.46023 295.919744 
L 241.653586 296.087895 
L 243.846941 295.626106 
L 246.040297 294.534378 
L 248.233652 292.81271 
L 250.427008 290.461103 
L 252.620363 287.479557 
L 254.813719 288.997432 
L 257.007074 297.625016 
L 259.20043 305.620131 
L 261.393785 312.982778 
L 263.587141 319.712956 
L 265.780496 325.810666 
L 267.973852 331.275906 
L 270.167207 336.108678 
L 272.360563 340.308981 
L 274.553918 343.876816 
L 276.747274 347.020503 
L 278.940629 349.632415 
L 281.133985 351.605162 
L 283.32734 352.938744 
L 285.520696 353.633162 
L 287.714051 353.688415 
L 289.907407 353.104502 
L 292.100762 351.881425 
L 294.294118 350.019183 
L 296.487473 348.336452 
L 298.680829 357.581951 
L 300.874184 366.197365 
L 303.06754 374.182695 
L 305.260895 381.537941 
L 307.454251 388.263103 
L 309.647606 394.35818 
L 311.840962 399.823174 
L 314.034317 404.658083 
L 316.227673 408.862907 
L 318.421028 413.421903 
L 320.614384 419.879043 
L 322.807739 425.706244 
L 325.001095 430.903505 
L 327.19445 435.470827 
L 329.387805 439.40821 
L 331.581161 442.715653 
L 333.774516 445.393156 
L 335.967872 447.44072 
L 338.161227 448.858345 
L 340.354583 450.777416 
L 342.547938 453.22217 
L 344.741294 455.034654 
L 346.934649 456.214869 
L 349.128005 456.762814 
L 351.32136 456.678491 
L 353.514716 455.961898 
L 355.708071 454.613036 
L 357.901427 452.631904 
L 360.094782 450.018503 
L 362.288138 452.984089 
L 364.481493 457.3023 
L 366.674849 460.990576 
L 368.868204 464.048916 
L 371.06156 466.477322 
L 373.254915 468.275792 
L 375.448271 469.444327 
L 377.641626 469.982927 
L 379.834982 469.891592 
L 382.028337 469.170321 
L 384.221693 473.673774 
L 386.415048 477.715267 
L 388.608404 481.126874 
L 390.801759 483.908595 
L 392.995115 486.060429 
L 395.18847 487.582378 
L 397.381826 488.47444 
L 399.575181 488.736616 
L 403.961892 488.047144 
L 406.155248 490.048886 
L 408.348603 491.420693 
L 410.541959 492.162564 
L 412.735314 492.274501 
L 414.92867 491.756502 
L 417.122025 490.608568 
L 419.315381 488.830699 
L 421.508736 486.422895 
L 423.702092 483.385156 
L 425.895447 482.457464 
L 428.088803 485.002705 
L 430.282158 486.915676 
L 432.475514 488.196379 
L 434.668869 488.844812 
L 436.862225 488.860976 
L 439.05558 488.244871 
L 441.248936 486.996497 
L 443.442291 485.115854 
L 445.635646 482.602941 
L 447.829002 482.698929 
L 450.022357 483.804624 
L 452.215713 484.280383 
L 454.409068 484.126207 
L 456.602424 483.342096 
L 458.795779 481.92805 
L 460.989135 479.884068 
L 463.18249 477.210152 
L 465.375846 473.9063 
L 467.569201 469.972513 
L 469.762557 472.567967 
L 471.955912 475.527278 
L 474.149268 477.856702 
L 476.342623 479.55624 
L 478.535979 480.625892 
L 480.729334 481.065658 
L 482.92269 480.875538 
L 485.116045 480.055532 
L 489.502756 477.073572 
L 491.696112 480.303509 
L 493.889467 482.903511 
L 496.082823 484.873577 
L 498.276178 486.213709 
L 500.469534 486.923905 
L 502.662889 487.004166 
L 504.856245 486.454492 
L 507.0496 485.274882 
L 509.242956 483.465338 
L 511.436311 482.509209 
L 513.629667 484.280844 
L 515.823022 485.420209 
L 518.016378 485.927306 
L 520.209733 485.802132 
L 522.403089 485.04469 
L 524.596444 483.654979 
L 526.7898 481.632998 
L 528.983155 478.978748 
L 531.176511 475.692228 
L 533.369866 475.983431 
L 535.563222 478.820086 
L 537.756577 481.026802 
L 539.949933 482.603578 
L 542.143288 483.550414 
L 544.336644 483.867311 
L 546.529999 483.554269 
L 548.723355 482.611287 
L 550.91671 481.038366 
L 553.110066 478.835506 
L 555.303421 479.611633 
L 557.496777 480.751363 
L 559.690132 481.261009 
L 561.883487 481.14057 
L 564.076843 480.390048 
L 566.270198 479.009441 
L 568.463554 476.99875 
L 570.656909 474.357974 
L 572.850265 471.087115 
L 575.04362 467.186171 
L 577.236976 469.834882 
L 579.430331 471.857326 
L 581.623687 473.240606 
L 583.817042 473.984721 
L 586.010398 474.089671 
L 588.203753 473.555455 
L 590.397109 472.382076 
L 592.590464 470.569531 
L 594.78382 468.117821 
L 596.977175 468.174813 
L 599.170531 472.277804 
L 601.363886 475.748326 
L 603.557242 478.58638 
L 605.750597 480.791964 
L 607.943953 482.36508 
L 610.137308 483.305727 
L 612.330664 483.613906 
L 614.524019 483.289616 
L 616.717375 482.332857 
L 618.91073 483.056807 
L 621.104086 484.311487 
L 623.297441 484.936227 
L 625.490797 484.931028 
L 627.684152 484.29589 
L 629.877508 483.030812 
L 632.070863 481.135794 
L 634.264219 478.610837 
L 636.457574 475.455941 
L 638.65093 471.671105 
L 643.037641 473.747328 
L 645.230996 474.209081 
L 647.424352 474.040948 
L 649.617707 473.242929 
L 651.811063 471.815024 
L 654.004418 469.757232 
L 656.197774 467.069554 
L 660.584485 460.470656 
L 662.77784 462.979231 
L 664.971196 464.857872 
L 667.164551 466.106577 
L 669.357907 466.725348 
L 671.551262 466.714183 
L 673.744618 466.073083 
L 675.937973 464.802049 
L 678.131329 462.901079 
L 680.324684 460.370174 
L 682.518039 459.279335 
L 684.711395 462.205494 
L 686.90475 464.49939 
L 689.098106 466.161023 
L 691.291461 467.190394 
L 693.484817 467.587501 
L 695.678172 467.352345 
L 697.871528 466.484927 
L 700.064883 464.985245 
L 702.258239 462.853301 
L 704.451594 464.65092 
L 706.64495 469.234554 
L 708.838305 473.188543 
L 711.031661 476.512887 
L 713.225016 479.207586 
L 715.418372 481.27264 
L 717.611727 482.708049 
L 719.805083 483.513813 
L 721.998438 483.689932 
L 724.191794 483.236406 
L 726.385149 485.54834 
L 728.578505 488.167408 
L 730.77186 490.170109 
L 732.965216 491.556441 
L 735.158571 492.326404 
L 737.351927 492.48 
L 739.545282 492.017227 
L 741.738638 490.938086 
L 743.931993 489.242577 
L 746.125349 472.434761 
L 746.125349 472.434761 
" clip-path="url(#pe05d1cb0c4)" style="fill: none; stroke-dasharray: 3.7,1.6; stroke-dashoffset: 0; stroke: #000000"/>
   </g>
   <g id="line2d_109">
    <path d="M 116.632323 89.28 
L 248.233652 89.28 
L 250.427008 466.06421 
L 548.723355 466.06421 
L 548.723355 466.06421 
" clip-path="url(#pe05d1cb0c4)" style="fill: none; stroke-dasharray: 7.4,3.2; stroke-dashoffset: 0; stroke: #1b878c; stroke-width: 2"/>
   </g>
   <g id="line2d_110">
    <path d="M 116.632323 250.245725 
L 125.405745 242.480368 
L 131.985811 236.954374 
L 136.372522 233.510667 
L 140.759233 230.318397 
L 145.145944 227.426051 
L 149.532655 224.879462 
L 153.919366 222.721234 
L 158.306077 220.990202 
L 160.499433 220.295862 
L 162.692788 219.720919 
L 164.886144 219.268948 
L 167.079499 218.943205 
L 169.272855 218.746613 
L 171.46621 218.681755 
L 173.659566 218.750866 
L 175.852921 218.955823 
L 178.046277 219.298147 
L 180.239632 219.77899 
L 182.432988 220.399141 
L 184.626343 221.159022 
L 186.819699 222.058686 
L 189.013054 223.097826 
L 191.20641 224.275772 
L 193.399765 225.591501 
L 195.593121 227.043642 
L 199.979832 230.349986 
L 204.366543 234.177223 
L 208.753254 238.502864 
L 213.139964 243.299942 
L 217.526675 248.537507 
L 221.913386 254.181163 
L 226.300097 260.193635 
L 230.686808 266.535357 
L 237.266875 276.574697 
L 243.846941 287.118382 
L 252.620363 301.711212 
L 278.940629 346.096626 
L 285.520696 356.70871 
L 292.100762 366.935127 
L 298.680829 376.704431 
L 305.260895 385.959532 
L 309.647606 391.822081 
L 314.034317 397.427195 
L 318.421028 402.767921 
L 322.807739 407.839675 
L 327.19445 412.640097 
L 331.581161 417.168883 
L 335.967872 421.427621 
L 340.354583 425.419613 
L 344.741294 429.149702 
L 349.128005 432.624088 
L 353.514716 435.850158 
L 357.901427 438.836311 
L 362.288138 441.59179 
L 366.674849 444.126525 
L 371.06156 446.450975 
L 375.448271 448.575988 
L 379.834982 450.512667 
L 384.221693 452.272243 
L 388.608404 453.865963 
L 395.18847 455.969938 
L 401.768537 457.762663 
L 408.348603 459.279531 
L 414.92867 460.554021 
L 421.508736 461.617363 
L 430.282158 462.756027 
L 439.05558 463.631082 
L 447.829002 464.295155 
L 458.795779 464.895717 
L 471.955912 465.370812 
L 487.309401 465.699688 
L 509.242956 465.928925 
L 546.529999 466.056117 
L 548.723355 466.060186 
L 548.723355 466.060186 
" clip-path="url(#pe05d1cb0c4)" style="fill: none; stroke: #1fbecf; stroke-opacity: 0.8; stroke-width: 6; stroke-linecap: square"/>
   </g>
   <g id="patch_3">
    <path d="M 108 512.64 
L 108 69.12 
" style="fill: none; stroke: #000000; stroke-width: 2; stroke-linejoin: miter; stroke-linecap: square"/>
   </g>
   <g id="patch_4">
    <path d="M 777.6 512.64 
L 777.6 69.12 
" style="fill: none; stroke: #000000; stroke-width: 2; stroke-linejoin: miter; stroke-linecap: square"/>
   </g>
   <g id="patch_5">
    <path d="M 108 512.64 
L 777.6 512.64 
" style="fill: none; stroke: #000000; stroke-width: 2; stroke-linejoin: miter; stroke-linecap: square"/>
   </g>
   <g id="patch_6">
    <path d="M 108 69.12 
L 777.6 69.12 
" style="fill: none; stroke: #000000; stroke-width: 2; stroke-linejoin: miter; stroke-linecap: square"/>
   </g>
   <g id="text_28">
    <!-- AZ18 WHT01_Ol_191_prof_1 -->
    <g transform="translate(332.794125 42.799875) scale(0.168 -0.168)">
     <defs>
      <path id="Avenir-Book-41" d="M 1210 1613 
L 3174 1613 
L 2195 3994 
L 1210 1613 
z
M 538 0 
L 0 0 
L 1971 4531 
L 2419 4531 
L 4390 0 
L 3853 0 
L 3354 1190 
L 1037 1190 
L 538 0 
z
" transform="scale(0.015625)"/>
      <path id="Avenir-Book-5a" d="M 3373 4147 
L 730 422 
L 3411 422 
L 3411 0 
L 147 0 
L 147 384 
L 2797 4109 
L 186 4109 
L 186 4531 
L 3373 4531 
L 3373 4147 
z
" transform="scale(0.015625)"/>
      <path id="Avenir-Book-57" d="M 1600 653 
L 1613 653 
L 2752 4531 
L 3302 4531 
L 4442 653 
L 4454 653 
L 5530 4531 
L 6042 4531 
L 4704 0 
L 4166 0 
L 3027 3878 
L 3014 3878 
L 1875 0 
L 1338 0 
L 0 4531 
L 512 4531 
L 1600 653 
z
" transform="scale(0.015625)"/>
      <path id="Avenir-Book-48" d="M 614 4531 
L 1075 4531 
L 1075 2566 
L 3546 2566 
L 3546 4531 
L 4006 4531 
L 4006 0 
L 3546 0 
L 3546 2144 
L 1075 2144 
L 1075 0 
L 614 0 
L 614 4531 
z
" transform="scale(0.015625)"/>
      <path id="Avenir-Book-54" d="M 2067 0 
L 1606 0 
L 1606 4109 
L 90 4109 
L 90 4531 
L 3584 4531 
L 3584 4109 
L 2067 4109 
L 2067 0 
z
" transform="scale(0.015625)"/>
      <path id="Avenir-Book-5f" d="M 0 -480 
L 3200 -480 
L 3200 -800 
L 0 -800 
L 0 -480 
z
" transform="scale(0.015625)"/>
      <path id="Avenir-Book-4f" d="M 4531 2266 
Q 4531 2656 4403 3011 
Q 4275 3366 4035 3635 
Q 3795 3904 3449 4064 
Q 3104 4224 2669 4224 
Q 2234 4224 1888 4064 
Q 1542 3904 1302 3635 
Q 1062 3366 934 3011 
Q 806 2656 806 2266 
Q 806 1875 934 1520 
Q 1062 1165 1302 896 
Q 1542 627 1888 467 
Q 2234 307 2669 307 
Q 3104 307 3449 467 
Q 3795 627 4035 896 
Q 4275 1165 4403 1520 
Q 4531 1875 4531 2266 
z
M 5030 2266 
Q 5030 1747 4851 1312 
Q 4672 877 4355 560 
Q 4038 243 3606 64 
Q 3174 -115 2669 -115 
Q 2163 -115 1731 64 
Q 1299 243 982 560 
Q 666 877 486 1312 
Q 307 1747 307 2266 
Q 307 2784 486 3219 
Q 666 3654 982 3971 
Q 1299 4288 1731 4467 
Q 2163 4646 2669 4646 
Q 3174 4646 3606 4467 
Q 4038 4288 4355 3971 
Q 4672 3654 4851 3219 
Q 5030 2784 5030 2266 
z
" transform="scale(0.015625)"/>
      <path id="Avenir-Book-6c" d="M 979 0 
L 557 0 
L 557 4838 
L 979 4838 
L 979 0 
z
" transform="scale(0.015625)"/>
      <path id="Avenir-Book-70" d="M 3194 1498 
Q 3194 1747 3114 1964 
Q 3034 2182 2886 2342 
Q 2739 2502 2531 2595 
Q 2323 2688 2061 2688 
Q 1798 2688 1580 2595 
Q 1363 2502 1203 2342 
Q 1043 2182 953 1964 
Q 864 1747 864 1498 
Q 864 1248 953 1030 
Q 1043 813 1203 653 
Q 1363 493 1580 400 
Q 1798 307 2061 307 
Q 2323 307 2531 400 
Q 2739 493 2886 653 
Q 3034 813 3114 1030 
Q 3194 1248 3194 1498 
z
M 461 2995 
L 883 2995 
L 883 2496 
L 896 2496 
Q 998 2650 1139 2758 
Q 1280 2867 1433 2937 
Q 1587 3008 1750 3040 
Q 1914 3072 2061 3072 
Q 2413 3072 2704 2953 
Q 2995 2835 3206 2624 
Q 3418 2413 3536 2125 
Q 3654 1837 3654 1498 
Q 3654 1158 3536 870 
Q 3418 582 3206 371 
Q 2995 160 2704 41 
Q 2413 -77 2061 -77 
Q 1914 -77 1750 -45 
Q 1587 -13 1433 57 
Q 1280 128 1139 237 
Q 998 346 896 499 
L 883 499 
L 883 -1843 
L 461 -1843 
L 461 2995 
z
" transform="scale(0.015625)"/>
     </defs>
     <use xlink:href="#Avenir-Book-41"/>
     <use xlink:href="#Avenir-Book-5a" transform="translate(68.599991 0)"/>
     <use xlink:href="#Avenir-Book-31" transform="translate(124.199982 0)"/>
     <use xlink:href="#Avenir-Book-38" transform="translate(179.799973 0)"/>
     <use xlink:href="#Avenir-Book-20" transform="translate(235.399963 0)"/>
     <use xlink:href="#Avenir-Book-57" transform="translate(263.199951 0)"/>
     <use xlink:href="#Avenir-Book-48" transform="translate(357.599945 0)"/>
     <use xlink:href="#Avenir-Book-54" transform="translate(429.799927 0)"/>
     <use xlink:href="#Avenir-Book-30" transform="translate(487.199921 0)"/>
     <use xlink:href="#Avenir-Book-31" transform="translate(542.799911 0)"/>
     <use xlink:href="#Avenir-Book-5f" transform="translate(598.399902 0)"/>
     <use xlink:href="#Avenir-Book-4f" transform="translate(648.399887 0)"/>
     <use xlink:href="#Avenir-Book-6c" transform="translate(731.799881 0)"/>
     <use xlink:href="#Avenir-Book-5f" transform="translate(755.799866 0)"/>
     <use xlink:href="#Avenir-Book-31" transform="translate(805.79985 0)"/>
     <use xlink:href="#Avenir-Book-39" transform="translate(861.399841 0)"/>
     <use xlink:href="#Avenir-Book-31" transform="translate(916.999832 0)"/>
     <use xlink:href="#Avenir-Book-5f" transform="translate(972.599823 0)"/>
     <use xlink:href="#Avenir-Book-70" transform="translate(1022.599808 0)"/>
     <use xlink:href="#Avenir-Book-72" transform="translate(1083.699799 0)"/>
     <use xlink:href="#Avenir-Book-6f" transform="translate(1115.149796 0)"/>
     <use xlink:href="#Avenir-Book-66" transform="translate(1174.449783 0)"/>
     <use xlink:href="#Avenir-Book-5f" transform="translate(1204.049774 0)"/>
     <use xlink:href="#Avenir-Book-31" transform="translate(1254.049759 0)"/>
    </g>
    <!-- Best fit time: 25.9±2.6 days Temperature: 1250.0 ˚C -->
    <g transform="translate(249.750937 63.12) scale(0.168 -0.168)">
     <defs>
      <path id="Avenir-Book-42" d="M 1075 422 
L 1958 422 
Q 2208 422 2425 473 
Q 2643 525 2803 630 
Q 2963 736 3056 896 
Q 3149 1056 3149 1280 
Q 3149 1728 2861 1945 
Q 2573 2163 2016 2163 
L 1075 2163 
L 1075 422 
z
M 1075 2547 
L 2003 2547 
Q 2170 2547 2333 2588 
Q 2496 2630 2627 2726 
Q 2758 2822 2841 2972 
Q 2925 3123 2925 3341 
Q 2925 3411 2896 3539 
Q 2867 3667 2768 3795 
Q 2669 3923 2477 4016 
Q 2285 4109 1958 4109 
L 1075 4109 
L 1075 2547 
z
M 614 4531 
L 1965 4531 
Q 2246 4531 2508 4473 
Q 2771 4416 2976 4281 
Q 3181 4147 3302 3929 
Q 3424 3712 3424 3392 
Q 3424 3021 3216 2755 
Q 3008 2490 2624 2400 
L 2624 2387 
Q 3104 2349 3376 2051 
Q 3648 1754 3648 1254 
Q 3648 1146 3593 934 
Q 3539 723 3366 515 
Q 3194 307 2867 153 
Q 2541 0 1997 0 
L 614 0 
L 614 4531 
z
" transform="scale(0.015625)"/>
      <path id="Avenir-Book-3a" d="M 1235 307 
Q 1235 173 1139 67 
Q 1043 -38 890 -38 
Q 736 -38 640 67 
Q 544 173 544 307 
Q 544 442 640 547 
Q 736 653 890 653 
Q 1043 653 1139 547 
Q 1235 442 1235 307 
z
M 1235 2682 
Q 1235 2547 1139 2441 
Q 1043 2336 890 2336 
Q 736 2336 640 2441 
Q 544 2547 544 2682 
Q 544 2816 640 2921 
Q 736 3027 890 3027 
Q 1043 3027 1139 2921 
Q 1235 2816 1235 2682 
z
" transform="scale(0.015625)"/>
      <path id="Avenir-Book-b1" d="M 499 691 
L 3763 691 
L 3763 307 
L 499 307 
L 499 691 
z
M 499 2605 
L 1939 2605 
L 1939 3603 
L 2323 3603 
L 2323 2605 
L 3763 2605 
L 3763 2221 
L 2323 2221 
L 2323 1254 
L 1939 1254 
L 1939 2221 
L 499 2221 
L 499 2605 
z
" transform="scale(0.015625)"/>
      <path id="Avenir-Book-64" d="M 717 1498 
Q 717 1248 797 1030 
Q 877 813 1024 653 
Q 1171 493 1379 400 
Q 1587 307 1850 307 
Q 2106 307 2326 400 
Q 2547 493 2707 653 
Q 2867 813 2956 1030 
Q 3046 1248 3046 1498 
Q 3046 1747 2956 1964 
Q 2867 2182 2707 2342 
Q 2547 2502 2326 2595 
Q 2106 2688 1850 2688 
Q 1587 2688 1379 2595 
Q 1171 2502 1024 2342 
Q 877 2182 797 1964 
Q 717 1747 717 1498 
z
M 3450 0 
L 3027 0 
L 3027 499 
L 3014 499 
Q 2912 346 2771 237 
Q 2630 128 2476 57 
Q 2323 -13 2160 -45 
Q 1997 -77 1850 -77 
Q 1498 -77 1206 41 
Q 915 160 704 371 
Q 493 582 374 870 
Q 256 1158 256 1498 
Q 256 1837 374 2125 
Q 493 2413 704 2624 
Q 915 2835 1206 2953 
Q 1498 3072 1850 3072 
Q 1997 3072 2160 3040 
Q 2323 3008 2476 2937 
Q 2630 2867 2771 2758 
Q 2912 2650 3014 2496 
L 3027 2496 
L 3027 4838 
L 3450 4838 
L 3450 0 
z
" transform="scale(0.015625)"/>
      <path id="Avenir-Book-79" d="M 1574 518 
L 2490 2995 
L 3002 2995 
L 1504 -781 
Q 1370 -1126 1162 -1331 
Q 954 -1536 563 -1536 
Q 467 -1536 368 -1529 
Q 269 -1523 173 -1491 
L 218 -1082 
Q 352 -1152 538 -1152 
Q 762 -1152 890 -1011 
Q 1018 -870 1114 -614 
L 1331 -38 
L 102 2995 
L 634 2995 
L 1574 518 
z
" transform="scale(0.015625)"/>
      <path id="Avenir-Book-75" d="M 2624 0 
Q 2611 122 2608 240 
Q 2605 358 2605 480 
L 2592 480 
Q 2522 358 2413 256 
Q 2304 154 2169 80 
Q 2035 6 1884 -35 
Q 1734 -77 1587 -77 
Q 1011 -77 736 227 
Q 461 531 461 1094 
L 461 2995 
L 883 2995 
L 883 1338 
Q 883 1088 921 896 
Q 960 704 1053 573 
Q 1146 442 1302 374 
Q 1459 307 1696 307 
Q 1728 307 1875 332 
Q 2022 358 2185 473 
Q 2349 589 2477 819 
Q 2605 1050 2605 1459 
L 2605 2995 
L 3027 2995 
L 3027 659 
Q 3027 538 3036 352 
Q 3046 166 3059 0 
L 2624 0 
z
" transform="scale(0.015625)"/>
      <path id="Avenir-Book-2da" d="M 1152 4160 
Q 1152 4320 1040 4429 
Q 928 4538 768 4538 
Q 608 4538 496 4429 
Q 384 4320 384 4160 
Q 384 4000 496 3891 
Q 608 3782 768 3782 
Q 928 3782 1040 3891 
Q 1152 4000 1152 4160 
z
M 1382 4160 
Q 1382 4032 1334 3920 
Q 1286 3808 1200 3725 
Q 1114 3642 1002 3597 
Q 890 3552 768 3552 
Q 640 3552 531 3597 
Q 422 3642 336 3725 
Q 250 3808 202 3920 
Q 154 4032 154 4160 
Q 154 4288 202 4400 
Q 250 4512 336 4592 
Q 422 4672 531 4720 
Q 640 4768 768 4768 
Q 890 4768 1002 4720 
Q 1114 4672 1200 4592 
Q 1286 4512 1334 4400 
Q 1382 4288 1382 4160 
z
" transform="scale(0.015625)"/>
      <path id="Avenir-Book-43" d="M 4346 717 
Q 4230 544 4060 390 
Q 3891 237 3673 125 
Q 3456 13 3203 -51 
Q 2950 -115 2669 -115 
Q 2163 -115 1731 64 
Q 1299 243 982 560 
Q 666 877 486 1312 
Q 307 1747 307 2266 
Q 307 2784 486 3219 
Q 666 3654 982 3971 
Q 1299 4288 1731 4467 
Q 2163 4646 2669 4646 
Q 3091 4646 3513 4480 
Q 3936 4314 4237 3930 
L 3834 3629 
Q 3763 3738 3641 3846 
Q 3520 3955 3363 4038 
Q 3206 4122 3027 4173 
Q 2848 4224 2669 4224 
Q 2234 4224 1888 4064 
Q 1542 3904 1302 3635 
Q 1062 3366 934 3011 
Q 806 2656 806 2266 
Q 806 1875 934 1520 
Q 1062 1165 1302 896 
Q 1542 627 1888 467 
Q 2234 307 2669 307 
Q 2848 307 3024 339 
Q 3200 371 3369 448 
Q 3539 525 3689 656 
Q 3840 787 3968 986 
L 4346 717 
z
" transform="scale(0.015625)"/>
     </defs>
     <use xlink:href="#Avenir-Book-42"/>
     <use xlink:href="#Avenir-Book-65" transform="translate(62.999985 0)"/>
     <use xlink:href="#Avenir-Book-73" transform="translate(118.599976 0)"/>
     <use xlink:href="#Avenir-Book-74" transform="translate(161.199966 0)"/>
     <use xlink:href="#Avenir-Book-20" transform="translate(194.399963 0)"/>
     <use xlink:href="#Avenir-Book-66" transform="translate(222.199951 0)"/>
     <use xlink:href="#Avenir-Book-69" transform="translate(251.799942 0)"/>
     <use xlink:href="#Avenir-Book-74" transform="translate(275.799927 0)"/>
     <use xlink:href="#Avenir-Book-20" transform="translate(308.999924 0)"/>
     <use xlink:href="#Avenir-Book-74" transform="translate(336.799911 0)"/>
     <use xlink:href="#Avenir-Book-69" transform="translate(369.999908 0)"/>
     <use xlink:href="#Avenir-Book-6d" transform="translate(393.999893 0)"/>
     <use xlink:href="#Avenir-Book-65" transform="translate(479.199875 0)"/>
     <use xlink:href="#Avenir-Book-3a" transform="translate(534.799866 0)"/>
     <use xlink:href="#Avenir-Book-20" transform="translate(562.599854 0)"/>
     <use xlink:href="#Avenir-Book-32" transform="translate(590.399841 0)"/>
     <use xlink:href="#Avenir-Book-35" transform="translate(645.999832 0)"/>
     <use xlink:href="#Avenir-Book-2e" transform="translate(701.599823 0)"/>
     <use xlink:href="#Avenir-Book-39" transform="translate(729.399811 0)"/>
     <use xlink:href="#Avenir-Book-b1" transform="translate(784.999802 0)"/>
     <use xlink:href="#Avenir-Book-32" transform="translate(851.599792 0)"/>
     <use xlink:href="#Avenir-Book-2e" transform="translate(907.199783 0)"/>
     <use xlink:href="#Avenir-Book-36" transform="translate(934.999771 0)"/>
     <use xlink:href="#Avenir-Book-20" transform="translate(990.599762 0)"/>
     <use xlink:href="#Avenir-Book-64" transform="translate(1018.39975 0)"/>
     <use xlink:href="#Avenir-Book-61" transform="translate(1079.499741 0)"/>
     <use xlink:href="#Avenir-Book-79" transform="translate(1131.399734 0)"/>
     <use xlink:href="#Avenir-Book-73" transform="translate(1179.599731 0)"/>
     <use xlink:href="#Avenir-Book-20" transform="translate(1222.199722 0)"/>
     <use xlink:href="#Avenir-Book-54" transform="translate(1249.99971 0)"/>
     <use xlink:href="#Avenir-Book-65" transform="translate(1296.274704 0)"/>
     <use xlink:href="#Avenir-Book-6d" transform="translate(1351.874695 0)"/>
     <use xlink:href="#Avenir-Book-70" transform="translate(1437.074677 0)"/>
     <use xlink:href="#Avenir-Book-65" transform="translate(1498.174667 0)"/>
     <use xlink:href="#Avenir-Book-72" transform="translate(1553.774658 0)"/>
     <use xlink:href="#Avenir-Book-61" transform="translate(1586.974655 0)"/>
     <use xlink:href="#Avenir-Book-74" transform="translate(1638.874649 0)"/>
     <use xlink:href="#Avenir-Book-75" transform="translate(1672.074646 0)"/>
     <use xlink:href="#Avenir-Book-72" transform="translate(1727.674637 0)"/>
     <use xlink:href="#Avenir-Book-65" transform="translate(1759.124634 0)"/>
     <use xlink:href="#Avenir-Book-3a" transform="translate(1814.724625 0)"/>
     <use xlink:href="#Avenir-Book-20" transform="translate(1842.524612 0)"/>
     <use xlink:href="#Avenir-Book-31" transform="translate(1870.3246 0)"/>
     <use xlink:href="#Avenir-Book-32" transform="translate(1925.924591 0)"/>
     <use xlink:href="#Avenir-Book-35" transform="translate(1981.524582 0)"/>
     <use xlink:href="#Avenir-Book-30" transform="translate(2037.124573 0)"/>
     <use xlink:href="#Avenir-Book-2e" transform="translate(2092.724564 0)"/>
     <use xlink:href="#Avenir-Book-30" transform="translate(2120.524551 0)"/>
     <use xlink:href="#Avenir-Book-20" transform="translate(2176.124542 0)"/>
     <use xlink:href="#Avenir-Book-2da" transform="translate(2203.92453 0)"/>
     <use xlink:href="#Avenir-Book-43" transform="translate(2227.924515 0)"/>
    </g>
   </g>
   <g id="legend_1">
    <g id="patch_7">
     <path d="M 638.97375 200.241375 
L 767.8 200.241375 
Q 770.6 200.241375 770.6 197.441375 
L 770.6 78.92 
Q 770.6 76.12 767.8 76.12 
L 638.97375 76.12 
Q 636.17375 76.12 636.17375 78.92 
L 636.17375 197.441375 
Q 636.17375 200.241375 638.97375 200.241375 
z
" style="fill: #ffffff; opacity: 0.8; stroke: #cccccc; stroke-linejoin: miter"/>
    </g>
    <g id="line2d_111">
     <path d="M 641.77375 87.403125 
L 655.77375 87.403125 
L 669.77375 87.403125 
" style="fill: none; stroke-dasharray: 7.4,3.2; stroke-dashoffset: 0; stroke: #f47e1f; stroke-width: 2"/>
     <g>
      <use xlink:href="#mf5436ce31f" x="655.77375" y="87.403125" style="fill: #f47e1f; stroke: #f47e1f"/>
     </g>
    </g>
    <g id="text_29">
     <!-- Data -->
     <g transform="translate(680.97375 92.303125) scale(0.14 -0.14)">
      <use xlink:href="#Avenir-Book-44"/>
      <use xlink:href="#Avenir-Book-61" transform="translate(74.099991 0)"/>
      <use xlink:href="#Avenir-Book-74" transform="translate(125.999985 0)"/>
      <use xlink:href="#Avenir-Book-61" transform="translate(159.199982 0)"/>
     </g>
    </g>
    <g id="line2d_112">
     <path d="M 641.77375 119.39925 
L 655.77375 119.39925 
L 669.77375 119.39925 
" style="fill: none; stroke-dasharray: 3.7,1.6; stroke-dashoffset: 0; stroke: #000000"/>
    </g>
    <g id="text_30">
     <!-- Interpolation  -->
     <g transform="translate(680.97375 113.917813) scale(0.14 -0.14)">
      <defs>
       <path id="Avenir-Book-49" d="M 1075 0 
L 614 0 
L 614 4531 
L 1075 4531 
L 1075 0 
z
" transform="scale(0.015625)"/>
      </defs>
      <use xlink:href="#Avenir-Book-49"/>
      <use xlink:href="#Avenir-Book-6e" transform="translate(26.399994 0)"/>
      <use xlink:href="#Avenir-Book-74" transform="translate(81.999985 0)"/>
      <use xlink:href="#Avenir-Book-65" transform="translate(115.199982 0)"/>
      <use xlink:href="#Avenir-Book-72" transform="translate(170.799973 0)"/>
      <use xlink:href="#Avenir-Book-70" transform="translate(203.999969 0)"/>
      <use xlink:href="#Avenir-Book-6f" transform="translate(265.09996 0)"/>
      <use xlink:href="#Avenir-Book-6c" transform="translate(324.399948 0)"/>
      <use xlink:href="#Avenir-Book-61" transform="translate(348.399933 0)"/>
      <use xlink:href="#Avenir-Book-74" transform="translate(400.299927 0)"/>
      <use xlink:href="#Avenir-Book-69" transform="translate(433.499924 0)"/>
      <use xlink:href="#Avenir-Book-6f" transform="translate(457.499908 0)"/>
      <use xlink:href="#Avenir-Book-6e" transform="translate(516.799896 0)"/>
      <use xlink:href="#Avenir-Book-20" transform="translate(572.399887 0)"/>
     </g>
     <!--   Uncertainty -->
     <g transform="translate(680.97375 130.649125) scale(0.14 -0.14)">
      <defs>
       <path id="Avenir-Book-55" d="M 3853 1690 
Q 3853 1408 3785 1091 
Q 3718 774 3532 505 
Q 3347 237 3024 61 
Q 2701 -115 2195 -115 
Q 1683 -115 1363 61 
Q 1043 237 857 505 
Q 672 774 605 1091 
Q 538 1408 538 1690 
L 538 4531 
L 998 4531 
L 998 1741 
Q 998 1414 1062 1180 
Q 1126 947 1232 787 
Q 1338 627 1469 534 
Q 1600 442 1731 390 
Q 1862 339 1984 323 
Q 2106 307 2195 307 
Q 2278 307 2403 323 
Q 2528 339 2659 390 
Q 2790 442 2921 534 
Q 3053 627 3158 787 
Q 3264 947 3328 1180 
Q 3392 1414 3392 1741 
L 3392 4531 
L 3853 4531 
L 3853 1690 
z
" transform="scale(0.015625)"/>
      </defs>
      <use xlink:href="#Avenir-Book-20"/>
      <use xlink:href="#Avenir-Book-20" transform="translate(27.799988 0)"/>
      <use xlink:href="#Avenir-Book-55" transform="translate(55.599976 0)"/>
      <use xlink:href="#Avenir-Book-6e" transform="translate(124.199966 0)"/>
      <use xlink:href="#Avenir-Book-63" transform="translate(179.799957 0)"/>
      <use xlink:href="#Avenir-Book-65" transform="translate(227.999954 0)"/>
      <use xlink:href="#Avenir-Book-72" transform="translate(283.599945 0)"/>
      <use xlink:href="#Avenir-Book-74" transform="translate(316.799942 0)"/>
      <use xlink:href="#Avenir-Book-61" transform="translate(349.999939 0)"/>
      <use xlink:href="#Avenir-Book-69" transform="translate(401.899933 0)"/>
      <use xlink:href="#Avenir-Book-6e" transform="translate(425.899918 0)"/>
      <use xlink:href="#Avenir-Book-74" transform="translate(481.499908 0)"/>
      <use xlink:href="#Avenir-Book-79" transform="translate(514.699905 0)"/>
     </g>
    </g>
    <g id="line2d_113">
     <path d="M 641.77375 157.74525 
L 655.77375 157.74525 
L 669.77375 157.74525 
" style="fill: none; stroke-dasharray: 7.4,3.2; stroke-dashoffset: 0; stroke: #1b878c; stroke-width: 2"/>
    </g>
    <g id="text_31">
     <!-- Initial  -->
     <g transform="translate(680.97375 152.263813) scale(0.14 -0.14)">
      <use xlink:href="#Avenir-Book-49"/>
      <use xlink:href="#Avenir-Book-6e" transform="translate(26.399994 0)"/>
      <use xlink:href="#Avenir-Book-69" transform="translate(81.999985 0)"/>
      <use xlink:href="#Avenir-Book-74" transform="translate(105.999969 0)"/>
      <use xlink:href="#Avenir-Book-69" transform="translate(139.199966 0)"/>
      <use xlink:href="#Avenir-Book-61" transform="translate(163.199951 0)"/>
      <use xlink:href="#Avenir-Book-6c" transform="translate(215.099945 0)"/>
      <use xlink:href="#Avenir-Book-20" transform="translate(239.09993 0)"/>
     </g>
     <!--  Condition -->
     <g transform="translate(680.97375 168.995125) scale(0.14 -0.14)">
      <use xlink:href="#Avenir-Book-20"/>
      <use xlink:href="#Avenir-Book-43" transform="translate(27.799988 0)"/>
      <use xlink:href="#Avenir-Book-6f" transform="translate(98.199982 0)"/>
      <use xlink:href="#Avenir-Book-6e" transform="translate(157.499969 0)"/>
      <use xlink:href="#Avenir-Book-64" transform="translate(213.09996 0)"/>
      <use xlink:href="#Avenir-Book-69" transform="translate(274.199951 0)"/>
      <use xlink:href="#Avenir-Book-74" transform="translate(298.199936 0)"/>
      <use xlink:href="#Avenir-Book-69" transform="translate(331.399933 0)"/>
      <use xlink:href="#Avenir-Book-6f" transform="translate(355.399918 0)"/>
      <use xlink:href="#Avenir-Book-6e" transform="translate(414.699905 0)"/>
     </g>
    </g>
    <g id="line2d_114">
     <path d="M 641.77375 185.709813 
L 655.77375 185.709813 
L 669.77375 185.709813 
" style="fill: none; stroke: #1fbecf; stroke-opacity: 0.8; stroke-width: 6; stroke-linecap: square"/>
    </g>
    <g id="text_32">
     <!-- Best fit -->
     <g transform="translate(680.97375 190.609813) scale(0.14 -0.14)">
      <use xlink:href="#Avenir-Book-42"/>
      <use xlink:href="#Avenir-Book-65" transform="translate(62.999985 0)"/>
      <use xlink:href="#Avenir-Book-73" transform="translate(118.599976 0)"/>
      <use xlink:href="#Avenir-Book-74" transform="translate(161.199966 0)"/>
      <use xlink:href="#Avenir-Book-20" transform="translate(194.399963 0)"/>
      <use xlink:href="#Avenir-Book-66" transform="translate(222.199951 0)"/>
      <use xlink:href="#Avenir-Book-69" transform="translate(251.799942 0)"/>
      <use xlink:href="#Avenir-Book-74" transform="translate(275.799927 0)"/>
     </g>
    </g>
   </g>
  </g>
 </g>
 <defs>
  <clipPath id="pe05d1cb0c4">
   <rect x="108" y="69.12" width="669.6" height="443.52"/>
  </clipPath>
 </defs>
</svg>
