<?xml version="1.0" encoding="utf-8" standalone="no"?>
<!DOCTYPE svg PUBLIC "-//W3C//DTD SVG 1.1//EN"
  "http://www.w3.org/Graphics/SVG/1.1/DTD/svg11.dtd">
<svg xmlns:xlink="http://www.w3.org/1999/xlink" width="864pt" height="576pt" viewBox="0 0 864 576" xmlns="http://www.w3.org/2000/svg" version="1.1">
 <metadata>
  <rdf:RDF xmlns:dc="http://purl.org/dc/elements/1.1/" xmlns:cc="http://creativecommons.org/ns#" xmlns:rdf="http://www.w3.org/1999/02/22-rdf-syntax-ns#">
   <cc:Work>
    <dc:type rdf:resource="http://purl.org/dc/dcmitype/StillImage"/>
    <dc:date>2025-10-23T14:52:20.876096</dc:date>
    <dc:format>image/svg+xml</dc:format>
    <dc:creator>
     <cc:Agent>
      <dc:title>Matplotlib v3.10.6, https://matplotlib.org/</dc:title>
     </cc:Agent>
    </dc:creator>
   </cc:Work>
  </rdf:RDF>
 </metadata>
 <defs>
  <style type="text/css">*{stroke-linejoin: round; stroke-linecap: butt}</style>
 </defs>
 <g id="figure_1">
  <g id="patch_1">
   <path d="M 0 576 
L 864 576 
L 864 0 
L 0 0 
z
" style="fill: #ffffff"/>
  </g>
  <g id="axes_1">
   <g id="patch_2">
    <path d="M 108 512.64 
L 777.6 512.64 
L 777.6 69.12 
L 108 69.12 
z
" style="fill: #ffffff"/>
   </g>
   <g id="matplotlib.axis_1">
    <g id="xtick_1">
     <g id="line2d_1">
      <defs>
       <path id="mf892e12441" d="M 0 0 
L 0 7 
" style="stroke: #000000; stroke-width: 2"/>
      </defs>
      <g>
       <use xlink:href="#mf892e12441" x="121.63563" y="512.64" style="stroke: #000000; stroke-width: 2"/>
      </g>
     </g>
     <g id="text_1">
      <!-- 0 -->
      <g transform="translate(117.744068 533.723125) scale(0.14 -0.14)">
       <defs>
        <path id="Avenir-Book-30" d="M 1779 4186 
Q 1408 4186 1193 3987 
Q 979 3789 870 3494 
Q 762 3200 733 2867 
Q 704 2534 704 2266 
Q 704 1997 733 1664 
Q 762 1331 870 1036 
Q 979 742 1193 544 
Q 1408 346 1779 346 
Q 2150 346 2364 544 
Q 2579 742 2688 1036 
Q 2797 1331 2825 1664 
Q 2854 1997 2854 2266 
Q 2854 2534 2825 2867 
Q 2797 3200 2688 3494 
Q 2579 3789 2364 3987 
Q 2150 4186 1779 4186 
z
M 1779 4608 
Q 2266 4608 2566 4384 
Q 2867 4160 3033 3814 
Q 3200 3469 3257 3056 
Q 3315 2643 3315 2266 
Q 3315 1888 3257 1475 
Q 3200 1062 3033 716 
Q 2867 371 2566 147 
Q 2266 -77 1779 -77 
Q 1293 -77 992 147 
Q 691 371 524 716 
Q 358 1062 300 1475 
Q 243 1888 243 2266 
Q 243 2643 300 3056 
Q 358 3469 524 3814 
Q 691 4160 992 4384 
Q 1293 4608 1779 4608 
z
" transform="scale(0.015625)"/>
       </defs>
       <use xlink:href="#Avenir-Book-30"/>
      </g>
     </g>
    </g>
    <g id="xtick_2">
     <g id="line2d_2">
      <g>
       <use xlink:href="#mf892e12441" x="189.81378" y="512.64" style="stroke: #000000; stroke-width: 2"/>
      </g>
     </g>
     <g id="text_2">
      <!-- 10 -->
      <g transform="translate(182.030655 533.723125) scale(0.14 -0.14)">
       <defs>
        <path id="Avenir-Book-31" d="M 2227 0 
L 1766 0 
L 1766 3955 
L 954 3238 
L 666 3584 
L 1818 4531 
L 2227 4531 
L 2227 0 
z
" transform="scale(0.015625)"/>
       </defs>
       <use xlink:href="#Avenir-Book-31"/>
       <use xlink:href="#Avenir-Book-30" transform="translate(55.599991 0)"/>
      </g>
     </g>
    </g>
    <g id="xtick_3">
     <g id="line2d_3">
      <g>
       <use xlink:href="#mf892e12441" x="257.99193" y="512.64" style="stroke: #000000; stroke-width: 2"/>
      </g>
     </g>
     <g id="text_3">
      <!-- 20 -->
      <g transform="translate(250.208805 533.723125) scale(0.14 -0.14)">
       <defs>
        <path id="Avenir-Book-32" d="M 3187 0 
L 307 0 
L 307 531 
L 2112 2368 
Q 2214 2470 2316 2585 
Q 2419 2701 2502 2829 
Q 2586 2957 2637 3097 
Q 2688 3238 2688 3392 
Q 2688 3578 2621 3725 
Q 2554 3872 2432 3974 
Q 2310 4077 2150 4131 
Q 1990 4186 1811 4186 
Q 1466 4186 1222 3994 
Q 979 3802 909 3475 
L 422 3526 
Q 518 4032 886 4320 
Q 1254 4608 1779 4608 
Q 2054 4608 2300 4534 
Q 2547 4461 2736 4313 
Q 2925 4166 3037 3945 
Q 3149 3725 3149 3430 
Q 3149 3168 3069 2950 
Q 2989 2733 2861 2541 
Q 2733 2349 2569 2176 
Q 2406 2003 2234 1837 
L 806 422 
L 3187 422 
L 3187 0 
z
" transform="scale(0.015625)"/>
       </defs>
       <use xlink:href="#Avenir-Book-32"/>
       <use xlink:href="#Avenir-Book-30" transform="translate(55.599991 0)"/>
      </g>
     </g>
    </g>
    <g id="xtick_4">
     <g id="line2d_4">
      <g>
       <use xlink:href="#mf892e12441" x="326.17008" y="512.64" style="stroke: #000000; stroke-width: 2"/>
      </g>
     </g>
     <g id="text_4">
      <!-- 30 -->
      <g transform="translate(318.386955 533.723125) scale(0.14 -0.14)">
       <defs>
        <path id="Avenir-Book-33" d="M 1306 2586 
L 1542 2586 
Q 1741 2586 1923 2630 
Q 2106 2675 2240 2774 
Q 2374 2874 2454 3034 
Q 2534 3194 2534 3418 
Q 2534 3782 2313 3984 
Q 2093 4186 1696 4186 
Q 1408 4186 1190 4058 
Q 973 3930 832 3686 
L 429 3891 
Q 634 4256 950 4432 
Q 1267 4608 1683 4608 
Q 1952 4608 2189 4531 
Q 2426 4454 2605 4304 
Q 2784 4154 2889 3933 
Q 2995 3712 2995 3430 
Q 2995 3245 2934 3078 
Q 2874 2912 2768 2777 
Q 2662 2643 2521 2544 
Q 2381 2445 2227 2394 
L 2246 2381 
Q 2438 2342 2598 2236 
Q 2758 2131 2873 1977 
Q 2989 1824 3053 1632 
Q 3117 1440 3117 1229 
Q 3117 915 3001 672 
Q 2886 429 2688 262 
Q 2490 96 2227 9 
Q 1965 -77 1670 -77 
Q 1171 -77 800 140 
Q 429 358 243 838 
L 730 986 
Q 845 659 1072 502 
Q 1299 346 1709 346 
Q 1901 346 2073 410 
Q 2246 474 2377 592 
Q 2509 710 2582 876 
Q 2656 1043 2656 1242 
Q 2656 1498 2560 1674 
Q 2464 1850 2304 1958 
Q 2144 2067 1936 2115 
Q 1728 2163 1504 2163 
L 1306 2163 
L 1306 2586 
z
" transform="scale(0.015625)"/>
       </defs>
       <use xlink:href="#Avenir-Book-33"/>
       <use xlink:href="#Avenir-Book-30" transform="translate(55.599991 0)"/>
      </g>
     </g>
    </g>
    <g id="xtick_5">
     <g id="line2d_5">
      <g>
       <use xlink:href="#mf892e12441" x="394.348231" y="512.64" style="stroke: #000000; stroke-width: 2"/>
      </g>
     </g>
     <g id="text_5">
      <!-- 40 -->
      <g transform="translate(386.565106 533.723125) scale(0.14 -0.14)">
       <defs>
        <path id="Avenir-Book-34" d="M 2202 4070 
L 2189 4070 
L 627 1498 
L 2202 1498 
L 2202 4070 
z
M 2662 1498 
L 3315 1498 
L 3315 1075 
L 2662 1075 
L 2662 0 
L 2202 0 
L 2202 1075 
L 243 1075 
L 243 1600 
L 2074 4531 
L 2662 4531 
L 2662 1498 
z
" transform="scale(0.015625)"/>
       </defs>
       <use xlink:href="#Avenir-Book-34"/>
       <use xlink:href="#Avenir-Book-30" transform="translate(55.599991 0)"/>
      </g>
     </g>
    </g>
    <g id="xtick_6">
     <g id="line2d_6">
      <g>
       <use xlink:href="#mf892e12441" x="462.526381" y="512.64" style="stroke: #000000; stroke-width: 2"/>
      </g>
     </g>
     <g id="text_6">
      <!-- 50 -->
      <g transform="translate(454.743256 533.723125) scale(0.14 -0.14)">
       <defs>
        <path id="Avenir-Book-35" d="M 2976 4109 
L 1120 4109 
L 1094 2746 
Q 1242 2803 1395 2828 
Q 1549 2854 1702 2854 
Q 2022 2854 2284 2745 
Q 2547 2637 2736 2441 
Q 2925 2246 3030 1980 
Q 3136 1715 3136 1402 
Q 3136 1075 3021 803 
Q 2906 531 2701 336 
Q 2496 141 2217 32 
Q 1939 -77 1613 -77 
Q 1184 -77 838 128 
Q 493 333 307 730 
L 762 928 
Q 890 659 1120 502 
Q 1350 346 1651 346 
Q 1869 346 2054 426 
Q 2240 506 2377 640 
Q 2515 774 2595 960 
Q 2675 1146 2675 1357 
Q 2675 1594 2592 1792 
Q 2509 1990 2361 2134 
Q 2214 2278 2009 2355 
Q 1805 2432 1562 2432 
Q 1318 2432 1078 2365 
Q 838 2298 621 2182 
L 666 4531 
L 2976 4531 
L 2976 4109 
z
" transform="scale(0.015625)"/>
       </defs>
       <use xlink:href="#Avenir-Book-35"/>
       <use xlink:href="#Avenir-Book-30" transform="translate(55.599991 0)"/>
      </g>
     </g>
    </g>
    <g id="xtick_7">
     <g id="line2d_7">
      <g>
       <use xlink:href="#mf892e12441" x="530.704531" y="512.64" style="stroke: #000000; stroke-width: 2"/>
      </g>
     </g>
     <g id="text_7">
      <!-- 60 -->
      <g transform="translate(522.921406 533.723125) scale(0.14 -0.14)">
       <defs>
        <path id="Avenir-Book-36" d="M 768 1325 
Q 768 1107 841 928 
Q 915 749 1049 617 
Q 1184 486 1369 416 
Q 1555 346 1779 346 
Q 2003 346 2188 416 
Q 2374 486 2508 617 
Q 2643 749 2716 928 
Q 2790 1107 2790 1325 
Q 2790 1542 2716 1721 
Q 2643 1901 2508 2029 
Q 2374 2157 2188 2230 
Q 2003 2304 1779 2304 
Q 1555 2304 1369 2230 
Q 1184 2157 1049 2029 
Q 915 1901 841 1721 
Q 768 1542 768 1325 
z
M 1229 2586 
L 1242 2573 
Q 1350 2650 1532 2688 
Q 1715 2726 1869 2726 
Q 2163 2726 2416 2620 
Q 2669 2515 2854 2329 
Q 3040 2144 3145 1888 
Q 3251 1632 3251 1325 
Q 3251 1011 3142 755 
Q 3034 499 2835 313 
Q 2637 128 2368 25 
Q 2099 -77 1779 -77 
Q 1459 -77 1190 25 
Q 922 128 723 313 
Q 525 499 416 755 
Q 307 1011 307 1325 
Q 307 1702 419 1984 
Q 531 2266 698 2541 
L 1920 4531 
L 2464 4531 
L 1229 2586 
z
" transform="scale(0.015625)"/>
       </defs>
       <use xlink:href="#Avenir-Book-36"/>
       <use xlink:href="#Avenir-Book-30" transform="translate(55.599991 0)"/>
      </g>
     </g>
    </g>
    <g id="xtick_8">
     <g id="line2d_8">
      <g>
       <use xlink:href="#mf892e12441" x="598.882681" y="512.64" style="stroke: #000000; stroke-width: 2"/>
      </g>
     </g>
     <g id="text_8">
      <!-- 70 -->
      <g transform="translate(591.099556 533.723125) scale(0.14 -0.14)">
       <defs>
        <path id="Avenir-Book-37" d="M 3034 4109 
L 1210 0 
L 691 0 
L 2554 4109 
L 346 4109 
L 346 4531 
L 3034 4531 
L 3034 4109 
z
" transform="scale(0.015625)"/>
       </defs>
       <use xlink:href="#Avenir-Book-37"/>
       <use xlink:href="#Avenir-Book-30" transform="translate(55.599991 0)"/>
      </g>
     </g>
    </g>
    <g id="xtick_9">
     <g id="line2d_9">
      <g>
       <use xlink:href="#mf892e12441" x="667.060831" y="512.64" style="stroke: #000000; stroke-width: 2"/>
      </g>
     </g>
     <g id="text_9">
      <!-- 80 -->
      <g transform="translate(659.277706 533.723125) scale(0.14 -0.14)">
       <defs>
        <path id="Avenir-Book-38" d="M 2752 1274 
Q 2752 1472 2681 1641 
Q 2611 1811 2486 1936 
Q 2362 2061 2179 2131 
Q 1997 2202 1779 2202 
Q 1555 2202 1376 2131 
Q 1197 2061 1072 1936 
Q 947 1811 876 1641 
Q 806 1472 806 1274 
Q 806 1075 876 905 
Q 947 736 1072 611 
Q 1197 486 1376 416 
Q 1555 346 1779 346 
Q 1997 346 2179 416 
Q 2362 486 2486 611 
Q 2611 736 2681 905 
Q 2752 1075 2752 1274 
z
M 2586 3386 
Q 2586 3558 2525 3705 
Q 2464 3853 2355 3958 
Q 2246 4064 2099 4125 
Q 1952 4186 1779 4186 
Q 1606 4186 1459 4125 
Q 1312 4064 1203 3958 
Q 1094 3853 1033 3705 
Q 973 3558 973 3386 
Q 973 3213 1033 3065 
Q 1094 2918 1203 2812 
Q 1312 2707 1459 2646 
Q 1606 2586 1779 2586 
Q 1952 2586 2099 2646 
Q 2246 2707 2355 2812 
Q 2464 2918 2525 3065 
Q 2586 3213 2586 3386 
z
M 1190 2413 
Q 1043 2464 918 2563 
Q 794 2662 704 2796 
Q 614 2931 563 3091 
Q 512 3251 512 3424 
Q 512 3693 614 3913 
Q 717 4134 889 4288 
Q 1062 4442 1292 4525 
Q 1523 4608 1779 4608 
Q 2035 4608 2265 4525 
Q 2496 4442 2669 4288 
Q 2842 4134 2944 3913 
Q 3046 3693 3046 3424 
Q 3046 3251 2995 3091 
Q 2944 2931 2854 2796 
Q 2765 2662 2640 2563 
Q 2515 2464 2368 2413 
L 2368 2400 
Q 2752 2298 2982 1978 
Q 3213 1658 3213 1210 
Q 3213 915 3094 678 
Q 2976 442 2781 272 
Q 2586 102 2326 12 
Q 2067 -77 1779 -77 
Q 1491 -77 1232 12 
Q 973 102 777 272 
Q 582 442 464 678 
Q 346 915 346 1210 
Q 346 1658 576 1978 
Q 806 2298 1190 2400 
L 1190 2413 
z
" transform="scale(0.015625)"/>
       </defs>
       <use xlink:href="#Avenir-Book-38"/>
       <use xlink:href="#Avenir-Book-30" transform="translate(55.599991 0)"/>
      </g>
     </g>
    </g>
    <g id="xtick_10">
     <g id="line2d_10">
      <g>
       <use xlink:href="#mf892e12441" x="735.238981" y="512.64" style="stroke: #000000; stroke-width: 2"/>
      </g>
     </g>
     <g id="text_10">
      <!-- 90 -->
      <g transform="translate(727.455856 533.723125) scale(0.14 -0.14)">
       <defs>
        <path id="Avenir-Book-39" d="M 2790 3206 
Q 2790 3424 2716 3603 
Q 2643 3782 2508 3910 
Q 2374 4038 2188 4112 
Q 2003 4186 1779 4186 
Q 1555 4186 1369 4112 
Q 1184 4038 1049 3910 
Q 915 3782 841 3603 
Q 768 3424 768 3206 
Q 768 2989 841 2809 
Q 915 2630 1049 2499 
Q 1184 2368 1369 2297 
Q 1555 2227 1779 2227 
Q 2003 2227 2188 2297 
Q 2374 2368 2508 2499 
Q 2643 2630 2716 2809 
Q 2790 2989 2790 3206 
z
M 2330 1946 
L 2317 1958 
Q 2208 1882 2025 1843 
Q 1843 1805 1690 1805 
Q 1395 1805 1142 1910 
Q 890 2016 704 2201 
Q 518 2387 412 2643 
Q 307 2899 307 3206 
Q 307 3520 416 3776 
Q 525 4032 723 4217 
Q 922 4403 1190 4505 
Q 1459 4608 1779 4608 
Q 2099 4608 2368 4505 
Q 2637 4403 2835 4217 
Q 3034 4032 3142 3776 
Q 3251 3520 3251 3206 
Q 3251 2829 3139 2547 
Q 3027 2266 2861 1990 
L 1638 0 
L 1094 0 
L 2330 1946 
z
" transform="scale(0.015625)"/>
       </defs>
       <use xlink:href="#Avenir-Book-39"/>
       <use xlink:href="#Avenir-Book-30" transform="translate(55.599991 0)"/>
      </g>
     </g>
    </g>
    <g id="xtick_11">
     <g id="line2d_11">
      <defs>
       <path id="mbb9805e637" d="M 0 0 
L 0 4 
" style="stroke: #000000; stroke-width: 2"/>
      </defs>
      <g>
       <use xlink:href="#mbb9805e637" x="138.680168" y="512.64" style="stroke: #000000; stroke-width: 2"/>
      </g>
     </g>
    </g>
    <g id="xtick_12">
     <g id="line2d_12">
      <g>
       <use xlink:href="#mbb9805e637" x="155.724705" y="512.64" style="stroke: #000000; stroke-width: 2"/>
      </g>
     </g>
    </g>
    <g id="xtick_13">
     <g id="line2d_13">
      <g>
       <use xlink:href="#mbb9805e637" x="172.769243" y="512.64" style="stroke: #000000; stroke-width: 2"/>
      </g>
     </g>
    </g>
    <g id="xtick_14">
     <g id="line2d_14">
      <g>
       <use xlink:href="#mbb9805e637" x="206.858318" y="512.64" style="stroke: #000000; stroke-width: 2"/>
      </g>
     </g>
    </g>
    <g id="xtick_15">
     <g id="line2d_15">
      <g>
       <use xlink:href="#mbb9805e637" x="223.902855" y="512.64" style="stroke: #000000; stroke-width: 2"/>
      </g>
     </g>
    </g>
    <g id="xtick_16">
     <g id="line2d_16">
      <g>
       <use xlink:href="#mbb9805e637" x="240.947393" y="512.64" style="stroke: #000000; stroke-width: 2"/>
      </g>
     </g>
    </g>
    <g id="xtick_17">
     <g id="line2d_17">
      <g>
       <use xlink:href="#mbb9805e637" x="275.036468" y="512.64" style="stroke: #000000; stroke-width: 2"/>
      </g>
     </g>
    </g>
    <g id="xtick_18">
     <g id="line2d_18">
      <g>
       <use xlink:href="#mbb9805e637" x="292.081005" y="512.64" style="stroke: #000000; stroke-width: 2"/>
      </g>
     </g>
    </g>
    <g id="xtick_19">
     <g id="line2d_19">
      <g>
       <use xlink:href="#mbb9805e637" x="309.125543" y="512.64" style="stroke: #000000; stroke-width: 2"/>
      </g>
     </g>
    </g>
    <g id="xtick_20">
     <g id="line2d_20">
      <g>
       <use xlink:href="#mbb9805e637" x="343.214618" y="512.64" style="stroke: #000000; stroke-width: 2"/>
      </g>
     </g>
    </g>
    <g id="xtick_21">
     <g id="line2d_21">
      <g>
       <use xlink:href="#mbb9805e637" x="360.259156" y="512.64" style="stroke: #000000; stroke-width: 2"/>
      </g>
     </g>
    </g>
    <g id="xtick_22">
     <g id="line2d_22">
      <g>
       <use xlink:href="#mbb9805e637" x="377.303693" y="512.64" style="stroke: #000000; stroke-width: 2"/>
      </g>
     </g>
    </g>
    <g id="xtick_23">
     <g id="line2d_23">
      <g>
       <use xlink:href="#mbb9805e637" x="411.392768" y="512.64" style="stroke: #000000; stroke-width: 2"/>
      </g>
     </g>
    </g>
    <g id="xtick_24">
     <g id="line2d_24">
      <g>
       <use xlink:href="#mbb9805e637" x="428.437306" y="512.64" style="stroke: #000000; stroke-width: 2"/>
      </g>
     </g>
    </g>
    <g id="xtick_25">
     <g id="line2d_25">
      <g>
       <use xlink:href="#mbb9805e637" x="445.481843" y="512.64" style="stroke: #000000; stroke-width: 2"/>
      </g>
     </g>
    </g>
    <g id="xtick_26">
     <g id="line2d_26">
      <g>
       <use xlink:href="#mbb9805e637" x="479.570918" y="512.64" style="stroke: #000000; stroke-width: 2"/>
      </g>
     </g>
    </g>
    <g id="xtick_27">
     <g id="line2d_27">
      <g>
       <use xlink:href="#mbb9805e637" x="496.615456" y="512.64" style="stroke: #000000; stroke-width: 2"/>
      </g>
     </g>
    </g>
    <g id="xtick_28">
     <g id="line2d_28">
      <g>
       <use xlink:href="#mbb9805e637" x="513.659993" y="512.64" style="stroke: #000000; stroke-width: 2"/>
      </g>
     </g>
    </g>
    <g id="xtick_29">
     <g id="line2d_29">
      <g>
       <use xlink:href="#mbb9805e637" x="547.749068" y="512.64" style="stroke: #000000; stroke-width: 2"/>
      </g>
     </g>
    </g>
    <g id="xtick_30">
     <g id="line2d_30">
      <g>
       <use xlink:href="#mbb9805e637" x="564.793606" y="512.64" style="stroke: #000000; stroke-width: 2"/>
      </g>
     </g>
    </g>
    <g id="xtick_31">
     <g id="line2d_31">
      <g>
       <use xlink:href="#mbb9805e637" x="581.838144" y="512.64" style="stroke: #000000; stroke-width: 2"/>
      </g>
     </g>
    </g>
    <g id="xtick_32">
     <g id="line2d_32">
      <g>
       <use xlink:href="#mbb9805e637" x="615.927219" y="512.64" style="stroke: #000000; stroke-width: 2"/>
      </g>
     </g>
    </g>
    <g id="xtick_33">
     <g id="line2d_33">
      <g>
       <use xlink:href="#mbb9805e637" x="632.971756" y="512.64" style="stroke: #000000; stroke-width: 2"/>
      </g>
     </g>
    </g>
    <g id="xtick_34">
     <g id="line2d_34">
      <g>
       <use xlink:href="#mbb9805e637" x="650.016294" y="512.64" style="stroke: #000000; stroke-width: 2"/>
      </g>
     </g>
    </g>
    <g id="xtick_35">
     <g id="line2d_35">
      <g>
       <use xlink:href="#mbb9805e637" x="684.105369" y="512.64" style="stroke: #000000; stroke-width: 2"/>
      </g>
     </g>
    </g>
    <g id="xtick_36">
     <g id="line2d_36">
      <g>
       <use xlink:href="#mbb9805e637" x="701.149906" y="512.64" style="stroke: #000000; stroke-width: 2"/>
      </g>
     </g>
    </g>
    <g id="xtick_37">
     <g id="line2d_37">
      <g>
       <use xlink:href="#mbb9805e637" x="718.194444" y="512.64" style="stroke: #000000; stroke-width: 2"/>
      </g>
     </g>
    </g>
    <g id="xtick_38">
     <g id="line2d_38">
      <g>
       <use xlink:href="#mbb9805e637" x="752.283519" y="512.64" style="stroke: #000000; stroke-width: 2"/>
      </g>
     </g>
    </g>
    <g id="xtick_39">
     <g id="line2d_39">
      <g>
       <use xlink:href="#mbb9805e637" x="769.328056" y="512.64" style="stroke: #000000; stroke-width: 2"/>
      </g>
     </g>
    </g>
    <g id="text_11">
     <!-- Distance from Rim µm -->
     <g transform="translate(344.457812 556.873438) scale(0.2 -0.2)">
      <defs>
       <path id="Avenir-Book-44" d="M 1011 422 
L 1907 422 
Q 2426 422 2806 579 
Q 3187 736 3440 995 
Q 3693 1254 3814 1584 
Q 3936 1914 3936 2266 
Q 3936 2618 3814 2947 
Q 3693 3277 3440 3536 
Q 3187 3795 2806 3952 
Q 2426 4109 1907 4109 
L 1011 4109 
L 1011 422 
z
M 550 4531 
L 2054 4531 
Q 2477 4531 2902 4390 
Q 3328 4250 3670 3965 
Q 4013 3680 4224 3254 
Q 4435 2829 4435 2266 
Q 4435 1696 4224 1273 
Q 4013 851 3670 566 
Q 3328 282 2902 141 
Q 2477 0 2054 0 
L 550 0 
L 550 4531 
z
" transform="scale(0.015625)"/>
       <path id="Avenir-Book-69" d="M 1075 4147 
Q 1075 4013 979 3926 
Q 883 3840 768 3840 
Q 653 3840 557 3926 
Q 461 4013 461 4147 
Q 461 4282 557 4368 
Q 653 4454 768 4454 
Q 883 4454 979 4368 
Q 1075 4282 1075 4147 
z
M 979 0 
L 557 0 
L 557 2995 
L 979 2995 
L 979 0 
z
" transform="scale(0.015625)"/>
       <path id="Avenir-Book-73" d="M 2048 2285 
Q 1952 2470 1792 2579 
Q 1632 2688 1402 2688 
Q 1293 2688 1181 2662 
Q 1069 2637 979 2582 
Q 890 2528 835 2445 
Q 781 2362 781 2240 
Q 781 2029 928 1933 
Q 1075 1837 1370 1766 
L 1798 1664 
Q 2112 1594 2320 1379 
Q 2528 1165 2528 845 
Q 2528 602 2429 426 
Q 2330 250 2166 138 
Q 2003 26 1792 -25 
Q 1581 -77 1363 -77 
Q 1018 -77 720 54 
Q 422 186 211 506 
L 576 755 
Q 704 550 899 428 
Q 1094 307 1363 307 
Q 1491 307 1619 336 
Q 1747 365 1846 425 
Q 1946 486 2006 582 
Q 2067 678 2067 806 
Q 2067 1030 1900 1129 
Q 1734 1229 1498 1286 
L 1088 1382 
Q 1011 1402 880 1446 
Q 749 1491 624 1580 
Q 499 1670 409 1814 
Q 320 1958 320 2170 
Q 320 2400 413 2573 
Q 506 2746 662 2854 
Q 819 2963 1017 3017 
Q 1216 3072 1427 3072 
Q 1741 3072 2009 2950 
Q 2278 2829 2426 2534 
L 2048 2285 
z
" transform="scale(0.015625)"/>
       <path id="Avenir-Book-74" d="M 2010 2611 
L 1146 2611 
L 1146 845 
Q 1146 678 1178 572 
Q 1210 467 1267 409 
Q 1325 352 1405 329 
Q 1485 307 1581 307 
Q 1690 307 1805 339 
Q 1920 371 2016 422 
L 2035 32 
Q 1798 -77 1466 -77 
Q 1344 -77 1213 -45 
Q 1082 -13 973 76 
Q 864 166 793 320 
Q 723 474 723 723 
L 723 2611 
L 90 2611 
L 90 2995 
L 723 2995 
L 723 3840 
L 1146 3840 
L 1146 2995 
L 2010 2995 
L 2010 2611 
z
" transform="scale(0.015625)"/>
       <path id="Avenir-Book-61" d="M 2163 1491 
Q 2003 1491 1763 1475 
Q 1523 1459 1302 1398 
Q 1082 1338 925 1210 
Q 768 1082 768 858 
Q 768 710 829 604 
Q 890 499 992 432 
Q 1094 365 1219 336 
Q 1344 307 1472 307 
Q 1702 307 1872 384 
Q 2042 461 2157 592 
Q 2272 723 2326 899 
Q 2381 1075 2381 1274 
L 2381 1491 
L 2163 1491 
z
M 2381 1837 
L 2381 1914 
Q 2381 2688 1613 2688 
Q 1088 2688 698 2336 
L 442 2637 
Q 864 3072 1709 3072 
Q 1926 3072 2128 3008 
Q 2330 2944 2477 2813 
Q 2624 2682 2713 2483 
Q 2803 2285 2803 2010 
L 2803 672 
Q 2803 499 2819 310 
Q 2835 122 2854 0 
L 2445 0 
Q 2426 109 2416 237 
Q 2406 365 2406 486 
L 2394 486 
Q 2208 186 1955 54 
Q 1702 -77 1338 -77 
Q 1139 -77 953 -22 
Q 768 32 624 144 
Q 480 256 393 419 
Q 307 582 307 800 
Q 307 1165 496 1373 
Q 685 1581 969 1683 
Q 1254 1786 1577 1811 
Q 1901 1837 2170 1837 
L 2381 1837 
z
" transform="scale(0.015625)"/>
       <path id="Avenir-Book-6e" d="M 864 2995 
Q 877 2874 880 2755 
Q 883 2637 883 2515 
L 896 2515 
Q 966 2637 1075 2739 
Q 1184 2842 1318 2915 
Q 1453 2989 1603 3030 
Q 1754 3072 1901 3072 
Q 2477 3072 2752 2768 
Q 3027 2464 3027 1901 
L 3027 0 
L 2605 0 
L 2605 1658 
Q 2605 2157 2432 2422 
Q 2259 2688 1792 2688 
Q 1760 2688 1613 2662 
Q 1466 2637 1302 2521 
Q 1139 2406 1011 2176 
Q 883 1946 883 1536 
L 883 0 
L 461 0 
L 461 2336 
Q 461 2458 451 2643 
Q 442 2829 429 2995 
L 864 2995 
z
" transform="scale(0.015625)"/>
       <path id="Avenir-Book-63" d="M 2643 2291 
Q 2534 2458 2339 2573 
Q 2144 2688 1894 2688 
Q 1632 2694 1424 2604 
Q 1216 2515 1069 2355 
Q 922 2195 845 1974 
Q 768 1754 768 1498 
Q 768 1242 845 1021 
Q 922 800 1069 640 
Q 1216 480 1424 390 
Q 1632 301 1894 307 
Q 2144 307 2339 422 
Q 2534 538 2643 704 
L 2989 442 
Q 2765 179 2483 54 
Q 2202 -70 1894 -77 
Q 1530 -83 1235 35 
Q 941 154 733 365 
Q 525 576 416 867 
Q 307 1158 307 1498 
Q 307 1837 416 2128 
Q 525 2419 733 2630 
Q 941 2842 1235 2960 
Q 1530 3078 1894 3072 
Q 2202 3066 2483 2941 
Q 2765 2816 2989 2554 
L 2643 2291 
z
" transform="scale(0.015625)"/>
       <path id="Avenir-Book-65" d="M 2790 1728 
Q 2790 2157 2534 2422 
Q 2278 2688 1818 2688 
Q 1613 2688 1421 2608 
Q 1229 2528 1085 2393 
Q 941 2259 854 2086 
Q 768 1914 768 1728 
L 2790 1728 
z
M 755 1382 
Q 774 1158 864 960 
Q 954 762 1101 618 
Q 1248 474 1440 390 
Q 1632 307 1856 307 
Q 2195 307 2441 464 
Q 2688 621 2816 826 
L 3142 557 
Q 2874 218 2550 70 
Q 2227 -77 1856 -77 
Q 1523 -77 1238 41 
Q 954 160 749 371 
Q 544 582 425 870 
Q 307 1158 307 1498 
Q 307 1837 422 2125 
Q 538 2413 742 2624 
Q 947 2835 1222 2953 
Q 1498 3072 1818 3072 
Q 2157 3072 2425 2950 
Q 2694 2829 2876 2627 
Q 3059 2426 3155 2154 
Q 3251 1882 3251 1574 
L 3251 1382 
L 755 1382 
z
" transform="scale(0.015625)"/>
       <path id="Avenir-Book-20" transform="scale(0.015625)"/>
       <path id="Avenir-Book-66" d="M 1856 2611 
L 1146 2611 
L 1146 0 
L 723 0 
L 723 2611 
L 90 2611 
L 90 2995 
L 723 2995 
L 723 3814 
Q 723 4410 998 4662 
Q 1274 4915 1728 4915 
Q 1818 4915 1910 4902 
Q 2003 4890 2093 4870 
L 2016 4486 
Q 1939 4506 1856 4518 
Q 1773 4531 1690 4531 
Q 1517 4531 1408 4473 
Q 1299 4416 1241 4310 
Q 1184 4205 1165 4064 
Q 1146 3923 1146 3763 
L 1146 2995 
L 1856 2995 
L 1856 2611 
z
" transform="scale(0.015625)"/>
       <path id="Avenir-Book-72" d="M 506 2061 
Q 506 2259 496 2464 
Q 486 2669 480 2995 
L 896 2995 
L 896 2438 
L 909 2438 
Q 954 2560 1037 2672 
Q 1120 2784 1238 2873 
Q 1357 2963 1513 3017 
Q 1670 3072 1869 3072 
Q 2048 3072 2182 3034 
L 2099 2618 
Q 2016 2650 1856 2650 
Q 1613 2650 1440 2557 
Q 1267 2464 1152 2320 
Q 1037 2176 982 2009 
Q 928 1843 928 1690 
L 928 0 
L 506 0 
L 506 2061 
z
" transform="scale(0.015625)"/>
       <path id="Avenir-Book-6f" d="M 3027 1498 
Q 3027 1747 2947 1964 
Q 2867 2182 2720 2342 
Q 2573 2502 2365 2595 
Q 2157 2688 1894 2688 
Q 1632 2688 1424 2595 
Q 1216 2502 1072 2342 
Q 928 2182 848 1964 
Q 768 1747 768 1498 
Q 768 1248 848 1030 
Q 928 813 1072 653 
Q 1216 493 1424 400 
Q 1632 307 1894 307 
Q 2157 307 2365 400 
Q 2573 493 2720 653 
Q 2867 813 2947 1030 
Q 3027 1248 3027 1498 
z
M 3488 1498 
Q 3488 1158 3369 870 
Q 3251 582 3040 371 
Q 2829 160 2537 41 
Q 2246 -77 1894 -77 
Q 1549 -77 1257 41 
Q 966 160 755 371 
Q 544 582 425 870 
Q 307 1158 307 1498 
Q 307 1837 425 2125 
Q 544 2413 755 2624 
Q 966 2835 1257 2953 
Q 1549 3072 1894 3072 
Q 2246 3072 2537 2953 
Q 2829 2835 3040 2624 
Q 3251 2413 3369 2125 
Q 3488 1837 3488 1498 
z
" transform="scale(0.015625)"/>
       <path id="Avenir-Book-6d" d="M 461 2330 
Q 461 2496 451 2662 
Q 442 2829 429 2995 
L 883 2995 
L 883 2541 
L 896 2541 
Q 1050 2803 1322 2937 
Q 1594 3072 1862 3072 
Q 1984 3072 2121 3046 
Q 2259 3021 2387 2953 
Q 2515 2886 2627 2764 
Q 2739 2643 2816 2451 
Q 2944 2739 3222 2905 
Q 3501 3072 3802 3072 
Q 4378 3072 4653 2768 
Q 4928 2464 4928 1901 
L 4928 0 
L 4506 0 
L 4506 1747 
Q 4506 2202 4346 2445 
Q 4186 2688 3750 2688 
Q 3514 2688 3354 2595 
Q 3194 2502 3094 2348 
Q 2995 2195 2950 2000 
Q 2906 1805 2906 1594 
L 2906 0 
L 2483 0 
L 2483 1747 
Q 2483 2202 2323 2445 
Q 2163 2688 1728 2688 
Q 1690 2688 1552 2662 
Q 1414 2637 1267 2521 
Q 1120 2406 1001 2176 
Q 883 1946 883 1536 
L 883 0 
L 461 0 
L 461 2330 
z
" transform="scale(0.015625)"/>
       <path id="Avenir-Book-52" d="M 1075 2528 
L 1894 2528 
Q 2202 2528 2416 2592 
Q 2630 2656 2758 2761 
Q 2886 2867 2944 3011 
Q 3002 3155 3002 3322 
Q 3002 3482 2944 3626 
Q 2886 3770 2758 3878 
Q 2630 3987 2416 4048 
Q 2202 4109 1894 4109 
L 1075 4109 
L 1075 2528 
z
M 1075 0 
L 614 0 
L 614 4531 
L 2010 4531 
Q 2701 4531 3101 4230 
Q 3501 3930 3501 3322 
Q 3501 2848 3203 2525 
Q 2906 2202 2342 2150 
L 3648 0 
L 3085 0 
L 1843 2106 
L 1075 2106 
L 1075 0 
z
" transform="scale(0.015625)"/>
       <path id="Avenir-Book-b5" d="M 461 2995 
L 883 2995 
L 883 1338 
Q 883 787 1059 547 
Q 1235 307 1696 307 
Q 1888 307 2054 384 
Q 2221 461 2342 608 
Q 2464 755 2534 969 
Q 2605 1184 2605 1459 
L 2605 2995 
L 3027 2995 
L 3027 659 
Q 3027 493 3036 329 
Q 3046 166 3059 0 
L 2605 0 
L 2605 486 
L 2592 486 
Q 2522 371 2413 268 
Q 2304 166 2169 89 
Q 2035 13 1884 -32 
Q 1734 -77 1587 -77 
Q 1146 -77 883 109 
L 883 -1459 
L 461 -1459 
L 461 2995 
z
" transform="scale(0.015625)"/>
      </defs>
      <use xlink:href="#Avenir-Book-44"/>
      <use xlink:href="#Avenir-Book-69" transform="translate(74.099991 0)"/>
      <use xlink:href="#Avenir-Book-73" transform="translate(98.099976 0)"/>
      <use xlink:href="#Avenir-Book-74" transform="translate(140.699966 0)"/>
      <use xlink:href="#Avenir-Book-61" transform="translate(173.899963 0)"/>
      <use xlink:href="#Avenir-Book-6e" transform="translate(225.799957 0)"/>
      <use xlink:href="#Avenir-Book-63" transform="translate(281.399948 0)"/>
      <use xlink:href="#Avenir-Book-65" transform="translate(329.599945 0)"/>
      <use xlink:href="#Avenir-Book-20" transform="translate(385.199936 0)"/>
      <use xlink:href="#Avenir-Book-66" transform="translate(412.999924 0)"/>
      <use xlink:href="#Avenir-Book-72" transform="translate(442.599915 0)"/>
      <use xlink:href="#Avenir-Book-6f" transform="translate(474.049911 0)"/>
      <use xlink:href="#Avenir-Book-6d" transform="translate(533.349899 0)"/>
      <use xlink:href="#Avenir-Book-20" transform="translate(618.549881 0)"/>
      <use xlink:href="#Avenir-Book-52" transform="translate(646.349869 0)"/>
      <use xlink:href="#Avenir-Book-69" transform="translate(705.649857 0)"/>
      <use xlink:href="#Avenir-Book-6d" transform="translate(729.649841 0)"/>
      <use xlink:href="#Avenir-Book-20" transform="translate(814.849823 0)"/>
      <use xlink:href="#Avenir-Book-b5" transform="translate(842.649811 0)"/>
      <use xlink:href="#Avenir-Book-6d" transform="translate(898.249802 0)"/>
     </g>
    </g>
   </g>
   <g id="matplotlib.axis_2">
    <g id="ytick_1">
     <g id="line2d_40">
      <defs>
       <path id="mb6721888e9" d="M 0 0 
L -7 0 
" style="stroke: #000000; stroke-width: 2"/>
      </defs>
      <g>
       <use xlink:href="#mb6721888e9" x="108" y="460.270096" style="stroke: #000000; stroke-width: 2"/>
      </g>
     </g>
     <g id="text_12">
      <!-- 89.6 -->
      <g transform="translate(70.259062 465.561658) scale(0.14 -0.14)">
       <defs>
        <path id="Avenir-Book-2e" d="M 1235 307 
Q 1235 173 1139 67 
Q 1043 -38 890 -38 
Q 736 -38 640 67 
Q 544 173 544 307 
Q 544 442 640 547 
Q 736 653 890 653 
Q 1043 653 1139 547 
Q 1235 442 1235 307 
z
" transform="scale(0.015625)"/>
       </defs>
       <use xlink:href="#Avenir-Book-38"/>
       <use xlink:href="#Avenir-Book-39" transform="translate(55.599991 0)"/>
       <use xlink:href="#Avenir-Book-2e" transform="translate(111.199982 0)"/>
       <use xlink:href="#Avenir-Book-36" transform="translate(138.999969 0)"/>
      </g>
     </g>
    </g>
    <g id="ytick_2">
     <g id="line2d_41">
      <g>
       <use xlink:href="#mb6721888e9" x="108" y="405.383248" style="stroke: #000000; stroke-width: 2"/>
      </g>
     </g>
     <g id="text_13">
      <!-- 89.8 -->
      <g transform="translate(70.259062 410.67481) scale(0.14 -0.14)">
       <use xlink:href="#Avenir-Book-38"/>
       <use xlink:href="#Avenir-Book-39" transform="translate(55.599991 0)"/>
       <use xlink:href="#Avenir-Book-2e" transform="translate(111.199982 0)"/>
       <use xlink:href="#Avenir-Book-38" transform="translate(138.999969 0)"/>
      </g>
     </g>
    </g>
    <g id="ytick_3">
     <g id="line2d_42">
      <g>
       <use xlink:href="#mb6721888e9" x="108" y="350.4964" style="stroke: #000000; stroke-width: 2"/>
      </g>
     </g>
     <g id="text_14">
      <!-- 90.0 -->
      <g transform="translate(70.259062 355.787963) scale(0.14 -0.14)">
       <use xlink:href="#Avenir-Book-39"/>
       <use xlink:href="#Avenir-Book-30" transform="translate(55.599991 0)"/>
       <use xlink:href="#Avenir-Book-2e" transform="translate(111.199982 0)"/>
       <use xlink:href="#Avenir-Book-30" transform="translate(138.999969 0)"/>
      </g>
     </g>
    </g>
    <g id="ytick_4">
     <g id="line2d_43">
      <g>
       <use xlink:href="#mb6721888e9" x="108" y="295.609552" style="stroke: #000000; stroke-width: 2"/>
      </g>
     </g>
     <g id="text_15">
      <!-- 90.2 -->
      <g transform="translate(70.259062 300.901115) scale(0.14 -0.14)">
       <use xlink:href="#Avenir-Book-39"/>
       <use xlink:href="#Avenir-Book-30" transform="translate(55.599991 0)"/>
       <use xlink:href="#Avenir-Book-2e" transform="translate(111.199982 0)"/>
       <use xlink:href="#Avenir-Book-32" transform="translate(138.999969 0)"/>
      </g>
     </g>
    </g>
    <g id="ytick_5">
     <g id="line2d_44">
      <g>
       <use xlink:href="#mb6721888e9" x="108" y="240.722704" style="stroke: #000000; stroke-width: 2"/>
      </g>
     </g>
     <g id="text_16">
      <!-- 90.4 -->
      <g transform="translate(70.259062 246.014267) scale(0.14 -0.14)">
       <use xlink:href="#Avenir-Book-39"/>
       <use xlink:href="#Avenir-Book-30" transform="translate(55.599991 0)"/>
       <use xlink:href="#Avenir-Book-2e" transform="translate(111.199982 0)"/>
       <use xlink:href="#Avenir-Book-34" transform="translate(138.999969 0)"/>
      </g>
     </g>
    </g>
    <g id="ytick_6">
     <g id="line2d_45">
      <g>
       <use xlink:href="#mb6721888e9" x="108" y="185.835856" style="stroke: #000000; stroke-width: 2"/>
      </g>
     </g>
     <g id="text_17">
      <!-- 90.6 -->
      <g transform="translate(70.259062 191.127419) scale(0.14 -0.14)">
       <use xlink:href="#Avenir-Book-39"/>
       <use xlink:href="#Avenir-Book-30" transform="translate(55.599991 0)"/>
       <use xlink:href="#Avenir-Book-2e" transform="translate(111.199982 0)"/>
       <use xlink:href="#Avenir-Book-36" transform="translate(138.999969 0)"/>
      </g>
     </g>
    </g>
    <g id="ytick_7">
     <g id="line2d_46">
      <g>
       <use xlink:href="#mb6721888e9" x="108" y="130.949008" style="stroke: #000000; stroke-width: 2"/>
      </g>
     </g>
     <g id="text_18">
      <!-- 90.8 -->
      <g transform="translate(70.259062 136.240571) scale(0.14 -0.14)">
       <use xlink:href="#Avenir-Book-39"/>
       <use xlink:href="#Avenir-Book-30" transform="translate(55.599991 0)"/>
       <use xlink:href="#Avenir-Book-2e" transform="translate(111.199982 0)"/>
       <use xlink:href="#Avenir-Book-38" transform="translate(138.999969 0)"/>
      </g>
     </g>
    </g>
    <g id="ytick_8">
     <g id="line2d_47">
      <g>
       <use xlink:href="#mb6721888e9" x="108" y="76.06216" style="stroke: #000000; stroke-width: 2"/>
      </g>
     </g>
     <g id="text_19">
      <!-- 91.0 -->
      <g transform="translate(70.259062 81.353723) scale(0.14 -0.14)">
       <use xlink:href="#Avenir-Book-39"/>
       <use xlink:href="#Avenir-Book-31" transform="translate(55.599991 0)"/>
       <use xlink:href="#Avenir-Book-2e" transform="translate(111.199982 0)"/>
       <use xlink:href="#Avenir-Book-30" transform="translate(138.999969 0)"/>
      </g>
     </g>
    </g>
    <g id="ytick_9">
     <g id="line2d_48">
      <defs>
       <path id="mb080d1ba87" d="M 0 0 
L -4 0 
" style="stroke: #000000; stroke-width: 2"/>
      </defs>
      <g>
       <use xlink:href="#mb080d1ba87" x="108" y="501.435232" style="stroke: #000000; stroke-width: 2"/>
      </g>
     </g>
    </g>
    <g id="ytick_10">
     <g id="line2d_49">
      <g>
       <use xlink:href="#mb080d1ba87" x="108" y="487.71352" style="stroke: #000000; stroke-width: 2"/>
      </g>
     </g>
    </g>
    <g id="ytick_11">
     <g id="line2d_50">
      <g>
       <use xlink:href="#mb080d1ba87" x="108" y="473.991808" style="stroke: #000000; stroke-width: 2"/>
      </g>
     </g>
    </g>
    <g id="ytick_12">
     <g id="line2d_51">
      <g>
       <use xlink:href="#mb080d1ba87" x="108" y="446.548384" style="stroke: #000000; stroke-width: 2"/>
      </g>
     </g>
    </g>
    <g id="ytick_13">
     <g id="line2d_52">
      <g>
       <use xlink:href="#mb080d1ba87" x="108" y="432.826672" style="stroke: #000000; stroke-width: 2"/>
      </g>
     </g>
    </g>
    <g id="ytick_14">
     <g id="line2d_53">
      <g>
       <use xlink:href="#mb080d1ba87" x="108" y="419.10496" style="stroke: #000000; stroke-width: 2"/>
      </g>
     </g>
    </g>
    <g id="ytick_15">
     <g id="line2d_54">
      <g>
       <use xlink:href="#mb080d1ba87" x="108" y="391.661536" style="stroke: #000000; stroke-width: 2"/>
      </g>
     </g>
    </g>
    <g id="ytick_16">
     <g id="line2d_55">
      <g>
       <use xlink:href="#mb080d1ba87" x="108" y="377.939824" style="stroke: #000000; stroke-width: 2"/>
      </g>
     </g>
    </g>
    <g id="ytick_17">
     <g id="line2d_56">
      <g>
       <use xlink:href="#mb080d1ba87" x="108" y="364.218112" style="stroke: #000000; stroke-width: 2"/>
      </g>
     </g>
    </g>
    <g id="ytick_18">
     <g id="line2d_57">
      <g>
       <use xlink:href="#mb080d1ba87" x="108" y="336.774688" style="stroke: #000000; stroke-width: 2"/>
      </g>
     </g>
    </g>
    <g id="ytick_19">
     <g id="line2d_58">
      <g>
       <use xlink:href="#mb080d1ba87" x="108" y="323.052976" style="stroke: #000000; stroke-width: 2"/>
      </g>
     </g>
    </g>
    <g id="ytick_20">
     <g id="line2d_59">
      <g>
       <use xlink:href="#mb080d1ba87" x="108" y="309.331264" style="stroke: #000000; stroke-width: 2"/>
      </g>
     </g>
    </g>
    <g id="ytick_21">
     <g id="line2d_60">
      <g>
       <use xlink:href="#mb080d1ba87" x="108" y="281.88784" style="stroke: #000000; stroke-width: 2"/>
      </g>
     </g>
    </g>
    <g id="ytick_22">
     <g id="line2d_61">
      <g>
       <use xlink:href="#mb080d1ba87" x="108" y="268.166128" style="stroke: #000000; stroke-width: 2"/>
      </g>
     </g>
    </g>
    <g id="ytick_23">
     <g id="line2d_62">
      <g>
       <use xlink:href="#mb080d1ba87" x="108" y="254.444416" style="stroke: #000000; stroke-width: 2"/>
      </g>
     </g>
    </g>
    <g id="ytick_24">
     <g id="line2d_63">
      <g>
       <use xlink:href="#mb080d1ba87" x="108" y="227.000992" style="stroke: #000000; stroke-width: 2"/>
      </g>
     </g>
    </g>
    <g id="ytick_25">
     <g id="line2d_64">
      <g>
       <use xlink:href="#mb080d1ba87" x="108" y="213.27928" style="stroke: #000000; stroke-width: 2"/>
      </g>
     </g>
    </g>
    <g id="ytick_26">
     <g id="line2d_65">
      <g>
       <use xlink:href="#mb080d1ba87" x="108" y="199.557568" style="stroke: #000000; stroke-width: 2"/>
      </g>
     </g>
    </g>
    <g id="ytick_27">
     <g id="line2d_66">
      <g>
       <use xlink:href="#mb080d1ba87" x="108" y="172.114144" style="stroke: #000000; stroke-width: 2"/>
      </g>
     </g>
    </g>
    <g id="ytick_28">
     <g id="line2d_67">
      <g>
       <use xlink:href="#mb080d1ba87" x="108" y="158.392432" style="stroke: #000000; stroke-width: 2"/>
      </g>
     </g>
    </g>
    <g id="ytick_29">
     <g id="line2d_68">
      <g>
       <use xlink:href="#mb080d1ba87" x="108" y="144.67072" style="stroke: #000000; stroke-width: 2"/>
      </g>
     </g>
    </g>
    <g id="ytick_30">
     <g id="line2d_69">
      <g>
       <use xlink:href="#mb080d1ba87" x="108" y="117.227296" style="stroke: #000000; stroke-width: 2"/>
      </g>
     </g>
    </g>
    <g id="ytick_31">
     <g id="line2d_70">
      <g>
       <use xlink:href="#mb080d1ba87" x="108" y="103.505584" style="stroke: #000000; stroke-width: 2"/>
      </g>
     </g>
    </g>
    <g id="ytick_32">
     <g id="line2d_71">
      <g>
       <use xlink:href="#mb080d1ba87" x="108" y="89.783872" style="stroke: #000000; stroke-width: 2"/>
      </g>
     </g>
    </g>
    <g id="text_20">
     <!-- Fo# -->
     <g transform="translate(60.499688 307.928437) rotate(-90) scale(0.2 -0.2)">
      <defs>
       <path id="Avenir-Book-46" d="M 1075 0 
L 614 0 
L 614 4531 
L 3347 4531 
L 3347 4109 
L 1075 4109 
L 1075 2566 
L 3187 2566 
L 3187 2144 
L 1075 2144 
L 1075 0 
z
" transform="scale(0.015625)"/>
       <path id="Avenir-Book-23" d="M 1318 1754 
L 2170 1754 
L 2310 2790 
L 1459 2790 
L 1318 1754 
z
M 877 1370 
L 224 1370 
L 224 1754 
L 928 1754 
L 1069 2790 
L 378 2790 
L 378 3174 
L 1126 3174 
L 1312 4531 
L 1702 4531 
L 1517 3174 
L 2368 3174 
L 2554 4531 
L 2944 4531 
L 2758 3174 
L 3334 3174 
L 3334 2790 
L 2701 2790 
L 2560 1754 
L 3168 1754 
L 3168 1370 
L 2509 1370 
L 2317 0 
L 1926 0 
L 2118 1370 
L 1267 1370 
L 1075 0 
L 685 0 
L 877 1370 
z
" transform="scale(0.015625)"/>
      </defs>
      <use xlink:href="#Avenir-Book-46"/>
      <use xlink:href="#Avenir-Book-6f" transform="translate(55.599991 0)"/>
      <use xlink:href="#Avenir-Book-23" transform="translate(114.899979 0)"/>
     </g>
    </g>
   </g>
   <g id="line2d_72">
    <path d="M 135.27126 207.116993 
L 167.05281 234.779224 
L 199.785423 306.30437 
L 231.566974 415.154851 
L 263.90671 411.133769 
L 296.087952 453.762449 
L 328.427688 454.851967 
L 360.608931 408.911012 
L 392.390481 434.710701 
L 424.730217 426.243448 
L 456.91146 472.365131 
L 489.251196 463.688437 
L 521.032746 453.86586 
L 553.213988 451.841865 
L 585.553724 455.330314 
L 617.335275 457.423263 
L 650.067888 448.010545 
L 681.849438 457.967132 
L 714.582051 426.593962 
L 746.363601 447.722822 
" clip-path="url(#p449cd18662)" style="fill: none; stroke-dasharray: 7.4,3.2; stroke-dashoffset: 0; stroke: #f47e1f; stroke-width: 2"/>
    <defs>
     <path id="m9d24817ebe" d="M 0 6 
C 1.591219 6 3.117479 5.367802 4.242641 4.242641 
C 5.367802 3.117479 6 1.591219 6 0 
C 6 -1.591219 5.367802 -3.117479 4.242641 -4.242641 
C 3.117479 -5.367802 1.591219 -6 0 -6 
C -1.591219 -6 -3.117479 -5.367802 -4.242641 -4.242641 
C -5.367802 -3.117479 -6 -1.591219 -6 0 
C -6 1.591219 -5.367802 3.117479 -4.242641 4.242641 
C -3.117479 5.367802 -1.591219 6 0 6 
z
" style="stroke: #f47e1f"/>
    </defs>
    <g clip-path="url(#p449cd18662)">
     <use xlink:href="#m9d24817ebe" x="135.27126" y="207.116993" style="fill: #f47e1f; stroke: #f47e1f"/>
     <use xlink:href="#m9d24817ebe" x="167.05281" y="234.779224" style="fill: #f47e1f; stroke: #f47e1f"/>
     <use xlink:href="#m9d24817ebe" x="199.785423" y="306.30437" style="fill: #f47e1f; stroke: #f47e1f"/>
     <use xlink:href="#m9d24817ebe" x="231.566974" y="415.154851" style="fill: #f47e1f; stroke: #f47e1f"/>
     <use xlink:href="#m9d24817ebe" x="263.90671" y="411.133769" style="fill: #f47e1f; stroke: #f47e1f"/>
     <use xlink:href="#m9d24817ebe" x="296.087952" y="453.762449" style="fill: #f47e1f; stroke: #f47e1f"/>
     <use xlink:href="#m9d24817ebe" x="328.427688" y="454.851967" style="fill: #f47e1f; stroke: #f47e1f"/>
     <use xlink:href="#m9d24817ebe" x="360.608931" y="408.911012" style="fill: #f47e1f; stroke: #f47e1f"/>
     <use xlink:href="#m9d24817ebe" x="392.390481" y="434.710701" style="fill: #f47e1f; stroke: #f47e1f"/>
     <use xlink:href="#m9d24817ebe" x="424.730217" y="426.243448" style="fill: #f47e1f; stroke: #f47e1f"/>
     <use xlink:href="#m9d24817ebe" x="456.91146" y="472.365131" style="fill: #f47e1f; stroke: #f47e1f"/>
     <use xlink:href="#m9d24817ebe" x="489.251196" y="463.688437" style="fill: #f47e1f; stroke: #f47e1f"/>
     <use xlink:href="#m9d24817ebe" x="521.032746" y="453.86586" style="fill: #f47e1f; stroke: #f47e1f"/>
     <use xlink:href="#m9d24817ebe" x="553.213988" y="451.841865" style="fill: #f47e1f; stroke: #f47e1f"/>
     <use xlink:href="#m9d24817ebe" x="585.553724" y="455.330314" style="fill: #f47e1f; stroke: #f47e1f"/>
     <use xlink:href="#m9d24817ebe" x="617.335275" y="457.423263" style="fill: #f47e1f; stroke: #f47e1f"/>
     <use xlink:href="#m9d24817ebe" x="650.067888" y="448.010545" style="fill: #f47e1f; stroke: #f47e1f"/>
     <use xlink:href="#m9d24817ebe" x="681.849438" y="457.967132" style="fill: #f47e1f; stroke: #f47e1f"/>
     <use xlink:href="#m9d24817ebe" x="714.582051" y="426.593962" style="fill: #f47e1f; stroke: #f47e1f"/>
     <use xlink:href="#m9d24817ebe" x="746.363601" y="447.722822" style="fill: #f47e1f; stroke: #f47e1f"/>
    </g>
   </g>
   <g id="line2d_73">
    <path d="M 121.63563 171.182045 
L 132.164753 188.134995 
L 135.674461 193.064801 
L 139.184169 192.936318 
L 142.693876 193.701397 
L 146.203584 195.360039 
L 149.713292 197.912242 
L 153.222999 201.358007 
L 156.732707 205.697334 
L 160.242415 210.930224 
L 163.752122 217.056675 
L 167.26183 223.822923 
L 170.771538 227.476473 
L 174.281246 232.025483 
L 177.790953 237.469952 
L 181.300661 243.809881 
L 184.810369 251.04527 
L 188.320076 259.176118 
L 191.829784 268.202426 
L 195.339492 278.124193 
L 198.8492 288.94142 
L 202.358907 296.345081 
L 205.868615 303.093413 
L 209.378323 310.756614 
L 212.88803 319.334684 
L 216.397738 328.827622 
L 219.907446 339.235429 
L 223.417153 350.558104 
L 226.926861 362.795648 
L 230.436569 375.948061 
L 233.946277 378.891283 
L 237.455984 377.45503 
L 240.965692 376.922543 
L 244.4754 377.293822 
L 247.985107 378.568868 
L 251.494815 380.747681 
L 255.004523 383.830261 
L 258.514231 387.816607 
L 262.023938 392.70672 
L 265.533646 395.509789 
L 269.043354 395.757663 
L 272.553061 396.912246 
L 276.062769 398.973538 
L 279.572477 401.941539 
L 283.082184 405.816249 
L 286.591892 410.597668 
L 290.1016 416.285796 
L 293.611308 422.880633 
L 297.121015 426.92942 
L 300.630723 423.605319 
L 304.140431 421.184803 
L 307.650138 419.667872 
L 311.159846 419.054526 
L 314.669554 419.344765 
L 318.179261 420.538589 
L 321.688969 422.635998 
L 328.708385 428.604569 
L 332.218092 421.698675 
L 335.7278 415.699753 
L 339.237508 410.607804 
L 342.747215 406.422827 
L 346.256923 403.144822 
L 349.766631 400.77379 
L 353.276339 399.309731 
L 356.786046 398.752644 
L 360.295754 399.102529 
L 363.805462 397.16474 
L 367.315169 395.828733 
L 370.824877 395.407867 
L 374.334585 395.902141 
L 377.844292 397.311556 
L 381.354 399.63611 
L 384.863708 402.875805 
L 388.373416 407.030641 
L 391.883123 412.100616 
L 395.392831 409.761459 
L 398.902539 406.920203 
L 402.412246 404.982721 
L 405.921954 403.949011 
L 409.431662 403.819075 
L 412.94137 404.592911 
L 416.451077 406.270521 
L 419.960785 408.851903 
L 423.470493 412.337059 
L 426.9802 413.578802 
L 430.489908 413.964679 
L 433.999616 415.25727 
L 437.509323 417.456574 
L 441.019031 420.562592 
L 444.528739 424.575323 
L 448.038447 429.494768 
L 451.548154 435.320926 
L 455.057862 442.053798 
L 458.56757 443.98643 
L 462.077277 440.436118 
L 465.586985 437.789579 
L 469.096693 436.046812 
L 472.6064 435.207819 
L 476.116108 435.272599 
L 479.625816 436.241152 
L 483.135524 438.113477 
L 486.645231 440.889576 
L 490.154939 442.283893 
L 493.664647 437.998679 
L 497.174354 434.628606 
L 500.684062 432.173674 
L 504.19377 430.633881 
L 507.703478 430.009229 
L 511.213185 430.299718 
L 514.722893 431.505346 
L 518.232601 433.626115 
L 521.742308 435.102896 
L 525.252016 431.337125 
L 528.761724 428.47833 
L 532.271431 426.526511 
L 535.781139 425.48167 
L 539.290847 425.343806 
L 542.800555 426.112918 
L 546.310262 427.789007 
L 549.81997 430.372073 
L 553.329678 433.603984 
L 556.839385 430.168316 
L 560.349093 427.63642 
L 563.858801 426.008298 
L 567.368509 425.283949 
L 570.878216 425.463373 
L 574.387924 426.546571 
L 577.897632 428.533541 
L 581.407339 431.424284 
L 584.917047 435.218801 
L 588.426755 433.00195 
L 591.936462 430.166544 
L 595.44617 428.246017 
L 598.955878 427.240371 
L 602.465586 427.149604 
L 605.975293 427.973717 
L 609.485001 429.712711 
L 612.994709 432.366584 
L 616.504416 435.935338 
L 620.014124 433.493396 
L 623.523832 429.801633 
L 627.033539 427.005808 
L 630.543247 425.10592 
L 634.052955 424.10197 
L 637.562663 423.993957 
L 641.07237 424.781883 
L 644.582078 426.465745 
L 648.091786 429.045546 
L 651.601493 429.324133 
L 655.111201 426.392489 
L 658.620909 424.37553 
L 662.130617 423.273254 
L 665.640324 423.085663 
L 669.150032 423.812755 
L 672.65974 425.454531 
L 676.169447 428.010992 
L 679.679155 431.482136 
L 683.188863 431.743953 
L 686.69857 426.224995 
L 690.208278 421.601493 
L 693.717986 417.873446 
L 697.227694 415.040855 
L 700.737401 413.103719 
L 704.247109 412.062038 
L 707.756817 411.915813 
L 711.266524 412.665044 
L 714.776232 414.038287 
L 718.28594 411.671265 
L 721.795647 410.197805 
L 725.305355 409.617906 
L 728.815063 409.93157 
L 732.324771 411.138795 
L 735.834478 413.239582 
L 739.344186 416.233932 
L 742.853894 420.121842 
L 746.363601 447.722822 
L 746.363601 447.722822 
" clip-path="url(#p449cd18662)" style="fill: none; stroke-dasharray: 3.7,1.6; stroke-dashoffset: 0; stroke: #000000"/>
   </g>
   <g id="line2d_74">
    <path d="M 121.63563 255.629113 
L 132.164753 238.676163 
L 135.674461 234.490163 
L 139.184169 241.093183 
L 142.693876 246.802642 
L 146.203584 251.618538 
L 149.713292 255.540872 
L 153.222999 258.569645 
L 156.732707 260.704855 
L 160.242415 261.946504 
L 163.752122 262.29459 
L 167.26183 262.489781 
L 170.771538 273.48646 
L 174.281246 283.587679 
L 177.790953 292.793438 
L 181.300661 301.103738 
L 184.810369 308.518578 
L 188.320076 315.037959 
L 191.829784 320.66188 
L 195.339492 325.390341 
L 198.8492 329.223343 
L 202.358907 340.04224 
L 205.868615 352.816066 
L 209.378323 364.675023 
L 212.88803 375.619111 
L 216.397738 385.648331 
L 219.907446 394.762682 
L 223.417153 402.962165 
L 226.926861 410.246779 
L 230.436569 416.616525 
L 233.946277 422.217346 
L 237.455984 426.98195 
L 240.965692 430.842787 
L 244.4754 433.799858 
L 247.985107 435.853162 
L 251.494815 437.0027 
L 255.004523 437.248471 
L 258.514231 436.590475 
L 262.023938 435.028713 
L 265.533646 437.284869 
L 269.043354 444.099275 
L 272.553061 450.006971 
L 276.062769 455.007959 
L 279.572477 459.102238 
L 283.082184 462.289808 
L 286.591892 464.570669 
L 290.1016 465.944821 
L 293.611308 466.412264 
L 297.121015 467.418295 
L 300.630723 470.984567 
L 304.140431 473.647254 
L 307.650138 475.406356 
L 311.159846 476.261872 
L 314.669554 476.213804 
L 318.179261 475.262151 
L 321.688969 473.406913 
L 325.198677 470.64809 
L 328.708385 467.37939 
L 332.218092 467.734328 
L 335.7278 467.182295 
L 339.237508 465.723289 
L 342.747215 463.35731 
L 346.256923 460.084359 
L 349.766631 455.904436 
L 353.276339 450.81754 
L 356.786046 444.823671 
L 360.295754 437.922831 
L 363.805462 442.039078 
L 367.315169 446.408796 
L 370.824877 449.863375 
L 374.334585 452.402813 
L 377.844292 454.027111 
L 381.354 454.736269 
L 384.863708 454.530287 
L 388.373416 453.409164 
L 391.883123 451.372901 
L 398.902539 457.358479 
L 402.412246 459.493552 
L 405.921954 460.724851 
L 409.431662 461.052377 
L 412.94137 460.476131 
L 416.451077 458.996111 
L 419.960785 456.612318 
L 423.470493 453.324753 
L 426.9802 456.651928 
L 430.489908 463.282395 
L 433.999616 469.006149 
L 437.509323 473.82319 
L 441.019031 477.733517 
L 444.528739 480.737131 
L 448.038447 482.834031 
L 451.548154 484.024218 
L 455.057862 484.307691 
L 458.56757 485.829578 
L 462.077277 488.847843 
L 465.586985 490.962335 
L 469.096693 492.173054 
L 472.6064 492.48 
L 476.116108 491.883173 
L 479.625816 490.382573 
L 483.135524 487.9782 
L 486.645231 484.670054 
L 490.154939 482.450437 
L 493.664647 485.06475 
L 497.174354 486.763923 
L 500.684062 487.547955 
L 504.19377 487.416847 
L 507.703478 486.370599 
L 511.213185 484.40921 
L 514.722893 481.532681 
L 518.232601 477.741011 
L 521.742308 474.832943 
L 525.252016 478.11301 
L 528.761724 480.486101 
L 532.271431 481.952215 
L 535.781139 482.511352 
L 539.290847 482.163512 
L 542.800555 480.908695 
L 546.310262 478.746902 
L 549.81997 475.678132 
L 553.329678 471.992702 
L 556.839385 475.9191 
L 560.349093 478.941725 
L 563.858801 481.060576 
L 567.368509 482.275655 
L 570.878216 482.58696 
L 574.387924 481.994492 
L 577.897632 480.498251 
L 581.407339 478.098237 
L 584.917047 474.79445 
L 588.426755 477.266739 
L 591.936462 480.305442 
L 595.44617 482.429264 
L 598.955878 483.638207 
L 602.465586 483.93227 
L 605.975293 483.311453 
L 609.485001 481.775755 
L 612.994709 479.325178 
L 616.504416 475.959721 
L 620.014124 477.464181 
L 623.523832 479.864644 
L 627.033539 481.369169 
L 630.543247 481.977757 
L 634.052955 481.690408 
L 637.562663 480.50712 
L 641.07237 478.427895 
L 644.582078 475.452733 
L 648.091786 471.581633 
L 651.601493 470.8843 
L 655.111201 474.521513 
L 658.620909 477.244041 
L 662.130617 479.051886 
L 665.640324 479.945047 
L 669.150032 479.923524 
L 672.65974 478.987317 
L 676.169447 477.136427 
L 679.679155 474.370852 
L 683.188863 472.919757 
L 686.69857 474.179196 
L 690.208278 474.543181 
L 693.717986 474.01171 
L 697.227694 472.584783 
L 700.737401 470.262401 
L 704.247109 467.044563 
L 707.756817 462.93127 
L 711.266524 457.922522 
L 714.776232 452.670721 
L 718.28594 457.663878 
L 721.795647 461.763473 
L 725.305355 464.969506 
L 728.815063 467.281978 
L 732.324771 468.700887 
L 735.834478 469.226234 
L 739.344186 468.85802 
L 742.853894 467.596244 
L 746.363601 447.722822 
L 746.363601 447.722822 
" clip-path="url(#p449cd18662)" style="fill: none; stroke-dasharray: 3.7,1.6; stroke-dashoffset: 0; stroke: #000000"/>
   </g>
   <g id="line2d_75">
    <path d="M 121.63563 460.270096 
L 665.640324 460.270096 
L 665.640324 460.270096 
" clip-path="url(#p449cd18662)" style="fill: none; stroke-dasharray: 7.4,3.2; stroke-dashoffset: 0; stroke: #1b878c; stroke-width: 2"/>
   </g>
   <g id="line2d_76">
    <path d="M 121.63563 89.28 
L 132.164753 128.204356 
L 139.184169 153.363131 
L 146.203584 177.735916 
L 153.222999 201.209677 
L 160.242415 223.688597 
L 167.26183 245.094355 
L 174.281246 265.365993 
L 181.300661 284.459444 
L 188.320076 302.346766 
L 191.829784 310.833565 
L 195.339492 319.015146 
L 198.8492 326.892079 
L 202.358907 334.465725 
L 205.868615 341.738191 
L 209.378323 348.712289 
L 212.88803 355.391488 
L 216.397738 361.779872 
L 219.907446 367.88209 
L 223.417153 373.703312 
L 226.926861 379.249184 
L 230.436569 384.525781 
L 233.946277 389.539563 
L 237.455984 394.297331 
L 240.965692 398.806186 
L 244.4754 403.073482 
L 247.985107 407.106789 
L 251.494815 410.913853 
L 255.004523 414.502557 
L 258.514231 417.880885 
L 262.023938 421.056887 
L 265.533646 424.038646 
L 269.043354 426.834246 
L 272.553061 429.451744 
L 276.062769 431.899139 
L 279.572477 434.184352 
L 283.082184 436.315194 
L 286.591892 438.299353 
L 290.1016 440.144367 
L 293.611308 441.857612 
L 300.630723 444.917371 
L 307.650138 447.533764 
L 314.669554 449.758456 
L 321.688969 451.63939 
L 328.708385 453.220644 
L 335.7278 454.542369 
L 342.747215 455.640823 
L 349.766631 456.548463 
L 360.295754 457.614223 
L 370.824877 458.397607 
L 381.354 458.965921 
L 395.392831 459.480137 
L 412.94137 459.860799 
L 437.509323 460.116258 
L 476.116108 460.241293 
L 588.426755 460.270012 
L 665.640324 460.270096 
L 665.640324 460.270096 
" clip-path="url(#p449cd18662)" style="fill: none; stroke: #1fbecf; stroke-opacity: 0.8; stroke-width: 6; stroke-linecap: square"/>
   </g>
   <g id="patch_3">
    <path d="M 108 512.64 
L 108 69.12 
" style="fill: none; stroke: #000000; stroke-width: 2; stroke-linejoin: miter; stroke-linecap: square"/>
   </g>
   <g id="patch_4">
    <path d="M 777.6 512.64 
L 777.6 69.12 
" style="fill: none; stroke: #000000; stroke-width: 2; stroke-linejoin: miter; stroke-linecap: square"/>
   </g>
   <g id="patch_5">
    <path d="M 108 512.64 
L 777.6 512.64 
" style="fill: none; stroke: #000000; stroke-width: 2; stroke-linejoin: miter; stroke-linecap: square"/>
   </g>
   <g id="patch_6">
    <path d="M 108 69.12 
L 777.6 69.12 
" style="fill: none; stroke: #000000; stroke-width: 2; stroke-linejoin: miter; stroke-linecap: square"/>
   </g>
   <g id="text_21">
    <!-- AZ18 WHT01_Ol_190_prof_1 -->
    <g transform="translate(332.794125 42.799875) scale(0.168 -0.168)">
     <defs>
      <path id="Avenir-Book-41" d="M 1210 1613 
L 3174 1613 
L 2195 3994 
L 1210 1613 
z
M 538 0 
L 0 0 
L 1971 4531 
L 2419 4531 
L 4390 0 
L 3853 0 
L 3354 1190 
L 1037 1190 
L 538 0 
z
" transform="scale(0.015625)"/>
      <path id="Avenir-Book-5a" d="M 3373 4147 
L 730 422 
L 3411 422 
L 3411 0 
L 147 0 
L 147 384 
L 2797 4109 
L 186 4109 
L 186 4531 
L 3373 4531 
L 3373 4147 
z
" transform="scale(0.015625)"/>
      <path id="Avenir-Book-57" d="M 1600 653 
L 1613 653 
L 2752 4531 
L 3302 4531 
L 4442 653 
L 4454 653 
L 5530 4531 
L 6042 4531 
L 4704 0 
L 4166 0 
L 3027 3878 
L 3014 3878 
L 1875 0 
L 1338 0 
L 0 4531 
L 512 4531 
L 1600 653 
z
" transform="scale(0.015625)"/>
      <path id="Avenir-Book-48" d="M 614 4531 
L 1075 4531 
L 1075 2566 
L 3546 2566 
L 3546 4531 
L 4006 4531 
L 4006 0 
L 3546 0 
L 3546 2144 
L 1075 2144 
L 1075 0 
L 614 0 
L 614 4531 
z
" transform="scale(0.015625)"/>
      <path id="Avenir-Book-54" d="M 2067 0 
L 1606 0 
L 1606 4109 
L 90 4109 
L 90 4531 
L 3584 4531 
L 3584 4109 
L 2067 4109 
L 2067 0 
z
" transform="scale(0.015625)"/>
      <path id="Avenir-Book-5f" d="M 0 -480 
L 3200 -480 
L 3200 -800 
L 0 -800 
L 0 -480 
z
" transform="scale(0.015625)"/>
      <path id="Avenir-Book-4f" d="M 4531 2266 
Q 4531 2656 4403 3011 
Q 4275 3366 4035 3635 
Q 3795 3904 3449 4064 
Q 3104 4224 2669 4224 
Q 2234 4224 1888 4064 
Q 1542 3904 1302 3635 
Q 1062 3366 934 3011 
Q 806 2656 806 2266 
Q 806 1875 934 1520 
Q 1062 1165 1302 896 
Q 1542 627 1888 467 
Q 2234 307 2669 307 
Q 3104 307 3449 467 
Q 3795 627 4035 896 
Q 4275 1165 4403 1520 
Q 4531 1875 4531 2266 
z
M 5030 2266 
Q 5030 1747 4851 1312 
Q 4672 877 4355 560 
Q 4038 243 3606 64 
Q 3174 -115 2669 -115 
Q 2163 -115 1731 64 
Q 1299 243 982 560 
Q 666 877 486 1312 
Q 307 1747 307 2266 
Q 307 2784 486 3219 
Q 666 3654 982 3971 
Q 1299 4288 1731 4467 
Q 2163 4646 2669 4646 
Q 3174 4646 3606 4467 
Q 4038 4288 4355 3971 
Q 4672 3654 4851 3219 
Q 5030 2784 5030 2266 
z
" transform="scale(0.015625)"/>
      <path id="Avenir-Book-6c" d="M 979 0 
L 557 0 
L 557 4838 
L 979 4838 
L 979 0 
z
" transform="scale(0.015625)"/>
      <path id="Avenir-Book-70" d="M 3194 1498 
Q 3194 1747 3114 1964 
Q 3034 2182 2886 2342 
Q 2739 2502 2531 2595 
Q 2323 2688 2061 2688 
Q 1798 2688 1580 2595 
Q 1363 2502 1203 2342 
Q 1043 2182 953 1964 
Q 864 1747 864 1498 
Q 864 1248 953 1030 
Q 1043 813 1203 653 
Q 1363 493 1580 400 
Q 1798 307 2061 307 
Q 2323 307 2531 400 
Q 2739 493 2886 653 
Q 3034 813 3114 1030 
Q 3194 1248 3194 1498 
z
M 461 2995 
L 883 2995 
L 883 2496 
L 896 2496 
Q 998 2650 1139 2758 
Q 1280 2867 1433 2937 
Q 1587 3008 1750 3040 
Q 1914 3072 2061 3072 
Q 2413 3072 2704 2953 
Q 2995 2835 3206 2624 
Q 3418 2413 3536 2125 
Q 3654 1837 3654 1498 
Q 3654 1158 3536 870 
Q 3418 582 3206 371 
Q 2995 160 2704 41 
Q 2413 -77 2061 -77 
Q 1914 -77 1750 -45 
Q 1587 -13 1433 57 
Q 1280 128 1139 237 
Q 998 346 896 499 
L 883 499 
L 883 -1843 
L 461 -1843 
L 461 2995 
z
" transform="scale(0.015625)"/>
     </defs>
     <use xlink:href="#Avenir-Book-41"/>
     <use xlink:href="#Avenir-Book-5a" transform="translate(68.599991 0)"/>
     <use xlink:href="#Avenir-Book-31" transform="translate(124.199982 0)"/>
     <use xlink:href="#Avenir-Book-38" transform="translate(179.799973 0)"/>
     <use xlink:href="#Avenir-Book-20" transform="translate(235.399963 0)"/>
     <use xlink:href="#Avenir-Book-57" transform="translate(263.199951 0)"/>
     <use xlink:href="#Avenir-Book-48" transform="translate(357.599945 0)"/>
     <use xlink:href="#Avenir-Book-54" transform="translate(429.799927 0)"/>
     <use xlink:href="#Avenir-Book-30" transform="translate(487.199921 0)"/>
     <use xlink:href="#Avenir-Book-31" transform="translate(542.799911 0)"/>
     <use xlink:href="#Avenir-Book-5f" transform="translate(598.399902 0)"/>
     <use xlink:href="#Avenir-Book-4f" transform="translate(648.399887 0)"/>
     <use xlink:href="#Avenir-Book-6c" transform="translate(731.799881 0)"/>
     <use xlink:href="#Avenir-Book-5f" transform="translate(755.799866 0)"/>
     <use xlink:href="#Avenir-Book-31" transform="translate(805.79985 0)"/>
     <use xlink:href="#Avenir-Book-39" transform="translate(861.399841 0)"/>
     <use xlink:href="#Avenir-Book-30" transform="translate(916.999832 0)"/>
     <use xlink:href="#Avenir-Book-5f" transform="translate(972.599823 0)"/>
     <use xlink:href="#Avenir-Book-70" transform="translate(1022.599808 0)"/>
     <use xlink:href="#Avenir-Book-72" transform="translate(1083.699799 0)"/>
     <use xlink:href="#Avenir-Book-6f" transform="translate(1115.149796 0)"/>
     <use xlink:href="#Avenir-Book-66" transform="translate(1174.449783 0)"/>
     <use xlink:href="#Avenir-Book-5f" transform="translate(1204.049774 0)"/>
     <use xlink:href="#Avenir-Book-31" transform="translate(1254.049759 0)"/>
    </g>
    <!-- Best fit time: 14.1±2.0 days Temperature: 1250.0 ˚C -->
    <g transform="translate(249.750937 63.12) scale(0.168 -0.168)">
     <defs>
      <path id="Avenir-Book-42" d="M 1075 422 
L 1958 422 
Q 2208 422 2425 473 
Q 2643 525 2803 630 
Q 2963 736 3056 896 
Q 3149 1056 3149 1280 
Q 3149 1728 2861 1945 
Q 2573 2163 2016 2163 
L 1075 2163 
L 1075 422 
z
M 1075 2547 
L 2003 2547 
Q 2170 2547 2333 2588 
Q 2496 2630 2627 2726 
Q 2758 2822 2841 2972 
Q 2925 3123 2925 3341 
Q 2925 3411 2896 3539 
Q 2867 3667 2768 3795 
Q 2669 3923 2477 4016 
Q 2285 4109 1958 4109 
L 1075 4109 
L 1075 2547 
z
M 614 4531 
L 1965 4531 
Q 2246 4531 2508 4473 
Q 2771 4416 2976 4281 
Q 3181 4147 3302 3929 
Q 3424 3712 3424 3392 
Q 3424 3021 3216 2755 
Q 3008 2490 2624 2400 
L 2624 2387 
Q 3104 2349 3376 2051 
Q 3648 1754 3648 1254 
Q 3648 1146 3593 934 
Q 3539 723 3366 515 
Q 3194 307 2867 153 
Q 2541 0 1997 0 
L 614 0 
L 614 4531 
z
" transform="scale(0.015625)"/>
      <path id="Avenir-Book-3a" d="M 1235 307 
Q 1235 173 1139 67 
Q 1043 -38 890 -38 
Q 736 -38 640 67 
Q 544 173 544 307 
Q 544 442 640 547 
Q 736 653 890 653 
Q 1043 653 1139 547 
Q 1235 442 1235 307 
z
M 1235 2682 
Q 1235 2547 1139 2441 
Q 1043 2336 890 2336 
Q 736 2336 640 2441 
Q 544 2547 544 2682 
Q 544 2816 640 2921 
Q 736 3027 890 3027 
Q 1043 3027 1139 2921 
Q 1235 2816 1235 2682 
z
" transform="scale(0.015625)"/>
      <path id="Avenir-Book-b1" d="M 499 691 
L 3763 691 
L 3763 307 
L 499 307 
L 499 691 
z
M 499 2605 
L 1939 2605 
L 1939 3603 
L 2323 3603 
L 2323 2605 
L 3763 2605 
L 3763 2221 
L 2323 2221 
L 2323 1254 
L 1939 1254 
L 1939 2221 
L 499 2221 
L 499 2605 
z
" transform="scale(0.015625)"/>
      <path id="Avenir-Book-64" d="M 717 1498 
Q 717 1248 797 1030 
Q 877 813 1024 653 
Q 1171 493 1379 400 
Q 1587 307 1850 307 
Q 2106 307 2326 400 
Q 2547 493 2707 653 
Q 2867 813 2956 1030 
Q 3046 1248 3046 1498 
Q 3046 1747 2956 1964 
Q 2867 2182 2707 2342 
Q 2547 2502 2326 2595 
Q 2106 2688 1850 2688 
Q 1587 2688 1379 2595 
Q 1171 2502 1024 2342 
Q 877 2182 797 1964 
Q 717 1747 717 1498 
z
M 3450 0 
L 3027 0 
L 3027 499 
L 3014 499 
Q 2912 346 2771 237 
Q 2630 128 2476 57 
Q 2323 -13 2160 -45 
Q 1997 -77 1850 -77 
Q 1498 -77 1206 41 
Q 915 160 704 371 
Q 493 582 374 870 
Q 256 1158 256 1498 
Q 256 1837 374 2125 
Q 493 2413 704 2624 
Q 915 2835 1206 2953 
Q 1498 3072 1850 3072 
Q 1997 3072 2160 3040 
Q 2323 3008 2476 2937 
Q 2630 2867 2771 2758 
Q 2912 2650 3014 2496 
L 3027 2496 
L 3027 4838 
L 3450 4838 
L 3450 0 
z
" transform="scale(0.015625)"/>
      <path id="Avenir-Book-79" d="M 1574 518 
L 2490 2995 
L 3002 2995 
L 1504 -781 
Q 1370 -1126 1162 -1331 
Q 954 -1536 563 -1536 
Q 467 -1536 368 -1529 
Q 269 -1523 173 -1491 
L 218 -1082 
Q 352 -1152 538 -1152 
Q 762 -1152 890 -1011 
Q 1018 -870 1114 -614 
L 1331 -38 
L 102 2995 
L 634 2995 
L 1574 518 
z
" transform="scale(0.015625)"/>
      <path id="Avenir-Book-75" d="M 2624 0 
Q 2611 122 2608 240 
Q 2605 358 2605 480 
L 2592 480 
Q 2522 358 2413 256 
Q 2304 154 2169 80 
Q 2035 6 1884 -35 
Q 1734 -77 1587 -77 
Q 1011 -77 736 227 
Q 461 531 461 1094 
L 461 2995 
L 883 2995 
L 883 1338 
Q 883 1088 921 896 
Q 960 704 1053 573 
Q 1146 442 1302 374 
Q 1459 307 1696 307 
Q 1728 307 1875 332 
Q 2022 358 2185 473 
Q 2349 589 2477 819 
Q 2605 1050 2605 1459 
L 2605 2995 
L 3027 2995 
L 3027 659 
Q 3027 538 3036 352 
Q 3046 166 3059 0 
L 2624 0 
z
" transform="scale(0.015625)"/>
      <path id="Avenir-Book-2da" d="M 1152 4160 
Q 1152 4320 1040 4429 
Q 928 4538 768 4538 
Q 608 4538 496 4429 
Q 384 4320 384 4160 
Q 384 4000 496 3891 
Q 608 3782 768 3782 
Q 928 3782 1040 3891 
Q 1152 4000 1152 4160 
z
M 1382 4160 
Q 1382 4032 1334 3920 
Q 1286 3808 1200 3725 
Q 1114 3642 1002 3597 
Q 890 3552 768 3552 
Q 640 3552 531 3597 
Q 422 3642 336 3725 
Q 250 3808 202 3920 
Q 154 4032 154 4160 
Q 154 4288 202 4400 
Q 250 4512 336 4592 
Q 422 4672 531 4720 
Q 640 4768 768 4768 
Q 890 4768 1002 4720 
Q 1114 4672 1200 4592 
Q 1286 4512 1334 4400 
Q 1382 4288 1382 4160 
z
" transform="scale(0.015625)"/>
      <path id="Avenir-Book-43" d="M 4346 717 
Q 4230 544 4060 390 
Q 3891 237 3673 125 
Q 3456 13 3203 -51 
Q 2950 -115 2669 -115 
Q 2163 -115 1731 64 
Q 1299 243 982 560 
Q 666 877 486 1312 
Q 307 1747 307 2266 
Q 307 2784 486 3219 
Q 666 3654 982 3971 
Q 1299 4288 1731 4467 
Q 2163 4646 2669 4646 
Q 3091 4646 3513 4480 
Q 3936 4314 4237 3930 
L 3834 3629 
Q 3763 3738 3641 3846 
Q 3520 3955 3363 4038 
Q 3206 4122 3027 4173 
Q 2848 4224 2669 4224 
Q 2234 4224 1888 4064 
Q 1542 3904 1302 3635 
Q 1062 3366 934 3011 
Q 806 2656 806 2266 
Q 806 1875 934 1520 
Q 1062 1165 1302 896 
Q 1542 627 1888 467 
Q 2234 307 2669 307 
Q 2848 307 3024 339 
Q 3200 371 3369 448 
Q 3539 525 3689 656 
Q 3840 787 3968 986 
L 4346 717 
z
" transform="scale(0.015625)"/>
     </defs>
     <use xlink:href="#Avenir-Book-42"/>
     <use xlink:href="#Avenir-Book-65" transform="translate(62.999985 0)"/>
     <use xlink:href="#Avenir-Book-73" transform="translate(118.599976 0)"/>
     <use xlink:href="#Avenir-Book-74" transform="translate(161.199966 0)"/>
     <use xlink:href="#Avenir-Book-20" transform="translate(194.399963 0)"/>
     <use xlink:href="#Avenir-Book-66" transform="translate(222.199951 0)"/>
     <use xlink:href="#Avenir-Book-69" transform="translate(251.799942 0)"/>
     <use xlink:href="#Avenir-Book-74" transform="translate(275.799927 0)"/>
     <use xlink:href="#Avenir-Book-20" transform="translate(308.999924 0)"/>
     <use xlink:href="#Avenir-Book-74" transform="translate(336.799911 0)"/>
     <use xlink:href="#Avenir-Book-69" transform="translate(369.999908 0)"/>
     <use xlink:href="#Avenir-Book-6d" transform="translate(393.999893 0)"/>
     <use xlink:href="#Avenir-Book-65" transform="translate(479.199875 0)"/>
     <use xlink:href="#Avenir-Book-3a" transform="translate(534.799866 0)"/>
     <use xlink:href="#Avenir-Book-20" transform="translate(562.599854 0)"/>
     <use xlink:href="#Avenir-Book-31" transform="translate(590.399841 0)"/>
     <use xlink:href="#Avenir-Book-34" transform="translate(645.999832 0)"/>
     <use xlink:href="#Avenir-Book-2e" transform="translate(701.599823 0)"/>
     <use xlink:href="#Avenir-Book-31" transform="translate(729.399811 0)"/>
     <use xlink:href="#Avenir-Book-b1" transform="translate(784.999802 0)"/>
     <use xlink:href="#Avenir-Book-32" transform="translate(851.599792 0)"/>
     <use xlink:href="#Avenir-Book-2e" transform="translate(907.199783 0)"/>
     <use xlink:href="#Avenir-Book-30" transform="translate(934.999771 0)"/>
     <use xlink:href="#Avenir-Book-20" transform="translate(990.599762 0)"/>
     <use xlink:href="#Avenir-Book-64" transform="translate(1018.39975 0)"/>
     <use xlink:href="#Avenir-Book-61" transform="translate(1079.499741 0)"/>
     <use xlink:href="#Avenir-Book-79" transform="translate(1131.399734 0)"/>
     <use xlink:href="#Avenir-Book-73" transform="translate(1179.599731 0)"/>
     <use xlink:href="#Avenir-Book-20" transform="translate(1222.199722 0)"/>
     <use xlink:href="#Avenir-Book-54" transform="translate(1249.99971 0)"/>
     <use xlink:href="#Avenir-Book-65" transform="translate(1296.274704 0)"/>
     <use xlink:href="#Avenir-Book-6d" transform="translate(1351.874695 0)"/>
     <use xlink:href="#Avenir-Book-70" transform="translate(1437.074677 0)"/>
     <use xlink:href="#Avenir-Book-65" transform="translate(1498.174667 0)"/>
     <use xlink:href="#Avenir-Book-72" transform="translate(1553.774658 0)"/>
     <use xlink:href="#Avenir-Book-61" transform="translate(1586.974655 0)"/>
     <use xlink:href="#Avenir-Book-74" transform="translate(1638.874649 0)"/>
     <use xlink:href="#Avenir-Book-75" transform="translate(1672.074646 0)"/>
     <use xlink:href="#Avenir-Book-72" transform="translate(1727.674637 0)"/>
     <use xlink:href="#Avenir-Book-65" transform="translate(1759.124634 0)"/>
     <use xlink:href="#Avenir-Book-3a" transform="translate(1814.724625 0)"/>
     <use xlink:href="#Avenir-Book-20" transform="translate(1842.524612 0)"/>
     <use xlink:href="#Avenir-Book-31" transform="translate(1870.3246 0)"/>
     <use xlink:href="#Avenir-Book-32" transform="translate(1925.924591 0)"/>
     <use xlink:href="#Avenir-Book-35" transform="translate(1981.524582 0)"/>
     <use xlink:href="#Avenir-Book-30" transform="translate(2037.124573 0)"/>
     <use xlink:href="#Avenir-Book-2e" transform="translate(2092.724564 0)"/>
     <use xlink:href="#Avenir-Book-30" transform="translate(2120.524551 0)"/>
     <use xlink:href="#Avenir-Book-20" transform="translate(2176.124542 0)"/>
     <use xlink:href="#Avenir-Book-2da" transform="translate(2203.92453 0)"/>
     <use xlink:href="#Avenir-Book-43" transform="translate(2227.924515 0)"/>
    </g>
   </g>
   <g id="legend_1">
    <g id="patch_7">
     <path d="M 638.97375 200.241375 
L 767.8 200.241375 
Q 770.6 200.241375 770.6 197.441375 
L 770.6 78.92 
Q 770.6 76.12 767.8 76.12 
L 638.97375 76.12 
Q 636.17375 76.12 636.17375 78.92 
L 636.17375 197.441375 
Q 636.17375 200.241375 638.97375 200.241375 
z
" style="fill: #ffffff; opacity: 0.8; stroke: #cccccc; stroke-linejoin: miter"/>
    </g>
    <g id="line2d_77">
     <path d="M 641.77375 87.403125 
L 655.77375 87.403125 
L 669.77375 87.403125 
" style="fill: none; stroke-dasharray: 7.4,3.2; stroke-dashoffset: 0; stroke: #f47e1f; stroke-width: 2"/>
     <g>
      <use xlink:href="#m9d24817ebe" x="655.77375" y="87.403125" style="fill: #f47e1f; stroke: #f47e1f"/>
     </g>
    </g>
    <g id="text_22">
     <!-- Data -->
     <g transform="translate(680.97375 92.303125) scale(0.14 -0.14)">
      <use xlink:href="#Avenir-Book-44"/>
      <use xlink:href="#Avenir-Book-61" transform="translate(74.099991 0)"/>
      <use xlink:href="#Avenir-Book-74" transform="translate(125.999985 0)"/>
      <use xlink:href="#Avenir-Book-61" transform="translate(159.199982 0)"/>
     </g>
    </g>
    <g id="line2d_78">
     <path d="M 641.77375 119.39925 
L 655.77375 119.39925 
L 669.77375 119.39925 
" style="fill: none; stroke-dasharray: 3.7,1.6; stroke-dashoffset: 0; stroke: #000000"/>
    </g>
    <g id="text_23">
     <!-- Interpolation  -->
     <g transform="translate(680.97375 113.917813) scale(0.14 -0.14)">
      <defs>
       <path id="Avenir-Book-49" d="M 1075 0 
L 614 0 
L 614 4531 
L 1075 4531 
L 1075 0 
z
" transform="scale(0.015625)"/>
      </defs>
      <use xlink:href="#Avenir-Book-49"/>
      <use xlink:href="#Avenir-Book-6e" transform="translate(26.399994 0)"/>
      <use xlink:href="#Avenir-Book-74" transform="translate(81.999985 0)"/>
      <use xlink:href="#Avenir-Book-65" transform="translate(115.199982 0)"/>
      <use xlink:href="#Avenir-Book-72" transform="translate(170.799973 0)"/>
      <use xlink:href="#Avenir-Book-70" transform="translate(203.999969 0)"/>
      <use xlink:href="#Avenir-Book-6f" transform="translate(265.09996 0)"/>
      <use xlink:href="#Avenir-Book-6c" transform="translate(324.399948 0)"/>
      <use xlink:href="#Avenir-Book-61" transform="translate(348.399933 0)"/>
      <use xlink:href="#Avenir-Book-74" transform="translate(400.299927 0)"/>
      <use xlink:href="#Avenir-Book-69" transform="translate(433.499924 0)"/>
      <use xlink:href="#Avenir-Book-6f" transform="translate(457.499908 0)"/>
      <use xlink:href="#Avenir-Book-6e" transform="translate(516.799896 0)"/>
      <use xlink:href="#Avenir-Book-20" transform="translate(572.399887 0)"/>
     </g>
     <!--   Uncertainty -->
     <g transform="translate(680.97375 130.649125) scale(0.14 -0.14)">
      <defs>
       <path id="Avenir-Book-55" d="M 3853 1690 
Q 3853 1408 3785 1091 
Q 3718 774 3532 505 
Q 3347 237 3024 61 
Q 2701 -115 2195 -115 
Q 1683 -115 1363 61 
Q 1043 237 857 505 
Q 672 774 605 1091 
Q 538 1408 538 1690 
L 538 4531 
L 998 4531 
L 998 1741 
Q 998 1414 1062 1180 
Q 1126 947 1232 787 
Q 1338 627 1469 534 
Q 1600 442 1731 390 
Q 1862 339 1984 323 
Q 2106 307 2195 307 
Q 2278 307 2403 323 
Q 2528 339 2659 390 
Q 2790 442 2921 534 
Q 3053 627 3158 787 
Q 3264 947 3328 1180 
Q 3392 1414 3392 1741 
L 3392 4531 
L 3853 4531 
L 3853 1690 
z
" transform="scale(0.015625)"/>
      </defs>
      <use xlink:href="#Avenir-Book-20"/>
      <use xlink:href="#Avenir-Book-20" transform="translate(27.799988 0)"/>
      <use xlink:href="#Avenir-Book-55" transform="translate(55.599976 0)"/>
      <use xlink:href="#Avenir-Book-6e" transform="translate(124.199966 0)"/>
      <use xlink:href="#Avenir-Book-63" transform="translate(179.799957 0)"/>
      <use xlink:href="#Avenir-Book-65" transform="translate(227.999954 0)"/>
      <use xlink:href="#Avenir-Book-72" transform="translate(283.599945 0)"/>
      <use xlink:href="#Avenir-Book-74" transform="translate(316.799942 0)"/>
      <use xlink:href="#Avenir-Book-61" transform="translate(349.999939 0)"/>
      <use xlink:href="#Avenir-Book-69" transform="translate(401.899933 0)"/>
      <use xlink:href="#Avenir-Book-6e" transform="translate(425.899918 0)"/>
      <use xlink:href="#Avenir-Book-74" transform="translate(481.499908 0)"/>
      <use xlink:href="#Avenir-Book-79" transform="translate(514.699905 0)"/>
     </g>
    </g>
    <g id="line2d_79">
     <path d="M 641.77375 157.74525 
L 655.77375 157.74525 
L 669.77375 157.74525 
" style="fill: none; stroke-dasharray: 7.4,3.2; stroke-dashoffset: 0; stroke: #1b878c; stroke-width: 2"/>
    </g>
    <g id="text_24">
     <!-- Initial  -->
     <g transform="translate(680.97375 152.263813) scale(0.14 -0.14)">
      <use xlink:href="#Avenir-Book-49"/>
      <use xlink:href="#Avenir-Book-6e" transform="translate(26.399994 0)"/>
      <use xlink:href="#Avenir-Book-69" transform="translate(81.999985 0)"/>
      <use xlink:href="#Avenir-Book-74" transform="translate(105.999969 0)"/>
      <use xlink:href="#Avenir-Book-69" transform="translate(139.199966 0)"/>
      <use xlink:href="#Avenir-Book-61" transform="translate(163.199951 0)"/>
      <use xlink:href="#Avenir-Book-6c" transform="translate(215.099945 0)"/>
      <use xlink:href="#Avenir-Book-20" transform="translate(239.09993 0)"/>
     </g>
     <!--  Condition -->
     <g transform="translate(680.97375 168.995125) scale(0.14 -0.14)">
      <use xlink:href="#Avenir-Book-20"/>
      <use xlink:href="#Avenir-Book-43" transform="translate(27.799988 0)"/>
      <use xlink:href="#Avenir-Book-6f" transform="translate(98.199982 0)"/>
      <use xlink:href="#Avenir-Book-6e" transform="translate(157.499969 0)"/>
      <use xlink:href="#Avenir-Book-64" transform="translate(213.09996 0)"/>
      <use xlink:href="#Avenir-Book-69" transform="translate(274.199951 0)"/>
      <use xlink:href="#Avenir-Book-74" transform="translate(298.199936 0)"/>
      <use xlink:href="#Avenir-Book-69" transform="translate(331.399933 0)"/>
      <use xlink:href="#Avenir-Book-6f" transform="translate(355.399918 0)"/>
      <use xlink:href="#Avenir-Book-6e" transform="translate(414.699905 0)"/>
     </g>
    </g>
    <g id="line2d_80">
     <path d="M 641.77375 185.709813 
L 655.77375 185.709813 
L 669.77375 185.709813 
" style="fill: none; stroke: #1fbecf; stroke-opacity: 0.8; stroke-width: 6; stroke-linecap: square"/>
    </g>
    <g id="text_25">
     <!-- Best fit -->
     <g transform="translate(680.97375 190.609813) scale(0.14 -0.14)">
      <use xlink:href="#Avenir-Book-42"/>
      <use xlink:href="#Avenir-Book-65" transform="translate(62.999985 0)"/>
      <use xlink:href="#Avenir-Book-73" transform="translate(118.599976 0)"/>
      <use xlink:href="#Avenir-Book-74" transform="translate(161.199966 0)"/>
      <use xlink:href="#Avenir-Book-20" transform="translate(194.399963 0)"/>
      <use xlink:href="#Avenir-Book-66" transform="translate(222.199951 0)"/>
      <use xlink:href="#Avenir-Book-69" transform="translate(251.799942 0)"/>
      <use xlink:href="#Avenir-Book-74" transform="translate(275.799927 0)"/>
     </g>
    </g>
   </g>
  </g>
 </g>
 <defs>
  <clipPath id="p449cd18662">
   <rect x="108" y="69.12" width="669.6" height="443.52"/>
  </clipPath>
 </defs>
</svg>
