<?xml version="1.0" encoding="utf-8" standalone="no"?>
<!DOCTYPE svg PUBLIC "-//W3C//DTD SVG 1.1//EN"
  "http://www.w3.org/Graphics/SVG/1.1/DTD/svg11.dtd">
<svg xmlns:xlink="http://www.w3.org/1999/xlink" width="864pt" height="576pt" viewBox="0 0 864 576" xmlns="http://www.w3.org/2000/svg" version="1.1">
 <metadata>
  <rdf:RDF xmlns:dc="http://purl.org/dc/elements/1.1/" xmlns:cc="http://creativecommons.org/ns#" xmlns:rdf="http://www.w3.org/1999/02/22-rdf-syntax-ns#">
   <cc:Work>
    <dc:type rdf:resource="http://purl.org/dc/dcmitype/StillImage"/>
    <dc:date>2025-10-23T14:51:46.355568</dc:date>
    <dc:format>image/svg+xml</dc:format>
    <dc:creator>
     <cc:Agent>
      <dc:title>Matplotlib v3.10.6, https://matplotlib.org/</dc:title>
     </cc:Agent>
    </dc:creator>
   </cc:Work>
  </rdf:RDF>
 </metadata>
 <defs>
  <style type="text/css">*{stroke-linejoin: round; stroke-linecap: butt}</style>
 </defs>
 <g id="figure_1">
  <g id="patch_1">
   <path d="M 0 576 
L 864 576 
L 864 0 
L 0 0 
z
" style="fill: #ffffff"/>
  </g>
  <g id="axes_1">
   <g id="patch_2">
    <path d="M 108 512.64 
L 777.6 512.64 
L 777.6 69.12 
L 108 69.12 
z
" style="fill: #ffffff"/>
   </g>
   <g id="matplotlib.axis_1">
    <g id="xtick_1">
     <g id="line2d_1">
      <defs>
       <path id="m771b1f337c" d="M 0 0 
L 0 7 
" style="stroke: #000000; stroke-width: 2"/>
      </defs>
      <g>
       <use xlink:href="#m771b1f337c" x="130.225524" y="512.64" style="stroke: #000000; stroke-width: 2"/>
      </g>
     </g>
     <g id="text_1">
      <!-- 0 -->
      <g transform="translate(126.333962 533.723125) scale(0.14 -0.14)">
       <defs>
        <path id="Avenir-Book-30" d="M 1779 4186 
Q 1408 4186 1193 3987 
Q 979 3789 870 3494 
Q 762 3200 733 2867 
Q 704 2534 704 2266 
Q 704 1997 733 1664 
Q 762 1331 870 1036 
Q 979 742 1193 544 
Q 1408 346 1779 346 
Q 2150 346 2364 544 
Q 2579 742 2688 1036 
Q 2797 1331 2825 1664 
Q 2854 1997 2854 2266 
Q 2854 2534 2825 2867 
Q 2797 3200 2688 3494 
Q 2579 3789 2364 3987 
Q 2150 4186 1779 4186 
z
M 1779 4608 
Q 2266 4608 2566 4384 
Q 2867 4160 3033 3814 
Q 3200 3469 3257 3056 
Q 3315 2643 3315 2266 
Q 3315 1888 3257 1475 
Q 3200 1062 3033 716 
Q 2867 371 2566 147 
Q 2266 -77 1779 -77 
Q 1293 -77 992 147 
Q 691 371 524 716 
Q 358 1062 300 1475 
Q 243 1888 243 2266 
Q 243 2643 300 3056 
Q 358 3469 524 3814 
Q 691 4160 992 4384 
Q 1293 4608 1779 4608 
z
" transform="scale(0.015625)"/>
       </defs>
       <use xlink:href="#Avenir-Book-30"/>
      </g>
     </g>
    </g>
    <g id="xtick_2">
     <g id="line2d_2">
      <g>
       <use xlink:href="#m771b1f337c" x="241.353146" y="512.64" style="stroke: #000000; stroke-width: 2"/>
      </g>
     </g>
     <g id="text_2">
      <!-- 10 -->
      <g transform="translate(233.570021 533.723125) scale(0.14 -0.14)">
       <defs>
        <path id="Avenir-Book-31" d="M 2227 0 
L 1766 0 
L 1766 3955 
L 954 3238 
L 666 3584 
L 1818 4531 
L 2227 4531 
L 2227 0 
z
" transform="scale(0.015625)"/>
       </defs>
       <use xlink:href="#Avenir-Book-31"/>
       <use xlink:href="#Avenir-Book-30" transform="translate(55.599991 0)"/>
      </g>
     </g>
    </g>
    <g id="xtick_3">
     <g id="line2d_3">
      <g>
       <use xlink:href="#m771b1f337c" x="352.480768" y="512.64" style="stroke: #000000; stroke-width: 2"/>
      </g>
     </g>
     <g id="text_3">
      <!-- 20 -->
      <g transform="translate(344.697643 533.723125) scale(0.14 -0.14)">
       <defs>
        <path id="Avenir-Book-32" d="M 3187 0 
L 307 0 
L 307 531 
L 2112 2368 
Q 2214 2470 2316 2585 
Q 2419 2701 2502 2829 
Q 2586 2957 2637 3097 
Q 2688 3238 2688 3392 
Q 2688 3578 2621 3725 
Q 2554 3872 2432 3974 
Q 2310 4077 2150 4131 
Q 1990 4186 1811 4186 
Q 1466 4186 1222 3994 
Q 979 3802 909 3475 
L 422 3526 
Q 518 4032 886 4320 
Q 1254 4608 1779 4608 
Q 2054 4608 2300 4534 
Q 2547 4461 2736 4313 
Q 2925 4166 3037 3945 
Q 3149 3725 3149 3430 
Q 3149 3168 3069 2950 
Q 2989 2733 2861 2541 
Q 2733 2349 2569 2176 
Q 2406 2003 2234 1837 
L 806 422 
L 3187 422 
L 3187 0 
z
" transform="scale(0.015625)"/>
       </defs>
       <use xlink:href="#Avenir-Book-32"/>
       <use xlink:href="#Avenir-Book-30" transform="translate(55.599991 0)"/>
      </g>
     </g>
    </g>
    <g id="xtick_4">
     <g id="line2d_4">
      <g>
       <use xlink:href="#m771b1f337c" x="463.608389" y="512.64" style="stroke: #000000; stroke-width: 2"/>
      </g>
     </g>
     <g id="text_4">
      <!-- 30 -->
      <g transform="translate(455.825264 533.723125) scale(0.14 -0.14)">
       <defs>
        <path id="Avenir-Book-33" d="M 1306 2586 
L 1542 2586 
Q 1741 2586 1923 2630 
Q 2106 2675 2240 2774 
Q 2374 2874 2454 3034 
Q 2534 3194 2534 3418 
Q 2534 3782 2313 3984 
Q 2093 4186 1696 4186 
Q 1408 4186 1190 4058 
Q 973 3930 832 3686 
L 429 3891 
Q 634 4256 950 4432 
Q 1267 4608 1683 4608 
Q 1952 4608 2189 4531 
Q 2426 4454 2605 4304 
Q 2784 4154 2889 3933 
Q 2995 3712 2995 3430 
Q 2995 3245 2934 3078 
Q 2874 2912 2768 2777 
Q 2662 2643 2521 2544 
Q 2381 2445 2227 2394 
L 2246 2381 
Q 2438 2342 2598 2236 
Q 2758 2131 2873 1977 
Q 2989 1824 3053 1632 
Q 3117 1440 3117 1229 
Q 3117 915 3001 672 
Q 2886 429 2688 262 
Q 2490 96 2227 9 
Q 1965 -77 1670 -77 
Q 1171 -77 800 140 
Q 429 358 243 838 
L 730 986 
Q 845 659 1072 502 
Q 1299 346 1709 346 
Q 1901 346 2073 410 
Q 2246 474 2377 592 
Q 2509 710 2582 876 
Q 2656 1043 2656 1242 
Q 2656 1498 2560 1674 
Q 2464 1850 2304 1958 
Q 2144 2067 1936 2115 
Q 1728 2163 1504 2163 
L 1306 2163 
L 1306 2586 
z
" transform="scale(0.015625)"/>
       </defs>
       <use xlink:href="#Avenir-Book-33"/>
       <use xlink:href="#Avenir-Book-30" transform="translate(55.599991 0)"/>
      </g>
     </g>
    </g>
    <g id="xtick_5">
     <g id="line2d_5">
      <g>
       <use xlink:href="#m771b1f337c" x="574.736011" y="512.64" style="stroke: #000000; stroke-width: 2"/>
      </g>
     </g>
     <g id="text_5">
      <!-- 40 -->
      <g transform="translate(566.952886 533.723125) scale(0.14 -0.14)">
       <defs>
        <path id="Avenir-Book-34" d="M 2202 4070 
L 2189 4070 
L 627 1498 
L 2202 1498 
L 2202 4070 
z
M 2662 1498 
L 3315 1498 
L 3315 1075 
L 2662 1075 
L 2662 0 
L 2202 0 
L 2202 1075 
L 243 1075 
L 243 1600 
L 2074 4531 
L 2662 4531 
L 2662 1498 
z
" transform="scale(0.015625)"/>
       </defs>
       <use xlink:href="#Avenir-Book-34"/>
       <use xlink:href="#Avenir-Book-30" transform="translate(55.599991 0)"/>
      </g>
     </g>
    </g>
    <g id="xtick_6">
     <g id="line2d_6">
      <g>
       <use xlink:href="#m771b1f337c" x="685.863633" y="512.64" style="stroke: #000000; stroke-width: 2"/>
      </g>
     </g>
     <g id="text_6">
      <!-- 50 -->
      <g transform="translate(678.080508 533.723125) scale(0.14 -0.14)">
       <defs>
        <path id="Avenir-Book-35" d="M 2976 4109 
L 1120 4109 
L 1094 2746 
Q 1242 2803 1395 2828 
Q 1549 2854 1702 2854 
Q 2022 2854 2284 2745 
Q 2547 2637 2736 2441 
Q 2925 2246 3030 1980 
Q 3136 1715 3136 1402 
Q 3136 1075 3021 803 
Q 2906 531 2701 336 
Q 2496 141 2217 32 
Q 1939 -77 1613 -77 
Q 1184 -77 838 128 
Q 493 333 307 730 
L 762 928 
Q 890 659 1120 502 
Q 1350 346 1651 346 
Q 1869 346 2054 426 
Q 2240 506 2377 640 
Q 2515 774 2595 960 
Q 2675 1146 2675 1357 
Q 2675 1594 2592 1792 
Q 2509 1990 2361 2134 
Q 2214 2278 2009 2355 
Q 1805 2432 1562 2432 
Q 1318 2432 1078 2365 
Q 838 2298 621 2182 
L 666 4531 
L 2976 4531 
L 2976 4109 
z
" transform="scale(0.015625)"/>
       </defs>
       <use xlink:href="#Avenir-Book-35"/>
       <use xlink:href="#Avenir-Book-30" transform="translate(55.599991 0)"/>
      </g>
     </g>
    </g>
    <g id="xtick_7">
     <g id="line2d_7">
      <defs>
       <path id="m393d2e8d04" d="M 0 0 
L 0 4 
" style="stroke: #000000; stroke-width: 2"/>
      </defs>
      <g>
       <use xlink:href="#m393d2e8d04" x="158.00743" y="512.64" style="stroke: #000000; stroke-width: 2"/>
      </g>
     </g>
    </g>
    <g id="xtick_8">
     <g id="line2d_8">
      <g>
       <use xlink:href="#m393d2e8d04" x="185.789335" y="512.64" style="stroke: #000000; stroke-width: 2"/>
      </g>
     </g>
    </g>
    <g id="xtick_9">
     <g id="line2d_9">
      <g>
       <use xlink:href="#m393d2e8d04" x="213.571241" y="512.64" style="stroke: #000000; stroke-width: 2"/>
      </g>
     </g>
    </g>
    <g id="xtick_10">
     <g id="line2d_10">
      <g>
       <use xlink:href="#m393d2e8d04" x="269.135051" y="512.64" style="stroke: #000000; stroke-width: 2"/>
      </g>
     </g>
    </g>
    <g id="xtick_11">
     <g id="line2d_11">
      <g>
       <use xlink:href="#m393d2e8d04" x="296.916957" y="512.64" style="stroke: #000000; stroke-width: 2"/>
      </g>
     </g>
    </g>
    <g id="xtick_12">
     <g id="line2d_12">
      <g>
       <use xlink:href="#m393d2e8d04" x="324.698862" y="512.64" style="stroke: #000000; stroke-width: 2"/>
      </g>
     </g>
    </g>
    <g id="xtick_13">
     <g id="line2d_13">
      <g>
       <use xlink:href="#m393d2e8d04" x="380.262673" y="512.64" style="stroke: #000000; stroke-width: 2"/>
      </g>
     </g>
    </g>
    <g id="xtick_14">
     <g id="line2d_14">
      <g>
       <use xlink:href="#m393d2e8d04" x="408.044579" y="512.64" style="stroke: #000000; stroke-width: 2"/>
      </g>
     </g>
    </g>
    <g id="xtick_15">
     <g id="line2d_15">
      <g>
       <use xlink:href="#m393d2e8d04" x="435.826484" y="512.64" style="stroke: #000000; stroke-width: 2"/>
      </g>
     </g>
    </g>
    <g id="xtick_16">
     <g id="line2d_16">
      <g>
       <use xlink:href="#m393d2e8d04" x="491.390295" y="512.64" style="stroke: #000000; stroke-width: 2"/>
      </g>
     </g>
    </g>
    <g id="xtick_17">
     <g id="line2d_17">
      <g>
       <use xlink:href="#m393d2e8d04" x="519.1722" y="512.64" style="stroke: #000000; stroke-width: 2"/>
      </g>
     </g>
    </g>
    <g id="xtick_18">
     <g id="line2d_18">
      <g>
       <use xlink:href="#m393d2e8d04" x="546.954106" y="512.64" style="stroke: #000000; stroke-width: 2"/>
      </g>
     </g>
    </g>
    <g id="xtick_19">
     <g id="line2d_19">
      <g>
       <use xlink:href="#m393d2e8d04" x="602.517917" y="512.64" style="stroke: #000000; stroke-width: 2"/>
      </g>
     </g>
    </g>
    <g id="xtick_20">
     <g id="line2d_20">
      <g>
       <use xlink:href="#m393d2e8d04" x="630.299822" y="512.64" style="stroke: #000000; stroke-width: 2"/>
      </g>
     </g>
    </g>
    <g id="xtick_21">
     <g id="line2d_21">
      <g>
       <use xlink:href="#m393d2e8d04" x="658.081727" y="512.64" style="stroke: #000000; stroke-width: 2"/>
      </g>
     </g>
    </g>
    <g id="xtick_22">
     <g id="line2d_22">
      <g>
       <use xlink:href="#m393d2e8d04" x="713.645538" y="512.64" style="stroke: #000000; stroke-width: 2"/>
      </g>
     </g>
    </g>
    <g id="xtick_23">
     <g id="line2d_23">
      <g>
       <use xlink:href="#m393d2e8d04" x="741.427444" y="512.64" style="stroke: #000000; stroke-width: 2"/>
      </g>
     </g>
    </g>
    <g id="xtick_24">
     <g id="line2d_24">
      <g>
       <use xlink:href="#m393d2e8d04" x="769.209349" y="512.64" style="stroke: #000000; stroke-width: 2"/>
      </g>
     </g>
    </g>
    <g id="text_7">
     <!-- Distance from Rim µm -->
     <g transform="translate(344.457812 556.873438) scale(0.2 -0.2)">
      <defs>
       <path id="Avenir-Book-44" d="M 1011 422 
L 1907 422 
Q 2426 422 2806 579 
Q 3187 736 3440 995 
Q 3693 1254 3814 1584 
Q 3936 1914 3936 2266 
Q 3936 2618 3814 2947 
Q 3693 3277 3440 3536 
Q 3187 3795 2806 3952 
Q 2426 4109 1907 4109 
L 1011 4109 
L 1011 422 
z
M 550 4531 
L 2054 4531 
Q 2477 4531 2902 4390 
Q 3328 4250 3670 3965 
Q 4013 3680 4224 3254 
Q 4435 2829 4435 2266 
Q 4435 1696 4224 1273 
Q 4013 851 3670 566 
Q 3328 282 2902 141 
Q 2477 0 2054 0 
L 550 0 
L 550 4531 
z
" transform="scale(0.015625)"/>
       <path id="Avenir-Book-69" d="M 1075 4147 
Q 1075 4013 979 3926 
Q 883 3840 768 3840 
Q 653 3840 557 3926 
Q 461 4013 461 4147 
Q 461 4282 557 4368 
Q 653 4454 768 4454 
Q 883 4454 979 4368 
Q 1075 4282 1075 4147 
z
M 979 0 
L 557 0 
L 557 2995 
L 979 2995 
L 979 0 
z
" transform="scale(0.015625)"/>
       <path id="Avenir-Book-73" d="M 2048 2285 
Q 1952 2470 1792 2579 
Q 1632 2688 1402 2688 
Q 1293 2688 1181 2662 
Q 1069 2637 979 2582 
Q 890 2528 835 2445 
Q 781 2362 781 2240 
Q 781 2029 928 1933 
Q 1075 1837 1370 1766 
L 1798 1664 
Q 2112 1594 2320 1379 
Q 2528 1165 2528 845 
Q 2528 602 2429 426 
Q 2330 250 2166 138 
Q 2003 26 1792 -25 
Q 1581 -77 1363 -77 
Q 1018 -77 720 54 
Q 422 186 211 506 
L 576 755 
Q 704 550 899 428 
Q 1094 307 1363 307 
Q 1491 307 1619 336 
Q 1747 365 1846 425 
Q 1946 486 2006 582 
Q 2067 678 2067 806 
Q 2067 1030 1900 1129 
Q 1734 1229 1498 1286 
L 1088 1382 
Q 1011 1402 880 1446 
Q 749 1491 624 1580 
Q 499 1670 409 1814 
Q 320 1958 320 2170 
Q 320 2400 413 2573 
Q 506 2746 662 2854 
Q 819 2963 1017 3017 
Q 1216 3072 1427 3072 
Q 1741 3072 2009 2950 
Q 2278 2829 2426 2534 
L 2048 2285 
z
" transform="scale(0.015625)"/>
       <path id="Avenir-Book-74" d="M 2010 2611 
L 1146 2611 
L 1146 845 
Q 1146 678 1178 572 
Q 1210 467 1267 409 
Q 1325 352 1405 329 
Q 1485 307 1581 307 
Q 1690 307 1805 339 
Q 1920 371 2016 422 
L 2035 32 
Q 1798 -77 1466 -77 
Q 1344 -77 1213 -45 
Q 1082 -13 973 76 
Q 864 166 793 320 
Q 723 474 723 723 
L 723 2611 
L 90 2611 
L 90 2995 
L 723 2995 
L 723 3840 
L 1146 3840 
L 1146 2995 
L 2010 2995 
L 2010 2611 
z
" transform="scale(0.015625)"/>
       <path id="Avenir-Book-61" d="M 2163 1491 
Q 2003 1491 1763 1475 
Q 1523 1459 1302 1398 
Q 1082 1338 925 1210 
Q 768 1082 768 858 
Q 768 710 829 604 
Q 890 499 992 432 
Q 1094 365 1219 336 
Q 1344 307 1472 307 
Q 1702 307 1872 384 
Q 2042 461 2157 592 
Q 2272 723 2326 899 
Q 2381 1075 2381 1274 
L 2381 1491 
L 2163 1491 
z
M 2381 1837 
L 2381 1914 
Q 2381 2688 1613 2688 
Q 1088 2688 698 2336 
L 442 2637 
Q 864 3072 1709 3072 
Q 1926 3072 2128 3008 
Q 2330 2944 2477 2813 
Q 2624 2682 2713 2483 
Q 2803 2285 2803 2010 
L 2803 672 
Q 2803 499 2819 310 
Q 2835 122 2854 0 
L 2445 0 
Q 2426 109 2416 237 
Q 2406 365 2406 486 
L 2394 486 
Q 2208 186 1955 54 
Q 1702 -77 1338 -77 
Q 1139 -77 953 -22 
Q 768 32 624 144 
Q 480 256 393 419 
Q 307 582 307 800 
Q 307 1165 496 1373 
Q 685 1581 969 1683 
Q 1254 1786 1577 1811 
Q 1901 1837 2170 1837 
L 2381 1837 
z
" transform="scale(0.015625)"/>
       <path id="Avenir-Book-6e" d="M 864 2995 
Q 877 2874 880 2755 
Q 883 2637 883 2515 
L 896 2515 
Q 966 2637 1075 2739 
Q 1184 2842 1318 2915 
Q 1453 2989 1603 3030 
Q 1754 3072 1901 3072 
Q 2477 3072 2752 2768 
Q 3027 2464 3027 1901 
L 3027 0 
L 2605 0 
L 2605 1658 
Q 2605 2157 2432 2422 
Q 2259 2688 1792 2688 
Q 1760 2688 1613 2662 
Q 1466 2637 1302 2521 
Q 1139 2406 1011 2176 
Q 883 1946 883 1536 
L 883 0 
L 461 0 
L 461 2336 
Q 461 2458 451 2643 
Q 442 2829 429 2995 
L 864 2995 
z
" transform="scale(0.015625)"/>
       <path id="Avenir-Book-63" d="M 2643 2291 
Q 2534 2458 2339 2573 
Q 2144 2688 1894 2688 
Q 1632 2694 1424 2604 
Q 1216 2515 1069 2355 
Q 922 2195 845 1974 
Q 768 1754 768 1498 
Q 768 1242 845 1021 
Q 922 800 1069 640 
Q 1216 480 1424 390 
Q 1632 301 1894 307 
Q 2144 307 2339 422 
Q 2534 538 2643 704 
L 2989 442 
Q 2765 179 2483 54 
Q 2202 -70 1894 -77 
Q 1530 -83 1235 35 
Q 941 154 733 365 
Q 525 576 416 867 
Q 307 1158 307 1498 
Q 307 1837 416 2128 
Q 525 2419 733 2630 
Q 941 2842 1235 2960 
Q 1530 3078 1894 3072 
Q 2202 3066 2483 2941 
Q 2765 2816 2989 2554 
L 2643 2291 
z
" transform="scale(0.015625)"/>
       <path id="Avenir-Book-65" d="M 2790 1728 
Q 2790 2157 2534 2422 
Q 2278 2688 1818 2688 
Q 1613 2688 1421 2608 
Q 1229 2528 1085 2393 
Q 941 2259 854 2086 
Q 768 1914 768 1728 
L 2790 1728 
z
M 755 1382 
Q 774 1158 864 960 
Q 954 762 1101 618 
Q 1248 474 1440 390 
Q 1632 307 1856 307 
Q 2195 307 2441 464 
Q 2688 621 2816 826 
L 3142 557 
Q 2874 218 2550 70 
Q 2227 -77 1856 -77 
Q 1523 -77 1238 41 
Q 954 160 749 371 
Q 544 582 425 870 
Q 307 1158 307 1498 
Q 307 1837 422 2125 
Q 538 2413 742 2624 
Q 947 2835 1222 2953 
Q 1498 3072 1818 3072 
Q 2157 3072 2425 2950 
Q 2694 2829 2876 2627 
Q 3059 2426 3155 2154 
Q 3251 1882 3251 1574 
L 3251 1382 
L 755 1382 
z
" transform="scale(0.015625)"/>
       <path id="Avenir-Book-20" transform="scale(0.015625)"/>
       <path id="Avenir-Book-66" d="M 1856 2611 
L 1146 2611 
L 1146 0 
L 723 0 
L 723 2611 
L 90 2611 
L 90 2995 
L 723 2995 
L 723 3814 
Q 723 4410 998 4662 
Q 1274 4915 1728 4915 
Q 1818 4915 1910 4902 
Q 2003 4890 2093 4870 
L 2016 4486 
Q 1939 4506 1856 4518 
Q 1773 4531 1690 4531 
Q 1517 4531 1408 4473 
Q 1299 4416 1241 4310 
Q 1184 4205 1165 4064 
Q 1146 3923 1146 3763 
L 1146 2995 
L 1856 2995 
L 1856 2611 
z
" transform="scale(0.015625)"/>
       <path id="Avenir-Book-72" d="M 506 2061 
Q 506 2259 496 2464 
Q 486 2669 480 2995 
L 896 2995 
L 896 2438 
L 909 2438 
Q 954 2560 1037 2672 
Q 1120 2784 1238 2873 
Q 1357 2963 1513 3017 
Q 1670 3072 1869 3072 
Q 2048 3072 2182 3034 
L 2099 2618 
Q 2016 2650 1856 2650 
Q 1613 2650 1440 2557 
Q 1267 2464 1152 2320 
Q 1037 2176 982 2009 
Q 928 1843 928 1690 
L 928 0 
L 506 0 
L 506 2061 
z
" transform="scale(0.015625)"/>
       <path id="Avenir-Book-6f" d="M 3027 1498 
Q 3027 1747 2947 1964 
Q 2867 2182 2720 2342 
Q 2573 2502 2365 2595 
Q 2157 2688 1894 2688 
Q 1632 2688 1424 2595 
Q 1216 2502 1072 2342 
Q 928 2182 848 1964 
Q 768 1747 768 1498 
Q 768 1248 848 1030 
Q 928 813 1072 653 
Q 1216 493 1424 400 
Q 1632 307 1894 307 
Q 2157 307 2365 400 
Q 2573 493 2720 653 
Q 2867 813 2947 1030 
Q 3027 1248 3027 1498 
z
M 3488 1498 
Q 3488 1158 3369 870 
Q 3251 582 3040 371 
Q 2829 160 2537 41 
Q 2246 -77 1894 -77 
Q 1549 -77 1257 41 
Q 966 160 755 371 
Q 544 582 425 870 
Q 307 1158 307 1498 
Q 307 1837 425 2125 
Q 544 2413 755 2624 
Q 966 2835 1257 2953 
Q 1549 3072 1894 3072 
Q 2246 3072 2537 2953 
Q 2829 2835 3040 2624 
Q 3251 2413 3369 2125 
Q 3488 1837 3488 1498 
z
" transform="scale(0.015625)"/>
       <path id="Avenir-Book-6d" d="M 461 2330 
Q 461 2496 451 2662 
Q 442 2829 429 2995 
L 883 2995 
L 883 2541 
L 896 2541 
Q 1050 2803 1322 2937 
Q 1594 3072 1862 3072 
Q 1984 3072 2121 3046 
Q 2259 3021 2387 2953 
Q 2515 2886 2627 2764 
Q 2739 2643 2816 2451 
Q 2944 2739 3222 2905 
Q 3501 3072 3802 3072 
Q 4378 3072 4653 2768 
Q 4928 2464 4928 1901 
L 4928 0 
L 4506 0 
L 4506 1747 
Q 4506 2202 4346 2445 
Q 4186 2688 3750 2688 
Q 3514 2688 3354 2595 
Q 3194 2502 3094 2348 
Q 2995 2195 2950 2000 
Q 2906 1805 2906 1594 
L 2906 0 
L 2483 0 
L 2483 1747 
Q 2483 2202 2323 2445 
Q 2163 2688 1728 2688 
Q 1690 2688 1552 2662 
Q 1414 2637 1267 2521 
Q 1120 2406 1001 2176 
Q 883 1946 883 1536 
L 883 0 
L 461 0 
L 461 2330 
z
" transform="scale(0.015625)"/>
       <path id="Avenir-Book-52" d="M 1075 2528 
L 1894 2528 
Q 2202 2528 2416 2592 
Q 2630 2656 2758 2761 
Q 2886 2867 2944 3011 
Q 3002 3155 3002 3322 
Q 3002 3482 2944 3626 
Q 2886 3770 2758 3878 
Q 2630 3987 2416 4048 
Q 2202 4109 1894 4109 
L 1075 4109 
L 1075 2528 
z
M 1075 0 
L 614 0 
L 614 4531 
L 2010 4531 
Q 2701 4531 3101 4230 
Q 3501 3930 3501 3322 
Q 3501 2848 3203 2525 
Q 2906 2202 2342 2150 
L 3648 0 
L 3085 0 
L 1843 2106 
L 1075 2106 
L 1075 0 
z
" transform="scale(0.015625)"/>
       <path id="Avenir-Book-b5" d="M 461 2995 
L 883 2995 
L 883 1338 
Q 883 787 1059 547 
Q 1235 307 1696 307 
Q 1888 307 2054 384 
Q 2221 461 2342 608 
Q 2464 755 2534 969 
Q 2605 1184 2605 1459 
L 2605 2995 
L 3027 2995 
L 3027 659 
Q 3027 493 3036 329 
Q 3046 166 3059 0 
L 2605 0 
L 2605 486 
L 2592 486 
Q 2522 371 2413 268 
Q 2304 166 2169 89 
Q 2035 13 1884 -32 
Q 1734 -77 1587 -77 
Q 1146 -77 883 109 
L 883 -1459 
L 461 -1459 
L 461 2995 
z
" transform="scale(0.015625)"/>
      </defs>
      <use xlink:href="#Avenir-Book-44"/>
      <use xlink:href="#Avenir-Book-69" transform="translate(74.099991 0)"/>
      <use xlink:href="#Avenir-Book-73" transform="translate(98.099976 0)"/>
      <use xlink:href="#Avenir-Book-74" transform="translate(140.699966 0)"/>
      <use xlink:href="#Avenir-Book-61" transform="translate(173.899963 0)"/>
      <use xlink:href="#Avenir-Book-6e" transform="translate(225.799957 0)"/>
      <use xlink:href="#Avenir-Book-63" transform="translate(281.399948 0)"/>
      <use xlink:href="#Avenir-Book-65" transform="translate(329.599945 0)"/>
      <use xlink:href="#Avenir-Book-20" transform="translate(385.199936 0)"/>
      <use xlink:href="#Avenir-Book-66" transform="translate(412.999924 0)"/>
      <use xlink:href="#Avenir-Book-72" transform="translate(442.599915 0)"/>
      <use xlink:href="#Avenir-Book-6f" transform="translate(474.049911 0)"/>
      <use xlink:href="#Avenir-Book-6d" transform="translate(533.349899 0)"/>
      <use xlink:href="#Avenir-Book-20" transform="translate(618.549881 0)"/>
      <use xlink:href="#Avenir-Book-52" transform="translate(646.349869 0)"/>
      <use xlink:href="#Avenir-Book-69" transform="translate(705.649857 0)"/>
      <use xlink:href="#Avenir-Book-6d" transform="translate(729.649841 0)"/>
      <use xlink:href="#Avenir-Book-20" transform="translate(814.849823 0)"/>
      <use xlink:href="#Avenir-Book-b5" transform="translate(842.649811 0)"/>
      <use xlink:href="#Avenir-Book-6d" transform="translate(898.249802 0)"/>
     </g>
    </g>
   </g>
   <g id="matplotlib.axis_2">
    <g id="ytick_1">
     <g id="line2d_25">
      <defs>
       <path id="m045891308a" d="M 0 0 
L -7 0 
" style="stroke: #000000; stroke-width: 2"/>
      </defs>
      <g>
       <use xlink:href="#m045891308a" x="108" y="471.05033" style="stroke: #000000; stroke-width: 2"/>
      </g>
     </g>
     <g id="text_8">
      <!-- 90.5 -->
      <g transform="translate(70.259062 476.341892) scale(0.14 -0.14)">
       <defs>
        <path id="Avenir-Book-39" d="M 2790 3206 
Q 2790 3424 2716 3603 
Q 2643 3782 2508 3910 
Q 2374 4038 2188 4112 
Q 2003 4186 1779 4186 
Q 1555 4186 1369 4112 
Q 1184 4038 1049 3910 
Q 915 3782 841 3603 
Q 768 3424 768 3206 
Q 768 2989 841 2809 
Q 915 2630 1049 2499 
Q 1184 2368 1369 2297 
Q 1555 2227 1779 2227 
Q 2003 2227 2188 2297 
Q 2374 2368 2508 2499 
Q 2643 2630 2716 2809 
Q 2790 2989 2790 3206 
z
M 2330 1946 
L 2317 1958 
Q 2208 1882 2025 1843 
Q 1843 1805 1690 1805 
Q 1395 1805 1142 1910 
Q 890 2016 704 2201 
Q 518 2387 412 2643 
Q 307 2899 307 3206 
Q 307 3520 416 3776 
Q 525 4032 723 4217 
Q 922 4403 1190 4505 
Q 1459 4608 1779 4608 
Q 2099 4608 2368 4505 
Q 2637 4403 2835 4217 
Q 3034 4032 3142 3776 
Q 3251 3520 3251 3206 
Q 3251 2829 3139 2547 
Q 3027 2266 2861 1990 
L 1638 0 
L 1094 0 
L 2330 1946 
z
" transform="scale(0.015625)"/>
        <path id="Avenir-Book-2e" d="M 1235 307 
Q 1235 173 1139 67 
Q 1043 -38 890 -38 
Q 736 -38 640 67 
Q 544 173 544 307 
Q 544 442 640 547 
Q 736 653 890 653 
Q 1043 653 1139 547 
Q 1235 442 1235 307 
z
" transform="scale(0.015625)"/>
       </defs>
       <use xlink:href="#Avenir-Book-39"/>
       <use xlink:href="#Avenir-Book-30" transform="translate(55.599991 0)"/>
       <use xlink:href="#Avenir-Book-2e" transform="translate(111.199982 0)"/>
       <use xlink:href="#Avenir-Book-35" transform="translate(138.999969 0)"/>
      </g>
     </g>
    </g>
    <g id="ytick_2">
     <g id="line2d_26">
      <g>
       <use xlink:href="#m045891308a" x="108" y="394.696264" style="stroke: #000000; stroke-width: 2"/>
      </g>
     </g>
     <g id="text_9">
      <!-- 91.0 -->
      <g transform="translate(70.259062 399.987826) scale(0.14 -0.14)">
       <use xlink:href="#Avenir-Book-39"/>
       <use xlink:href="#Avenir-Book-31" transform="translate(55.599991 0)"/>
       <use xlink:href="#Avenir-Book-2e" transform="translate(111.199982 0)"/>
       <use xlink:href="#Avenir-Book-30" transform="translate(138.999969 0)"/>
      </g>
     </g>
    </g>
    <g id="ytick_3">
     <g id="line2d_27">
      <g>
       <use xlink:href="#m045891308a" x="108" y="318.342198" style="stroke: #000000; stroke-width: 2"/>
      </g>
     </g>
     <g id="text_10">
      <!-- 91.5 -->
      <g transform="translate(70.259062 323.63376) scale(0.14 -0.14)">
       <use xlink:href="#Avenir-Book-39"/>
       <use xlink:href="#Avenir-Book-31" transform="translate(55.599991 0)"/>
       <use xlink:href="#Avenir-Book-2e" transform="translate(111.199982 0)"/>
       <use xlink:href="#Avenir-Book-35" transform="translate(138.999969 0)"/>
      </g>
     </g>
    </g>
    <g id="ytick_4">
     <g id="line2d_28">
      <g>
       <use xlink:href="#m045891308a" x="108" y="241.988132" style="stroke: #000000; stroke-width: 2"/>
      </g>
     </g>
     <g id="text_11">
      <!-- 92.0 -->
      <g transform="translate(70.259062 247.279694) scale(0.14 -0.14)">
       <use xlink:href="#Avenir-Book-39"/>
       <use xlink:href="#Avenir-Book-32" transform="translate(55.599991 0)"/>
       <use xlink:href="#Avenir-Book-2e" transform="translate(111.199982 0)"/>
       <use xlink:href="#Avenir-Book-30" transform="translate(138.999969 0)"/>
      </g>
     </g>
    </g>
    <g id="ytick_5">
     <g id="line2d_29">
      <g>
       <use xlink:href="#m045891308a" x="108" y="165.634066" style="stroke: #000000; stroke-width: 2"/>
      </g>
     </g>
     <g id="text_12">
      <!-- 92.5 -->
      <g transform="translate(70.259062 170.925628) scale(0.14 -0.14)">
       <use xlink:href="#Avenir-Book-39"/>
       <use xlink:href="#Avenir-Book-32" transform="translate(55.599991 0)"/>
       <use xlink:href="#Avenir-Book-2e" transform="translate(111.199982 0)"/>
       <use xlink:href="#Avenir-Book-35" transform="translate(138.999969 0)"/>
      </g>
     </g>
    </g>
    <g id="ytick_6">
     <g id="line2d_30">
      <g>
       <use xlink:href="#m045891308a" x="108" y="89.28" style="stroke: #000000; stroke-width: 2"/>
      </g>
     </g>
     <g id="text_13">
      <!-- 93.0 -->
      <g transform="translate(70.259062 94.571562) scale(0.14 -0.14)">
       <use xlink:href="#Avenir-Book-39"/>
       <use xlink:href="#Avenir-Book-33" transform="translate(55.599991 0)"/>
       <use xlink:href="#Avenir-Book-2e" transform="translate(111.199982 0)"/>
       <use xlink:href="#Avenir-Book-30" transform="translate(138.999969 0)"/>
      </g>
     </g>
    </g>
    <g id="ytick_7">
     <g id="line2d_31">
      <defs>
       <path id="me8ed79d377" d="M 0 0 
L -4 0 
" style="stroke: #000000; stroke-width: 2"/>
      </defs>
      <g>
       <use xlink:href="#me8ed79d377" x="108" y="501.591956" style="stroke: #000000; stroke-width: 2"/>
      </g>
     </g>
    </g>
    <g id="ytick_8">
     <g id="line2d_32">
      <g>
       <use xlink:href="#me8ed79d377" x="108" y="486.321143" style="stroke: #000000; stroke-width: 2"/>
      </g>
     </g>
    </g>
    <g id="ytick_9">
     <g id="line2d_33">
      <g>
       <use xlink:href="#me8ed79d377" x="108" y="455.779516" style="stroke: #000000; stroke-width: 2"/>
      </g>
     </g>
    </g>
    <g id="ytick_10">
     <g id="line2d_34">
      <g>
       <use xlink:href="#me8ed79d377" x="108" y="440.508703" style="stroke: #000000; stroke-width: 2"/>
      </g>
     </g>
    </g>
    <g id="ytick_11">
     <g id="line2d_35">
      <g>
       <use xlink:href="#me8ed79d377" x="108" y="425.23789" style="stroke: #000000; stroke-width: 2"/>
      </g>
     </g>
    </g>
    <g id="ytick_12">
     <g id="line2d_36">
      <g>
       <use xlink:href="#me8ed79d377" x="108" y="409.967077" style="stroke: #000000; stroke-width: 2"/>
      </g>
     </g>
    </g>
    <g id="ytick_13">
     <g id="line2d_37">
      <g>
       <use xlink:href="#me8ed79d377" x="108" y="379.425451" style="stroke: #000000; stroke-width: 2"/>
      </g>
     </g>
    </g>
    <g id="ytick_14">
     <g id="line2d_38">
      <g>
       <use xlink:href="#me8ed79d377" x="108" y="364.154637" style="stroke: #000000; stroke-width: 2"/>
      </g>
     </g>
    </g>
    <g id="ytick_15">
     <g id="line2d_39">
      <g>
       <use xlink:href="#me8ed79d377" x="108" y="348.883824" style="stroke: #000000; stroke-width: 2"/>
      </g>
     </g>
    </g>
    <g id="ytick_16">
     <g id="line2d_40">
      <g>
       <use xlink:href="#me8ed79d377" x="108" y="333.613011" style="stroke: #000000; stroke-width: 2"/>
      </g>
     </g>
    </g>
    <g id="ytick_17">
     <g id="line2d_41">
      <g>
       <use xlink:href="#me8ed79d377" x="108" y="303.071385" style="stroke: #000000; stroke-width: 2"/>
      </g>
     </g>
    </g>
    <g id="ytick_18">
     <g id="line2d_42">
      <g>
       <use xlink:href="#me8ed79d377" x="108" y="287.800571" style="stroke: #000000; stroke-width: 2"/>
      </g>
     </g>
    </g>
    <g id="ytick_19">
     <g id="line2d_43">
      <g>
       <use xlink:href="#me8ed79d377" x="108" y="272.529758" style="stroke: #000000; stroke-width: 2"/>
      </g>
     </g>
    </g>
    <g id="ytick_20">
     <g id="line2d_44">
      <g>
       <use xlink:href="#me8ed79d377" x="108" y="257.258945" style="stroke: #000000; stroke-width: 2"/>
      </g>
     </g>
    </g>
    <g id="ytick_21">
     <g id="line2d_45">
      <g>
       <use xlink:href="#me8ed79d377" x="108" y="226.717319" style="stroke: #000000; stroke-width: 2"/>
      </g>
     </g>
    </g>
    <g id="ytick_22">
     <g id="line2d_46">
      <g>
       <use xlink:href="#me8ed79d377" x="108" y="211.446505" style="stroke: #000000; stroke-width: 2"/>
      </g>
     </g>
    </g>
    <g id="ytick_23">
     <g id="line2d_47">
      <g>
       <use xlink:href="#me8ed79d377" x="108" y="196.175692" style="stroke: #000000; stroke-width: 2"/>
      </g>
     </g>
    </g>
    <g id="ytick_24">
     <g id="line2d_48">
      <g>
       <use xlink:href="#me8ed79d377" x="108" y="180.904879" style="stroke: #000000; stroke-width: 2"/>
      </g>
     </g>
    </g>
    <g id="ytick_25">
     <g id="line2d_49">
      <g>
       <use xlink:href="#me8ed79d377" x="108" y="150.363253" style="stroke: #000000; stroke-width: 2"/>
      </g>
     </g>
    </g>
    <g id="ytick_26">
     <g id="line2d_50">
      <g>
       <use xlink:href="#me8ed79d377" x="108" y="135.09244" style="stroke: #000000; stroke-width: 2"/>
      </g>
     </g>
    </g>
    <g id="ytick_27">
     <g id="line2d_51">
      <g>
       <use xlink:href="#me8ed79d377" x="108" y="119.821626" style="stroke: #000000; stroke-width: 2"/>
      </g>
     </g>
    </g>
    <g id="ytick_28">
     <g id="line2d_52">
      <g>
       <use xlink:href="#me8ed79d377" x="108" y="104.550813" style="stroke: #000000; stroke-width: 2"/>
      </g>
     </g>
    </g>
    <g id="ytick_29">
     <g id="line2d_53">
      <g>
       <use xlink:href="#me8ed79d377" x="108" y="74.009187" style="stroke: #000000; stroke-width: 2"/>
      </g>
     </g>
    </g>
    <g id="text_14">
     <!-- Fo# -->
     <g transform="translate(60.499688 307.928437) rotate(-90) scale(0.2 -0.2)">
      <defs>
       <path id="Avenir-Book-46" d="M 1075 0 
L 614 0 
L 614 4531 
L 3347 4531 
L 3347 4109 
L 1075 4109 
L 1075 2566 
L 3187 2566 
L 3187 2144 
L 1075 2144 
L 1075 0 
z
" transform="scale(0.015625)"/>
       <path id="Avenir-Book-23" d="M 1318 1754 
L 2170 1754 
L 2310 2790 
L 1459 2790 
L 1318 1754 
z
M 877 1370 
L 224 1370 
L 224 1754 
L 928 1754 
L 1069 2790 
L 378 2790 
L 378 3174 
L 1126 3174 
L 1312 4531 
L 1702 4531 
L 1517 3174 
L 2368 3174 
L 2554 4531 
L 2944 4531 
L 2758 3174 
L 3334 3174 
L 3334 2790 
L 2701 2790 
L 2560 1754 
L 3168 1754 
L 3168 1370 
L 2509 1370 
L 2317 0 
L 1926 0 
L 2118 1370 
L 1267 1370 
L 1075 0 
L 685 0 
L 877 1370 
z
" transform="scale(0.015625)"/>
      </defs>
      <use xlink:href="#Avenir-Book-46"/>
      <use xlink:href="#Avenir-Book-6f" transform="translate(55.599991 0)"/>
      <use xlink:href="#Avenir-Book-23" transform="translate(114.899979 0)"/>
     </g>
    </g>
   </g>
   <g id="line2d_54">
    <path d="M 195.121489 243.428069 
L 227.624182 205.227929 
L 260.017454 189.856168 
L 292.520147 218.555359 
L 324.913419 226.712868 
L 357.416112 228.456663 
L 389.809385 294.509835 
L 422.312077 316.18934 
L 454.686092 355.05219 
L 487.188784 377.474961 
L 519.582057 403.179654 
L 552.084749 388.197925 
L 584.478022 445.210344 
L 616.980714 462.641993 
L 649.373987 446.385839 
L 681.876679 469.443989 
L 714.269952 487.096267 
L 746.772644 475.212701 
" clip-path="url(#p427c8cc7c0)" style="fill: none; stroke-dasharray: 7.4,3.2; stroke-dashoffset: 0; stroke: #f47e1f; stroke-width: 2"/>
    <defs>
     <path id="m576e7868b8" d="M 0 6 
C 1.591219 6 3.117479 5.367802 4.242641 4.242641 
C 5.367802 3.117479 6 1.591219 6 0 
C 6 -1.591219 5.367802 -3.117479 4.242641 -4.242641 
C 3.117479 -5.367802 1.591219 -6 0 -6 
C -1.591219 -6 -3.117479 -5.367802 -4.242641 -4.242641 
C -5.367802 -3.117479 -6 -1.591219 -6 0 
C -6 1.591219 -5.367802 3.117479 -4.242641 4.242641 
C -3.117479 5.367802 -1.591219 6 0 6 
z
" style="stroke: #f47e1f"/>
    </defs>
    <g clip-path="url(#p427c8cc7c0)">
     <use xlink:href="#m576e7868b8" x="195.121489" y="243.428069" style="fill: #f47e1f; stroke: #f47e1f"/>
     <use xlink:href="#m576e7868b8" x="227.624182" y="205.227929" style="fill: #f47e1f; stroke: #f47e1f"/>
     <use xlink:href="#m576e7868b8" x="260.017454" y="189.856168" style="fill: #f47e1f; stroke: #f47e1f"/>
     <use xlink:href="#m576e7868b8" x="292.520147" y="218.555359" style="fill: #f47e1f; stroke: #f47e1f"/>
     <use xlink:href="#m576e7868b8" x="324.913419" y="226.712868" style="fill: #f47e1f; stroke: #f47e1f"/>
     <use xlink:href="#m576e7868b8" x="357.416112" y="228.456663" style="fill: #f47e1f; stroke: #f47e1f"/>
     <use xlink:href="#m576e7868b8" x="389.809385" y="294.509835" style="fill: #f47e1f; stroke: #f47e1f"/>
     <use xlink:href="#m576e7868b8" x="422.312077" y="316.18934" style="fill: #f47e1f; stroke: #f47e1f"/>
     <use xlink:href="#m576e7868b8" x="454.686092" y="355.05219" style="fill: #f47e1f; stroke: #f47e1f"/>
     <use xlink:href="#m576e7868b8" x="487.188784" y="377.474961" style="fill: #f47e1f; stroke: #f47e1f"/>
     <use xlink:href="#m576e7868b8" x="519.582057" y="403.179654" style="fill: #f47e1f; stroke: #f47e1f"/>
     <use xlink:href="#m576e7868b8" x="552.084749" y="388.197925" style="fill: #f47e1f; stroke: #f47e1f"/>
     <use xlink:href="#m576e7868b8" x="584.478022" y="445.210344" style="fill: #f47e1f; stroke: #f47e1f"/>
     <use xlink:href="#m576e7868b8" x="616.980714" y="462.641993" style="fill: #f47e1f; stroke: #f47e1f"/>
     <use xlink:href="#m576e7868b8" x="649.373987" y="446.385839" style="fill: #f47e1f; stroke: #f47e1f"/>
     <use xlink:href="#m576e7868b8" x="681.876679" y="469.443989" style="fill: #f47e1f; stroke: #f47e1f"/>
     <use xlink:href="#m576e7868b8" x="714.269952" y="487.096267" style="fill: #f47e1f; stroke: #f47e1f"/>
     <use xlink:href="#m576e7868b8" x="746.772644" y="475.212701" style="fill: #f47e1f; stroke: #f47e1f"/>
    </g>
   </g>
   <g id="line2d_55">
    <path d="M 130.225524 188.335006 
L 136.516821 191.793128 
L 142.808119 195.251251 
L 149.099416 198.709373 
L 155.390713 202.167495 
L 161.68201 205.625617 
L 167.973307 209.083739 
L 174.264604 212.541861 
L 180.555901 215.999984 
L 186.847199 219.458106 
L 193.138496 222.916228 
L 199.429793 219.542091 
L 205.72109 213.723237 
L 212.012387 208.735318 
L 218.303684 204.578337 
L 224.594981 201.252292 
L 230.886279 197.829503 
L 237.177576 194.405992 
L 243.468873 191.852654 
L 249.76017 190.16949 
L 256.051467 189.356499 
L 262.342764 189.742982 
L 268.634061 191.561253 
L 274.925359 194.24965 
L 281.216656 197.808172 
L 287.507953 202.236821 
L 293.79925 206.381485 
L 300.090547 206.87497 
L 306.381844 208.240399 
L 312.673141 210.477774 
L 318.964439 213.587095 
L 325.255736 217.345242 
L 331.547033 218.096938 
L 337.83833 219.718839 
L 344.129627 222.210946 
L 350.420924 225.573258 
L 356.712221 229.805776 
L 363.003519 236.929034 
L 369.294816 245.178687 
L 375.586113 254.30029 
L 381.87741 264.293843 
L 388.168707 275.159345 
L 394.460004 280.939867 
L 400.751301 285.489309 
L 407.042598 290.908971 
L 413.333896 297.198855 
L 419.625193 304.358959 
L 425.91649 310.324669 
L 432.207787 315.623171 
L 438.499084 321.793959 
L 444.790381 328.837032 
L 451.081678 336.752391 
L 457.372976 342.824354 
L 463.664273 346.124082 
L 469.95557 350.294031 
L 476.246867 355.334201 
L 482.538164 361.244592 
L 488.829461 366.672678 
L 495.120758 369.138241 
L 501.412056 372.475754 
L 507.703353 376.685217 
L 513.99465 381.766629 
L 520.285947 386.831399 
L 526.577244 385.713602 
L 532.868541 385.466011 
L 539.159838 386.088625 
L 545.451136 387.581445 
L 551.742433 389.94447 
L 558.03373 395.341508 
L 564.325027 401.734956 
L 570.616324 409.000354 
L 576.907621 417.1377 
L 583.198918 426.146996 
L 589.490216 429.26922 
L 595.781513 431.536936 
L 602.07281 434.674858 
L 608.364107 438.682985 
L 614.655404 443.561317 
L 620.946701 443.986578 
L 627.237998 442.162357 
L 633.529296 441.21008 
L 639.820593 441.129749 
L 646.11189 441.921363 
L 652.403187 443.156654 
L 658.694484 444.801347 
L 664.985781 447.316165 
L 671.277078 450.701108 
L 677.568375 454.956178 
L 683.859673 458.487308 
L 690.15097 459.425286 
L 696.442267 461.233438 
L 702.733564 463.911763 
L 709.024861 467.460262 
L 715.316158 470.568844 
L 721.607455 467.956666 
L 727.898753 466.175425 
L 734.19005 465.225121 
L 740.481347 465.105753 
L 746.772644 475.212701 
" clip-path="url(#p427c8cc7c0)" style="fill: none; stroke-dasharray: 3.7,1.6; stroke-dashoffset: 0; stroke: #000000"/>
   </g>
   <g id="line2d_56">
    <path d="M 130.225524 281.518149 
L 136.516821 278.060027 
L 142.808119 274.601905 
L 149.099416 271.143783 
L 155.390713 267.68566 
L 161.68201 264.227538 
L 167.973307 260.769416 
L 174.264604 257.311294 
L 180.555901 253.853172 
L 186.847199 250.395049 
L 193.138496 246.936927 
L 199.429793 243.719182 
L 205.72109 239.912094 
L 212.012387 235.274069 
L 218.303684 229.805107 
L 224.594981 223.505209 
L 230.886279 220.139709 
L 237.177576 219.409992 
L 243.468873 217.810101 
L 249.76017 215.340037 
L 256.051467 211.9998 
L 262.342764 211.441175 
L 268.634061 216.240801 
L 274.925359 220.1703 
L 281.216656 223.229674 
L 287.507953 225.418923 
L 293.79925 227.41073 
L 300.090547 231.167246 
L 306.381844 234.051816 
L 312.673141 236.064441 
L 318.964439 237.20512 
L 325.255736 237.739643 
L 331.547033 242.022172 
L 337.83833 245.434495 
L 344.129627 247.976612 
L 350.420924 249.648524 
L 356.712221 250.450231 
L 363.003519 260.380903 
L 369.294816 270.699398 
L 375.586113 280.145944 
L 381.87741 288.720539 
L 388.168707 296.423186 
L 394.460004 303.939952 
L 400.751301 310.82831 
L 407.042598 316.846446 
L 413.333896 321.994361 
L 419.625193 326.272056 
L 425.91649 332.761687 
L 432.207787 340.677046 
L 438.499084 347.72012 
L 444.790381 353.890908 
L 451.081678 359.18941 
L 457.372976 364.737451 
L 463.664273 370.919589 
L 469.95557 376.231506 
L 476.246867 380.673202 
L 482.538164 384.244678 
L 488.829461 387.936519 
L 495.120758 393.564938 
L 501.412056 398.321408 
L 507.703353 402.205928 
L 513.99465 405.218498 
L 520.285947 407.475854 
L 526.577244 409.788868 
L 532.868541 411.231675 
L 539.159838 411.804277 
L 545.451136 411.506673 
L 551.742433 410.338864 
L 558.03373 418.959513 
L 564.325027 427.321582 
L 570.616324 434.811702 
L 576.907621 441.429873 
L 583.198918 447.176095 
L 589.490216 452.45094 
L 595.781513 456.957627 
L 602.07281 460.594109 
L 608.364107 463.360385 
L 614.655404 465.256455 
L 620.946701 466.622635 
L 627.237998 467.316722 
L 633.529296 467.138864 
L 639.820593 466.08906 
L 646.11189 464.167311 
L 652.403187 465.2722 
L 658.694484 469.704813 
L 664.985781 473.2673 
L 671.277078 475.959662 
L 677.568375 477.781897 
L 683.859673 479.973304 
L 690.15097 483.987079 
L 696.442267 487.130682 
L 702.733564 489.404111 
L 709.024861 490.807366 
L 715.316158 491.539952 
L 721.607455 492.425444 
L 727.898753 492.48 
L 734.19005 491.703619 
L 740.481347 490.096301 
L 746.772644 475.212701 
" clip-path="url(#p427c8cc7c0)" style="fill: none; stroke-dasharray: 3.7,1.6; stroke-dashoffset: 0; stroke: #000000"/>
   </g>
   <g id="line2d_57">
    <path d="M 130.225524 318.342198 
L 136.516821 89.28 
L 142.808119 89.28 
L 149.099416 89.28 
L 155.390713 89.28 
L 161.68201 89.28 
L 167.973307 89.28 
L 174.264604 89.28 
L 180.555901 89.28 
L 186.847199 89.28 
L 193.138496 89.28 
L 199.429793 89.28 
L 205.72109 89.28 
L 212.012387 89.28 
L 218.303684 89.28 
L 224.594981 89.28 
L 230.886279 89.28 
L 237.177576 89.28 
L 243.468873 89.28 
L 249.76017 89.28 
L 256.051467 89.28 
L 262.342764 89.28 
L 268.634061 89.28 
L 274.925359 89.28 
L 281.216656 89.28 
L 287.507953 89.28 
L 293.79925 89.28 
L 300.090547 89.28 
L 306.381844 89.28 
L 312.673141 89.28 
L 318.964439 89.28 
L 325.255736 89.28 
L 331.547033 89.28 
L 337.83833 89.28 
L 344.129627 89.28 
L 350.420924 89.28 
L 356.712221 89.28 
L 363.003519 89.28 
L 369.294816 89.28 
L 375.586113 89.28 
L 381.87741 89.28 
L 388.168707 89.28 
L 394.460004 89.28 
L 400.751301 89.28 
L 407.042598 89.28 
L 413.333896 89.28 
L 419.625193 477.158655 
L 425.91649 477.158655 
L 432.207787 477.158655 
L 438.499084 477.158655 
L 444.790381 477.158655 
L 451.081678 477.158655 
L 457.372976 477.158655 
L 463.664273 477.158655 
L 469.95557 477.158655 
L 476.246867 477.158655 
L 482.538164 477.158655 
L 488.829461 477.158655 
L 495.120758 477.158655 
L 501.412056 477.158655 
L 507.703353 477.158655 
L 513.99465 477.158655 
L 520.285947 477.158655 
L 526.577244 477.158655 
L 532.868541 477.158655 
L 539.159838 477.158655 
L 545.451136 477.158655 
L 551.742433 477.158655 
L 558.03373 477.158655 
L 564.325027 477.158655 
L 570.616324 477.158655 
L 576.907621 477.158655 
L 583.198918 477.158655 
L 589.490216 477.158655 
L 595.781513 477.158655 
L 602.07281 477.158655 
L 608.364107 477.158655 
L 614.655404 477.158655 
L 620.946701 477.158655 
L 627.237998 477.158655 
L 633.529296 477.158655 
L 639.820593 477.158655 
L 646.11189 477.158655 
L 652.403187 477.158655 
L 658.694484 477.158655 
L 664.985781 477.158655 
L 671.277078 477.158655 
L 677.568375 477.158655 
L 683.859673 477.158655 
L 690.15097 477.158655 
L 696.442267 477.158655 
L 702.733564 477.158655 
L 709.024861 477.158655 
L 715.316158 477.158655 
L 721.607455 477.158655 
L 727.898753 477.158655 
L 734.19005 477.158655 
L 740.481347 477.158655 
" clip-path="url(#p427c8cc7c0)" style="fill: none; stroke-dasharray: 7.4,3.2; stroke-dashoffset: 0; stroke: #1b878c; stroke-width: 2"/>
   </g>
   <g id="line2d_58">
    <path d="M 130.225524 311.496026 
L 136.516821 304.635443 
L 142.808119 297.788927 
L 149.099416 290.985589 
L 155.390713 284.255043 
L 161.68201 277.627254 
L 167.973307 271.132381 
L 174.264604 264.800599 
L 180.555901 258.661911 
L 186.847199 252.745947 
L 193.138496 247.081756 
L 199.429793 241.697584 
L 205.72109 236.620659 
L 212.012387 231.876961 
L 218.303684 227.491007 
L 224.594981 223.485627 
L 230.886279 219.881765 
L 237.177576 216.69828 
L 243.468873 213.951766 
L 249.76017 211.6564 
L 256.051467 209.823801 
L 262.342764 208.462922 
L 268.634061 207.57997 
L 274.925359 207.178355 
L 281.216656 207.258667 
L 287.507953 207.818689 
L 293.79925 208.853442 
L 300.090547 210.355253 
L 306.381844 212.313863 
L 312.673141 214.716555 
L 318.964439 217.548304 
L 325.255736 220.791958 
L 331.547033 224.428427 
L 337.83833 228.436893 
L 344.129627 232.795029 
L 350.420924 237.479221 
L 356.712221 242.464802 
L 363.003519 247.726279 
L 369.294816 253.237557 
L 375.586113 258.972164 
L 381.87741 264.903458 
L 388.168707 271.00483 
L 394.460004 277.249892 
L 400.751301 283.61265 
L 407.042598 290.067668 
L 413.333896 296.590204 
L 419.625193 303.156346 
L 425.91649 309.743116 
L 432.207787 316.328573 
L 438.499084 322.891888 
L 444.790381 329.413411 
L 451.081678 335.874723 
L 457.372976 342.258672 
L 463.664273 348.5494 
L 469.95557 354.732358 
L 476.246867 360.794303 
L 482.538164 366.7233 
L 488.829461 372.508702 
L 495.120758 378.141129 
L 501.412056 383.612437 
L 507.703353 388.915686 
L 513.99465 394.045099 
L 520.285947 398.996015 
L 526.577244 403.764846 
L 532.868541 408.349022 
L 539.159838 412.746939 
L 545.451136 416.957909 
L 551.742433 420.982096 
L 558.03373 424.820467 
L 564.325027 428.474732 
L 570.616324 431.947288 
L 576.907621 435.241165 
L 583.198918 438.359968 
L 589.490216 441.307827 
L 595.781513 444.08934 
L 602.07281 446.70953 
L 608.364107 449.17379 
L 614.655404 451.487839 
L 620.946701 453.657681 
L 627.237998 455.68956 
L 633.529296 457.589924 
L 639.820593 459.365388 
L 646.11189 461.022703 
L 652.403187 462.568727 
L 658.694484 464.010395 
L 664.985781 465.354697 
L 671.277078 466.60866 
L 677.568375 467.779326 
L 683.859673 468.873741 
L 690.15097 469.898941 
L 696.442267 470.86194 
L 702.733564 471.769731 
L 709.024861 472.62927 
L 715.316158 473.447484 
L 721.607455 474.231263 
L 727.898753 474.987462 
L 734.19005 475.722903 
L 740.481347 476.444379 
" clip-path="url(#p427c8cc7c0)" style="fill: none; stroke: #1fbecf; stroke-opacity: 0.8; stroke-width: 6; stroke-linecap: square"/>
   </g>
   <g id="patch_3">
    <path d="M 108 512.64 
L 108 69.12 
" style="fill: none; stroke: #000000; stroke-width: 2; stroke-linejoin: miter; stroke-linecap: square"/>
   </g>
   <g id="patch_4">
    <path d="M 777.6 512.64 
L 777.6 69.12 
" style="fill: none; stroke: #000000; stroke-width: 2; stroke-linejoin: miter; stroke-linecap: square"/>
   </g>
   <g id="patch_5">
    <path d="M 108 512.64 
L 777.6 512.64 
" style="fill: none; stroke: #000000; stroke-width: 2; stroke-linejoin: miter; stroke-linecap: square"/>
   </g>
   <g id="patch_6">
    <path d="M 108 69.12 
L 777.6 69.12 
" style="fill: none; stroke: #000000; stroke-width: 2; stroke-linejoin: miter; stroke-linecap: square"/>
   </g>
   <g id="text_15">
    <!-- GCB1A R31_MP_Ol5_prof_2 -->
    <g transform="translate(335.270813 42.799875) scale(0.168 -0.168)">
     <defs>
      <path id="Avenir-Book-47" d="M 3962 3699 
Q 3731 3942 3411 4083 
Q 3091 4224 2669 4224 
Q 2234 4224 1888 4064 
Q 1542 3904 1302 3635 
Q 1062 3366 934 3011 
Q 806 2656 806 2266 
Q 806 1875 934 1520 
Q 1062 1165 1302 896 
Q 1542 627 1888 467 
Q 2234 307 2669 307 
Q 3021 307 3344 393 
Q 3667 480 3923 627 
L 3923 2144 
L 2842 2144 
L 2842 2566 
L 4384 2566 
L 4384 346 
Q 4000 122 3542 3 
Q 3085 -115 2669 -115 
Q 2163 -115 1731 64 
Q 1299 243 982 560 
Q 666 877 486 1312 
Q 307 1747 307 2266 
Q 307 2784 486 3219 
Q 666 3654 982 3971 
Q 1299 4288 1731 4467 
Q 2163 4646 2669 4646 
Q 3213 4646 3606 4496 
Q 4000 4346 4307 4038 
L 3962 3699 
z
" transform="scale(0.015625)"/>
      <path id="Avenir-Book-43" d="M 4346 717 
Q 4230 544 4060 390 
Q 3891 237 3673 125 
Q 3456 13 3203 -51 
Q 2950 -115 2669 -115 
Q 2163 -115 1731 64 
Q 1299 243 982 560 
Q 666 877 486 1312 
Q 307 1747 307 2266 
Q 307 2784 486 3219 
Q 666 3654 982 3971 
Q 1299 4288 1731 4467 
Q 2163 4646 2669 4646 
Q 3091 4646 3513 4480 
Q 3936 4314 4237 3930 
L 3834 3629 
Q 3763 3738 3641 3846 
Q 3520 3955 3363 4038 
Q 3206 4122 3027 4173 
Q 2848 4224 2669 4224 
Q 2234 4224 1888 4064 
Q 1542 3904 1302 3635 
Q 1062 3366 934 3011 
Q 806 2656 806 2266 
Q 806 1875 934 1520 
Q 1062 1165 1302 896 
Q 1542 627 1888 467 
Q 2234 307 2669 307 
Q 2848 307 3024 339 
Q 3200 371 3369 448 
Q 3539 525 3689 656 
Q 3840 787 3968 986 
L 4346 717 
z
" transform="scale(0.015625)"/>
      <path id="Avenir-Book-42" d="M 1075 422 
L 1958 422 
Q 2208 422 2425 473 
Q 2643 525 2803 630 
Q 2963 736 3056 896 
Q 3149 1056 3149 1280 
Q 3149 1728 2861 1945 
Q 2573 2163 2016 2163 
L 1075 2163 
L 1075 422 
z
M 1075 2547 
L 2003 2547 
Q 2170 2547 2333 2588 
Q 2496 2630 2627 2726 
Q 2758 2822 2841 2972 
Q 2925 3123 2925 3341 
Q 2925 3411 2896 3539 
Q 2867 3667 2768 3795 
Q 2669 3923 2477 4016 
Q 2285 4109 1958 4109 
L 1075 4109 
L 1075 2547 
z
M 614 4531 
L 1965 4531 
Q 2246 4531 2508 4473 
Q 2771 4416 2976 4281 
Q 3181 4147 3302 3929 
Q 3424 3712 3424 3392 
Q 3424 3021 3216 2755 
Q 3008 2490 2624 2400 
L 2624 2387 
Q 3104 2349 3376 2051 
Q 3648 1754 3648 1254 
Q 3648 1146 3593 934 
Q 3539 723 3366 515 
Q 3194 307 2867 153 
Q 2541 0 1997 0 
L 614 0 
L 614 4531 
z
" transform="scale(0.015625)"/>
      <path id="Avenir-Book-41" d="M 1210 1613 
L 3174 1613 
L 2195 3994 
L 1210 1613 
z
M 538 0 
L 0 0 
L 1971 4531 
L 2419 4531 
L 4390 0 
L 3853 0 
L 3354 1190 
L 1037 1190 
L 538 0 
z
" transform="scale(0.015625)"/>
      <path id="Avenir-Book-5f" d="M 0 -480 
L 3200 -480 
L 3200 -800 
L 0 -800 
L 0 -480 
z
" transform="scale(0.015625)"/>
      <path id="Avenir-Book-4d" d="M 2848 845 
L 4378 4531 
L 5082 4531 
L 5082 0 
L 4621 0 
L 4621 3917 
L 4608 3917 
L 2970 0 
L 2726 0 
L 1088 3917 
L 1075 3917 
L 1075 0 
L 614 0 
L 614 4531 
L 1318 4531 
L 2848 845 
z
" transform="scale(0.015625)"/>
      <path id="Avenir-Book-50" d="M 1075 2528 
L 1818 2528 
Q 2125 2528 2339 2592 
Q 2554 2656 2682 2761 
Q 2810 2867 2867 3011 
Q 2925 3155 2925 3322 
Q 2925 3482 2867 3626 
Q 2810 3770 2682 3878 
Q 2554 3987 2339 4048 
Q 2125 4109 1818 4109 
L 1075 4109 
L 1075 2528 
z
M 614 4531 
L 1933 4531 
Q 2624 4531 3024 4230 
Q 3424 3930 3424 3322 
Q 3424 2714 3024 2410 
Q 2624 2106 1933 2106 
L 1075 2106 
L 1075 0 
L 614 0 
L 614 4531 
z
" transform="scale(0.015625)"/>
      <path id="Avenir-Book-4f" d="M 4531 2266 
Q 4531 2656 4403 3011 
Q 4275 3366 4035 3635 
Q 3795 3904 3449 4064 
Q 3104 4224 2669 4224 
Q 2234 4224 1888 4064 
Q 1542 3904 1302 3635 
Q 1062 3366 934 3011 
Q 806 2656 806 2266 
Q 806 1875 934 1520 
Q 1062 1165 1302 896 
Q 1542 627 1888 467 
Q 2234 307 2669 307 
Q 3104 307 3449 467 
Q 3795 627 4035 896 
Q 4275 1165 4403 1520 
Q 4531 1875 4531 2266 
z
M 5030 2266 
Q 5030 1747 4851 1312 
Q 4672 877 4355 560 
Q 4038 243 3606 64 
Q 3174 -115 2669 -115 
Q 2163 -115 1731 64 
Q 1299 243 982 560 
Q 666 877 486 1312 
Q 307 1747 307 2266 
Q 307 2784 486 3219 
Q 666 3654 982 3971 
Q 1299 4288 1731 4467 
Q 2163 4646 2669 4646 
Q 3174 4646 3606 4467 
Q 4038 4288 4355 3971 
Q 4672 3654 4851 3219 
Q 5030 2784 5030 2266 
z
" transform="scale(0.015625)"/>
      <path id="Avenir-Book-6c" d="M 979 0 
L 557 0 
L 557 4838 
L 979 4838 
L 979 0 
z
" transform="scale(0.015625)"/>
      <path id="Avenir-Book-70" d="M 3194 1498 
Q 3194 1747 3114 1964 
Q 3034 2182 2886 2342 
Q 2739 2502 2531 2595 
Q 2323 2688 2061 2688 
Q 1798 2688 1580 2595 
Q 1363 2502 1203 2342 
Q 1043 2182 953 1964 
Q 864 1747 864 1498 
Q 864 1248 953 1030 
Q 1043 813 1203 653 
Q 1363 493 1580 400 
Q 1798 307 2061 307 
Q 2323 307 2531 400 
Q 2739 493 2886 653 
Q 3034 813 3114 1030 
Q 3194 1248 3194 1498 
z
M 461 2995 
L 883 2995 
L 883 2496 
L 896 2496 
Q 998 2650 1139 2758 
Q 1280 2867 1433 2937 
Q 1587 3008 1750 3040 
Q 1914 3072 2061 3072 
Q 2413 3072 2704 2953 
Q 2995 2835 3206 2624 
Q 3418 2413 3536 2125 
Q 3654 1837 3654 1498 
Q 3654 1158 3536 870 
Q 3418 582 3206 371 
Q 2995 160 2704 41 
Q 2413 -77 2061 -77 
Q 1914 -77 1750 -45 
Q 1587 -13 1433 57 
Q 1280 128 1139 237 
Q 998 346 896 499 
L 883 499 
L 883 -1843 
L 461 -1843 
L 461 2995 
z
" transform="scale(0.015625)"/>
     </defs>
     <use xlink:href="#Avenir-Book-47"/>
     <use xlink:href="#Avenir-Book-43" transform="translate(77.799988 0)"/>
     <use xlink:href="#Avenir-Book-42" transform="translate(148.199982 0)"/>
     <use xlink:href="#Avenir-Book-31" transform="translate(211.199966 0)"/>
     <use xlink:href="#Avenir-Book-41" transform="translate(266.799957 0)"/>
     <use xlink:href="#Avenir-Book-20" transform="translate(335.399948 0)"/>
     <use xlink:href="#Avenir-Book-52" transform="translate(363.199936 0)"/>
     <use xlink:href="#Avenir-Book-33" transform="translate(422.499924 0)"/>
     <use xlink:href="#Avenir-Book-31" transform="translate(478.099915 0)"/>
     <use xlink:href="#Avenir-Book-5f" transform="translate(533.699905 0)"/>
     <use xlink:href="#Avenir-Book-4d" transform="translate(583.69989 0)"/>
     <use xlink:href="#Avenir-Book-50" transform="translate(672.699875 0)"/>
     <use xlink:href="#Avenir-Book-5f" transform="translate(730.099869 0)"/>
     <use xlink:href="#Avenir-Book-4f" transform="translate(780.099854 0)"/>
     <use xlink:href="#Avenir-Book-6c" transform="translate(863.499847 0)"/>
     <use xlink:href="#Avenir-Book-35" transform="translate(887.499832 0)"/>
     <use xlink:href="#Avenir-Book-5f" transform="translate(943.099823 0)"/>
     <use xlink:href="#Avenir-Book-70" transform="translate(993.099808 0)"/>
     <use xlink:href="#Avenir-Book-72" transform="translate(1054.199799 0)"/>
     <use xlink:href="#Avenir-Book-6f" transform="translate(1085.649796 0)"/>
     <use xlink:href="#Avenir-Book-66" transform="translate(1144.949783 0)"/>
     <use xlink:href="#Avenir-Book-5f" transform="translate(1174.549774 0)"/>
     <use xlink:href="#Avenir-Book-32" transform="translate(1224.549759 0)"/>
    </g>
    <!-- Best fit time: 12.6±0.7 days Temperature: 1250.0 ˚C -->
    <g transform="translate(249.750937 63.12) scale(0.168 -0.168)">
     <defs>
      <path id="Avenir-Book-3a" d="M 1235 307 
Q 1235 173 1139 67 
Q 1043 -38 890 -38 
Q 736 -38 640 67 
Q 544 173 544 307 
Q 544 442 640 547 
Q 736 653 890 653 
Q 1043 653 1139 547 
Q 1235 442 1235 307 
z
M 1235 2682 
Q 1235 2547 1139 2441 
Q 1043 2336 890 2336 
Q 736 2336 640 2441 
Q 544 2547 544 2682 
Q 544 2816 640 2921 
Q 736 3027 890 3027 
Q 1043 3027 1139 2921 
Q 1235 2816 1235 2682 
z
" transform="scale(0.015625)"/>
      <path id="Avenir-Book-36" d="M 768 1325 
Q 768 1107 841 928 
Q 915 749 1049 617 
Q 1184 486 1369 416 
Q 1555 346 1779 346 
Q 2003 346 2188 416 
Q 2374 486 2508 617 
Q 2643 749 2716 928 
Q 2790 1107 2790 1325 
Q 2790 1542 2716 1721 
Q 2643 1901 2508 2029 
Q 2374 2157 2188 2230 
Q 2003 2304 1779 2304 
Q 1555 2304 1369 2230 
Q 1184 2157 1049 2029 
Q 915 1901 841 1721 
Q 768 1542 768 1325 
z
M 1229 2586 
L 1242 2573 
Q 1350 2650 1532 2688 
Q 1715 2726 1869 2726 
Q 2163 2726 2416 2620 
Q 2669 2515 2854 2329 
Q 3040 2144 3145 1888 
Q 3251 1632 3251 1325 
Q 3251 1011 3142 755 
Q 3034 499 2835 313 
Q 2637 128 2368 25 
Q 2099 -77 1779 -77 
Q 1459 -77 1190 25 
Q 922 128 723 313 
Q 525 499 416 755 
Q 307 1011 307 1325 
Q 307 1702 419 1984 
Q 531 2266 698 2541 
L 1920 4531 
L 2464 4531 
L 1229 2586 
z
" transform="scale(0.015625)"/>
      <path id="Avenir-Book-b1" d="M 499 691 
L 3763 691 
L 3763 307 
L 499 307 
L 499 691 
z
M 499 2605 
L 1939 2605 
L 1939 3603 
L 2323 3603 
L 2323 2605 
L 3763 2605 
L 3763 2221 
L 2323 2221 
L 2323 1254 
L 1939 1254 
L 1939 2221 
L 499 2221 
L 499 2605 
z
" transform="scale(0.015625)"/>
      <path id="Avenir-Book-37" d="M 3034 4109 
L 1210 0 
L 691 0 
L 2554 4109 
L 346 4109 
L 346 4531 
L 3034 4531 
L 3034 4109 
z
" transform="scale(0.015625)"/>
      <path id="Avenir-Book-64" d="M 717 1498 
Q 717 1248 797 1030 
Q 877 813 1024 653 
Q 1171 493 1379 400 
Q 1587 307 1850 307 
Q 2106 307 2326 400 
Q 2547 493 2707 653 
Q 2867 813 2956 1030 
Q 3046 1248 3046 1498 
Q 3046 1747 2956 1964 
Q 2867 2182 2707 2342 
Q 2547 2502 2326 2595 
Q 2106 2688 1850 2688 
Q 1587 2688 1379 2595 
Q 1171 2502 1024 2342 
Q 877 2182 797 1964 
Q 717 1747 717 1498 
z
M 3450 0 
L 3027 0 
L 3027 499 
L 3014 499 
Q 2912 346 2771 237 
Q 2630 128 2476 57 
Q 2323 -13 2160 -45 
Q 1997 -77 1850 -77 
Q 1498 -77 1206 41 
Q 915 160 704 371 
Q 493 582 374 870 
Q 256 1158 256 1498 
Q 256 1837 374 2125 
Q 493 2413 704 2624 
Q 915 2835 1206 2953 
Q 1498 3072 1850 3072 
Q 1997 3072 2160 3040 
Q 2323 3008 2476 2937 
Q 2630 2867 2771 2758 
Q 2912 2650 3014 2496 
L 3027 2496 
L 3027 4838 
L 3450 4838 
L 3450 0 
z
" transform="scale(0.015625)"/>
      <path id="Avenir-Book-79" d="M 1574 518 
L 2490 2995 
L 3002 2995 
L 1504 -781 
Q 1370 -1126 1162 -1331 
Q 954 -1536 563 -1536 
Q 467 -1536 368 -1529 
Q 269 -1523 173 -1491 
L 218 -1082 
Q 352 -1152 538 -1152 
Q 762 -1152 890 -1011 
Q 1018 -870 1114 -614 
L 1331 -38 
L 102 2995 
L 634 2995 
L 1574 518 
z
" transform="scale(0.015625)"/>
      <path id="Avenir-Book-54" d="M 2067 0 
L 1606 0 
L 1606 4109 
L 90 4109 
L 90 4531 
L 3584 4531 
L 3584 4109 
L 2067 4109 
L 2067 0 
z
" transform="scale(0.015625)"/>
      <path id="Avenir-Book-75" d="M 2624 0 
Q 2611 122 2608 240 
Q 2605 358 2605 480 
L 2592 480 
Q 2522 358 2413 256 
Q 2304 154 2169 80 
Q 2035 6 1884 -35 
Q 1734 -77 1587 -77 
Q 1011 -77 736 227 
Q 461 531 461 1094 
L 461 2995 
L 883 2995 
L 883 1338 
Q 883 1088 921 896 
Q 960 704 1053 573 
Q 1146 442 1302 374 
Q 1459 307 1696 307 
Q 1728 307 1875 332 
Q 2022 358 2185 473 
Q 2349 589 2477 819 
Q 2605 1050 2605 1459 
L 2605 2995 
L 3027 2995 
L 3027 659 
Q 3027 538 3036 352 
Q 3046 166 3059 0 
L 2624 0 
z
" transform="scale(0.015625)"/>
      <path id="Avenir-Book-2da" d="M 1152 4160 
Q 1152 4320 1040 4429 
Q 928 4538 768 4538 
Q 608 4538 496 4429 
Q 384 4320 384 4160 
Q 384 4000 496 3891 
Q 608 3782 768 3782 
Q 928 3782 1040 3891 
Q 1152 4000 1152 4160 
z
M 1382 4160 
Q 1382 4032 1334 3920 
Q 1286 3808 1200 3725 
Q 1114 3642 1002 3597 
Q 890 3552 768 3552 
Q 640 3552 531 3597 
Q 422 3642 336 3725 
Q 250 3808 202 3920 
Q 154 4032 154 4160 
Q 154 4288 202 4400 
Q 250 4512 336 4592 
Q 422 4672 531 4720 
Q 640 4768 768 4768 
Q 890 4768 1002 4720 
Q 1114 4672 1200 4592 
Q 1286 4512 1334 4400 
Q 1382 4288 1382 4160 
z
" transform="scale(0.015625)"/>
     </defs>
     <use xlink:href="#Avenir-Book-42"/>
     <use xlink:href="#Avenir-Book-65" transform="translate(62.999985 0)"/>
     <use xlink:href="#Avenir-Book-73" transform="translate(118.599976 0)"/>
     <use xlink:href="#Avenir-Book-74" transform="translate(161.199966 0)"/>
     <use xlink:href="#Avenir-Book-20" transform="translate(194.399963 0)"/>
     <use xlink:href="#Avenir-Book-66" transform="translate(222.199951 0)"/>
     <use xlink:href="#Avenir-Book-69" transform="translate(251.799942 0)"/>
     <use xlink:href="#Avenir-Book-74" transform="translate(275.799927 0)"/>
     <use xlink:href="#Avenir-Book-20" transform="translate(308.999924 0)"/>
     <use xlink:href="#Avenir-Book-74" transform="translate(336.799911 0)"/>
     <use xlink:href="#Avenir-Book-69" transform="translate(369.999908 0)"/>
     <use xlink:href="#Avenir-Book-6d" transform="translate(393.999893 0)"/>
     <use xlink:href="#Avenir-Book-65" transform="translate(479.199875 0)"/>
     <use xlink:href="#Avenir-Book-3a" transform="translate(534.799866 0)"/>
     <use xlink:href="#Avenir-Book-20" transform="translate(562.599854 0)"/>
     <use xlink:href="#Avenir-Book-31" transform="translate(590.399841 0)"/>
     <use xlink:href="#Avenir-Book-32" transform="translate(645.999832 0)"/>
     <use xlink:href="#Avenir-Book-2e" transform="translate(701.599823 0)"/>
     <use xlink:href="#Avenir-Book-36" transform="translate(729.399811 0)"/>
     <use xlink:href="#Avenir-Book-b1" transform="translate(784.999802 0)"/>
     <use xlink:href="#Avenir-Book-30" transform="translate(851.599792 0)"/>
     <use xlink:href="#Avenir-Book-2e" transform="translate(907.199783 0)"/>
     <use xlink:href="#Avenir-Book-37" transform="translate(934.999771 0)"/>
     <use xlink:href="#Avenir-Book-20" transform="translate(990.599762 0)"/>
     <use xlink:href="#Avenir-Book-64" transform="translate(1018.39975 0)"/>
     <use xlink:href="#Avenir-Book-61" transform="translate(1079.499741 0)"/>
     <use xlink:href="#Avenir-Book-79" transform="translate(1131.399734 0)"/>
     <use xlink:href="#Avenir-Book-73" transform="translate(1179.599731 0)"/>
     <use xlink:href="#Avenir-Book-20" transform="translate(1222.199722 0)"/>
     <use xlink:href="#Avenir-Book-54" transform="translate(1249.99971 0)"/>
     <use xlink:href="#Avenir-Book-65" transform="translate(1296.274704 0)"/>
     <use xlink:href="#Avenir-Book-6d" transform="translate(1351.874695 0)"/>
     <use xlink:href="#Avenir-Book-70" transform="translate(1437.074677 0)"/>
     <use xlink:href="#Avenir-Book-65" transform="translate(1498.174667 0)"/>
     <use xlink:href="#Avenir-Book-72" transform="translate(1553.774658 0)"/>
     <use xlink:href="#Avenir-Book-61" transform="translate(1586.974655 0)"/>
     <use xlink:href="#Avenir-Book-74" transform="translate(1638.874649 0)"/>
     <use xlink:href="#Avenir-Book-75" transform="translate(1672.074646 0)"/>
     <use xlink:href="#Avenir-Book-72" transform="translate(1727.674637 0)"/>
     <use xlink:href="#Avenir-Book-65" transform="translate(1759.124634 0)"/>
     <use xlink:href="#Avenir-Book-3a" transform="translate(1814.724625 0)"/>
     <use xlink:href="#Avenir-Book-20" transform="translate(1842.524612 0)"/>
     <use xlink:href="#Avenir-Book-31" transform="translate(1870.3246 0)"/>
     <use xlink:href="#Avenir-Book-32" transform="translate(1925.924591 0)"/>
     <use xlink:href="#Avenir-Book-35" transform="translate(1981.524582 0)"/>
     <use xlink:href="#Avenir-Book-30" transform="translate(2037.124573 0)"/>
     <use xlink:href="#Avenir-Book-2e" transform="translate(2092.724564 0)"/>
     <use xlink:href="#Avenir-Book-30" transform="translate(2120.524551 0)"/>
     <use xlink:href="#Avenir-Book-20" transform="translate(2176.124542 0)"/>
     <use xlink:href="#Avenir-Book-2da" transform="translate(2203.92453 0)"/>
     <use xlink:href="#Avenir-Book-43" transform="translate(2227.924515 0)"/>
    </g>
   </g>
   <g id="legend_1">
    <g id="patch_7">
     <path d="M 638.97375 200.241375 
L 767.8 200.241375 
Q 770.6 200.241375 770.6 197.441375 
L 770.6 78.92 
Q 770.6 76.12 767.8 76.12 
L 638.97375 76.12 
Q 636.17375 76.12 636.17375 78.92 
L 636.17375 197.441375 
Q 636.17375 200.241375 638.97375 200.241375 
z
" style="fill: #ffffff; opacity: 0.8; stroke: #cccccc; stroke-linejoin: miter"/>
    </g>
    <g id="line2d_59">
     <path d="M 641.77375 87.403125 
L 655.77375 87.403125 
L 669.77375 87.403125 
" style="fill: none; stroke-dasharray: 7.4,3.2; stroke-dashoffset: 0; stroke: #f47e1f; stroke-width: 2"/>
     <g>
      <use xlink:href="#m576e7868b8" x="655.77375" y="87.403125" style="fill: #f47e1f; stroke: #f47e1f"/>
     </g>
    </g>
    <g id="text_16">
     <!-- Data -->
     <g transform="translate(680.97375 92.303125) scale(0.14 -0.14)">
      <use xlink:href="#Avenir-Book-44"/>
      <use xlink:href="#Avenir-Book-61" transform="translate(74.099991 0)"/>
      <use xlink:href="#Avenir-Book-74" transform="translate(125.999985 0)"/>
      <use xlink:href="#Avenir-Book-61" transform="translate(159.199982 0)"/>
     </g>
    </g>
    <g id="line2d_60">
     <path d="M 641.77375 119.39925 
L 655.77375 119.39925 
L 669.77375 119.39925 
" style="fill: none; stroke-dasharray: 3.7,1.6; stroke-dashoffset: 0; stroke: #000000"/>
    </g>
    <g id="text_17">
     <!-- Interpolation  -->
     <g transform="translate(680.97375 113.917813) scale(0.14 -0.14)">
      <defs>
       <path id="Avenir-Book-49" d="M 1075 0 
L 614 0 
L 614 4531 
L 1075 4531 
L 1075 0 
z
" transform="scale(0.015625)"/>
      </defs>
      <use xlink:href="#Avenir-Book-49"/>
      <use xlink:href="#Avenir-Book-6e" transform="translate(26.399994 0)"/>
      <use xlink:href="#Avenir-Book-74" transform="translate(81.999985 0)"/>
      <use xlink:href="#Avenir-Book-65" transform="translate(115.199982 0)"/>
      <use xlink:href="#Avenir-Book-72" transform="translate(170.799973 0)"/>
      <use xlink:href="#Avenir-Book-70" transform="translate(203.999969 0)"/>
      <use xlink:href="#Avenir-Book-6f" transform="translate(265.09996 0)"/>
      <use xlink:href="#Avenir-Book-6c" transform="translate(324.399948 0)"/>
      <use xlink:href="#Avenir-Book-61" transform="translate(348.399933 0)"/>
      <use xlink:href="#Avenir-Book-74" transform="translate(400.299927 0)"/>
      <use xlink:href="#Avenir-Book-69" transform="translate(433.499924 0)"/>
      <use xlink:href="#Avenir-Book-6f" transform="translate(457.499908 0)"/>
      <use xlink:href="#Avenir-Book-6e" transform="translate(516.799896 0)"/>
      <use xlink:href="#Avenir-Book-20" transform="translate(572.399887 0)"/>
     </g>
     <!--   Uncertainty -->
     <g transform="translate(680.97375 130.649125) scale(0.14 -0.14)">
      <defs>
       <path id="Avenir-Book-55" d="M 3853 1690 
Q 3853 1408 3785 1091 
Q 3718 774 3532 505 
Q 3347 237 3024 61 
Q 2701 -115 2195 -115 
Q 1683 -115 1363 61 
Q 1043 237 857 505 
Q 672 774 605 1091 
Q 538 1408 538 1690 
L 538 4531 
L 998 4531 
L 998 1741 
Q 998 1414 1062 1180 
Q 1126 947 1232 787 
Q 1338 627 1469 534 
Q 1600 442 1731 390 
Q 1862 339 1984 323 
Q 2106 307 2195 307 
Q 2278 307 2403 323 
Q 2528 339 2659 390 
Q 2790 442 2921 534 
Q 3053 627 3158 787 
Q 3264 947 3328 1180 
Q 3392 1414 3392 1741 
L 3392 4531 
L 3853 4531 
L 3853 1690 
z
" transform="scale(0.015625)"/>
      </defs>
      <use xlink:href="#Avenir-Book-20"/>
      <use xlink:href="#Avenir-Book-20" transform="translate(27.799988 0)"/>
      <use xlink:href="#Avenir-Book-55" transform="translate(55.599976 0)"/>
      <use xlink:href="#Avenir-Book-6e" transform="translate(124.199966 0)"/>
      <use xlink:href="#Avenir-Book-63" transform="translate(179.799957 0)"/>
      <use xlink:href="#Avenir-Book-65" transform="translate(227.999954 0)"/>
      <use xlink:href="#Avenir-Book-72" transform="translate(283.599945 0)"/>
      <use xlink:href="#Avenir-Book-74" transform="translate(316.799942 0)"/>
      <use xlink:href="#Avenir-Book-61" transform="translate(349.999939 0)"/>
      <use xlink:href="#Avenir-Book-69" transform="translate(401.899933 0)"/>
      <use xlink:href="#Avenir-Book-6e" transform="translate(425.899918 0)"/>
      <use xlink:href="#Avenir-Book-74" transform="translate(481.499908 0)"/>
      <use xlink:href="#Avenir-Book-79" transform="translate(514.699905 0)"/>
     </g>
    </g>
    <g id="line2d_61">
     <path d="M 641.77375 157.74525 
L 655.77375 157.74525 
L 669.77375 157.74525 
" style="fill: none; stroke-dasharray: 7.4,3.2; stroke-dashoffset: 0; stroke: #1b878c; stroke-width: 2"/>
    </g>
    <g id="text_18">
     <!-- Initial  -->
     <g transform="translate(680.97375 152.263813) scale(0.14 -0.14)">
      <use xlink:href="#Avenir-Book-49"/>
      <use xlink:href="#Avenir-Book-6e" transform="translate(26.399994 0)"/>
      <use xlink:href="#Avenir-Book-69" transform="translate(81.999985 0)"/>
      <use xlink:href="#Avenir-Book-74" transform="translate(105.999969 0)"/>
      <use xlink:href="#Avenir-Book-69" transform="translate(139.199966 0)"/>
      <use xlink:href="#Avenir-Book-61" transform="translate(163.199951 0)"/>
      <use xlink:href="#Avenir-Book-6c" transform="translate(215.099945 0)"/>
      <use xlink:href="#Avenir-Book-20" transform="translate(239.09993 0)"/>
     </g>
     <!--  Condition -->
     <g transform="translate(680.97375 168.995125) scale(0.14 -0.14)">
      <use xlink:href="#Avenir-Book-20"/>
      <use xlink:href="#Avenir-Book-43" transform="translate(27.799988 0)"/>
      <use xlink:href="#Avenir-Book-6f" transform="translate(98.199982 0)"/>
      <use xlink:href="#Avenir-Book-6e" transform="translate(157.499969 0)"/>
      <use xlink:href="#Avenir-Book-64" transform="translate(213.09996 0)"/>
      <use xlink:href="#Avenir-Book-69" transform="translate(274.199951 0)"/>
      <use xlink:href="#Avenir-Book-74" transform="translate(298.199936 0)"/>
      <use xlink:href="#Avenir-Book-69" transform="translate(331.399933 0)"/>
      <use xlink:href="#Avenir-Book-6f" transform="translate(355.399918 0)"/>
      <use xlink:href="#Avenir-Book-6e" transform="translate(414.699905 0)"/>
     </g>
    </g>
    <g id="line2d_62">
     <path d="M 641.77375 185.709813 
L 655.77375 185.709813 
L 669.77375 185.709813 
" style="fill: none; stroke: #1fbecf; stroke-opacity: 0.8; stroke-width: 6; stroke-linecap: square"/>
    </g>
    <g id="text_19">
     <!-- Best fit -->
     <g transform="translate(680.97375 190.609813) scale(0.14 -0.14)">
      <use xlink:href="#Avenir-Book-42"/>
      <use xlink:href="#Avenir-Book-65" transform="translate(62.999985 0)"/>
      <use xlink:href="#Avenir-Book-73" transform="translate(118.599976 0)"/>
      <use xlink:href="#Avenir-Book-74" transform="translate(161.199966 0)"/>
      <use xlink:href="#Avenir-Book-20" transform="translate(194.399963 0)"/>
      <use xlink:href="#Avenir-Book-66" transform="translate(222.199951 0)"/>
      <use xlink:href="#Avenir-Book-69" transform="translate(251.799942 0)"/>
      <use xlink:href="#Avenir-Book-74" transform="translate(275.799927 0)"/>
     </g>
    </g>
   </g>
  </g>
 </g>
 <defs>
  <clipPath id="p427c8cc7c0">
   <rect x="108" y="69.12" width="669.6" height="443.52"/>
  </clipPath>
 </defs>
</svg>
